<svg width="424" height="439" viewBox="0 0 424 439" fill="none" xmlns="http://www.w3.org/2000/svg">
<g clip-path="url(#clip0_191_16274)">
<path d="M172.09 58.0889H7.70423C3.90558 58.0889 0.826172 61.1815 0.826172 64.9964V185.532C0.826172 189.347 3.90558 192.44 7.70423 192.44H172.09C175.888 192.44 178.968 189.347 178.968 185.532V64.9964C178.968 61.1815 175.888 58.0889 172.09 58.0889Z" fill="#FBF6F1"/>
<path d="M27.61 181.987C18.7052 181.987 11.4863 174.662 11.4863 165.627C11.4863 156.592 18.7052 149.268 27.61 149.268C36.5149 149.268 43.7338 156.592 43.7338 165.627C43.7338 174.662 36.5149 181.987 27.61 181.987ZM27.6453 165.558C28.8351 165.558 29.7996 164.592 29.7996 163.401C29.7996 162.209 28.8351 161.243 27.6453 161.243C26.4555 161.243 25.4909 162.209 25.4909 163.401C25.4909 164.592 26.4555 165.558 27.6453 165.558ZM27.6453 166.637C25.4888 166.637 23.7406 168.388 23.7406 170.548H31.55C31.55 168.388 29.8018 166.637 27.6453 166.637Z" fill="#EEE2D8"/>
<path d="M11.4872 87.1027C11.4872 86.3385 12.1005 85.7189 12.8624 85.7189H126.705C127.465 85.7189 128.08 86.3374 128.08 87.1027V136.575C128.08 137.34 127.467 137.959 126.705 137.959H12.8624C12.1029 137.959 11.4872 137.341 11.4872 136.575V87.1027ZM54.613 162.58H144.97C146.376 162.58 147.515 163.725 147.515 165.136V166.516C147.515 167.928 146.376 169.072 144.97 169.072H54.613C53.2073 169.072 52.0677 167.928 52.0677 166.516V165.136C52.0677 163.725 53.2073 162.58 54.613 162.58ZM54.613 173.13H161.147C162.553 173.13 163.693 174.274 163.693 175.686V177.065C163.693 178.477 162.553 179.621 161.147 179.621H54.613C53.2073 179.621 52.0677 178.477 52.0677 177.065V175.686C52.0677 174.274 53.2073 173.13 54.613 173.13ZM54.613 152.031H122.321C123.727 152.031 124.867 153.175 124.867 154.587V155.967C124.867 157.378 123.727 158.523 122.321 158.523H54.613C53.2073 158.523 52.0677 157.378 52.0677 155.967V154.587C52.0677 153.175 53.2073 152.031 54.613 152.031ZM0.826172 64.9979C0.826172 61.1821 3.90532 58.0889 7.70684 58.0889H172.431C176.231 58.0889 179.312 61.1824 179.312 64.9979V73.2854H0.826172V64.9979Z" fill="#EEE2D8"/>
<path d="M141.858 126.532H162.884C164.065 126.532 165.085 126.773 165.926 127.224C166.766 127.676 167.426 128.338 167.876 129.183C168.325 130.027 168.565 131.052 168.565 132.237V132.255C168.565 133.441 168.325 134.465 167.876 135.31C167.426 136.154 166.766 136.816 165.926 137.268C165.085 137.719 164.065 137.96 162.884 137.96H141.858C140.678 137.96 139.657 137.719 138.817 137.268C137.976 136.816 137.316 136.154 136.867 135.31C136.417 134.465 136.178 133.441 136.178 132.255V132.237C136.178 131.052 136.417 130.027 136.867 129.183C137.316 128.338 137.976 127.676 138.817 127.224C139.657 126.773 140.678 126.532 141.858 126.532Z" fill="#EEE2D8"/>
<path d="M10.9702 69.1403C12.7746 69.1403 14.2373 67.6713 14.2373 65.8592C14.2373 64.0471 12.7746 62.5781 10.9702 62.5781C9.16585 62.5781 7.70312 64.0471 7.70312 65.8592C7.70312 67.6713 9.16585 69.1403 10.9702 69.1403Z" fill="#F74930"/>
<path d="M21.6323 69.1403C23.4367 69.1403 24.8994 67.6713 24.8994 65.8592C24.8994 64.0471 23.4367 62.5781 21.6323 62.5781C19.828 62.5781 18.3652 64.0471 18.3652 65.8592C18.3652 67.6713 19.828 69.1403 21.6323 69.1403Z" fill="#FFDF00"/>
<path d="M32.6382 69.1403C34.4425 69.1403 35.9052 67.6713 35.9052 65.8592C35.9052 64.0471 34.4425 62.5781 32.6382 62.5781C30.8338 62.5781 29.3711 64.0471 29.3711 65.8592C29.3711 67.6713 30.8338 69.1403 32.6382 69.1403Z" fill="#00A76F"/>
</g>
<path d="M391.394 248.411H255.347C250.005 248.411 245.643 244.467 245.643 239.637V158.621C245.643 153.792 250.005 149.848 255.347 149.848H391.394C396.736 149.848 401.099 153.792 401.099 158.621V239.597C401.099 244.467 396.736 248.411 391.394 248.411Z" fill="#FBF6F1"/>
<path d="M245.688 149.316C245.688 144.411 249.674 140.435 254.592 140.435H392.15C397.068 140.435 401.055 144.413 401.055 149.316V159.526H245.688V149.316Z" fill="#EEE2D8"/>
<path d="M269.616 195.489H286.756C288.169 195.489 289.316 196.632 289.316 198.041C289.316 199.451 288.169 200.594 286.756 200.594H269.616C268.203 200.594 267.057 199.451 267.057 198.041C267.057 196.632 268.203 195.489 269.616 195.489ZM269.616 223.903H286.756C288.169 223.903 289.316 225.046 289.316 226.456C289.316 227.866 288.169 229.009 286.756 229.009H269.616C268.203 229.009 267.057 227.866 267.057 226.456C267.057 225.046 268.203 223.903 269.616 223.903ZM295.882 195.489H313.021C314.435 195.489 315.581 196.632 315.581 198.041C315.581 199.451 314.435 200.594 313.021 200.594H295.882C294.468 200.594 293.322 199.451 293.322 198.041C293.322 196.632 294.468 195.489 295.882 195.489ZM295.882 223.903H313.021C314.435 223.903 315.581 225.046 315.581 226.456C315.581 227.866 314.435 229.009 313.021 229.009H295.882C294.468 229.009 293.322 227.866 293.322 226.456C293.322 225.046 294.468 223.903 295.882 223.903ZM322.147 195.489H339.287C340.7 195.489 341.846 196.632 341.846 198.041C341.846 199.451 340.7 200.594 339.287 200.594H322.147C320.734 200.594 319.588 199.451 319.588 198.041C319.588 196.632 320.734 195.489 322.147 195.489ZM322.147 223.903H339.287C340.7 223.903 341.846 225.046 341.846 226.456C341.846 227.866 340.7 229.009 339.287 229.009H322.147C320.734 229.009 319.588 227.866 319.588 226.456C319.588 225.046 320.734 223.903 322.147 223.903ZM269.616 181.281H301.447C302.86 181.281 304.006 182.424 304.006 183.834C304.006 185.244 302.86 186.387 301.447 186.387H269.616C268.203 186.387 267.057 185.244 267.057 183.834C267.057 182.424 268.203 181.281 269.616 181.281ZM341.735 181.281H377.572C378.986 181.281 380.132 182.424 380.132 183.834C380.132 185.244 378.986 186.387 377.572 186.387H341.735C340.321 186.387 339.175 185.244 339.175 183.834C339.175 182.424 340.321 181.281 341.735 181.281ZM341.735 209.696H377.572C378.986 209.696 380.132 210.839 380.132 212.249C380.132 213.659 378.986 214.802 377.572 214.802H341.735C340.321 214.802 339.175 213.659 339.175 212.249C339.175 210.839 340.321 209.696 341.735 209.696ZM310.573 209.696H317.028C318.442 209.696 319.588 210.839 319.588 212.249C319.588 213.659 318.442 214.802 317.028 214.802H310.573C309.159 214.802 308.013 213.659 308.013 212.249C308.013 210.839 309.159 209.696 310.573 209.696ZM326.154 181.281H332.609C334.023 181.281 335.169 182.424 335.169 183.834C335.169 185.244 334.023 186.387 332.609 186.387H326.154C324.74 186.387 323.594 185.244 323.594 183.834C323.594 182.424 324.74 181.281 326.154 181.281ZM348.413 195.489H377.572C378.986 195.489 380.132 196.632 380.132 198.041C380.132 199.451 378.986 200.594 377.572 200.594H348.413C346.999 200.594 345.853 199.451 345.853 198.041C345.853 196.632 346.999 195.489 348.413 195.489Z" fill="#EEE2D8"/>
<path d="M269.616 209.695H301.447C302.86 209.695 304.006 210.838 304.006 212.248C304.006 213.658 302.86 214.801 301.447 214.801H269.616C268.203 214.801 267.057 213.658 267.057 212.248C267.057 210.838 268.203 209.695 269.616 209.695ZM326.154 209.695H332.609C334.023 209.695 335.169 210.838 335.169 212.248C335.169 213.658 334.023 214.801 332.609 214.801H326.154C324.74 214.801 323.594 213.658 323.594 212.248C323.594 210.838 324.74 209.695 326.154 209.695Z" fill="#737EF2"/>
<path d="M310.571 181.281H317.027C318.44 181.281 319.586 182.424 319.586 183.834C319.586 185.244 318.44 186.387 317.027 186.387H310.571C309.158 186.387 308.012 185.244 308.012 183.834C308.012 182.424 309.158 181.281 310.571 181.281ZM348.412 223.903H377.571C378.984 223.903 380.131 225.046 380.131 226.456C380.131 227.866 378.984 229.009 377.571 229.009H348.412C346.998 229.009 345.852 227.866 345.852 226.456C345.852 225.046 346.998 223.903 348.412 223.903Z" fill="#FFDF00"/>
<path d="M391.558 187.827L368.703 172.791C368.398 173.008 368.398 173.008 368.123 173.256L376.667 199.515C376.667 199.515 380.023 199.05 382.617 197.562L386.492 202.647C388.025 201.777 389.108 201.093 389.741 200.596C390.374 200.099 391.173 199.305 392.137 198.213L388.262 193.098C389.361 191.331 390.459 189.564 391.558 187.827Z" fill="#FFDF00"/>
<path d="M266.453 350.591H294.145C294.985 350.591 295.72 349.844 295.72 348.949V348.763C295.72 347.867 294.985 347.121 294.075 347.121H268.414C252.87 347.121 237.326 347.121 221.817 347.121H198.011C197.171 347.121 196.436 347.867 196.436 348.763V348.949C196.436 349.844 197.136 350.591 198.011 350.591H231.795L222.482 368.794C215.866 381.776 209.249 394.72 202.597 407.701L191.639 429.113C191.254 429.859 191.569 430.829 192.305 431.277L192.445 431.351C193.18 431.762 194.125 431.538 194.475 430.829L235.47 350.591H262.777L303.773 430.829C304.123 431.538 305.068 431.799 305.803 431.351L305.943 431.277C306.678 430.829 306.993 429.859 306.608 429.113L295.65 407.701C289.034 394.72 282.417 381.776 275.766 368.794L266.453 350.591ZM295.615 335.972V314.283C295.615 297.741 295.615 281.237 295.615 264.734V245.023C295.615 241.933 293.264 239.428 290.364 239.428H233.23C230.33 239.428 227.979 241.933 227.979 245.023V336.036C227.979 339.127 230.33 341.632 233.23 341.632C233.232 341.632 233.234 341.632 233.235 341.632L290.37 341.568C293.268 341.565 295.615 339.06 295.615 335.972Z" fill="#8C837C"/>
<path d="M201.734 334.281C208.4 334.04 213.664 328.44 213.49 321.771C213.316 315.103 207.771 309.892 201.104 310.132L151.332 311.925C144.666 312.165 139.403 317.766 139.577 324.434C139.751 331.103 145.296 336.314 151.962 336.074L201.734 334.281Z" fill="#3A3A3A"/>
<path d="M213.777 321.761C213.955 328.588 208.567 334.322 201.742 334.568L151.97 336.361C145.145 336.607 139.467 331.272 139.289 324.444C139.111 317.617 144.5 311.883 151.325 311.637L201.097 309.844C207.922 309.599 213.599 314.934 213.777 321.761Z" stroke="#3A3A3A" stroke-width="0.575163"/>
<path d="M187.447 410.463C184.546 405.128 186.52 398.451 191.855 395.551C197.092 392.704 203.643 394.548 206.626 399.708L213.985 412.44C217.969 419.332 213.683 428.062 205.794 429.126C201.193 429.746 196.688 427.46 194.47 423.382L187.447 410.463Z" fill="#FDBA90" stroke="#FDBA90" stroke-width="0.575163"/>
<path d="M219.221 416.989C218.848 416.178 218.04 415.655 217.146 415.649L188.396 415.451C187.541 415.445 186.753 415.914 186.35 416.669L183.475 422.057C183.287 422.409 183.011 422.706 182.674 422.919L173.508 428.706C171.564 429.933 172.423 432.938 174.722 432.952L223.086 433.245C224.769 433.256 225.893 431.514 225.191 429.984L219.221 416.989Z" fill="#662D03"/>
<line y1="-0.143791" x2="24.4769" y2="-0.143791" transform="matrix(-0.00686637 -0.999976 -0.999976 0.00686651 197.305 416.947)" stroke="#00F9EA" stroke-opacity="0.28" stroke-width="0.287581" stroke-dasharray="0.58 0.58"/>
<line y1="-0.143791" x2="23.7271" y2="-0.143791" transform="matrix(-0.999976 0.00686652 0.00686652 0.999976 209.084 404.628)" stroke="#00F9EA" stroke-opacity="0.28" stroke-width="0.287581" stroke-dasharray="0.58 0.58"/>
<rect x="-0.1428" y="0.144775" width="24.1894" height="24.1384" rx="12.0692" transform="matrix(-0.999976 0.00686652 0.00686652 0.999976 209.463 392.386)" stroke="#00F9EA" stroke-opacity="0.28" stroke-width="0.287581"/>
<path d="M164.234 318.987C160.787 312.762 152.958 310.492 146.715 313.908C140.521 317.298 138.192 325.031 141.483 331.279L181.969 408.114L213.593 408.114L164.234 318.987Z" fill="#3A3A3A"/>
<path d="M181.969 408.401L181.795 408.401L181.714 408.248L141.229 331.413C137.864 325.026 140.245 317.121 146.577 313.656C152.958 310.164 160.962 312.484 164.486 318.848L213.844 407.974L214.081 408.401L213.593 408.401L181.969 408.401Z" stroke="#3A3A3A" stroke-width="0.575163"/>
<path d="M142.242 329.992C138.724 324.512 140.314 317.218 145.794 313.7C151.274 310.182 158.568 311.772 162.086 317.252C165.604 322.731 164.014 330.026 158.534 333.544C153.054 337.062 145.76 335.472 142.242 329.992Z" fill="#3A3A3A" stroke="#3A3A3A" stroke-width="0.575163"/>
<line y1="-0.143791" x2="21.6442" y2="-0.143791" transform="matrix(-0.540263 -0.841496 -0.841496 0.540263 157.621 332.581)" stroke="#00F9EA" stroke-opacity="0.28" stroke-width="0.287581" stroke-dasharray="0.58 0.58"/>
<line y1="-0.143791" x2="20.9811" y2="-0.143791" transform="matrix(-0.841496 0.540263 0.540263 0.841496 160.602 317.807)" stroke="#00F9EA" stroke-opacity="0.28" stroke-width="0.287581" stroke-dasharray="0.58 0.58"/>
<rect x="-0.0433145" y="0.198684" width="21.3566" height="21.3115" rx="10.6558" transform="matrix(-0.841496 0.540263 0.540263 0.841496 155.125 308.397)" stroke="#00F9EA" stroke-opacity="0.28" stroke-width="0.287581"/>
<line y1="-0.143791" x2="17.1618" y2="-0.143791" transform="matrix(0.993411 -0.114608 -0.114608 -0.993411 195.416 323.604)" stroke="#00F9EA" stroke-opacity="0.28" stroke-width="0.287581" stroke-dasharray="0.58 0.58"/>
<line y1="-0.143791" x2="16.6361" y2="-0.143791" transform="matrix(-0.114608 -0.993411 -0.993411 0.114608 204.895 330.883)" stroke="#00F9EA" stroke-opacity="0.28" stroke-width="0.287581" stroke-dasharray="0.58 0.58"/>
<rect x="-0.159323" y="-0.126364" width="16.8742" height="16.8385" rx="8.41926" transform="matrix(-0.114608 -0.993411 -0.993411 0.114608 213.175 330.152)" stroke="#00F9EA" stroke-opacity="0.28" stroke-width="0.287581"/>
<path d="M238.626 309.455C248.621 308.374 257.406 316.263 257.406 326.32C257.406 335.917 249.774 343.702 240.173 343.896L187.263 344.966C179.095 345.131 172.25 338.696 171.912 330.534C171.59 322.748 177.321 316.086 185.063 315.249L238.626 309.455Z" fill="#3A3A3A"/>
<path d="M257.694 326.323C257.694 316.094 248.758 308.07 238.592 309.169L185.03 314.963C177.138 315.817 171.296 322.606 171.625 330.543C171.969 338.862 178.946 345.421 187.271 345.253L240.182 344.183C249.938 343.986 257.694 336.075 257.694 326.323Z" stroke="#3A3A3A" stroke-width="0.575163"/>
<path d="M130.023 430.22L143.639 404.115L123.248 396.524L104.785 422.694L130.023 430.22Z" fill="#FDBA90" stroke="#FDBA90" stroke-width="0.575163"/>
<path d="M140.834 417.076C141.453 415.564 140.343 413.907 138.709 413.904L106.297 413.841C105.959 413.84 105.626 413.914 105.319 414.057L90.901 420.79C90.7782 420.847 90.6608 420.915 90.55 420.993L79.8401 428.533C78.0053 429.825 78.9162 432.711 81.1601 432.715L132.837 432.815C133.772 432.817 134.616 432.252 134.97 431.387L140.834 417.076Z" fill="#662D03"/>
<line x1="126.878" y1="424.189" x2="127.163" y2="399.713" stroke="#00F9EA" stroke-opacity="0.28" stroke-width="0.287581" stroke-dasharray="0.58 0.58"/>
<line x1="115.302" y1="411.671" x2="139.028" y2="411.947" stroke="#00F9EA" stroke-opacity="0.28" stroke-width="0.287581" stroke-dasharray="0.58 0.58"/>
<rect x="119.531" y="396.455" width="24.1894" height="24.1384" rx="12.0692" transform="rotate(19.928 119.531 396.455)" stroke="#00F9EA" stroke-opacity="0.28" stroke-width="0.287581"/>
<path d="M170.675 324.023C175.335 317.703 184.221 316.325 190.577 320.936C197.094 325.665 198.423 334.841 193.514 341.223L141.97 408.247L108.569 408.247L170.675 324.023Z" fill="#3A3A3A"/>
<path d="M170.675 324.023C175.335 317.703 184.221 316.325 190.577 320.936C197.094 325.665 198.423 334.841 193.514 341.223L141.97 408.247L108.569 408.247L170.675 324.023Z" stroke="#3A3A3A" stroke-width="0.575163"/>
<path d="M191.299 336.239C195.483 331.249 194.829 323.812 189.839 319.628C184.848 315.445 177.412 316.099 173.228 321.089C169.044 326.079 169.698 333.516 174.688 337.7C179.679 341.883 187.115 341.229 191.299 336.239Z" fill="#3A3A3A" stroke="#3A3A3A" stroke-width="0.575163"/>
<line x1="175.607" y1="336.767" x2="189.512" y2="320.181" stroke="#00F9EA" stroke-opacity="0.28" stroke-width="0.287581" stroke-dasharray="0.58 0.58"/>
<line x1="174.723" y1="321.716" x2="190.801" y2="335.195" stroke="#00F9EA" stroke-opacity="0.28" stroke-width="0.287581" stroke-dasharray="0.58 0.58"/>
<rect x="181.092" y="313.31" width="21.3566" height="21.3115" rx="10.6558" transform="rotate(39.9754 181.092 313.31)" stroke="#00F9EA" stroke-opacity="0.28" stroke-width="0.287581"/>
<line x1="238.333" y1="325.386" x2="255.476" y2="326.199" stroke="#00F9EA" stroke-opacity="0.28" stroke-width="0.287581" stroke-dasharray="0.58 0.58"/>
<line x1="247.435" y1="317.635" x2="246.646" y2="334.252" stroke="#00F9EA" stroke-opacity="0.28" stroke-width="0.287581" stroke-dasharray="0.58 0.58"/>
<rect x="255.736" y="317.646" width="16.8742" height="16.8385" rx="8.41926" transform="rotate(92.7169 255.736 317.646)" stroke="#00F9EA" stroke-opacity="0.28" stroke-width="0.287581"/>
<path d="M191.377 287.418C191.377 279.794 197.557 273.614 205.181 273.614H233.107C240.731 273.614 246.911 279.794 246.911 287.418V327.257H191.377V287.418Z" fill="#3A3A3A"/>
<path d="M246.911 327.545H247.199V327.257V287.418C247.199 279.636 240.89 273.327 233.107 273.327H205.181C197.398 273.327 191.089 279.636 191.089 287.418V327.257V327.545H191.377H246.911Z" stroke="#3A3A3A" stroke-width="0.575163"/>
<line x1="219.21" y1="310.604" x2="219.21" y2="302.107" stroke="#00F9EA" stroke-opacity="0.28" stroke-width="0.287581" stroke-dasharray="0.58 0.58"/>
<line x1="215.383" y1="306.212" x2="223.326" y2="306.212" stroke="#00F9EA" stroke-opacity="0.28" stroke-width="0.287581" stroke-dasharray="0.58 0.58"/>
<rect x="215.275" y="302.25" width="7.90618" height="8.1922" rx="3.95309" stroke="#00F9EA" stroke-opacity="0.28" stroke-width="0.287581"/>
<path d="M183.512 236.105L193.348 308.26H247.007L258.082 234.151C258.357 232.309 257.121 230.581 255.289 230.246L220.984 223.976C220.503 223.888 220.009 223.903 219.535 224.021L186.103 232.288C184.392 232.712 183.274 234.357 183.512 236.105Z" fill="#F77234"/>
<path d="M193.063 308.299L193.097 308.548H193.348H247.007H247.255L247.291 308.303L258.366 234.193C258.664 232.198 257.325 230.326 255.341 229.963L221.035 223.693C220.515 223.598 219.98 223.614 219.466 223.742L186.034 232.009C184.18 232.468 182.97 234.251 183.228 236.143L193.063 308.299Z" stroke="#F77234" stroke-width="0.575163"/>
<path d="M191.567 232.64C196.682 235.242 198.833 241.516 196.371 246.655C193.91 251.794 187.768 253.85 182.653 251.249L144.157 231.669C139.042 229.067 136.891 222.793 139.352 217.654C141.814 212.516 147.956 210.459 153.07 213.06L191.567 232.64Z" fill="#FDBA90"/>
<path d="M191.443 232.899C196.416 235.428 198.507 241.528 196.114 246.524C193.721 251.52 187.75 253.52 182.777 250.99L144.28 231.411C139.308 228.881 137.216 222.781 139.609 217.785C142.003 212.789 147.974 210.79 152.947 213.319L191.443 232.899Z" stroke="#FDBA90" stroke-width="0.575163"/>
<mask id="mask0_191_16274" style="mask-type:alpha" maskUnits="userSpaceOnUse" x="138" y="211" width="60" height="42">
<path d="M191.443 232.899C196.416 235.428 198.507 241.528 196.114 246.524C193.721 251.52 187.75 253.52 182.777 250.99L144.28 231.411C139.308 228.881 137.216 222.781 139.609 217.785C142.003 212.789 147.974 210.79 152.947 213.319L191.443 232.899Z" fill="#F8DAC3" stroke="#F8DAC3" stroke-width="0.575163"/>
</mask>
<g mask="url(#mask0_191_16274)">
<path d="M198.073 247.27C200.828 241.57 198.634 234.733 193.172 231.999L168.878 219.663L161.193 241.261L183.195 252.639C188.657 255.373 195.318 252.969 198.073 247.27Z" fill="#ED9D63"/>
</g>
<path d="M194.542 231.915L194.542 231.915L194.538 231.913L171.5 220.816L171.241 220.692L171.12 220.95L161.634 241.197L161.515 241.451L161.767 241.58L184.314 253.07L184.316 253.071C190.159 255.996 197.186 253.632 200.01 247.79C202.834 241.948 200.386 234.84 194.542 231.915Z" fill="#F77234" stroke="#F77234" stroke-width="0.575163"/>
<path d="M179.314 182.65L192.151 199.428L156.188 227.19C152.065 230.373 146.163 229.531 142.925 225.298C139.686 221.066 140.306 215.004 144.318 211.677L179.314 182.65Z" fill="#FDBA90"/>
<path d="M144.482 211.884L179.276 183.025L191.786 199.376L156.031 226.978C152.019 230.074 146.277 229.255 143.126 225.137C139.976 221.019 140.579 215.121 144.482 211.884Z" stroke="#FDBA90" stroke-width="0.522277"/>
<path d="M141.755 214.012C145.357 210.244 151.265 210.262 154.95 214.052C158.635 217.842 158.703 223.968 155.1 227.736C151.498 231.503 145.59 231.485 141.905 227.696C138.22 223.906 138.152 217.78 141.755 214.012Z" fill="#FDBA90" stroke="#FDBA90" stroke-width="0.522277"/>
<path d="M174.587 185.706C171.455 190.758 172.006 195.165 176.867 199.786C181.729 204.408 185.952 204.231 192.228 199.699C196.846 196.363 202.587 191.593 203.756 188.018C204.225 186.581 204.086 184.681 202.908 184.113C201.73 183.545 200.888 184.651 200.067 186.01C199.139 187.546 197.543 189.312 196.251 188.658C195.488 188.273 195.221 186.617 195.791 185.577C196.727 183.871 197.739 182.636 199.14 181.174C200.098 180.173 200.977 179.297 201.615 178.672C201.934 178.36 202.193 178.111 202.371 177.94L202.625 177.698C203.771 176.525 203.716 175.067 202.889 174.141C201.3 172.364 199.679 173.828 199.457 174.045C199.737 173.764 199.96 173.544 200.113 173.393C200.192 173.316 200.292 173.218 200.292 173.218C201.158 172.384 201.09 171.231 200.301 170.344C199.513 169.457 198.255 169.493 197.562 169.893C196.869 170.292 196.04 171.09 196.04 171.09C194.669 169.059 192.815 169.224 191.908 169.826C191.002 170.428 189.986 171.365 188.721 172.735C188.531 172.94 188.402 173.084 188.239 173.266C188.169 172.899 188 172.545 187.73 172.25C186.985 171.435 185.996 171.642 185.112 172.313C184.228 172.984 181.476 175.725 180.034 177.654C178.592 179.583 177.718 180.655 174.587 185.706Z" fill="#FDBA90"/>
<path d="M188.239 173.266C188.169 172.899 188 172.545 187.73 172.25C186.985 171.435 185.996 171.642 185.112 172.313C184.228 172.984 181.476 175.725 180.034 177.654C178.592 179.583 177.718 180.655 174.587 185.706C171.455 190.758 172.006 195.165 176.867 199.786C181.729 204.408 185.952 204.231 192.228 199.699C196.846 196.363 202.587 191.593 203.756 188.018C204.225 186.581 204.086 184.681 202.908 184.113C201.73 183.545 200.888 184.651 200.067 186.01C199.139 187.546 197.543 189.312 196.251 188.658C195.488 188.273 195.221 186.617 195.791 185.577C196.727 183.871 197.739 182.636 199.14 181.174C200.098 180.173 200.977 179.297 201.615 178.672C201.934 178.36 202.193 178.111 202.371 177.94L202.625 177.698C203.771 176.525 203.716 175.067 202.889 174.141C201.179 172.228 199.431 174.071 199.431 174.071M188.239 173.266C188.402 173.084 188.531 172.94 188.721 172.735C189.986 171.365 191.002 170.428 191.908 169.826C192.815 169.224 194.669 169.059 196.04 171.09M188.239 173.266C186.906 174.714 184.558 177.387 184.07 178.196M196.04 171.09C196.04 171.09 193.817 173.2 193.534 173.482M196.04 171.09C196.04 171.09 194.516 172.56 193.534 173.482M196.04 171.09C196.04 171.09 196.869 170.292 197.562 169.893C198.255 169.493 199.513 169.457 200.301 170.344C201.09 171.231 201.158 172.384 200.292 173.218C200.292 173.218 200.192 173.316 200.113 173.393C199.955 173.548 199.723 173.777 199.431 174.071M193.534 173.482C191.622 175.428 190.398 176.806 188.666 178.923M199.431 174.071C198.846 174.658 198.02 175.5 197.063 176.517C197.063 176.517 194.125 179.704 192.58 181.569M199.431 174.071C199.431 174.071 199.199 174.309 199.105 174.399C198.917 174.579 198.705 174.821 198.374 175.146C197.712 175.794 195.844 177.83 195.844 177.83" stroke="#FDBA90" stroke-width="0.522277" stroke-linecap="round" stroke-linejoin="round"/>
<path d="M187.997 173.097C186.685 174.327 184.085 177.017 184.186 177.936M195.598 171.494C193.328 173.374 188.642 177.671 188.062 179.819M191.224 183.243C192.615 181.23 196.308 176.514 199.956 173.754" stroke="#ED9D63" stroke-width="0.522277" stroke-linecap="round" stroke-linejoin="round"/>
<line y1="-0.130569" x2="17.5061" y2="-0.130569" transform="matrix(-0.570493 0.808795 0.804328 0.611577 187.131 187.801)" stroke="#00F9EA" stroke-opacity="0.28" stroke-width="0.261139" stroke-dasharray="0.52 0.52"/>
<line y1="-0.130569" x2="16.7328" y2="-0.130569" transform="matrix(0.804328 0.611577 0.570493 -0.808795 175.408 189.764)" stroke="#00F9EA" stroke-opacity="0.28" stroke-width="0.261139" stroke-dasharray="0.52 0.52"/>
<rect x="0.179509" y="-0.0257506" width="17.0004" height="17.2085" rx="8.50021" transform="matrix(0.804328 0.611577 0.570493 -0.808795 170.038 196.363)" stroke="#00F9EA" stroke-opacity="0.28" stroke-width="0.261139"/>
<line y1="-0.130569" x2="17.5084" y2="-0.130569" transform="matrix(-0.686283 0.71777 0.702106 0.721991 154.713 214.286)" stroke="#00F9EA" stroke-opacity="0.28" stroke-width="0.261139" stroke-dasharray="0.52 0.52"/>
<line y1="-0.130569" x2="16.7306" y2="-0.130569" transform="matrix(0.702106 0.721991 0.686282 -0.71777 142.832 214.529)" stroke="#00F9EA" stroke-opacity="0.28" stroke-width="0.261139" stroke-dasharray="0.52 0.52"/>
<rect x="0.181281" y="0.000551097" width="16.9981" height="17.2108" rx="8.49907" transform="matrix(0.702106 0.721991 0.686282 -0.71777 136.507 220.302)" stroke="#00F9EA" stroke-opacity="0.28" stroke-width="0.261139"/>
<line y1="-0.143791" x2="17.6506" y2="-0.143791" transform="matrix(0.973854 0.227174 0.211968 -0.977277 180.842 239.527)" stroke="#00F9EA" stroke-opacity="0.28" stroke-width="0.287581" stroke-dasharray="0.58 0.58"/>
<line y1="-0.143791" x2="17.6819" y2="-0.143791" transform="matrix(0.211968 -0.977277 -0.973854 -0.227174 187.562 250.173)" stroke="#00F9EA" stroke-opacity="0.28" stroke-width="0.287581" stroke-dasharray="0.58 0.58"/>
<rect x="-0.109552" y="-0.173189" width="17.9531" height="17.3263" rx="8.66313" transform="matrix(0.211968 -0.977277 -0.973854 -0.227174 195.782 252.404)" stroke="#00F9EA" stroke-opacity="0.28" stroke-width="0.287581"/>
<path d="M184.205 248.129L191.654 303.134" stroke="white" stroke-width="0.575163" stroke-linecap="round" stroke-linejoin="round"/>
<path d="M263.25 241.773C261.915 236.213 256.315 232.741 250.742 234.018C245.169 235.295 241.734 240.838 243.07 246.399L253.12 288.247C254.456 293.807 260.056 297.28 265.628 296.002C271.201 294.725 274.636 289.182 273.301 283.621L263.25 241.773Z" fill="#FDBA90"/>
<path d="M262.97 241.837C261.671 236.431 256.227 233.056 250.809 234.298C245.391 235.539 242.052 240.928 243.35 246.334L253.401 288.183C254.699 293.589 260.143 296.964 265.561 295.723C270.979 294.481 274.319 289.092 273.02 283.686L262.97 241.837Z" stroke="#FDBA90" stroke-width="0.575163"/>
<mask id="mask1_191_16274" style="mask-type:alpha" maskUnits="userSpaceOnUse" x="242" y="233" width="32" height="64">
<path d="M262.968 241.838C261.669 236.432 256.225 233.057 250.807 234.299C245.389 235.54 242.05 240.929 243.348 246.335L253.399 288.184C254.697 293.59 260.141 296.965 265.559 295.723C270.977 294.482 274.317 289.093 273.018 283.687L262.968 241.838Z" fill="#F8DAC3" stroke="#F8DAC3" stroke-width="0.575163"/>
</mask>
<g mask="url(#mask1_191_16274)">
<path d="M250.537 232.801C256.723 231.36 262.91 235.207 264.354 241.395L270.51 264.802L246.956 269.558L241.95 246.614C240.505 240.426 244.35 234.242 250.537 232.801Z" fill="#ED9D63"/>
</g>
<path d="M270.464 261.656L270.394 261.384L264.648 239.025C263.167 232.685 256.827 228.742 250.487 230.219C244.145 231.696 240.205 238.035 241.685 244.377L270.464 261.656ZM270.464 261.656L270.193 261.732L247.471 268.095L247.181 268.176L247.113 267.883L241.685 244.377L270.464 261.656Z" fill="#F77234" stroke="#F77234" stroke-width="0.575163"/>
<line y1="-0.143791" x2="18.2716" y2="-0.143791" transform="matrix(0.0065326 -0.999979 0.999975 0.00702594 254.344 251.354)" stroke="#00F9EA" stroke-opacity="0.28" stroke-width="0.287581" stroke-dasharray="0.58 0.58"/>
<line y1="-0.143791" x2="17.0789" y2="-0.143791" transform="matrix(0.999975 0.00702596 -0.00653273 0.999979 245.863 242.159)" stroke="#00F9EA" stroke-opacity="0.28" stroke-width="0.287581" stroke-dasharray="0.58 0.58"/>
<rect x="0.142848" y="0.144798" width="17.331" height="17.946" rx="8.66551" transform="matrix(0.999975 0.00702596 -0.00653273 0.999979 245.384 233.02)" stroke="#00F9EA" stroke-opacity="0.28" stroke-width="0.287581"/>
<path d="M210.691 290.207L211.921 309.971L263.837 304.446C268.686 303.93 272.206 299.544 271.662 294.697C271.145 290.085 267.122 286.704 262.493 286.991L210.691 290.207Z" fill="#FDBA90"/>
<path d="M262.509 287.279L210.996 290.477L212.189 309.653L263.809 304.159C268.499 303.66 271.903 299.419 271.377 294.731C270.876 290.27 266.985 287.001 262.509 287.279Z" stroke="#FDBA90" stroke-width="0.575163"/>
<circle cx="10.7542" cy="10.7542" r="10.4666" transform="matrix(0.0381195 -0.999258 -0.999176 -0.0409944 274.291 304.914)" fill="#FDBA90" stroke="#FDBA90" stroke-width="0.575163"/>
<path d="M210.215 290.633C215.215 290.607 216.709 293.227 217.356 297.186C218.004 301.146 217.055 306.53 211.581 308.376C205.717 310.353 192.855 308.246 188.964 307.873C187.401 307.723 185.18 307.319 185.51 306.488C184.931 306.712 180.697 306.146 180.697 306.146C178.617 306.171 177.153 305.508 176.931 304.772C176.533 303.448 178.924 303.124 179.549 303.063C179.089 303.067 178.451 302.798 178.451 302.798C177.131 303.046 176.389 302.122 176.173 301.419C175.958 300.717 176.563 299.97 177.389 299.693C178.214 299.417 179.135 299.332 179.135 299.332C178.34 297.969 179.772 296.968 180.92 296.629C182.068 296.291 183.581 295.988 185.64 295.668C185.915 295.625 186.114 295.596 186.346 295.562L186.432 295.549C186.165 295.403 185.71 295.71 185.643 295.472C185.46 294.815 186.77 294.121 187.962 293.815C189.155 293.509 196.863 290.945 199.526 290.687C202.189 290.43 205.216 290.658 210.215 290.633Z" fill="#FDBA90"/>
<path d="M186.432 295.549C186.165 295.403 185.71 295.71 185.643 295.472C185.46 294.815 186.77 294.121 187.962 293.815C189.155 293.509 196.863 290.945 199.526 290.687C202.189 290.43 205.216 290.658 210.215 290.633C215.215 290.607 216.709 293.227 217.356 297.186C218.004 301.146 217.055 306.53 211.581 308.376C205.717 310.353 192.855 308.246 188.964 307.873C187.401 307.723 185.18 307.319 185.51 306.488C184.931 306.712 180.697 306.146 180.697 306.146C178.617 306.171 177.153 305.508 176.931 304.772C176.473 303.251 179.696 303.05 179.696 303.05M186.432 295.549C186.162 295.589 185.949 295.62 185.64 295.668C183.581 295.988 182.068 296.291 180.92 296.629C179.772 296.968 178.34 297.969 179.135 299.332M186.432 295.549C188.606 295.214 192.538 294.659 193.574 294.617M179.135 299.332C179.135 299.332 182.498 298.685 182.937 298.607M179.135 299.332C179.135 299.332 181.46 298.896 182.937 298.607M179.135 299.332C179.135 299.332 178.214 299.417 177.389 299.693C176.563 299.97 175.958 300.717 176.173 301.419C176.389 302.122 177.131 303.046 178.451 302.798C178.451 302.798 179.24 303.131 179.696 303.05M182.937 298.607C185.941 298.088 187.978 297.794 191.005 297.427M179.696 303.05C180.608 302.889 181.907 302.666 183.448 302.418C183.448 302.418 188.233 301.678 190.913 301.344M179.696 303.05C179.696 303.05 180.062 302.988 180.205 302.961C180.49 302.907 180.846 302.857 181.356 302.763C182.374 302.576 185.426 302.109 185.426 302.109" stroke="#FDBA90" stroke-width="0.575163" stroke-linecap="round" stroke-linejoin="round"/>
<path d="M201.597 290.189C209.279 289.547 213.525 291.384 217.497 292.376" stroke="#ED9D63" stroke-width="0.575163" stroke-linecap="round" stroke-linejoin="round"/>
<path d="M179.347 303.288C182.2 302.722 189.255 301.796 193.242 301.918" stroke="#ED9D63" stroke-width="0.575163" stroke-linecap="round" stroke-linejoin="round"/>
<path d="M180.21 299.313C183.467 298.076 191.258 296.944 195.794 297.403" stroke="#ED9D63" stroke-width="0.575163" stroke-linecap="round" stroke-linejoin="round"/>
<line y1="-0.143791" x2="18.8047" y2="-0.143791" transform="matrix(0.995838 -0.0872245 0.0811975 0.997024 202.969 299.26)" stroke="#00F9EA" stroke-opacity="0.28" stroke-width="0.287581" stroke-dasharray="0.58 0.58"/>
<line y1="-0.143791" x2="18.8818" y2="-0.143791" transform="matrix(0.0811975 0.997024 -0.995838 0.0872243 211.564 289.026)" stroke="#00F9EA" stroke-opacity="0.28" stroke-width="0.287581" stroke-dasharray="0.58 0.58"/>
<rect x="-0.131517" y="0.155905" width="19.191" height="18.478" rx="9.239" transform="matrix(0.0811975 0.997024 -0.995838 0.0872243 220.913 287.885)" stroke="#00F9EA" stroke-opacity="0.28" stroke-width="0.287581"/>
<line y1="-0.143791" x2="18.7939" y2="-0.143791" transform="matrix(0.999176 0.0409942 -0.0381195 0.999258 254.363 293.089)" stroke="#00F9EA" stroke-opacity="0.28" stroke-width="0.287581" stroke-dasharray="0.58 0.58"/>
<line y1="-0.143791" x2="18.8919" y2="-0.143791" transform="matrix(-0.0381195 0.999258 -0.999176 -0.0409944 264.113 284.035)" stroke="#00F9EA" stroke-opacity="0.28" stroke-width="0.287581" stroke-dasharray="0.58 0.58"/>
<rect x="-0.149153" y="0.137789" width="19.2014" height="18.4672" rx="9.23362" transform="matrix(-0.0381195 0.999258 -0.999176 -0.0409944 273.506 284.117)" stroke="#00F9EA" stroke-opacity="0.28" stroke-width="0.287581"/>
<path d="M209.869 216.414C209.869 211.319 213.999 207.189 219.093 207.189C224.188 207.189 228.318 211.319 228.318 216.414V225.137C228.318 230.232 224.188 234.362 219.093 234.362C213.999 234.362 209.869 230.232 209.869 225.137V216.414Z" fill="#FDBA90"/>
<path d="M210.157 216.414C210.157 211.478 214.158 207.477 219.093 207.477C224.029 207.477 228.03 211.478 228.03 216.414V225.137C228.03 230.073 224.029 234.074 219.093 234.074C214.158 234.074 210.157 230.073 210.157 225.137V216.414Z" stroke="#FDBA90" stroke-width="0.575163"/>
<mask id="mask2_191_16274" style="mask-type:alpha" maskUnits="userSpaceOnUse" x="209" y="208" width="20" height="29">
<path d="M210.157 218.139C210.157 213.204 214.158 209.203 219.093 209.203C224.029 209.203 228.03 213.204 228.03 218.139V226.863C228.03 231.798 224.029 235.8 219.093 235.8C214.158 235.8 210.157 231.798 210.157 226.863V218.139Z" fill="#F8DAC3" stroke="#F8DAC3" stroke-width="0.575163"/>
</mask>
<g mask="url(#mask2_191_16274)">
<path d="M197.779 181.407C197.779 171.07 206.16 162.689 216.497 162.689C226.835 162.689 235.215 171.07 235.215 181.407V202.425C235.215 212.763 226.835 221.143 216.497 221.143C206.16 221.143 197.779 212.763 197.779 202.425V181.407Z" fill="#ED9D63"/>
</g>
<path d="M191.116 182.098C191.144 182.274 191.178 182.447 191.219 182.62C191.435 183.507 191.781 184.359 192.248 185.152L192.273 185.194C192.45 185.492 192.64 185.79 192.846 186.089C193.39 186.854 193.984 187.586 194.625 188.281L195.007 188.689C195.265 188.967 195.527 189.238 195.788 189.507C194.404 189.208 193.063 190.446 192.818 191.782C192.572 193.118 193.129 194.466 193.816 195.659C195.02 197.771 196.755 199.176 198.283 201.01C199.427 202.376 200.062 203.993 201.309 205.299L201.402 205.397C204.696 208.714 209.897 209.489 214.226 210.906C215.782 211.419 222.833 219.849 231.511 216.652C233.444 215.94 234.298 215.225 236.379 213.313C243.844 206.516 246.458 194.201 242.016 185.194C237.241 175.501 227.06 167.907 219.697 166.777C212.334 165.647 209.02 165.339 205.959 166.777C202.898 168.214 201.374 172.673 203.912 174.851C202.316 173.692 200.33 173.139 198.335 173.297C196.493 173.407 194.755 174.157 193.446 175.405C192.409 176.404 191.663 177.646 191.284 179.008C191.003 180.015 190.946 181.068 191.116 182.098Z" fill="#934103"/>
<path d="M231.551 199.463C231.551 196.763 233.74 194.574 236.44 194.574C239.14 194.574 241.329 196.763 241.329 199.463C241.329 202.163 239.14 204.351 236.44 204.351C233.74 204.351 231.551 202.163 231.551 199.463Z" fill="#FDBA90" stroke="#FDBA90" stroke-width="0.575163"/>
<path d="M196.858 199.463C196.858 196.763 199.047 194.574 201.747 194.574C204.447 194.574 206.636 196.763 206.636 199.463C206.636 202.163 204.447 204.351 201.747 204.351C199.047 204.351 196.858 202.163 196.858 199.463Z" fill="#FDBA90" stroke="#FDBA90" stroke-width="0.575163"/>
<path d="M199.344 197.791C199.819 198.231 200.749 199.323 200.665 200.168" stroke="#662D03" stroke-width="0.575163" stroke-linecap="round" stroke-linejoin="round"/>
<path d="M238.922 198.036C238.096 198.036 237.516 199.568 237.601 200.414" stroke="#662D03" stroke-width="0.575163" stroke-linecap="round" stroke-linejoin="round"/>
<path d="M202.301 188.884C202.301 177.294 213.763 169.189 224.69 173.051C231.401 175.422 235.887 181.767 235.887 188.884V203.36C235.887 212.635 228.369 220.154 219.094 220.154C209.819 220.154 202.301 212.635 202.301 203.36V188.884Z" fill="#FDBA90"/>
<path d="M202.588 188.884C202.588 177.493 213.854 169.526 224.594 173.322C231.19 175.653 235.6 181.889 235.6 188.884V203.36C235.6 212.476 228.21 219.866 219.094 219.866C209.978 219.866 202.588 212.476 202.588 203.36V188.884Z" stroke="#FDBA90" stroke-width="0.575163"/>
<mask id="mask3_191_16274" style="mask-type:alpha" maskUnits="userSpaceOnUse" x="181" y="156" width="64" height="46">
<path d="M202.252 194.342C202.252 194.342 202.118 189.165 202.499 187.69C203.207 184.941 205.539 183.886 206.129 183.061C210.924 188.722 222.014 194.288 231.041 192.179C231.041 195.513 232.705 201.719 234.214 201.719C235.724 201.719 236.288 193.839 238.254 194.288C242.131 188.358 249.684 178.647 238.254 171.452L239.193 170.112L240.89 169.098C239.495 167.545 234.287 166.823 232.883 168.897C232.883 168.897 230.431 162.1 219.622 157.43C207.113 152.026 188.674 167.319 188.674 167.319L181.816 180.246L196.548 199.347C196.548 199.347 196.323 196.658 199.236 194.921C200.59 194.114 202.252 194.342 202.252 194.342Z" fill="#D9D9D9"/>
</mask>
<g mask="url(#mask3_191_16274)">
<path d="M191.023 181.338C191.05 181.518 191.084 181.695 191.124 181.872C191.338 182.778 191.682 183.649 192.144 184.459L192.169 184.502C192.345 184.806 192.533 185.111 192.736 185.416C193.276 186.198 193.865 186.946 194.499 187.656L194.878 188.073C195.134 188.357 195.393 188.634 195.652 188.908C194.28 188.604 192.952 189.868 192.708 191.234C192.465 192.599 193.017 193.976 193.698 195.195C194.891 197.353 196.61 198.788 198.124 200.662C199.258 202.058 199.887 203.71 201.123 205.045L201.215 205.145C204.479 208.534 209.632 209.326 213.923 210.774C215.464 211.298 232.175 215.991 232.175 217.015C232.175 216.793 233.812 215.187 235.874 213.233C243.271 206.288 245.861 193.705 241.46 184.502C236.728 174.597 227.435 167.802 219.344 165.683C211.252 163.565 208.763 164.214 205.73 165.683C202.698 167.152 201.187 171.708 203.702 173.933C202.121 172.75 200.153 172.184 198.176 172.345C196.35 172.458 194.628 173.224 193.331 174.5C192.304 175.52 191.565 176.79 191.189 178.181C190.91 179.21 190.854 180.286 191.023 181.338Z" fill="#934103"/>
<path d="M190.947 180.985C190.954 181.293 190.949 181.588 190.994 181.773C191.127 182.721 191.571 184.075 191.768 184.394C191.966 184.713 192.482 185.626 192.71 185.945C193.311 186.768 194.189 187.807 194.189 187.807C194.189 187.807 194.915 188.634 195.206 188.921C194.323 188.748 192.798 190.056 192.524 191.485C192.25 192.915 192.87 194.357 193.636 195.633C194.976 197.892 196.908 199.395 198.608 201.357C199.882 202.819 200.589 204.548 201.977 205.946C203.589 204.179 204.616 202.023 204.934 199.733C205.502 195.502 208.707 192.458 208.863 188.177C208.03 184.437 206.351 183.419 204.598 181.24C203.189 179.638 201.56 178.213 199.751 177C198.338 176.141 196.52 176.007 194.834 176.227C193.364 176.413 191.867 176.989 191.367 177.659C191.053 178.735 190.914 179.676 190.947 180.985Z" fill="#662D03"/>
</g>
<line x1="219.145" y1="222.184" x2="219.145" y2="209.43" stroke="#00F9EA" stroke-opacity="0.28" stroke-width="0.287581" stroke-dasharray="0.58 0.58"/>
<line x1="213.107" y1="215.663" x2="225.47" y2="215.663" stroke="#00F9EA" stroke-opacity="0.28" stroke-width="0.287581" stroke-dasharray="0.58 0.58"/>
<rect x="212.861" y="209.573" width="12.4662" height="12.4396" rx="6.21981" stroke="#00F9EA" stroke-opacity="0.28" stroke-width="0.287581"/>
<path d="M202.445 198.482C202.445 197.663 202.236 191.641 202.236 190.003C202.236 185.752 205.921 183.043 205.921 183.043" stroke="#662D03" stroke-width="0.575163" stroke-linecap="round" stroke-linejoin="round"/>
<path d="M222.445 212.092C220.377 211.152 218.034 210.992 215.851 211.641" stroke="#662D03" stroke-width="0.575163" stroke-linecap="round"/>
<path d="M216.919 199.502C215.286 201.231 215.036 207.198 215.036 207.198H218.078" stroke="#662D03" stroke-width="0.575163" stroke-linecap="round" stroke-linejoin="round"/>
<path d="M230.053 194.286C227.124 194.888 224.112 194.974 221.154 194.538" stroke="#662D03" stroke-width="0.575163" stroke-linecap="round"/>
<path d="M214.059 194.286C211.13 194.888 208.118 194.974 205.16 194.538" stroke="#662D03" stroke-width="0.575163" stroke-linecap="round"/>
<path d="M225.056 197.094C223.126 197.094 223.126 201.099 225.056 201.12H225.144C227.077 201.12 227.077 197.115 225.144 197.094H225.059H225.056Z" fill="#662D03"/>
<path d="M209.531 197.094C207.601 197.117 207.601 201.097 209.531 201.12H209.619C211.549 201.12 211.549 197.117 209.619 197.094H209.531Z" fill="#662D03"/>
<line x1="219.282" y1="235.112" x2="219.282" y2="221.607" stroke="#00F9EA" stroke-opacity="0.28" stroke-width="0.287581" stroke-dasharray="0.58 0.58"/>
<line x1="213.115" y1="228.217" x2="225.739" y2="228.217" stroke="#00F9EA" stroke-opacity="0.28" stroke-width="0.287581" stroke-dasharray="0.58 0.58"/>
<rect x="212.859" y="221.751" width="12.735" height="13.1895" rx="6.36749" stroke="#00F9EA" stroke-opacity="0.28" stroke-width="0.287581"/>
<line x1="219.352" y1="282.98" x2="219.352" y2="264.807" stroke="#00F9EA" stroke-opacity="0.28" stroke-width="0.287581" stroke-dasharray="0.58 0.58"/>
<line x1="211.004" y1="273.751" x2="227.991" y2="273.751" stroke="#00F9EA" stroke-opacity="0.28" stroke-width="0.287581" stroke-dasharray="0.58 0.58"/>
<rect x="210.611" y="264.951" width="17.236" height="17.8476" rx="8.61798" stroke="#00F9EA" stroke-opacity="0.28" stroke-width="0.287581"/>
<path d="M201.404 231.108L207.406 246.317L219.211 239.229L230.395 246.317L236.397 227.952" stroke="#FCEFE6" stroke-width="0.575163" stroke-linecap="round" stroke-linejoin="round"/>
<path d="M111.08 406.833L173.541 318.099C175.368 315.258 181.058 312.538 188.023 313.177" stroke="white" stroke-width="0.575163" stroke-linecap="round" stroke-linejoin="round"/>
<path d="M192.006 345.244L159.629 389.786" stroke="white" stroke-width="0.575163" stroke-linecap="round" stroke-linejoin="round"/>
<path d="M242.918 252.151L248.338 267.728L261.091 263.591" stroke="#FCEFE6" stroke-width="0.575163" stroke-linecap="round" stroke-linejoin="round"/>
<path d="M30.0232 309.612V435.402C30.0232 436.762 28.8204 437.865 27.3368 437.865C25.8531 437.865 24.6504 436.762 24.6504 435.402L24.6504 307.325C24.6504 306.139 25.5635 305.15 26.7799 304.914C27.1241 304.768 27.5078 304.686 27.9124 304.686L292.544 304.686C294.028 304.686 295.23 305.788 295.23 307.149C295.23 308.509 294.028 309.612 292.544 309.612H30.0232Z" fill="#8C837C"/>
<g clip-path="url(#clip1_191_16274)">
<path d="M95.6819 299.119L99.7019 283.024H69.5248C66.3896 283.024 63.7974 280.66 63.7974 277.798V232.211C63.7561 229.308 66.306 226.943 69.483 226.943H161.323C164.458 226.943 167.05 229.308 167.05 232.17V277.798C167.05 280.66 164.458 283.024 161.323 283.024H124.547L122.888 299.119H133.776C135.448 299.119 136.744 300.447 136.744 302.064C136.744 303.724 135.406 305.009 133.776 305.009H87.166C85.4939 305.009 84.198 303.682 84.198 302.064C84.1144 300.447 85.4939 299.119 87.166 299.119H95.6819Z" fill="#3A3A3A"/>
<path fill-rule="evenodd" clip-rule="evenodd" d="M125.793 271.293L125.917 299.161H122.92L125.793 271.293Z" fill="white"/>
</g>
<path d="M182.039 131.719H139.543C135.788 131.719 132.744 134.764 132.744 138.52V159.945C132.744 163.702 135.788 166.747 139.543 166.747H182.039L189.563 169.088C190.661 169.43 191.693 168.402 191.355 167.302L188.839 159.104V138.52C188.839 134.764 185.794 131.719 182.039 131.719Z" fill="#F77234"/>
<path d="M147.987 148.961C147.987 149.643 147.88 150.271 147.668 150.847C147.456 151.422 147.148 151.917 146.746 152.33C146.344 152.744 145.863 153.062 145.304 153.286C144.746 153.504 144.117 153.613 143.418 153.613C142.725 153.613 142.102 153.501 141.549 153.278C140.996 153.054 140.515 152.736 140.107 152.322C139.705 151.903 139.398 151.411 139.185 150.847C138.979 150.277 138.875 149.648 138.875 148.961C138.875 148.268 138.981 147.634 139.194 147.058C139.406 146.482 139.711 145.991 140.107 145.583C140.504 145.175 140.985 144.862 141.549 144.644C142.114 144.42 142.737 144.309 143.418 144.309C144.111 144.309 144.74 144.42 145.304 144.644C145.869 144.868 146.352 145.186 146.754 145.6C147.157 146.013 147.461 146.505 147.668 147.075C147.88 147.645 147.987 148.273 147.987 148.961ZM145.69 148.961C145.69 148.028 145.483 147.301 145.07 146.781C144.662 146.262 144.111 146.002 143.418 146.002C142.971 146.002 142.577 146.119 142.236 146.354C141.896 146.583 141.633 146.924 141.449 147.377C141.264 147.829 141.172 148.357 141.172 148.961C141.172 149.559 141.261 150.081 141.44 150.528C141.625 150.975 141.884 151.319 142.22 151.559C142.561 151.794 142.96 151.911 143.418 151.911C144.111 151.911 144.662 151.651 145.07 151.132C145.483 150.606 145.69 149.883 145.69 148.961ZM158.364 148.961C158.364 149.643 158.258 150.271 158.045 150.847C157.833 151.422 157.525 151.917 157.123 152.33C156.721 152.744 156.24 153.062 155.681 153.286C155.123 153.504 154.494 153.613 153.795 153.613C153.103 153.613 152.479 153.501 151.926 153.278C151.373 153.054 150.892 152.736 150.484 152.322C150.082 151.903 149.775 151.411 149.562 150.847C149.356 150.277 149.252 149.648 149.252 148.961C149.252 148.268 149.358 147.634 149.571 147.058C149.783 146.482 150.088 145.991 150.484 145.583C150.881 145.175 151.362 144.862 151.926 144.644C152.491 144.42 153.114 144.309 153.795 144.309C154.488 144.309 155.117 144.42 155.681 144.644C156.246 144.868 156.729 145.186 157.132 145.6C157.534 146.013 157.838 146.505 158.045 147.075C158.258 147.645 158.364 148.273 158.364 148.961ZM156.067 148.961C156.067 148.028 155.86 147.301 155.447 146.781C155.039 146.262 154.488 146.002 153.795 146.002C153.348 146.002 152.954 146.119 152.614 146.354C152.273 146.583 152.01 146.924 151.826 147.377C151.641 147.829 151.549 148.357 151.549 148.961C151.549 149.559 151.638 150.081 151.817 150.528C152.002 150.975 152.261 151.319 152.597 151.559C152.938 151.794 153.337 151.911 153.795 151.911C154.488 151.911 155.039 151.651 155.447 151.132C155.86 150.606 156.067 149.883 156.067 148.961ZM162.287 145.591V145.868C162.717 145.337 163.164 144.949 163.628 144.703C164.091 144.451 164.617 144.325 165.204 144.325C165.908 144.325 166.556 144.507 167.148 144.87C167.741 145.234 168.207 145.764 168.548 146.463C168.894 147.161 169.068 147.988 169.068 148.944C169.068 149.648 168.967 150.296 168.766 150.889C168.57 151.475 168.299 151.97 167.953 152.372C167.606 152.769 167.196 153.076 166.721 153.294C166.251 153.507 165.746 153.613 165.204 153.613C164.55 153.613 163.999 153.482 163.552 153.219C163.111 152.956 162.689 152.571 162.287 152.062V155.499C162.287 156.505 161.921 157.008 161.188 157.008C160.758 157.008 160.473 156.876 160.333 156.614C160.194 156.357 160.124 155.979 160.124 155.482V145.608C160.124 145.172 160.219 144.848 160.409 144.636C160.599 144.418 160.859 144.309 161.188 144.309C161.513 144.309 161.775 144.42 161.976 144.644C162.183 144.862 162.287 145.178 162.287 145.591ZM166.771 148.919C166.771 148.315 166.679 147.798 166.494 147.368C166.31 146.932 166.053 146.6 165.723 146.371C165.399 146.136 165.039 146.019 164.642 146.019C164.01 146.019 163.477 146.267 163.041 146.765C162.611 147.262 162.396 147.994 162.396 148.961C162.396 149.872 162.611 150.581 163.041 151.09C163.471 151.593 164.005 151.844 164.642 151.844C165.022 151.844 165.374 151.735 165.698 151.517C166.022 151.294 166.282 150.961 166.478 150.52C166.673 150.078 166.771 149.545 166.771 148.919ZM178.271 150.62C178.271 151.252 178.118 151.794 177.81 152.247C177.503 152.694 177.047 153.035 176.444 153.269C175.846 153.498 175.117 153.613 174.256 153.613C173.435 153.613 172.731 153.487 172.144 153.236C171.557 152.984 171.124 152.671 170.845 152.297C170.565 151.917 170.426 151.537 170.426 151.157C170.426 150.905 170.515 150.69 170.694 150.511C170.873 150.333 171.099 150.243 171.373 150.243C171.613 150.243 171.797 150.302 171.926 150.419C172.055 150.537 172.177 150.701 172.295 150.914C172.53 151.322 172.809 151.626 173.133 151.827C173.463 152.029 173.91 152.129 174.474 152.129C174.932 152.129 175.307 152.029 175.597 151.827C175.894 151.621 176.042 151.386 176.042 151.123C176.042 150.721 175.888 150.428 175.581 150.243C175.279 150.059 174.779 149.883 174.08 149.715C173.292 149.52 172.65 149.316 172.152 149.103C171.661 148.885 171.267 148.6 170.97 148.248C170.674 147.896 170.526 147.463 170.526 146.949C170.526 146.491 170.663 146.058 170.937 145.65C171.211 145.242 171.613 144.918 172.144 144.678C172.68 144.432 173.326 144.309 174.08 144.309C174.673 144.309 175.203 144.37 175.673 144.493C176.148 144.616 176.542 144.781 176.855 144.988C177.173 145.194 177.414 145.424 177.576 145.675C177.743 145.926 177.827 146.172 177.827 146.413C177.827 146.675 177.738 146.89 177.559 147.058C177.386 147.226 177.137 147.31 176.813 147.31C176.578 147.31 176.377 147.242 176.209 147.108C176.047 146.974 175.86 146.773 175.648 146.505C175.474 146.281 175.27 146.102 175.036 145.968C174.801 145.834 174.483 145.767 174.08 145.767C173.667 145.767 173.323 145.857 173.049 146.035C172.775 146.209 172.638 146.427 172.638 146.689C172.638 146.93 172.739 147.128 172.94 147.284C173.141 147.435 173.412 147.561 173.753 147.662C174.094 147.762 174.564 147.885 175.162 148.03C175.871 148.204 176.45 148.41 176.897 148.651C177.349 148.891 177.69 149.176 177.919 149.506C178.154 149.83 178.271 150.201 178.271 150.62ZM180.962 148.081L180.694 144.066C180.643 143.283 180.618 142.722 180.618 142.381C180.618 141.917 180.738 141.557 180.979 141.3C181.225 141.037 181.546 140.906 181.943 140.906C182.423 140.906 182.745 141.073 182.907 141.408C183.069 141.738 183.15 142.216 183.15 142.842C183.15 143.211 183.13 143.585 183.091 143.965L182.731 148.097C182.691 148.589 182.608 148.966 182.479 149.229C182.351 149.492 182.138 149.623 181.842 149.623C181.54 149.623 181.331 149.497 181.213 149.246C181.096 148.989 181.012 148.6 180.962 148.081ZM181.892 153.596C181.551 153.596 181.253 153.487 180.995 153.269C180.744 153.046 180.618 152.736 180.618 152.339C180.618 151.992 180.738 151.699 180.979 151.459C181.225 151.213 181.524 151.09 181.876 151.09C182.228 151.09 182.527 151.213 182.772 151.459C183.024 151.699 183.15 151.992 183.15 152.339C183.15 152.73 183.024 153.037 182.772 153.261C182.521 153.484 182.228 153.596 181.892 153.596Z" fill="white"/>
<path d="M254.923 85.9628V77.1209H231.06C228.049 77.1209 225.783 76.4396 224.262 75.0768C222.773 73.7141 222.028 71.8602 222.028 69.515C222.028 68.9129 222.139 68.3107 222.361 67.7086C222.582 67.0748 222.915 66.4251 223.359 65.7596C223.802 65.0624 224.262 64.3968 224.737 63.763C225.213 63.1292 225.799 62.3528 226.496 61.4337L251.691 27.73C253.339 25.5116 254.686 23.9112 255.732 22.9287C256.809 21.9146 258.093 21.4076 259.582 21.4076C264.399 21.4076 266.808 24.1647 266.808 29.679V66.4726H268.852C271.292 66.4726 273.241 66.8054 274.699 67.4709C276.188 68.1364 276.933 69.5942 276.933 71.8443C276.933 73.6824 276.331 75.0293 275.127 75.885C273.922 76.7089 272.116 77.1209 269.707 77.1209H266.808V85.9628C266.808 88.403 266.269 90.2253 265.191 91.4296C264.114 92.6021 262.672 93.1884 260.866 93.1884C259.091 93.1884 257.649 92.5863 256.54 91.382C255.462 90.1461 254.923 88.3397 254.923 85.9628ZM234.482 66.4726H254.923V38.8536L234.482 66.4726ZM331.981 57.8209C331.981 63.0183 331.664 67.4868 331.03 71.2263C330.396 74.9659 329.224 78.3569 327.512 81.3992C325.357 85.1388 322.569 88.0227 319.146 90.051C315.723 92.0792 311.92 93.0934 307.737 93.0934C302.92 93.0934 298.594 91.7306 294.759 89.0052C290.956 86.2797 288.088 82.5084 286.155 77.6914C285.173 75.061 284.444 72.1612 283.968 68.9921C283.525 65.7913 283.303 62.3369 283.303 58.629C283.303 53.8436 283.557 49.5336 284.064 45.699C284.571 41.8643 285.363 38.5684 286.44 35.8113C288.31 31.2477 291.02 27.7775 294.569 25.4007C298.15 22.9921 302.413 21.7879 307.357 21.7879C310.621 21.7879 313.584 22.3266 316.246 23.4041C318.908 24.4499 321.237 26.0028 323.234 28.0627C325.262 30.091 326.974 32.6104 328.368 35.6211C330.777 40.8502 331.981 48.2501 331.981 57.8209ZM318.956 56.8702C318.956 51.0706 318.607 46.3328 317.91 42.6566C317.213 38.9487 316.04 36.1599 314.392 34.2901C312.744 32.3886 310.462 31.4379 307.547 31.4379C303.364 31.4379 300.448 33.5453 298.8 37.7603C297.184 41.9752 296.376 48.472 296.376 57.2505C296.376 63.2084 296.724 68.0889 297.421 71.8918C298.119 75.6948 299.291 78.5787 300.939 80.5436C302.587 82.4768 304.821 83.4433 307.642 83.4433C310.558 83.4433 312.839 82.4292 314.487 80.401C316.135 78.3727 317.292 75.473 317.957 71.7017C318.623 67.9304 318.956 62.9866 318.956 56.8702ZM370.724 85.9628V77.1209H346.86C343.849 77.1209 341.583 76.4396 340.062 75.0768C338.573 73.7141 337.828 71.8602 337.828 69.515C337.828 68.9129 337.939 68.3107 338.161 67.7086C338.383 67.0748 338.715 66.4251 339.159 65.7596C339.603 65.0624 340.062 64.3968 340.538 63.763C341.013 63.1292 341.599 62.3528 342.296 61.4337L367.491 27.73C369.139 25.5116 370.486 23.9112 371.532 22.9287C372.609 21.9146 373.893 21.4076 375.382 21.4076C380.199 21.4076 382.608 24.1647 382.608 29.679V66.4726H384.652C387.092 66.4726 389.041 66.8054 390.499 67.4709C391.988 68.1364 392.733 69.5942 392.733 71.8443C392.733 73.6824 392.131 75.0293 390.927 75.885C389.722 76.7089 387.916 77.1209 385.508 77.1209H382.608V85.9628C382.608 88.403 382.069 90.2253 380.992 91.4296C379.914 92.6021 378.472 93.1884 376.666 93.1884C374.891 93.1884 373.449 92.5863 372.34 91.382C371.262 90.1461 370.724 88.3397 370.724 85.9628ZM350.283 66.4726H370.724V38.8536L350.283 66.4726Z" fill="black"/>
<path d="M224.292 114.64C224.292 113.752 223.934 112.989 223.326 112.49C222.859 112.101 222.392 111.914 221.348 111.758L220.149 111.571C219.526 111.478 218.887 111.213 218.498 110.886C218.108 110.559 217.921 110.076 217.921 109.437C217.921 108.035 218.887 107.148 220.491 107.148C221.816 107.148 222.501 107.568 223.186 108.176L223.731 107.63C222.781 106.805 221.909 106.431 220.538 106.431C218.42 106.431 217.096 107.615 217.096 109.469C217.096 110.325 217.376 111.011 217.968 111.509C218.435 111.914 219.105 112.194 219.946 112.319L221.239 112.522C222.143 112.662 222.439 112.771 222.844 113.114C223.249 113.472 223.451 114.017 223.451 114.671C223.451 116.12 222.345 116.961 220.601 116.961C219.261 116.961 218.451 116.649 217.454 115.653L216.862 116.244C217.875 117.257 218.903 117.709 220.554 117.709C222.859 117.709 224.292 116.509 224.292 114.64ZM234.089 112.07C234.089 109.562 234.073 108.581 233.061 107.568C232.329 106.836 231.332 106.431 230.288 106.431C229.244 106.431 228.247 106.836 227.515 107.568C226.503 108.581 226.487 109.562 226.487 112.07C226.487 114.578 226.503 115.559 227.515 116.572C228.247 117.304 229.244 117.709 230.288 117.709C231.332 117.709 232.329 117.304 233.061 116.572C234.073 115.559 234.089 114.578 234.089 112.07ZM233.248 112.07C233.248 114.453 233.185 115.31 232.391 116.104C231.83 116.665 231.082 116.961 230.288 116.961C229.494 116.961 228.746 116.665 228.185 116.104C227.391 115.31 227.328 114.453 227.328 112.07C227.328 109.687 227.391 108.83 228.185 108.035C228.746 107.475 229.494 107.179 230.288 107.179C231.082 107.179 231.83 107.475 232.391 108.035C233.185 108.83 233.248 109.687 233.248 112.07ZM244.609 117.615L241.929 112.49C243.487 112.226 244.484 111.151 244.484 109.5C244.484 107.568 243.113 106.524 241.306 106.524H237.085V117.615H237.926V112.506H240.979L243.627 117.615H244.609ZM243.643 109.515C243.643 111.042 242.615 111.758 241.197 111.758H237.926V107.272H241.197C242.615 107.272 243.643 107.989 243.643 109.515ZM254.846 117.615L252.167 112.49C253.725 112.226 254.722 111.151 254.722 109.5C254.722 107.568 253.351 106.524 251.544 106.524H247.323V117.615H248.164V112.506H251.217L253.865 117.615H254.846ZM253.88 109.515C253.88 111.042 252.852 111.758 251.435 111.758H248.164V107.272H251.435C252.852 107.272 253.88 107.989 253.88 109.515ZM263.386 106.524H262.482L259.725 112.132L256.906 106.524H256.002L259.274 113.02V117.615H260.115V113.02L263.386 106.524ZM266.566 106.524H265.709L265.756 114.624H266.519L266.566 106.524ZM266.659 117.615V116.572H265.616V117.615H266.659ZM281.373 109.718C281.373 107.693 279.94 106.524 278.024 106.524H273.958V117.615H274.8V112.911H278.024C279.94 112.911 281.373 111.743 281.373 109.718ZM280.532 109.718C280.532 111.384 279.457 112.163 277.931 112.163H274.8V107.272H277.931C279.457 107.272 280.532 108.051 280.532 109.718ZM290.44 117.615L286.359 106.524H285.611L281.53 117.615H282.433L283.399 114.92H288.57L289.536 117.615H290.44ZM288.306 114.173H283.664L285.985 107.646L288.306 114.173ZM299.409 113.752V111.945H295.592V112.693H298.568V113.69C298.568 114.64 298.381 115.294 297.898 115.886C297.322 116.587 296.465 116.961 295.592 116.961C294.798 116.961 294.05 116.665 293.49 116.104C292.695 115.31 292.633 114.453 292.633 112.07C292.633 109.687 292.695 108.83 293.49 108.035C294.05 107.475 294.798 107.179 295.592 107.179C297.088 107.179 298.209 108.144 298.537 109.671H299.378C299.035 107.708 297.54 106.431 295.592 106.431C294.549 106.431 293.552 106.836 292.82 107.568C291.807 108.581 291.792 109.562 291.792 112.07C291.792 114.578 291.807 115.559 292.82 116.572C293.552 117.304 294.549 117.709 295.592 117.709C296.714 117.709 297.773 117.241 298.505 116.431C299.16 115.73 299.409 114.905 299.409 113.752ZM309.103 117.615V116.868H303.215V112.397H308.231V111.649H303.215V107.272H309.103V106.524H302.374V117.615H309.103ZM323.739 117.615V106.524H322.897V116.135L316.495 106.524H315.654V117.615H316.495V107.973L322.897 117.615H323.739ZM334.335 112.07C334.335 109.562 334.319 108.581 333.307 107.568C332.575 106.836 331.578 106.431 330.534 106.431C329.49 106.431 328.493 106.836 327.761 107.568C326.749 108.581 326.733 109.562 326.733 112.07C326.733 114.578 326.749 115.559 327.761 116.572C328.493 117.304 329.49 117.709 330.534 117.709C331.578 117.709 332.575 117.304 333.307 116.572C334.319 115.559 334.335 114.578 334.335 112.07ZM333.494 112.07C333.494 114.453 333.431 115.31 332.637 116.104C332.076 116.665 331.328 116.961 330.534 116.961C329.74 116.961 328.992 116.665 328.431 116.104C327.637 115.31 327.574 114.453 327.574 112.07C327.574 109.687 327.637 108.83 328.431 108.035C328.992 107.475 329.74 107.179 330.534 107.179C331.328 107.179 332.076 107.475 332.637 108.035C333.431 108.83 333.494 109.687 333.494 112.07ZM343.242 107.272V106.524H335.781V107.272H339.083V117.615H339.924V107.272H343.242ZM356.123 107.272V106.524H349.394V117.615H350.235V112.584H355.251V111.836H350.235V107.272H356.123ZM365.23 112.07C365.23 109.562 365.214 108.581 364.202 107.568C363.47 106.836 362.473 106.431 361.429 106.431C360.386 106.431 359.389 106.836 358.657 107.568C357.644 108.581 357.629 109.562 357.629 112.07C357.629 114.578 357.644 115.559 358.657 116.572C359.389 117.304 360.386 117.709 361.429 117.709C362.473 117.709 363.47 117.304 364.202 116.572C365.214 115.559 365.23 114.578 365.23 112.07ZM364.389 112.07C364.389 114.453 364.327 115.31 363.532 116.104C362.971 116.665 362.224 116.961 361.429 116.961C360.635 116.961 359.887 116.665 359.326 116.104C358.532 115.31 358.47 114.453 358.47 112.07C358.47 109.687 358.532 108.83 359.326 108.035C359.887 107.475 360.635 107.179 361.429 107.179C362.224 107.179 362.971 107.475 363.532 108.035C364.327 108.83 364.389 109.687 364.389 112.07ZM375.672 114.017V106.524H374.831V113.908C374.831 115.746 373.647 116.961 371.871 116.961C370.095 116.961 368.912 115.746 368.912 113.908V106.524H368.07V114.017C368.07 116.182 369.644 117.709 371.871 117.709C374.099 117.709 375.672 116.182 375.672 114.017ZM387.035 117.615V106.524H386.194V116.135L379.792 106.524H378.951V117.615H379.792V107.973L386.194 117.615H387.035ZM398.036 111.914C398.036 110.419 398.083 108.659 396.961 107.537C396.307 106.883 395.341 106.524 394.189 106.524H390.466V117.615H394.189C395.341 117.615 396.307 117.257 396.961 116.603C398.083 115.481 398.036 113.409 398.036 111.914ZM397.195 111.914C397.195 113.145 397.257 115.107 396.37 116.011C395.731 116.665 394.874 116.868 393.986 116.868H391.307V107.272H393.986C394.874 107.272 395.731 107.475 396.37 108.129C397.257 109.032 397.195 110.684 397.195 111.914Z" fill="black"/>
<defs>
<clipPath id="clip0_191_16274">
<rect width="178.486" height="134.351" fill="white" transform="translate(0.826172 58.0889)"/>
</clipPath>
<clipPath id="clip1_191_16274">
<rect width="147.981" height="110.337" fill="white" transform="translate(41.6406 195.004)"/>
</clipPath>
</defs>
</svg>
