<?xml version="1.0" standalone="no"?>
<!DOCTYPE svg PUBLIC "-//W3C//DTD SVG 20010904//EN"
 "http://www.w3.org/TR/2001/REC-SVG-20010904/DTD/svg10.dtd">
<svg version="1.0" xmlns="http://www.w3.org/2000/svg"
 width="512.000000pt" height="512.000000pt" viewBox="0 0 512.000000 512.000000"
 preserveAspectRatio="xMidYMid meet">

<g transform="translate(0.000000,512.000000) scale(0.100000,-0.100000)"
fill="#000000" stroke="none">
<path d="M2806 4881 c-63 -66 -189 -111 -454 -161 -329 -62 -445 -112 -583
-249 -64 -65 -95 -106 -126 -166 -120 -235 -130 -493 -31 -805 27 -87 117
-294 124 -287 2 1 8 45 14 97 53 464 211 743 463 822 78 24 214 26 293 3 51
-15 60 -15 125 1 91 22 223 15 294 -16 154 -67 275 -230 360 -483 35 -105 85
-331 85 -385 0 -17 4 -33 9 -36 13 -8 84 199 117 339 26 109 28 138 29 315 0
155 -4 210 -18 269 -68 279 -238 516 -486 676 -69 44 -164 95 -179 95 -4 0
-21 -13 -36 -29z"/>
<path d="M3120 2121 l0 -327 -279 -259 -280 -260 0 -187 -1 -187 -157 75 c-87
42 -219 108 -293 147 -74 40 -138 74 -142 75 -5 2 -8 -138 -8 -312 l0 -316
-150 0 -150 0 0 405 0 405 -118 86 c-125 93 -263 221 -309 287 l-27 39 -56 -5
c-69 -8 -187 -48 -259 -88 -221 -125 -367 -349 -394 -606 -5 -40 -1 -47 78
-145 376 -469 942 -802 1540 -906 930 -163 1844 179 2439 911 l78 97 -7 57
c-14 122 -56 238 -120 339 -52 81 -168 193 -253 244 -75 44 -232 100 -281 100
-17 0 -32 4 -35 8 -3 5 6 35 19 68 81 195 -32 345 -335 442 -126 41 -216 67
-371 107 l-129 33 0 -327z m340 -1146 l0 -405 -150 0 -150 0 2 316 3 316 145
89 c80 48 146 88 148 88 1 1 2 -181 2 -404z"/>
</g>
</svg>
