<svg width="30" height="30" viewBox="0 0 30 30" fill="none" xmlns="http://www.w3.org/2000/svg">
<path d="M3.96289 9.29999L15.0004 15.6875L25.9629 9.33749M15.0004 27.0125V15.675" stroke="black" stroke-width="1.5" stroke-linecap="round" stroke-linejoin="round"/>
<path d="M27.0123 11.4625V18.5375C27.0123 18.6 27.0123 18.65 26.9998 18.7125C26.1248 17.95 24.9998 17.5 23.7498 17.5C22.5748 17.5 21.4873 17.9125 20.6248 18.6C20.0381 19.0663 19.5646 19.6594 19.2398 20.3349C18.9151 21.0103 18.7476 21.7505 18.7498 22.5C18.7498 23.4375 19.0123 24.325 19.4748 25.075C19.5873 25.275 19.7248 25.4625 19.8748 25.6375L17.5873 26.9C16.1623 27.7 13.8373 27.7 12.4123 26.9L5.7373 23.2C4.2248 22.3625 2.9873 20.2625 2.9873 18.5375V11.4625C2.9873 9.7375 4.2248 7.6375 5.7373 6.8L12.4123 3.1C13.8373 2.3 16.1623 2.3 17.5873 3.1L24.2623 6.8C25.7748 7.6375 27.0123 9.7375 27.0123 11.4625Z" stroke="black" stroke-width="1.5" stroke-linecap="round" stroke-linejoin="round"/>
<path d="M28.75 22.5C28.75 24 28.0875 25.3375 27.05 26.25C26.1385 27.0539 24.9654 27.4983 23.75 27.5C20.9875 27.5 18.75 25.2625 18.75 22.5C18.75 20.925 19.475 19.5125 20.625 18.6C21.36 18.0109 22.2465 17.6415 23.1823 17.5343C24.1181 17.427 25.0652 17.5864 25.9144 17.994C26.7635 18.4016 27.4803 19.0409 27.982 19.8381C28.4837 20.6353 28.7499 21.5581 28.75 22.5Z" stroke="black" stroke-width="1.5" stroke-miterlimit="10" stroke-linecap="round" stroke-linejoin="round"/>
<path d="M24.0625 20.9375V22.8125L22.5 23.75" stroke="black" stroke-width="1.5" stroke-miterlimit="10" stroke-linecap="round" stroke-linejoin="round"/>
</svg>
