<svg width="139" height="145" viewBox="0 0 139 145" fill="none" xmlns="http://www.w3.org/2000/svg">
<rect width="138.444" height="144.213" fill="#18365a"/>
<path d="M47.1656 15.8364H44.9225C44.8815 15.5462 44.7979 15.2884 44.6716 15.0631C44.5452 14.8343 44.3831 14.6397 44.185 14.4793C43.987 14.3188 43.7583 14.1959 43.4988 14.1105C43.2427 14.0252 42.9645 13.9825 42.664 13.9825C42.1212 13.9825 41.6483 14.1174 41.2455 14.3871C40.8426 14.6534 40.5302 15.0426 40.3083 15.5547C40.0864 16.0634 39.9754 16.6814 39.9754 17.4086C39.9754 18.1563 40.0864 18.7845 40.3083 19.2932C40.5336 19.8019 40.8477 20.186 41.2506 20.4455C41.6535 20.7049 42.1195 20.8347 42.6487 20.8347C42.9457 20.8347 43.2206 20.7954 43.4732 20.7169C43.7293 20.6384 43.9563 20.524 44.1543 20.3738C44.3523 20.2201 44.5162 20.0341 44.646 19.8156C44.7791 19.5971 44.8713 19.3478 44.9225 19.0679L47.1656 19.0781C47.1075 19.5595 46.9624 20.0238 46.7303 20.4711C46.5015 20.9149 46.1926 21.3127 45.8033 21.6643C45.4175 22.0126 44.9566 22.2891 44.4206 22.494C43.888 22.6954 43.2854 22.7961 42.6128 22.7961C41.6774 22.7961 40.8409 22.5844 40.1034 22.1611C39.3694 21.7377 38.789 21.1249 38.3622 20.3226C37.9389 19.5202 37.7272 18.5489 37.7272 17.4086C37.7272 16.2649 37.9423 15.2918 38.3725 14.4895C38.8027 13.6872 39.3865 13.0761 40.1239 12.6561C40.8614 12.2328 41.691 12.0211 42.6128 12.0211C43.2206 12.0211 43.7839 12.1065 44.3028 12.2772C44.8252 12.4479 45.2878 12.6971 45.6907 13.0249C46.0935 13.3492 46.4213 13.7469 46.6739 14.2181C46.93 14.6892 47.0939 15.2287 47.1656 15.8364ZM48.7557 22.6527V12.1645H50.9732V20.8244H55.4696V22.6527H48.7557ZM59.0135 22.6527H56.6372L60.2579 12.1645H63.1156L66.7311 22.6527H64.3549L61.7277 14.5612H61.6458L59.0135 22.6527ZM58.865 18.5301H64.4778V20.2611H58.865V18.5301ZM73.4437 15.1809C73.4028 14.7678 73.2269 14.4468 72.9163 14.2181C72.6056 13.9893 72.1839 13.875 71.6513 13.875C71.2894 13.875 70.9839 13.9262 70.7346 14.0286C70.4854 14.1276 70.2942 14.2659 70.161 14.4434C70.0313 14.621 69.9664 14.8224 69.9664 15.0477C69.9596 15.2355 69.9989 15.3994 70.0842 15.5394C70.173 15.6793 70.2942 15.8005 70.4478 15.903C70.6015 16.002 70.779 16.089 70.9804 16.1642C71.1819 16.2358 71.397 16.2973 71.6257 16.3485L72.568 16.5738C73.0255 16.6763 73.4454 16.8128 73.8278 16.9835C74.2102 17.1542 74.5414 17.3642 74.8213 17.6134C75.1013 17.8627 75.3181 18.1563 75.4717 18.4943C75.6288 18.8323 75.709 19.2198 75.7124 19.6568C75.709 20.2987 75.5451 20.8552 75.2208 21.3263C74.8999 21.7941 74.4355 22.1577 73.8278 22.4171C73.2235 22.6732 72.4946 22.8012 71.6411 22.8012C70.7944 22.8012 70.0569 22.6715 69.4287 22.412C68.8039 22.1525 68.3157 21.7684 67.9641 21.2597C67.6158 20.7476 67.4332 20.1143 67.4161 19.3598H69.5619C69.5858 19.7114 69.6865 20.005 69.864 20.2406C70.045 20.4728 70.2857 20.6486 70.5861 20.7681C70.89 20.8842 71.2331 20.9422 71.6155 20.9422C71.991 20.9422 72.3171 20.8876 72.5936 20.7784C72.8736 20.6691 73.0904 20.5172 73.244 20.3226C73.3976 20.128 73.4745 19.9043 73.4745 19.6517C73.4745 19.4161 73.4045 19.2181 73.2645 19.0576C73.1279 18.8972 72.9265 18.7606 72.6602 18.6479C72.3973 18.5353 72.0747 18.4328 71.6923 18.3407L70.5503 18.0539C69.666 17.8388 68.9678 17.5025 68.4557 17.045C67.9436 16.5875 67.6892 15.9713 67.6926 15.1962C67.6892 14.5612 67.8582 14.0064 68.1996 13.5319C68.5445 13.0573 69.0173 12.6869 69.6182 12.4206C70.2191 12.1543 70.9019 12.0211 71.6667 12.0211C72.4451 12.0211 73.1245 12.1543 73.7049 12.4206C74.2887 12.6869 74.7428 13.0573 75.0672 13.5319C75.3915 14.0064 75.5588 14.5561 75.569 15.1809H73.4437ZM82.8936 15.1809C82.8527 14.7678 82.6768 14.4468 82.3661 14.2181C82.0555 13.9893 81.6338 13.875 81.1012 13.875C80.7393 13.875 80.4337 13.9262 80.1845 14.0286C79.9353 14.1276 79.7441 14.2659 79.6109 14.4434C79.4812 14.621 79.4163 14.8224 79.4163 15.0477C79.4095 15.2355 79.4488 15.3994 79.5341 15.5394C79.6229 15.6793 79.7441 15.8005 79.8977 15.903C80.0514 16.002 80.2289 16.089 80.4303 16.1642C80.6318 16.2358 80.8469 16.2973 81.0756 16.3485L82.0179 16.5738C82.4754 16.6763 82.8953 16.8128 83.2777 16.9835C83.6601 17.1542 83.9913 17.3642 84.2712 17.6134C84.5512 17.8627 84.768 18.1563 84.9216 18.4943C85.0787 18.8323 85.1589 19.2198 85.1623 19.6568C85.1589 20.2987 84.995 20.8552 84.6707 21.3263C84.3498 21.7941 83.8854 22.1577 83.2777 22.4171C82.6734 22.6732 81.9445 22.8012 81.091 22.8012C80.2443 22.8012 79.5068 22.6715 78.8786 22.412C78.2538 22.1525 77.7656 21.7684 77.4139 21.2597C77.0657 20.7476 76.883 20.1143 76.866 19.3598H79.0118C79.0357 19.7114 79.1364 20.005 79.3139 20.2406C79.4949 20.4728 79.7356 20.6486 80.036 20.7681C80.3399 20.8842 80.683 20.9422 81.0654 20.9422C81.4409 20.9422 81.767 20.8876 82.0435 20.7784C82.3235 20.6691 82.5403 20.5172 82.6939 20.3226C82.8475 20.128 82.9244 19.9043 82.9244 19.6517C82.9244 19.4161 82.8544 19.2181 82.7144 19.0576C82.5778 18.8972 82.3764 18.7606 82.1101 18.6479C81.8472 18.5353 81.5246 18.4328 81.1422 18.3407L80.0001 18.0539C79.1159 17.8388 78.4177 17.5025 77.9056 17.045C77.3935 16.5875 77.1391 15.9713 77.1425 15.1962C77.1391 14.5612 77.3081 14.0064 77.6495 13.5319C77.9943 13.0573 78.4672 12.6869 79.0681 12.4206C79.669 12.1543 80.3518 12.0211 81.1166 12.0211C81.895 12.0211 82.5744 12.1543 83.1548 12.4206C83.7386 12.6869 84.1927 13.0573 84.517 13.5319C84.8414 14.0064 85.0087 14.5561 85.0189 15.1809H82.8936ZM88.8713 12.1645V22.6527H86.6539V12.1645H88.8713ZM99.9498 15.8364H97.7067C97.6657 15.5462 97.5821 15.2884 97.4558 15.0631C97.3294 14.8343 97.1673 14.6397 96.9692 14.4793C96.7712 14.3188 96.5425 14.1959 96.283 14.1105C96.0269 14.0252 95.7487 13.9825 95.4482 13.9825C94.9054 13.9825 94.4325 14.1174 94.0297 14.3871C93.6268 14.6534 93.3144 15.0426 93.0925 15.5547C92.8706 16.0634 92.7596 16.6814 92.7596 17.4086C92.7596 18.1563 92.8706 18.7845 93.0925 19.2932C93.3178 19.8019 93.6319 20.186 94.0348 20.4455C94.4377 20.7049 94.9037 20.8347 95.4329 20.8347C95.7299 20.8347 96.0048 20.7954 96.2574 20.7169C96.5135 20.6384 96.7405 20.524 96.9385 20.3738C97.1365 20.2201 97.3004 20.0341 97.4302 19.8156C97.5633 19.5971 97.6555 19.3478 97.7067 19.0679L99.9498 19.0781C99.8917 19.5595 99.7466 20.0238 99.5145 20.4711C99.2857 20.9149 98.9768 21.3127 98.5875 21.6643C98.2017 22.0126 97.7408 22.2891 97.2048 22.494C96.6722 22.6954 96.0696 22.7961 95.397 22.7961C94.4616 22.7961 93.6251 22.5844 92.8876 22.1611C92.1536 21.7377 91.5732 21.1249 91.1464 20.3226C90.7231 19.5202 90.5114 18.5489 90.5114 17.4086C90.5114 16.2649 90.7265 15.2918 91.1567 14.4895C91.5869 13.6872 92.1707 13.0761 92.9081 12.6561C93.6456 12.2328 94.4752 12.0211 95.397 12.0211C96.0048 12.0211 96.5681 12.1065 97.087 12.2772C97.6094 12.4479 98.072 12.6971 98.4749 13.0249C98.8777 13.3492 99.2055 13.7469 99.4581 14.2181C99.7142 14.6892 99.8781 15.2287 99.9498 15.8364Z" fill="#F37A1D"/>
<g clip-path="url(#clip0_2264_99776)">
<path d="M118.801 8.65259C115.065 8.65259 112.041 11.6759 112.041 15.4123C112.041 17.0504 112.63 18.6201 113.703 19.8511V22.6509C113.703 23.026 114.158 23.2156 114.424 22.9496L115.869 21.5046C120.359 23.6646 125.561 20.3825 125.561 15.4123C125.561 11.6765 122.538 8.65259 118.801 8.65259ZM118.801 19.6625C118.568 19.6625 118.38 19.474 118.38 19.2415C118.38 19.0089 118.568 18.8204 118.801 18.8204C119.034 18.8204 119.222 19.0089 119.222 19.2415C119.222 19.474 119.034 19.6625 118.801 19.6625ZM119.223 16.6728V17.5515C119.223 17.7848 119.034 17.974 118.801 17.974C118.568 17.974 118.378 17.7848 118.378 17.5515V16.2855C118.378 16.0521 118.568 15.863 118.801 15.863C119.734 15.863 120.492 15.1042 120.492 14.1716C120.492 13.239 119.734 12.4803 118.801 12.4803C117.868 12.4803 117.11 13.239 117.11 14.1716C117.11 14.405 116.92 14.5941 116.687 14.5941C116.454 14.5941 116.265 14.4049 116.265 14.1716C116.265 12.7731 117.402 11.6353 118.801 11.6353C120.2 11.6353 121.337 12.7731 121.337 14.1716C121.337 15.4263 120.422 16.471 119.223 16.6728Z" fill="#F37A1D"/>
</g>
<path d="M82.2021 76.4329L85.8075 78.5144L85.8075 74.3513L82.2021 76.4329ZM96.6234 76.4329L93.0181 74.3513L93.0181 78.5144L96.6234 76.4329ZM85.4469 76.7934L93.3787 76.7934L93.3787 76.0723L85.4469 76.0723L85.4469 76.7934Z" fill="#18365a"/>
<path d="M16.517 79.1818V85H15.6392V79.1818H16.517ZM19.679 85H17.7955V79.1818H19.7386C20.3087 79.1818 20.7983 79.2983 21.2074 79.5312C21.6165 79.7623 21.9299 80.0947 22.1477 80.5284C22.3674 80.9602 22.4773 81.4782 22.4773 82.0824C22.4773 82.6884 22.3665 83.2093 22.1449 83.6449C21.9252 84.0805 21.607 84.4157 21.1903 84.6506C20.7737 84.8835 20.2699 85 19.679 85ZM18.6733 84.233H19.6307C20.0739 84.233 20.4422 84.1496 20.7358 83.983C21.0294 83.8144 21.2491 83.571 21.3949 83.2528C21.5407 82.9328 21.6136 82.5426 21.6136 82.0824C21.6136 81.6259 21.5407 81.2386 21.3949 80.9205C21.2509 80.6023 21.036 80.3608 20.75 80.196C20.464 80.0312 20.1089 79.9489 19.6847 79.9489H18.6733V84.233ZM23.5689 85V79.1818H27.2166V79.9375H24.4467V81.7102H27.0263V82.4631H24.4467V84.2443H27.2507V85H23.5689ZM25.0405 78.5994L25.7053 77.2898H26.6001L25.7195 78.5994H25.0405ZM28.8807 85H27.9489L30.0426 79.1818H31.0568L33.1506 85H32.2188L30.5739 80.2386H30.5284L28.8807 85ZM29.0369 82.7216H32.0597V83.4602H29.0369V82.7216ZM33.9908 85V79.1818H34.8686V84.2443H37.505V85H33.9908ZM40.6236 85V79.1818H42.6974C43.1501 79.1818 43.5251 79.2642 43.8224 79.429C44.1198 79.5937 44.3423 79.8191 44.4901 80.1051C44.6378 80.3892 44.7116 80.7093 44.7116 81.0653C44.7116 81.4233 44.6368 81.7453 44.4872 82.0312C44.3395 82.3153 44.116 82.5407 43.8168 82.7074C43.5194 82.8722 43.1454 82.9545 42.6946 82.9545H41.2685V82.2102H42.6151C42.901 82.2102 43.133 82.161 43.3111 82.0625C43.4891 81.9621 43.6198 81.8258 43.7031 81.6534C43.7865 81.4811 43.8281 81.285 43.8281 81.0653C43.8281 80.8456 43.7865 80.6506 43.7031 80.4801C43.6198 80.3097 43.4882 80.1761 43.3082 80.0795C43.1302 79.983 42.8954 79.9347 42.6037 79.9347H41.5014V85H40.6236ZM50.7947 82.0909C50.7947 82.7121 50.6811 83.2462 50.4538 83.6932C50.2266 84.1383 49.915 84.4811 49.5192 84.7216C49.1252 84.9602 48.6773 85.0795 48.1754 85.0795C47.6716 85.0795 47.2218 84.9602 46.826 84.7216C46.4321 84.4811 46.1214 84.1373 45.8942 83.6903C45.6669 83.2434 45.5533 82.7102 45.5533 82.0909C45.5533 81.4697 45.6669 80.9366 45.8942 80.4915C46.1214 80.0445 46.4321 79.7017 46.826 79.4631C47.2218 79.2225 47.6716 79.1023 48.1754 79.1023C48.6773 79.1023 49.1252 79.2225 49.5192 79.4631C49.915 79.7017 50.2266 80.0445 50.4538 80.4915C50.6811 80.9366 50.7947 81.4697 50.7947 82.0909ZM49.9254 82.0909C49.9254 81.6174 49.8487 81.2187 49.6953 80.8949C49.5438 80.5691 49.3355 80.3229 49.0703 80.1562C48.8071 79.9877 48.5088 79.9034 48.1754 79.9034C47.8402 79.9034 47.541 79.9877 47.2777 80.1562C47.0144 80.3229 46.8061 80.5691 46.6527 80.8949C46.5012 81.2187 46.4254 81.6174 46.4254 82.0909C46.4254 82.5644 46.5012 82.964 46.6527 83.2898C46.8061 83.6136 47.0144 83.8598 47.2777 84.0284C47.541 84.1951 47.8402 84.2784 48.1754 84.2784C48.5088 84.2784 48.8071 84.1951 49.0703 84.0284C49.3355 83.8598 49.5438 83.6136 49.6953 83.2898C49.8487 82.964 49.9254 82.5644 49.9254 82.0909ZM55.6307 79.1818H56.5114V83.0085C56.5114 83.4157 56.4157 83.7765 56.2244 84.0909C56.0331 84.4034 55.7642 84.6496 55.4176 84.8295C55.071 85.0076 54.6648 85.0966 54.1989 85.0966C53.7348 85.0966 53.3295 85.0076 52.983 84.8295C52.6364 84.6496 52.3674 84.4034 52.1761 84.0909C51.9848 83.7765 51.8892 83.4157 51.8892 83.0085V79.1818H52.767V82.9375C52.767 83.2008 52.8248 83.4347 52.9403 83.6392C53.0578 83.8438 53.2235 84.0047 53.4375 84.1222C53.6515 84.2377 53.9053 84.2955 54.1989 84.2955C54.4943 84.2955 54.7491 84.2377 54.9631 84.1222C55.179 84.0047 55.3438 83.8438 55.4574 83.6392C55.5729 83.4347 55.6307 83.2008 55.6307 82.9375V79.1818ZM57.7876 85V79.1818H59.8615C60.3123 79.1818 60.6863 79.2595 60.9837 79.4148C61.2829 79.5701 61.5064 79.785 61.6541 80.0597C61.8018 80.3324 61.8757 80.6477 61.8757 81.0057C61.8757 81.3617 61.8009 81.6752 61.6513 81.946C61.5036 82.215 61.2801 82.4242 60.9808 82.5739C60.6835 82.7235 60.3094 82.7983 59.8587 82.7983H58.2876V82.0426H59.7791C60.0632 82.0426 60.2943 82.0019 60.4723 81.9205C60.6522 81.839 60.7839 81.7206 60.8672 81.5653C60.9505 81.41 60.9922 81.2235 60.9922 81.0057C60.9922 80.786 60.9496 80.5956 60.8643 80.4347C60.781 80.2737 60.6494 80.1506 60.4695 80.0653C60.2914 79.9782 60.0575 79.9347 59.7678 79.9347H58.6655V85H57.7876ZM60.6598 82.375L62.0973 85H61.0973L59.6882 82.375H60.6598ZM64.7741 79.9375V79.1818H69.277V79.9375H67.4616V85H66.5866V79.9375H64.7741ZM70.272 85V79.1818H72.3459C72.7966 79.1818 73.1707 79.2595 73.468 79.4148C73.7673 79.5701 73.9908 79.785 74.1385 80.0597C74.2862 80.3324 74.3601 80.6477 74.3601 81.0057C74.3601 81.3617 74.2853 81.6752 74.1357 81.946C73.9879 82.215 73.7644 82.4242 73.4652 82.5739C73.1679 82.7235 72.7938 82.7983 72.343 82.7983H70.772V82.0426H72.2635C72.5476 82.0426 72.7786 82.0019 72.9567 81.9205C73.1366 81.839 73.2682 81.7206 73.3516 81.5653C73.4349 81.41 73.4766 81.2235 73.4766 81.0057C73.4766 80.786 73.4339 80.5956 73.3487 80.4347C73.2654 80.2737 73.1338 80.1506 72.9538 80.0653C72.7758 79.9782 72.5419 79.9347 72.2521 79.9347H71.1499V85H70.272ZM73.1442 82.375L74.5817 85H73.5817L72.1726 82.375H73.1442ZM75.9197 85H74.9879L77.0817 79.1818H78.0959L80.1896 85H79.2578L77.6129 80.2386H77.5675L75.9197 85ZM76.076 82.7216H79.0987V83.4602H76.076V82.7216ZM85.7259 79.1818V85H84.919L81.9616 80.733H81.9077V85H81.0298V79.1818H81.8423L84.8026 83.4545H84.8565V79.1818H85.7259ZM90.1797 80.7102C90.1494 80.4413 90.0244 80.233 89.8047 80.0852C89.585 79.9356 89.3085 79.8608 88.9751 79.8608C88.7365 79.8608 88.5301 79.8987 88.3558 79.9744C88.1816 80.0483 88.0462 80.1506 87.9496 80.2812C87.8549 80.41 87.8075 80.5568 87.8075 80.7216C87.8075 80.8598 87.8397 80.9792 87.9041 81.0795C87.9704 81.1799 88.0566 81.2642 88.1626 81.3324C88.2706 81.3987 88.3861 81.4545 88.5092 81.5C88.6323 81.5436 88.7507 81.5795 88.8643 81.608L89.4325 81.7557C89.6181 81.8011 89.8085 81.8627 90.0036 81.9403C90.1986 82.018 90.3795 82.1203 90.5462 82.2472C90.7128 82.3741 90.8473 82.5312 90.9496 82.7188C91.0537 82.9062 91.1058 83.1307 91.1058 83.392C91.1058 83.7216 91.0206 84.0142 90.8501 84.2699C90.6816 84.5256 90.4363 84.7273 90.1143 84.875C89.7943 85.0227 89.407 85.0966 88.9524 85.0966C88.5168 85.0966 88.1399 85.0275 87.8217 84.8892C87.5036 84.7509 87.2545 84.5549 87.0746 84.3011C86.8946 84.0455 86.7952 83.7424 86.7763 83.392H87.657C87.674 83.6023 87.7422 83.7775 87.8615 83.9176C87.9827 84.0559 88.1371 84.1591 88.3246 84.2273C88.514 84.2936 88.7214 84.3267 88.9467 84.3267C89.1948 84.3267 89.4155 84.2879 89.6087 84.2102C89.8037 84.1307 89.9571 84.0208 90.0689 83.8807C90.1806 83.7386 90.2365 83.5729 90.2365 83.3835C90.2365 83.2112 90.1873 83.0701 90.0888 82.9602C89.9922 82.8504 89.8606 82.7595 89.6939 82.6875C89.5291 82.6155 89.3426 82.5521 89.1342 82.4972L88.4467 82.3097C87.9808 82.1828 87.6115 81.9962 87.3388 81.75C87.0679 81.5038 86.9325 81.178 86.9325 80.7727C86.9325 80.4375 87.0234 80.1449 87.2053 79.8949C87.3871 79.6449 87.6333 79.4508 87.9439 79.3125C88.2545 79.1723 88.6049 79.1023 88.995 79.1023C89.389 79.1023 89.7365 79.1714 90.0376 79.3097C90.3407 79.4479 90.5793 79.6383 90.7536 79.8807C90.9278 80.1212 91.0187 80.3977 91.0263 80.7102H90.1797ZM92.1548 85V79.1818H94.2287C94.6813 79.1818 95.0563 79.2642 95.3537 79.429C95.651 79.5937 95.8736 79.8191 96.0213 80.1051C96.169 80.3892 96.2429 80.7093 96.2429 81.0653C96.2429 81.4233 96.1681 81.7453 96.0185 82.0312C95.8707 82.3153 95.6473 82.5407 95.348 82.7074C95.0507 82.8722 94.6766 82.9545 94.2259 82.9545H92.7997V82.2102H94.1463C94.4323 82.2102 94.6643 82.161 94.8423 82.0625C95.0204 81.9621 95.151 81.8258 95.2344 81.6534C95.3177 81.4811 95.3594 81.285 95.3594 81.0653C95.3594 80.8456 95.3177 80.6506 95.2344 80.4801C95.151 80.3097 95.0194 80.1761 94.8395 80.0795C94.6615 79.983 94.4266 79.9347 94.1349 79.9347H93.0327V85H92.1548ZM102.326 82.0909C102.326 82.7121 102.212 83.2462 101.985 83.6932C101.758 84.1383 101.446 84.4811 101.05 84.7216C100.656 84.9602 100.209 85.0795 99.7067 85.0795C99.2029 85.0795 98.7531 84.9602 98.3572 84.7216C97.9633 84.4811 97.6527 84.1373 97.4254 83.6903C97.1982 83.2434 97.0845 82.7102 97.0845 82.0909C97.0845 81.4697 97.1982 80.9366 97.4254 80.4915C97.6527 80.0445 97.9633 79.7017 98.3572 79.4631C98.7531 79.2225 99.2029 79.1023 99.7067 79.1023C100.209 79.1023 100.656 79.2225 101.05 79.4631C101.446 79.7017 101.758 80.0445 101.985 80.4915C102.212 80.9366 102.326 81.4697 102.326 82.0909ZM101.457 82.0909C101.457 81.6174 101.38 81.2187 101.227 80.8949C101.075 80.5691 100.867 80.3229 100.602 80.1562C100.338 79.9877 100.04 79.9034 99.7067 79.9034C99.3714 79.9034 99.0722 79.9877 98.8089 80.1562C98.5457 80.3229 98.3374 80.5691 98.1839 80.8949C98.0324 81.2187 97.9567 81.6174 97.9567 82.0909C97.9567 82.5644 98.0324 82.964 98.1839 83.2898C98.3374 83.6136 98.5457 83.8598 98.8089 84.0284C99.0722 84.1951 99.3714 84.2784 99.7067 84.2784C100.04 84.2784 100.338 84.1951 100.602 84.0284C100.867 83.8598 101.075 83.6136 101.227 83.2898C101.38 82.964 101.457 82.5644 101.457 82.0909ZM103.42 85V79.1818H105.494C105.945 79.1818 106.319 79.2595 106.616 79.4148C106.916 79.5701 107.139 79.785 107.287 80.0597C107.435 80.3324 107.509 80.6477 107.509 81.0057C107.509 81.3617 107.434 81.6752 107.284 81.946C107.136 82.215 106.913 82.4242 106.614 82.5739C106.316 82.7235 105.942 82.7983 105.491 82.7983H103.92V82.0426H105.412C105.696 82.0426 105.927 82.0019 106.105 81.9205C106.285 81.839 106.417 81.7206 106.5 81.5653C106.583 81.41 106.625 81.2235 106.625 81.0057C106.625 80.786 106.582 80.5956 106.497 80.4347C106.414 80.2737 106.282 80.1506 106.102 80.0653C105.924 79.9782 105.69 79.9347 105.401 79.9347H104.298V85H103.42ZM106.293 82.375L107.73 85H106.73L105.321 82.375H106.293ZM108.29 79.9375V79.1818H112.793V79.9375H110.977V85H110.102V79.9375H108.29ZM113.788 85V79.1818H117.435V79.9375H114.665V81.7102H117.245V82.4631H114.665V84.2443H117.469V85H113.788ZM118.608 85V79.1818H120.682C121.133 79.1818 121.507 79.2595 121.804 79.4148C122.103 79.5701 122.327 79.785 122.474 80.0597C122.622 80.3324 122.696 80.6477 122.696 81.0057C122.696 81.3617 122.621 81.6752 122.472 81.946C122.324 82.215 122.1 82.4242 121.801 82.5739C121.504 82.7235 121.13 82.7983 120.679 82.7983H119.108V82.0426H120.599C120.884 82.0426 121.115 82.0019 121.293 81.9205C121.473 81.839 121.604 81.7206 121.688 81.5653C121.771 81.41 121.812 81.2235 121.812 81.0057C121.812 80.786 121.77 80.5956 121.685 80.4347C121.601 80.2737 121.47 80.1506 121.29 80.0653C121.112 79.9782 120.878 79.9347 120.588 79.9347H119.486V85H118.608ZM121.48 82.375L122.918 85H121.918L120.509 82.375H121.48Z" fill="#F37A1D"/>
<path d="M18.6392 63V57.1818H19.517V62.2443H22.1534V63H18.6392ZM27.3999 57.1818V63H26.5192V58.0625H26.4851L25.093 58.9716V58.1307L26.5447 57.1818H27.3999ZM29.2088 63.054C29.0535 63.054 28.92 62.9991 28.8082 62.8892C28.6965 62.7775 28.6406 62.643 28.6406 62.4858C28.6406 62.3305 28.6965 62.1979 28.8082 62.0881C28.92 61.9763 29.0535 61.9205 29.2088 61.9205C29.3641 61.9205 29.4976 61.9763 29.6094 62.0881C29.7211 62.1979 29.777 62.3305 29.777 62.4858C29.777 62.59 29.7505 62.6856 29.6974 62.7727C29.6463 62.858 29.5781 62.9261 29.4929 62.9773C29.4077 63.0284 29.313 63.054 29.2088 63.054ZM32.674 63.0795C32.2668 63.0795 31.907 63.0095 31.5945 62.8693C31.2839 62.7292 31.0405 62.536 30.8643 62.2898C30.6882 62.0436 30.6011 61.7633 30.603 61.4489C30.6011 61.2027 30.6513 60.9763 30.7536 60.7699C30.8577 60.5616 30.9988 60.3883 31.1768 60.25C31.3549 60.1098 31.5537 60.0208 31.7734 59.983V59.9489C31.4837 59.8788 31.2517 59.7235 31.0774 59.483C30.9032 59.2424 30.817 58.9659 30.8189 58.6534C30.817 58.3561 30.8956 58.0909 31.0547 57.858C31.2157 57.6231 31.4363 57.4384 31.7166 57.304C31.9969 57.1695 32.3161 57.1023 32.674 57.1023C33.0282 57.1023 33.3445 57.1705 33.6229 57.3068C33.9032 57.4413 34.1238 57.6259 34.2848 57.8608C34.4458 58.0937 34.5272 58.358 34.5291 58.6534C34.5272 58.9659 34.4382 59.2424 34.2621 59.483C34.0859 59.7235 33.8568 59.8788 33.5746 59.9489V59.983C33.7924 60.0208 33.9884 60.1098 34.1626 60.25C34.3388 60.3883 34.4789 60.5616 34.5831 60.7699C34.6892 60.9763 34.7431 61.2027 34.745 61.4489C34.7431 61.7633 34.6541 62.0436 34.478 62.2898C34.3018 62.536 34.0575 62.7292 33.745 62.8693C33.4344 63.0095 33.0774 63.0795 32.674 63.0795ZM32.674 62.3608C32.9145 62.3608 33.1229 62.321 33.299 62.2415C33.4751 62.16 33.6115 62.0473 33.7081 61.9034C33.8047 61.7576 33.8539 61.5871 33.8558 61.392C33.8539 61.1894 33.8009 61.0104 33.6967 60.8551C33.5945 60.6998 33.4553 60.5777 33.2791 60.4886C33.103 60.3996 32.9013 60.3551 32.674 60.3551C32.4448 60.3551 32.2412 60.3996 32.0632 60.4886C31.8852 60.5777 31.745 60.6998 31.6428 60.8551C31.5405 61.0104 31.4903 61.1894 31.4922 61.392C31.4903 61.5871 31.5367 61.7576 31.6314 61.9034C31.728 62.0473 31.8653 62.16 32.0433 62.2415C32.2214 62.321 32.4316 62.3608 32.674 62.3608ZM32.674 59.6534C32.8672 59.6534 33.0386 59.6146 33.1882 59.5369C33.3378 59.4593 33.4553 59.3513 33.5405 59.2131C33.6276 59.0748 33.6721 58.9129 33.674 58.7273C33.6721 58.5455 33.6286 58.3864 33.5433 58.25C33.46 58.1136 33.3435 58.0085 33.1939 57.9347C33.0443 57.8589 32.871 57.821 32.674 57.821C32.4732 57.821 32.2971 57.8589 32.1456 57.9347C31.996 58.0085 31.8795 58.1136 31.7962 58.25C31.7128 58.3864 31.6721 58.5455 31.674 58.7273C31.6721 58.9129 31.7138 59.0748 31.799 59.2131C31.8842 59.3513 32.0017 59.4593 32.1513 59.5369C32.3028 59.6146 32.477 59.6534 32.674 59.6534ZM35.7741 63V58.6364H36.5895V59.3466H36.6435C36.7344 59.1061 36.883 58.9186 37.0895 58.7841C37.2959 58.6477 37.5431 58.5795 37.831 58.5795C38.1226 58.5795 38.367 58.6477 38.5639 58.7841C38.7628 58.9205 38.9096 59.108 39.0043 59.3466H39.0497C39.1539 59.1136 39.3196 58.928 39.5469 58.7898C39.7741 58.6496 40.045 58.5795 40.3594 58.5795C40.7552 58.5795 41.0781 58.7036 41.3281 58.9517C41.58 59.1998 41.706 59.5739 41.706 60.0739V63H40.8565V60.1534C40.8565 59.858 40.776 59.6439 40.6151 59.5114C40.4541 59.3788 40.2618 59.3125 40.0384 59.3125C39.7618 59.3125 39.5469 59.3977 39.3935 59.5682C39.2401 59.7367 39.1634 59.9536 39.1634 60.2188V63H38.3168V60.0994C38.3168 59.8627 38.2429 59.6723 38.0952 59.5284C37.9474 59.3845 37.7552 59.3125 37.5185 59.3125C37.3575 59.3125 37.2088 59.3551 37.0724 59.4403C36.938 59.5237 36.8291 59.6402 36.7457 59.7898C36.6643 59.9394 36.6236 60.1127 36.6236 60.3097V63H35.7741ZM46.169 60.4545L46.223 59.2557L45.2116 59.9062L44.902 59.3665L45.9759 58.8182L44.902 58.2699L45.2116 57.7301L46.223 58.3807L46.169 57.1818H46.7855L46.7315 58.3807L47.7429 57.7301L48.0526 58.2699L46.9787 58.8182L48.0526 59.3665L47.7429 59.9062L46.7315 59.2557L46.7855 60.4545H46.169ZM52.4581 63L50.8445 57.1818H51.7678L52.9013 61.6875H52.9553L54.1342 57.1818H55.049L56.228 61.6903H56.282L57.4126 57.1818H58.3388L56.7223 63H55.8388L54.6143 58.642H54.5689L53.3445 63H52.4581ZM63.3842 57.1818V63H62.5036V58.0625H62.4695L61.0774 58.9716V58.1307L62.5291 57.1818H63.3842ZM65.1932 63.054C65.0379 63.054 64.9044 62.9991 64.7926 62.8892C64.6809 62.7775 64.625 62.643 64.625 62.4858C64.625 62.3305 64.6809 62.1979 64.7926 62.0881C64.9044 61.9763 65.0379 61.9205 65.1932 61.9205C65.3485 61.9205 65.482 61.9763 65.5938 62.0881C65.7055 62.1979 65.7614 62.3305 65.7614 62.4858C65.7614 62.59 65.7348 62.6856 65.6818 62.7727C65.6307 62.858 65.5625 62.9261 65.4773 62.9773C65.392 63.0284 65.2973 63.054 65.1932 63.054ZM66.8878 63V62.3636L68.8565 60.3239C69.0668 60.1023 69.2401 59.9081 69.3764 59.7415C69.5147 59.5729 69.6179 59.4129 69.6861 59.2614C69.7543 59.1098 69.7884 58.9489 69.7884 58.7784C69.7884 58.5852 69.7429 58.4186 69.652 58.2784C69.5611 58.1364 69.437 58.0275 69.2798 57.9517C69.1226 57.8741 68.9455 57.8352 68.7486 57.8352C68.5402 57.8352 68.3584 57.8778 68.2031 57.9631C68.0478 58.0483 67.9285 58.1686 67.8452 58.3239C67.7618 58.4792 67.7202 58.661 67.7202 58.8693H66.8821C66.8821 58.5152 66.9635 58.2055 67.1264 57.9403C67.2893 57.6752 67.5128 57.4697 67.7969 57.3239C68.081 57.1761 68.4039 57.1023 68.7656 57.1023C69.1312 57.1023 69.4531 57.1752 69.7315 57.321C70.0118 57.465 70.2306 57.6619 70.3878 57.9119C70.545 58.16 70.6236 58.4403 70.6236 58.7528C70.6236 58.9688 70.5829 59.1799 70.5014 59.3864C70.4219 59.5928 70.2827 59.8229 70.0838 60.0767C69.8849 60.3286 69.6084 60.6345 69.2543 60.9943L68.098 62.2045V62.2472H70.7173V63H66.8878ZM73.9226 63V58.6364H74.7379V59.3466H74.7919C74.8828 59.1061 75.0315 58.9186 75.2379 58.7841C75.4444 58.6477 75.6915 58.5795 75.9794 58.5795C76.2711 58.5795 76.5154 58.6477 76.7124 58.7841C76.9112 58.9205 77.058 59.108 77.1527 59.3466H77.1982C77.3023 59.1136 77.468 58.928 77.6953 58.7898C77.9226 58.6496 78.1934 58.5795 78.5078 58.5795C78.9036 58.5795 79.2266 58.7036 79.4766 58.9517C79.7285 59.1998 79.8544 59.5739 79.8544 60.0739V63H79.005V60.1534C79.005 59.858 78.9245 59.6439 78.7635 59.5114C78.6025 59.3788 78.4103 59.3125 78.1868 59.3125C77.9103 59.3125 77.6953 59.3977 77.5419 59.5682C77.3885 59.7367 77.3118 59.9536 77.3118 60.2188V63H76.4652V60.0994C76.4652 59.8627 76.3913 59.6723 76.2436 59.5284C76.0959 59.3845 75.9036 59.3125 75.6669 59.3125C75.5059 59.3125 75.3572 59.3551 75.2209 59.4403C75.0864 59.5237 74.9775 59.6402 74.8942 59.7898C74.8127 59.9394 74.772 60.1127 74.772 60.3097V63H73.9226ZM84.3175 60.4545L84.3714 59.2557L83.3601 59.9062L83.0504 59.3665L84.1243 58.8182L83.0504 58.2699L83.3601 57.7301L84.3714 58.3807L84.3175 57.1818H84.9339L84.88 58.3807L85.8913 57.7301L86.201 58.2699L85.1271 58.8182L86.201 59.3665L85.8913 59.9062L84.88 59.2557L84.9339 60.4545H84.3175ZM89.4673 63V57.1818H90.3452V59.7102H93.2457V57.1818H94.1264V63H93.2457V60.4631H90.3452V63H89.4673ZM99.6499 57.1818V63H98.7692V58.0625H98.7351L97.343 58.9716V58.1307L98.7947 57.1818H99.6499ZM101.459 63.054C101.304 63.054 101.17 62.9991 101.058 62.8892C100.946 62.7775 100.891 62.643 100.891 62.4858C100.891 62.3305 100.946 62.1979 101.058 62.0881C101.17 61.9763 101.304 61.9205 101.459 61.9205C101.614 61.9205 101.748 61.9763 101.859 62.0881C101.971 62.1979 102.027 62.3305 102.027 62.4858C102.027 62.59 102 62.6856 101.947 62.7727C101.896 62.858 101.828 62.9261 101.743 62.9773C101.658 63.0284 101.563 63.054 101.459 63.054ZM103.153 63V62.3636L105.122 60.3239C105.332 60.1023 105.506 59.9081 105.642 59.7415C105.78 59.5729 105.884 59.4129 105.952 59.2614C106.02 59.1098 106.054 58.9489 106.054 58.7784C106.054 58.5852 106.009 58.4186 105.918 58.2784C105.827 58.1364 105.703 58.0275 105.545 57.9517C105.388 57.8741 105.211 57.8352 105.014 57.8352C104.806 57.8352 104.624 57.8778 104.469 57.9631C104.313 58.0483 104.194 58.1686 104.111 58.3239C104.027 58.4792 103.986 58.661 103.986 58.8693H103.148C103.148 58.5152 103.229 58.2055 103.392 57.9403C103.555 57.6752 103.778 57.4697 104.062 57.3239C104.347 57.1761 104.67 57.1023 105.031 57.1023C105.397 57.1023 105.719 57.1752 105.997 57.321C106.277 57.465 106.496 57.6619 106.653 57.9119C106.811 58.16 106.889 58.4403 106.889 58.7528C106.889 58.9688 106.848 59.1799 106.767 59.3864C106.688 59.5928 106.548 59.8229 106.349 60.0767C106.151 60.3286 105.874 60.6345 105.52 60.9943L104.364 62.2045V62.2472H106.983V63H103.153ZM110.188 63V58.6364H111.004V59.3466H111.058C111.148 59.1061 111.297 58.9186 111.504 58.7841C111.71 58.6477 111.957 58.5795 112.245 58.5795C112.537 58.5795 112.781 58.6477 112.978 58.7841C113.177 58.9205 113.324 59.108 113.418 59.3466H113.464C113.568 59.1136 113.734 58.928 113.961 58.7898C114.188 58.6496 114.459 58.5795 114.773 58.5795C115.169 58.5795 115.492 58.7036 115.742 58.9517C115.994 59.1998 116.12 59.5739 116.12 60.0739V63H115.271V60.1534C115.271 59.858 115.19 59.6439 115.029 59.5114C114.868 59.3788 114.676 59.3125 114.452 59.3125C114.176 59.3125 113.961 59.3977 113.808 59.5682C113.654 59.7367 113.577 59.9536 113.577 60.2188V63H112.731V60.0994C112.731 59.8627 112.657 59.6723 112.509 59.5284C112.362 59.3845 112.169 59.3125 111.933 59.3125C111.772 59.3125 111.623 59.3551 111.487 59.4403C111.352 59.5237 111.243 59.6402 111.16 59.7898C111.078 59.9394 111.038 60.1127 111.038 60.3097V63H110.188Z" fill="#F37A1D"/>
<path d="M51.8835 97.1818V103H50.8295V98.2074H50.7955L49.4347 99.0767V98.1108L50.8807 97.1818H51.8835ZM55.4915 103.08C55.2131 103.078 54.9413 103.029 54.6761 102.935C54.411 102.838 54.1723 102.682 53.9602 102.466C53.7481 102.248 53.5795 101.959 53.4545 101.599C53.3295 101.238 53.268 100.79 53.2699 100.256C53.2699 99.7576 53.3229 99.3134 53.429 98.9233C53.535 98.5331 53.6875 98.2036 53.8864 97.9347C54.0852 97.6638 54.3248 97.4574 54.6051 97.3153C54.8873 97.1733 55.2027 97.1023 55.5511 97.1023C55.9167 97.1023 56.2405 97.1742 56.5227 97.3182C56.8068 97.4621 57.036 97.6591 57.2102 97.9091C57.3845 98.1572 57.4924 98.4375 57.5341 98.75H56.4972C56.4441 98.5265 56.3352 98.3485 56.1705 98.2159C56.0076 98.0814 55.8011 98.0142 55.5511 98.0142C55.1477 98.0142 54.8371 98.1894 54.6193 98.5398C54.4034 98.8902 54.2945 99.3712 54.2926 99.983H54.3324C54.4252 99.8163 54.5455 99.6733 54.6932 99.554C54.8409 99.4347 55.0076 99.3428 55.1932 99.2784C55.3807 99.2121 55.5786 99.179 55.7869 99.179C56.1278 99.179 56.4337 99.2604 56.7045 99.4233C56.9773 99.5862 57.1932 99.8106 57.3523 100.097C57.5114 100.381 57.59 100.706 57.5881 101.074C57.59 101.456 57.5028 101.8 57.3267 102.105C57.1506 102.408 56.9053 102.647 56.5909 102.821C56.2765 102.995 55.91 103.081 55.4915 103.08ZM55.4858 102.227C55.6922 102.227 55.8769 102.177 56.0398 102.077C56.2027 101.976 56.3314 101.841 56.4261 101.67C56.5208 101.5 56.5672 101.309 56.5653 101.097C56.5672 100.888 56.5218 100.7 56.429 100.531C56.3381 100.363 56.2121 100.229 56.0511 100.131C55.8902 100.032 55.7064 99.983 55.5 99.983C55.3466 99.983 55.2036 100.012 55.071 100.071C54.9384 100.13 54.8229 100.211 54.7244 100.315C54.6259 100.418 54.5483 100.537 54.4915 100.673C54.4366 100.808 54.4081 100.952 54.4062 101.105C54.4081 101.308 54.4555 101.494 54.5483 101.665C54.6411 101.835 54.7689 101.972 54.9318 102.074C55.0947 102.176 55.2794 102.227 55.4858 102.227ZM60.9148 97.1818V103H59.8608V98.2074H59.8267L58.4659 99.0767V98.1108L59.9119 97.1818H60.9148ZM64.4332 103V97.1818H66.6605C67.081 97.1818 67.4304 97.2481 67.7088 97.3807C67.9891 97.5114 68.1984 97.6903 68.3366 97.9176C68.4768 98.1449 68.5469 98.4025 68.5469 98.6903C68.5469 98.9271 68.5014 99.1297 68.4105 99.2983C68.3196 99.465 68.1974 99.6004 68.044 99.7045C67.8906 99.8087 67.7192 99.8835 67.5298 99.929V99.9858C67.7363 99.9972 67.9342 100.061 68.1236 100.176C68.3149 100.29 68.4711 100.451 68.5923 100.659C68.7135 100.867 68.7741 101.119 68.7741 101.415C68.7741 101.716 68.7012 101.987 68.5554 102.227C68.4096 102.466 68.1899 102.654 67.8963 102.793C67.6027 102.931 67.2334 103 66.7884 103H64.4332ZM65.4872 102.119H66.6207C67.0033 102.119 67.2789 102.046 67.4474 101.901C67.6179 101.753 67.7031 101.563 67.7031 101.332C67.7031 101.16 67.6605 101.005 67.5753 100.866C67.4901 100.726 67.3688 100.616 67.2116 100.537C67.0545 100.455 66.867 100.415 66.6491 100.415H65.4872V102.119ZM65.4872 99.6562H66.5298C66.7116 99.6562 66.8755 99.6231 67.0213 99.5568C67.1671 99.4886 67.2817 99.393 67.3651 99.2699C67.4503 99.1449 67.4929 98.9972 67.4929 98.8267C67.4929 98.6013 67.4134 98.4157 67.2543 98.2699C67.0971 98.1241 66.8632 98.0511 66.5526 98.0511H65.4872V99.6562ZM74.8899 100.091C74.8899 100.718 74.7725 101.255 74.5376 101.702C74.3047 102.147 73.9865 102.488 73.5831 102.724C73.1816 102.961 72.7261 103.08 72.2166 103.08C71.7071 103.08 71.2507 102.961 70.8473 102.724C70.4458 102.486 70.1276 102.144 69.8928 101.699C69.6598 101.252 69.5433 100.716 69.5433 100.091C69.5433 99.464 69.6598 98.928 69.8928 98.483C70.1276 98.036 70.4458 97.6941 70.8473 97.4574C71.2507 97.2206 71.7071 97.1023 72.2166 97.1023C72.7261 97.1023 73.1816 97.2206 73.5831 97.4574C73.9865 97.6941 74.3047 98.036 74.5376 98.483C74.7725 98.928 74.8899 99.464 74.8899 100.091ZM73.8303 100.091C73.8303 99.6496 73.7611 99.2775 73.6229 98.9744C73.4865 98.6695 73.2971 98.4394 73.0547 98.2841C72.8123 98.1269 72.5329 98.0483 72.2166 98.0483C71.9003 98.0483 71.621 98.1269 71.3786 98.2841C71.1361 98.4394 70.9458 98.6695 70.8075 98.9744C70.6712 99.2775 70.603 99.6496 70.603 100.091C70.603 100.532 70.6712 100.905 70.8075 101.21C70.9458 101.513 71.1361 101.743 71.3786 101.901C71.621 102.056 71.9003 102.134 72.2166 102.134C72.5329 102.134 72.8123 102.056 73.0547 101.901C73.2971 101.743 73.4865 101.513 73.6229 101.21C73.7611 100.905 73.8303 100.532 73.8303 100.091ZM76.5561 97.1818L77.8374 99.3125H77.8828L79.1697 97.1818H80.3714L78.5788 100.091L80.3999 103H79.1783L77.8828 100.884H77.8374L76.5419 103H75.326L77.1641 100.091L75.3487 97.1818H76.5561ZM81.1989 103V97.1818H84.983V98.0653H82.2528V99.6449H84.7869V100.528H82.2528V102.116H85.0057V103H81.1989ZM89.2202 98.7812C89.1937 98.5331 89.0819 98.34 88.8849 98.2017C88.6899 98.0634 88.4361 97.9943 88.1236 97.9943C87.9039 97.9943 87.7154 98.0275 87.5582 98.0938C87.401 98.16 87.2808 98.25 87.1974 98.3636C87.1141 98.4773 87.0715 98.607 87.0696 98.7528C87.0696 98.8741 87.0971 98.9792 87.152 99.0682C87.2088 99.1572 87.2855 99.233 87.3821 99.2955C87.4787 99.3561 87.5857 99.4072 87.7031 99.4489C87.8205 99.4905 87.9389 99.5256 88.0582 99.554L88.6037 99.6903C88.8234 99.7415 89.0346 99.8106 89.2372 99.8977C89.4418 99.9848 89.6245 100.095 89.7855 100.227C89.9484 100.36 90.0772 100.52 90.1719 100.707C90.2666 100.895 90.3139 101.115 90.3139 101.366C90.3139 101.707 90.2268 102.008 90.0526 102.267C89.8783 102.525 89.6264 102.726 89.2969 102.872C88.9692 103.016 88.5724 103.088 88.1065 103.088C87.6539 103.088 87.2609 103.018 86.9276 102.878C86.5961 102.738 86.3366 102.533 86.1491 102.264C85.9635 101.995 85.8632 101.668 85.848 101.281H86.8849C86.9001 101.484 86.9626 101.652 87.0724 101.787C87.1823 101.921 87.3253 102.022 87.5014 102.088C87.6795 102.154 87.8783 102.188 88.098 102.188C88.3272 102.188 88.5279 102.153 88.7003 102.085C88.8745 102.015 89.0109 101.919 89.1094 101.795C89.2079 101.67 89.258 101.525 89.2599 101.358C89.258 101.206 89.2135 101.081 89.1264 100.983C89.0393 100.883 88.9171 100.799 88.7599 100.733C88.6046 100.665 88.4228 100.604 88.2145 100.551L87.5526 100.381C87.0734 100.258 86.6946 100.071 86.4162 99.821C86.1397 99.5691 86.0014 99.2348 86.0014 98.8182C86.0014 98.4754 86.0942 98.1752 86.2798 97.9176C86.4673 97.66 86.7221 97.4602 87.044 97.3182C87.366 97.1742 87.7306 97.1023 88.1378 97.1023C88.5507 97.1023 88.9124 97.1742 89.223 97.3182C89.5355 97.4602 89.7808 97.6581 89.9588 97.9119C90.1368 98.1638 90.2287 98.4536 90.2344 98.7812H89.2202Z" fill="#F37A1D"/>
<path d="M54.8686 38.442V37.7046L57.6381 34.6728C57.9631 34.3177 58.2308 34.0091 58.4411 33.7469C58.6514 33.482 58.8071 33.2334 58.9082 33.0013C59.0119 32.7664 59.0638 32.5205 59.0638 32.2638C59.0638 31.9688 58.9928 31.7134 58.8508 31.4977C58.7115 31.2819 58.5203 31.1153 58.2772 30.9978C58.0341 30.8804 57.761 30.8217 57.4578 30.8217C57.1355 30.8217 56.8542 30.8886 56.6139 31.0224C56.3762 31.1535 56.1919 31.3379 56.0608 31.5755C55.9324 31.8131 55.8682 32.0917 55.8682 32.4113H54.9013C54.9013 31.9197 55.0147 31.4881 55.2414 31.1167C55.4681 30.7452 55.7767 30.4557 56.1673 30.2481C56.5606 30.0405 57.0017 29.9367 57.4906 29.9367C57.9822 29.9367 58.4179 30.0405 58.7975 30.2481C59.1772 30.4557 59.4749 30.7356 59.6907 31.088C59.9064 31.4403 60.0143 31.8323 60.0143 32.2638C60.0143 32.5724 59.9583 32.8742 59.8464 33.1692C59.7371 33.4615 59.5459 33.7879 59.2728 34.1484C59.0024 34.5062 58.6268 34.9432 58.1461 35.4594L56.2615 37.4751V37.5407H60.1618V38.442H54.8686ZM62.5749 38.5076C62.3728 38.5076 62.1994 38.4352 62.0546 38.2904C61.9099 38.1457 61.8375 37.9722 61.8375 37.7701C61.8375 37.568 61.9099 37.3946 62.0546 37.2498C62.1994 37.105 62.3728 37.0327 62.5749 37.0327C62.7771 37.0327 62.9505 37.105 63.0953 37.2498C63.24 37.3946 63.3124 37.568 63.3124 37.7701C63.3124 37.9039 63.2782 38.0269 63.21 38.1388C63.1444 38.2508 63.0556 38.341 62.9437 38.4092C62.8344 38.4748 62.7115 38.5076 62.5749 38.5076ZM67.5241 38.5567C67.1799 38.5513 66.8358 38.4857 66.4916 38.3601C66.1475 38.2344 65.8334 38.0228 65.5493 37.725C65.2653 37.4246 65.0372 37.019 64.8651 36.5083C64.6931 35.9948 64.607 35.3502 64.607 34.5745C64.607 33.8316 64.6767 33.1733 64.816 32.5998C64.9553 32.0234 65.1574 31.5386 65.4223 31.1453C65.6873 30.7493 66.0068 30.4488 66.381 30.244C66.7579 30.0392 67.1827 29.9367 67.6552 29.9367C68.125 29.9367 68.5428 30.031 68.9088 30.2194C69.2776 30.4051 69.578 30.6646 69.8102 30.9978C70.0423 31.3311 70.1925 31.7148 70.2608 32.1491H69.2612C69.1683 31.7722 68.988 31.4594 68.7204 31.2109C68.4527 30.9623 68.0976 30.8381 67.6552 30.8381C67.0051 30.8381 66.493 31.1207 66.1188 31.6861C65.7473 32.2515 65.5603 33.045 65.5575 34.0665H65.6231C65.776 33.8343 65.9577 33.6363 66.168 33.4724C66.381 33.3058 66.6159 33.1774 66.8726 33.0873C67.1294 32.9972 67.4012 32.9521 67.6879 32.9521C68.1687 32.9521 68.6084 33.0723 69.0072 33.3126C69.4059 33.5502 69.7255 33.8794 69.9659 34.3C70.2062 34.7179 70.3264 35.1972 70.3264 35.738C70.3264 36.257 70.2103 36.7322 69.9781 37.1638C69.746 37.5926 69.4196 37.934 68.999 38.188C68.5811 38.4393 68.0894 38.5622 67.5241 38.5567ZM67.5241 37.6554C67.8682 37.6554 68.1768 37.5694 68.45 37.3973C68.7258 37.2252 68.943 36.9944 69.1014 36.7049C69.2625 36.4154 69.3431 36.0931 69.3431 35.738C69.3431 35.3911 69.2653 35.0757 69.1096 34.7916C68.9566 34.5048 68.745 34.2768 68.4746 34.1074C68.2069 33.9381 67.901 33.8534 67.5568 33.8534C67.2974 33.8534 67.0556 33.9053 66.8317 34.0091C66.6077 34.1102 66.4111 34.2495 66.2417 34.427C66.0751 34.6045 65.944 34.808 65.8484 35.0374C65.7528 35.2641 65.705 35.5031 65.705 35.7544C65.705 36.0876 65.7829 36.399 65.9385 36.6885C66.097 36.978 66.3127 37.2116 66.5859 37.3891C66.8617 37.5666 67.1745 37.6554 67.5241 37.6554ZM72.085 30.0514H73.2977L76.1492 37.0163H76.2475L79.099 30.0514H80.3117V38.442H79.3612V32.0671H79.2793L76.6572 38.442H75.7395L73.1174 32.0671H73.0355V38.442H72.085V30.0514Z" fill="#F37A1D"/>
<path d="M83.2512 32.0574C82.9808 32.0574 82.7398 32.0109 82.5281 31.9181C82.3178 31.8252 82.1505 31.6961 82.0262 31.5309C81.9033 31.3643 81.8364 31.171 81.8255 30.9512H82.3417C82.3526 31.0864 82.3991 31.2031 82.481 31.3015C82.563 31.3984 82.6702 31.4735 82.8026 31.5268C82.9351 31.5801 83.0819 31.6067 83.243 31.6067C83.4233 31.6067 83.5831 31.5753 83.7224 31.5125C83.8617 31.4496 83.9709 31.3622 84.0501 31.2503C84.1294 31.1383 84.169 31.0085 84.169 30.861C84.169 30.7067 84.1307 30.5708 84.0542 30.4534C83.9778 30.3346 83.8658 30.2417 83.7183 30.1748C83.5708 30.1079 83.3905 30.0744 83.1775 30.0744H82.8415V29.6238H83.1775C83.3441 29.6238 83.4902 29.5937 83.6159 29.5336C83.7429 29.4735 83.8419 29.3889 83.9129 29.2796C83.9853 29.1704 84.0215 29.042 84.0215 28.8945C84.0215 28.7525 83.9901 28.6289 83.9272 28.5237C83.8644 28.4186 83.7757 28.3366 83.6609 28.2779C83.5476 28.2192 83.4138 28.1898 83.2594 28.1898C83.1147 28.1898 82.9781 28.2165 82.8497 28.2697C82.7227 28.3216 82.6189 28.3974 82.5384 28.4971C82.4578 28.5954 82.4141 28.7142 82.4073 28.8535H81.9156C81.9238 28.6337 81.9901 28.4411 82.1143 28.2759C82.2386 28.1093 82.4011 27.9795 82.6019 27.8867C82.804 27.7938 83.0259 27.7474 83.2676 27.7474C83.5271 27.7474 83.7497 27.7999 83.9354 27.9051C84.1212 28.0089 84.2639 28.1461 84.3636 28.3168C84.4633 28.4875 84.5131 28.6719 84.5131 28.8699C84.5131 29.1062 84.451 29.3076 84.3267 29.4742C84.2038 29.6408 84.0365 29.7562 83.8248 29.8204V29.8532C84.0898 29.8969 84.2966 30.0096 84.4455 30.1912C84.5944 30.3715 84.6688 30.5947 84.6688 30.861C84.6688 31.0891 84.6067 31.294 84.4824 31.4756C84.3595 31.6559 84.1915 31.7979 83.9785 31.9017C83.7654 32.0055 83.523 32.0574 83.2512 32.0574Z" fill="#F37A1D"/>
<defs>
<clipPath id="clip0_2264_99776">
<rect width="14.4213" height="14.4213" fill="white" transform="translate(111.59 8.65271)"/>
</clipPath>
</defs>
</svg>
