<svg width="139" height="145" viewBox="0 0 139 145" fill="none" xmlns="http://www.w3.org/2000/svg">
<rect width="138.444" height="144.213" fill="#18365a"/>
<path d="M50.6012 15.1809C50.5603 14.7678 50.3844 14.4468 50.0737 14.2181C49.7631 13.9893 49.3414 13.875 48.8088 13.875C48.4469 13.875 48.1413 13.9262 47.8921 14.0286C47.6429 14.1276 47.4517 14.2659 47.3185 14.4434C47.1888 14.621 47.1239 14.8224 47.1239 15.0477C47.1171 15.2355 47.1564 15.3994 47.2417 15.5394C47.3305 15.6793 47.4517 15.8005 47.6053 15.903C47.759 16.002 47.9365 16.089 48.1379 16.1642C48.3394 16.2358 48.5545 16.2973 48.7832 16.3485L49.7255 16.5738C50.183 16.6763 50.6029 16.8128 50.9853 16.9835C51.3677 17.1542 51.6989 17.3642 51.9788 17.6134C52.2588 17.8627 52.4756 18.1563 52.6292 18.4943C52.7863 18.8323 52.8665 19.2198 52.8699 19.6568C52.8665 20.2987 52.7026 20.8552 52.3783 21.3263C52.0574 21.7941 51.593 22.1577 50.9853 22.4171C50.381 22.6732 49.6521 22.8012 48.7986 22.8012C47.9519 22.8012 47.2144 22.6715 46.5862 22.412C45.9614 22.1525 45.4732 21.7684 45.1215 21.2597C44.7733 20.7476 44.5906 20.1143 44.5736 19.3598H46.7194C46.7433 19.7114 46.844 20.005 47.0215 20.2406C47.2025 20.4728 47.4432 20.6486 47.7436 20.7681C48.0475 20.8842 48.3906 20.9422 48.773 20.9422C49.1485 20.9422 49.4746 20.8876 49.7511 20.7784C50.0311 20.6691 50.2479 20.5172 50.4015 20.3226C50.5551 20.128 50.632 19.9043 50.632 19.6517C50.632 19.4161 50.562 19.2181 50.422 19.0576C50.2854 18.8972 50.084 18.7606 49.8177 18.6479C49.5548 18.5353 49.2322 18.4328 48.8498 18.3407L47.7077 18.0539C46.8235 17.8388 46.1253 17.5025 45.6132 17.045C45.1011 16.5875 44.8467 15.9713 44.8501 15.1962C44.8467 14.5612 45.0157 14.0064 45.3571 13.5319C45.7019 13.0573 46.1748 12.6869 46.7757 12.4206C47.3766 12.1543 48.0594 12.0211 48.8242 12.0211C49.6026 12.0211 50.282 12.1543 50.8624 12.4206C51.4462 12.6869 51.9003 13.0573 52.2246 13.5319C52.549 14.0064 52.7163 14.5561 52.7265 15.1809H50.6012ZM54.3615 12.1645H57.0962L59.9845 19.2113H60.1075L62.9958 12.1645H65.7305V22.6527H63.5796V15.8262H63.4926L60.7783 22.6015H59.3137L56.5994 15.8005H56.5124V22.6527H54.3615V12.1645ZM69.3653 22.6527H66.9891L70.6098 12.1645H73.4674L77.0829 22.6527H74.7067L72.0795 14.5612H71.9976L69.3653 22.6527ZM69.2168 18.5301H74.8296V20.2611H69.2168V18.5301ZM78.3453 22.6527V12.1645H80.5628V20.8244H85.0592V22.6527H78.3453ZM86.5277 22.6527V12.1645H88.7452V20.8244H93.2416V22.6527H86.5277Z" fill="#d8b56c"/>
<g clip-path="url(#clip0_2034_96991)">
<path d="M118.801 8.65259C115.065 8.65259 112.041 11.6759 112.041 15.4123C112.041 17.0504 112.63 18.6201 113.703 19.8511V22.6509C113.703 23.026 114.158 23.2156 114.424 22.9496L115.869 21.5046C120.359 23.6646 125.561 20.3825 125.561 15.4123C125.561 11.6765 122.538 8.65259 118.801 8.65259ZM118.801 19.6625C118.568 19.6625 118.38 19.474 118.38 19.2415C118.38 19.0089 118.568 18.8204 118.801 18.8204C119.034 18.8204 119.222 19.0089 119.222 19.2415C119.222 19.474 119.034 19.6625 118.801 19.6625ZM119.223 16.6728V17.5515C119.223 17.7848 119.034 17.974 118.801 17.974C118.568 17.974 118.378 17.7848 118.378 17.5515V16.2855C118.378 16.0521 118.568 15.863 118.801 15.863C119.734 15.863 120.492 15.1042 120.492 14.1716C120.492 13.239 119.734 12.4803 118.801 12.4803C117.868 12.4803 117.11 13.239 117.11 14.1716C117.11 14.405 116.92 14.5941 116.687 14.5941C116.454 14.5941 116.265 14.4049 116.265 14.1716C116.265 12.7731 117.402 11.6353 118.801 11.6353C120.2 11.6353 121.337 12.7731 121.337 14.1716C121.337 15.4263 120.422 16.471 119.223 16.6728Z" fill="#d8b56c"/>
</g>
<path d="M82.2021 76.4329L85.8075 78.5144L85.8075 74.3513L82.2021 76.4329ZM96.6234 76.4329L93.0181 74.3513L93.0181 78.5144L96.6234 76.4329ZM85.4469 76.7934L93.3787 76.7934L93.3787 76.0723L85.4469 76.0723L85.4469 76.7934Z" fill="#18365a"/>
<path d="M16.517 79.1818V85H15.6392V79.1818H16.517ZM19.679 85H17.7955V79.1818H19.7386C20.3087 79.1818 20.7983 79.2983 21.2074 79.5312C21.6165 79.7623 21.9299 80.0947 22.1477 80.5284C22.3674 80.9602 22.4773 81.4782 22.4773 82.0824C22.4773 82.6884 22.3665 83.2093 22.1449 83.6449C21.9252 84.0805 21.607 84.4157 21.1903 84.6506C20.7737 84.8835 20.2699 85 19.679 85ZM18.6733 84.233H19.6307C20.0739 84.233 20.4422 84.1496 20.7358 83.983C21.0294 83.8144 21.2491 83.571 21.3949 83.2528C21.5407 82.9328 21.6136 82.5426 21.6136 82.0824C21.6136 81.6259 21.5407 81.2386 21.3949 80.9205C21.2509 80.6023 21.036 80.3608 20.75 80.196C20.464 80.0312 20.1089 79.9489 19.6847 79.9489H18.6733V84.233ZM23.5689 85V79.1818H27.2166V79.9375H24.4467V81.7102H27.0263V82.4631H24.4467V84.2443H27.2507V85H23.5689ZM25.0405 78.5994L25.7053 77.2898H26.6001L25.7195 78.5994H25.0405ZM28.8807 85H27.9489L30.0426 79.1818H31.0568L33.1506 85H32.2188L30.5739 80.2386H30.5284L28.8807 85ZM29.0369 82.7216H32.0597V83.4602H29.0369V82.7216ZM33.9908 85V79.1818H34.8686V84.2443H37.505V85H33.9908ZM40.6236 85V79.1818H42.6974C43.1501 79.1818 43.5251 79.2642 43.8224 79.429C44.1198 79.5937 44.3423 79.8191 44.4901 80.1051C44.6378 80.3892 44.7116 80.7093 44.7116 81.0653C44.7116 81.4233 44.6368 81.7453 44.4872 82.0312C44.3395 82.3153 44.116 82.5407 43.8168 82.7074C43.5194 82.8722 43.1454 82.9545 42.6946 82.9545H41.2685V82.2102H42.6151C42.901 82.2102 43.133 82.161 43.3111 82.0625C43.4891 81.9621 43.6198 81.8258 43.7031 81.6534C43.7865 81.4811 43.8281 81.285 43.8281 81.0653C43.8281 80.8456 43.7865 80.6506 43.7031 80.4801C43.6198 80.3097 43.4882 80.1761 43.3082 80.0795C43.1302 79.983 42.8954 79.9347 42.6037 79.9347H41.5014V85H40.6236ZM50.7947 82.0909C50.7947 82.7121 50.6811 83.2462 50.4538 83.6932C50.2266 84.1383 49.915 84.4811 49.5192 84.7216C49.1252 84.9602 48.6773 85.0795 48.1754 85.0795C47.6716 85.0795 47.2218 84.9602 46.826 84.7216C46.4321 84.4811 46.1214 84.1373 45.8942 83.6903C45.6669 83.2434 45.5533 82.7102 45.5533 82.0909C45.5533 81.4697 45.6669 80.9366 45.8942 80.4915C46.1214 80.0445 46.4321 79.7017 46.826 79.4631C47.2218 79.2225 47.6716 79.1023 48.1754 79.1023C48.6773 79.1023 49.1252 79.2225 49.5192 79.4631C49.915 79.7017 50.2266 80.0445 50.4538 80.4915C50.6811 80.9366 50.7947 81.4697 50.7947 82.0909ZM49.9254 82.0909C49.9254 81.6174 49.8487 81.2187 49.6953 80.8949C49.5438 80.5691 49.3355 80.3229 49.0703 80.1562C48.8071 79.9877 48.5088 79.9034 48.1754 79.9034C47.8402 79.9034 47.541 79.9877 47.2777 80.1562C47.0144 80.3229 46.8061 80.5691 46.6527 80.8949C46.5012 81.2187 46.4254 81.6174 46.4254 82.0909C46.4254 82.5644 46.5012 82.964 46.6527 83.2898C46.8061 83.6136 47.0144 83.8598 47.2777 84.0284C47.541 84.1951 47.8402 84.2784 48.1754 84.2784C48.5088 84.2784 48.8071 84.1951 49.0703 84.0284C49.3355 83.8598 49.5438 83.6136 49.6953 83.2898C49.8487 82.964 49.9254 82.5644 49.9254 82.0909ZM55.6307 79.1818H56.5114V83.0085C56.5114 83.4157 56.4157 83.7765 56.2244 84.0909C56.0331 84.4034 55.7642 84.6496 55.4176 84.8295C55.071 85.0076 54.6648 85.0966 54.1989 85.0966C53.7348 85.0966 53.3295 85.0076 52.983 84.8295C52.6364 84.6496 52.3674 84.4034 52.1761 84.0909C51.9848 83.7765 51.8892 83.4157 51.8892 83.0085V79.1818H52.767V82.9375C52.767 83.2008 52.8248 83.4347 52.9403 83.6392C53.0578 83.8438 53.2235 84.0047 53.4375 84.1222C53.6515 84.2377 53.9053 84.2955 54.1989 84.2955C54.4943 84.2955 54.7491 84.2377 54.9631 84.1222C55.179 84.0047 55.3438 83.8438 55.4574 83.6392C55.5729 83.4347 55.6307 83.2008 55.6307 82.9375V79.1818ZM57.7876 85V79.1818H59.8615C60.3123 79.1818 60.6863 79.2595 60.9837 79.4148C61.2829 79.5701 61.5064 79.785 61.6541 80.0597C61.8018 80.3324 61.8757 80.6477 61.8757 81.0057C61.8757 81.3617 61.8009 81.6752 61.6513 81.946C61.5036 82.215 61.2801 82.4242 60.9808 82.5739C60.6835 82.7235 60.3094 82.7983 59.8587 82.7983H58.2876V82.0426H59.7791C60.0632 82.0426 60.2943 82.0019 60.4723 81.9205C60.6522 81.839 60.7839 81.7206 60.8672 81.5653C60.9505 81.41 60.9922 81.2235 60.9922 81.0057C60.9922 80.786 60.9496 80.5956 60.8643 80.4347C60.781 80.2737 60.6494 80.1506 60.4695 80.0653C60.2914 79.9782 60.0575 79.9347 59.7678 79.9347H58.6655V85H57.7876ZM60.6598 82.375L62.0973 85H61.0973L59.6882 82.375H60.6598ZM64.7741 79.9375V79.1818H69.277V79.9375H67.4616V85H66.5866V79.9375H64.7741ZM70.272 85V79.1818H72.3459C72.7966 79.1818 73.1707 79.2595 73.468 79.4148C73.7673 79.5701 73.9908 79.785 74.1385 80.0597C74.2862 80.3324 74.3601 80.6477 74.3601 81.0057C74.3601 81.3617 74.2853 81.6752 74.1357 81.946C73.9879 82.215 73.7644 82.4242 73.4652 82.5739C73.1679 82.7235 72.7938 82.7983 72.343 82.7983H70.772V82.0426H72.2635C72.5476 82.0426 72.7786 82.0019 72.9567 81.9205C73.1366 81.839 73.2682 81.7206 73.3516 81.5653C73.4349 81.41 73.4766 81.2235 73.4766 81.0057C73.4766 80.786 73.4339 80.5956 73.3487 80.4347C73.2654 80.2737 73.1338 80.1506 72.9538 80.0653C72.7758 79.9782 72.5419 79.9347 72.2521 79.9347H71.1499V85H70.272ZM73.1442 82.375L74.5817 85H73.5817L72.1726 82.375H73.1442ZM75.9197 85H74.9879L77.0817 79.1818H78.0959L80.1896 85H79.2578L77.6129 80.2386H77.5675L75.9197 85ZM76.076 82.7216H79.0987V83.4602H76.076V82.7216ZM85.7259 79.1818V85H84.919L81.9616 80.733H81.9077V85H81.0298V79.1818H81.8423L84.8026 83.4545H84.8565V79.1818H85.7259ZM90.1797 80.7102C90.1494 80.4413 90.0244 80.233 89.8047 80.0852C89.585 79.9356 89.3085 79.8608 88.9751 79.8608C88.7365 79.8608 88.5301 79.8987 88.3558 79.9744C88.1816 80.0483 88.0462 80.1506 87.9496 80.2812C87.8549 80.41 87.8075 80.5568 87.8075 80.7216C87.8075 80.8598 87.8397 80.9792 87.9041 81.0795C87.9704 81.1799 88.0566 81.2642 88.1626 81.3324C88.2706 81.3987 88.3861 81.4545 88.5092 81.5C88.6323 81.5436 88.7507 81.5795 88.8643 81.608L89.4325 81.7557C89.6181 81.8011 89.8085 81.8627 90.0036 81.9403C90.1986 82.018 90.3795 82.1203 90.5462 82.2472C90.7128 82.3741 90.8473 82.5312 90.9496 82.7188C91.0537 82.9062 91.1058 83.1307 91.1058 83.392C91.1058 83.7216 91.0206 84.0142 90.8501 84.2699C90.6816 84.5256 90.4363 84.7273 90.1143 84.875C89.7943 85.0227 89.407 85.0966 88.9524 85.0966C88.5168 85.0966 88.1399 85.0275 87.8217 84.8892C87.5036 84.7509 87.2545 84.5549 87.0746 84.3011C86.8946 84.0455 86.7952 83.7424 86.7763 83.392H87.657C87.674 83.6023 87.7422 83.7775 87.8615 83.9176C87.9827 84.0559 88.1371 84.1591 88.3246 84.2273C88.514 84.2936 88.7214 84.3267 88.9467 84.3267C89.1948 84.3267 89.4155 84.2879 89.6087 84.2102C89.8037 84.1307 89.9571 84.0208 90.0689 83.8807C90.1806 83.7386 90.2365 83.5729 90.2365 83.3835C90.2365 83.2112 90.1873 83.0701 90.0888 82.9602C89.9922 82.8504 89.8606 82.7595 89.6939 82.6875C89.5291 82.6155 89.3426 82.5521 89.1342 82.4972L88.4467 82.3097C87.9808 82.1828 87.6115 81.9962 87.3388 81.75C87.0679 81.5038 86.9325 81.178 86.9325 80.7727C86.9325 80.4375 87.0234 80.1449 87.2053 79.8949C87.3871 79.6449 87.6333 79.4508 87.9439 79.3125C88.2545 79.1723 88.6049 79.1023 88.995 79.1023C89.389 79.1023 89.7365 79.1714 90.0376 79.3097C90.3407 79.4479 90.5793 79.6383 90.7536 79.8807C90.9278 80.1212 91.0187 80.3977 91.0263 80.7102H90.1797ZM92.1548 85V79.1818H94.2287C94.6813 79.1818 95.0563 79.2642 95.3537 79.429C95.651 79.5937 95.8736 79.8191 96.0213 80.1051C96.169 80.3892 96.2429 80.7093 96.2429 81.0653C96.2429 81.4233 96.1681 81.7453 96.0185 82.0312C95.8707 82.3153 95.6473 82.5407 95.348 82.7074C95.0507 82.8722 94.6766 82.9545 94.2259 82.9545H92.7997V82.2102H94.1463C94.4323 82.2102 94.6643 82.161 94.8423 82.0625C95.0204 81.9621 95.151 81.8258 95.2344 81.6534C95.3177 81.4811 95.3594 81.285 95.3594 81.0653C95.3594 80.8456 95.3177 80.6506 95.2344 80.4801C95.151 80.3097 95.0194 80.1761 94.8395 80.0795C94.6615 79.983 94.4266 79.9347 94.1349 79.9347H93.0327V85H92.1548ZM102.326 82.0909C102.326 82.7121 102.212 83.2462 101.985 83.6932C101.758 84.1383 101.446 84.4811 101.05 84.7216C100.656 84.9602 100.209 85.0795 99.7067 85.0795C99.2029 85.0795 98.7531 84.9602 98.3572 84.7216C97.9633 84.4811 97.6527 84.1373 97.4254 83.6903C97.1982 83.2434 97.0845 82.7102 97.0845 82.0909C97.0845 81.4697 97.1982 80.9366 97.4254 80.4915C97.6527 80.0445 97.9633 79.7017 98.3572 79.4631C98.7531 79.2225 99.2029 79.1023 99.7067 79.1023C100.209 79.1023 100.656 79.2225 101.05 79.4631C101.446 79.7017 101.758 80.0445 101.985 80.4915C102.212 80.9366 102.326 81.4697 102.326 82.0909ZM101.457 82.0909C101.457 81.6174 101.38 81.2187 101.227 80.8949C101.075 80.5691 100.867 80.3229 100.602 80.1562C100.338 79.9877 100.04 79.9034 99.7067 79.9034C99.3714 79.9034 99.0722 79.9877 98.8089 80.1562C98.5457 80.3229 98.3374 80.5691 98.1839 80.8949C98.0324 81.2187 97.9567 81.6174 97.9567 82.0909C97.9567 82.5644 98.0324 82.964 98.1839 83.2898C98.3374 83.6136 98.5457 83.8598 98.8089 84.0284C99.0722 84.1951 99.3714 84.2784 99.7067 84.2784C100.04 84.2784 100.338 84.1951 100.602 84.0284C100.867 83.8598 101.075 83.6136 101.227 83.2898C101.38 82.964 101.457 82.5644 101.457 82.0909ZM103.42 85V79.1818H105.494C105.945 79.1818 106.319 79.2595 106.616 79.4148C106.916 79.5701 107.139 79.785 107.287 80.0597C107.435 80.3324 107.509 80.6477 107.509 81.0057C107.509 81.3617 107.434 81.6752 107.284 81.946C107.136 82.215 106.913 82.4242 106.614 82.5739C106.316 82.7235 105.942 82.7983 105.491 82.7983H103.92V82.0426H105.412C105.696 82.0426 105.927 82.0019 106.105 81.9205C106.285 81.839 106.417 81.7206 106.5 81.5653C106.583 81.41 106.625 81.2235 106.625 81.0057C106.625 80.786 106.582 80.5956 106.497 80.4347C106.414 80.2737 106.282 80.1506 106.102 80.0653C105.924 79.9782 105.69 79.9347 105.401 79.9347H104.298V85H103.42ZM106.293 82.375L107.73 85H106.73L105.321 82.375H106.293ZM108.29 79.9375V79.1818H112.793V79.9375H110.977V85H110.102V79.9375H108.29ZM113.788 85V79.1818H117.435V79.9375H114.665V81.7102H117.245V82.4631H114.665V84.2443H117.469V85H113.788ZM118.608 85V79.1818H120.682C121.133 79.1818 121.507 79.2595 121.804 79.4148C122.103 79.5701 122.327 79.785 122.474 80.0597C122.622 80.3324 122.696 80.6477 122.696 81.0057C122.696 81.3617 122.621 81.6752 122.472 81.946C122.324 82.215 122.1 82.4242 121.801 82.5739C121.504 82.7235 121.13 82.7983 120.679 82.7983H119.108V82.0426H120.599C120.884 82.0426 121.115 82.0019 121.293 81.9205C121.473 81.839 121.604 81.7206 121.688 81.5653C121.771 81.41 121.812 81.2235 121.812 81.0057C121.812 80.786 121.77 80.5956 121.685 80.4347C121.601 80.2737 121.47 80.1506 121.29 80.0653C121.112 79.9782 120.878 79.9347 120.588 79.9347H119.486V85H118.608ZM121.48 82.375L122.918 85H121.918L120.509 82.375H121.48Z" fill="#d8b56c"/>
<path d="M18.6392 63V57.1818H19.517V62.2443H22.1534V63H18.6392ZM27.3999 57.1818V63H26.5192V58.0625H26.4851L25.093 58.9716V58.1307L26.5447 57.1818H27.3999ZM29.2088 63.054C29.0535 63.054 28.92 62.9991 28.8082 62.8892C28.6965 62.7775 28.6406 62.643 28.6406 62.4858C28.6406 62.3305 28.6965 62.1979 28.8082 62.0881C28.92 61.9763 29.0535 61.9205 29.2088 61.9205C29.3641 61.9205 29.4976 61.9763 29.6094 62.0881C29.7211 62.1979 29.777 62.3305 29.777 62.4858C29.777 62.59 29.7505 62.6856 29.6974 62.7727C29.6463 62.858 29.5781 62.9261 29.4929 62.9773C29.4077 63.0284 29.313 63.054 29.2088 63.054ZM30.9034 63V62.3636L32.8722 60.3239C33.0824 60.1023 33.2557 59.9081 33.392 59.7415C33.5303 59.5729 33.6335 59.4129 33.7017 59.2614C33.7699 59.1098 33.804 58.9489 33.804 58.7784C33.804 58.5852 33.7585 58.4186 33.6676 58.2784C33.5767 58.1364 33.4527 58.0275 33.2955 57.9517C33.1383 57.8741 32.9612 57.8352 32.7642 57.8352C32.5559 57.8352 32.3741 57.8778 32.2188 57.9631C32.0634 58.0483 31.9441 58.1686 31.8608 58.3239C31.7775 58.4792 31.7358 58.661 31.7358 58.8693H30.8977C30.8977 58.5152 30.9792 58.2055 31.142 57.9403C31.3049 57.6752 31.5284 57.4697 31.8125 57.3239C32.0966 57.1761 32.4195 57.1023 32.7812 57.1023C33.1468 57.1023 33.4688 57.1752 33.7472 57.321C34.0275 57.465 34.2462 57.6619 34.4034 57.9119C34.5606 58.16 34.6392 58.4403 34.6392 58.7528C34.6392 58.9688 34.5985 59.1799 34.517 59.3864C34.4375 59.5928 34.2983 59.8229 34.0994 60.0767C33.9006 60.3286 33.6241 60.6345 33.2699 60.9943L32.1136 62.2045V62.2472H34.733V63H30.9034ZM35.821 63V58.6364H36.6364V59.3466H36.6903C36.7813 59.1061 36.9299 58.9186 37.1364 58.7841C37.3428 58.6477 37.59 58.5795 37.8778 58.5795C38.1695 58.5795 38.4138 58.6477 38.6108 58.7841C38.8097 58.9205 38.9564 59.108 39.0511 59.3466H39.0966C39.2008 59.1136 39.3665 58.928 39.5938 58.7898C39.821 58.6496 40.0919 58.5795 40.4062 58.5795C40.8021 58.5795 41.125 58.7036 41.375 58.9517C41.6269 59.1998 41.7528 59.5739 41.7528 60.0739V63H40.9034V60.1534C40.9034 59.858 40.8229 59.6439 40.6619 59.5114C40.5009 59.3788 40.3087 59.3125 40.0852 59.3125C39.8087 59.3125 39.5938 59.3977 39.4403 59.5682C39.2869 59.7367 39.2102 59.9536 39.2102 60.2188V63H38.3636V60.0994C38.3636 59.8627 38.2898 59.6723 38.142 59.5284C37.9943 59.3845 37.8021 59.3125 37.5653 59.3125C37.4044 59.3125 37.2557 59.3551 37.1193 59.4403C36.9848 59.5237 36.8759 59.6402 36.7926 59.7898C36.7112 59.9394 36.6705 60.1127 36.6705 60.3097V63H35.821ZM46.2159 60.4545L46.2699 59.2557L45.2585 59.9062L44.9489 59.3665L46.0227 58.8182L44.9489 58.2699L45.2585 57.7301L46.2699 58.3807L46.2159 57.1818H46.8324L46.7784 58.3807L47.7898 57.7301L48.0994 58.2699L47.0256 58.8182L48.0994 59.3665L47.7898 59.9062L46.7784 59.2557L46.8324 60.4545H46.2159ZM52.505 63L50.8913 57.1818H51.8146L52.9482 61.6875H53.0021L54.1811 57.1818H55.0959L56.2749 61.6903H56.3288L57.4595 57.1818H58.3857L56.7692 63H55.8857L54.6612 58.642H54.6158L53.3913 63H52.505ZM63.2493 63.0966C62.8004 63.0947 62.4169 62.9763 62.0987 62.7415C61.7805 62.5066 61.5372 62.1648 61.3686 61.7159C61.2 61.267 61.1158 60.7263 61.1158 60.0938C61.1158 59.4631 61.2 58.9242 61.3686 58.4773C61.5391 58.0303 61.7834 57.6894 62.1016 57.4545C62.4216 57.2197 62.8042 57.1023 63.2493 57.1023C63.6944 57.1023 64.076 57.2206 64.3942 57.4574C64.7124 57.6922 64.9557 58.0331 65.1243 58.4801C65.2947 58.9252 65.38 59.4631 65.38 60.0938C65.38 60.7282 65.2957 61.2699 65.1271 61.7188C64.9586 62.1657 64.7152 62.5076 64.397 62.7443C64.0788 62.9792 63.6963 63.0966 63.2493 63.0966ZM63.2493 62.3381C63.6432 62.3381 63.951 62.1458 64.1726 61.7614C64.3961 61.3769 64.5078 60.821 64.5078 60.0938C64.5078 59.6108 64.4567 59.2027 64.3544 58.8693C64.254 58.5341 64.1091 58.2803 63.9197 58.108C63.7322 57.9337 63.5088 57.8466 63.2493 57.8466C62.8572 57.8466 62.5495 58.0398 62.326 58.4261C62.1025 58.8125 61.9898 59.3684 61.9879 60.0938C61.9879 60.5786 62.0381 60.9886 62.1385 61.3239C62.2408 61.6572 62.3857 61.91 62.5732 62.0824C62.7607 62.2528 62.986 62.3381 63.2493 62.3381ZM66.7479 63.054C66.5926 63.054 66.459 62.9991 66.3473 62.8892C66.2356 62.7775 66.1797 62.643 66.1797 62.4858C66.1797 62.3305 66.2356 62.1979 66.3473 62.0881C66.459 61.9763 66.5926 61.9205 66.7479 61.9205C66.9032 61.9205 67.0367 61.9763 67.1484 62.0881C67.2602 62.1979 67.3161 62.3305 67.3161 62.4858C67.3161 62.59 67.2895 62.6856 67.2365 62.7727C67.1854 62.858 67.1172 62.9261 67.032 62.9773C66.9467 63.0284 66.852 63.054 66.7479 63.054ZM70.2131 63.0795C69.8059 63.0795 69.446 63.0095 69.1335 62.8693C68.8229 62.7292 68.5795 62.536 68.4034 62.2898C68.2273 62.0436 68.1402 61.7633 68.142 61.4489C68.1402 61.2027 68.1903 60.9763 68.2926 60.7699C68.3968 60.5616 68.5379 60.3883 68.7159 60.25C68.8939 60.1098 69.0928 60.0208 69.3125 59.983V59.9489C69.0227 59.8788 68.7907 59.7235 68.6165 59.483C68.4422 59.2424 68.3561 58.9659 68.358 58.6534C68.3561 58.3561 68.4347 58.0909 68.5938 57.858C68.7547 57.6231 68.9754 57.4384 69.2557 57.304C69.536 57.1695 69.8551 57.1023 70.2131 57.1023C70.5672 57.1023 70.8835 57.1705 71.1619 57.3068C71.4422 57.4413 71.6629 57.6259 71.8239 57.8608C71.9848 58.0937 72.0663 58.358 72.0682 58.6534C72.0663 58.9659 71.9773 59.2424 71.8011 59.483C71.625 59.7235 71.3958 59.8788 71.1136 59.9489V59.983C71.3314 60.0208 71.5275 60.1098 71.7017 60.25C71.8778 60.3883 72.018 60.5616 72.1222 60.7699C72.2282 60.9763 72.2822 61.2027 72.2841 61.4489C72.2822 61.7633 72.1932 62.0436 72.017 62.2898C71.8409 62.536 71.5966 62.7292 71.2841 62.8693C70.9735 63.0095 70.6165 63.0795 70.2131 63.0795ZM70.2131 62.3608C70.4536 62.3608 70.6619 62.321 70.8381 62.2415C71.0142 62.16 71.1506 62.0473 71.2472 61.9034C71.3438 61.7576 71.393 61.5871 71.3949 61.392C71.393 61.1894 71.34 61.0104 71.2358 60.8551C71.1335 60.6998 70.9943 60.5777 70.8182 60.4886C70.642 60.3996 70.4403 60.3551 70.2131 60.3551C69.9839 60.3551 69.7803 60.3996 69.6023 60.4886C69.4242 60.5777 69.2841 60.6998 69.1818 60.8551C69.0795 61.0104 69.0294 61.1894 69.0312 61.392C69.0294 61.5871 69.0758 61.7576 69.1705 61.9034C69.267 62.0473 69.4044 62.16 69.5824 62.2415C69.7604 62.321 69.9706 62.3608 70.2131 62.3608ZM70.2131 59.6534C70.4063 59.6534 70.5777 59.6146 70.7273 59.5369C70.8769 59.4593 70.9943 59.3513 71.0795 59.2131C71.1667 59.0748 71.2112 58.9129 71.2131 58.7273C71.2112 58.5455 71.1676 58.3864 71.0824 58.25C70.9991 58.1136 70.8826 58.0085 70.733 57.9347C70.5833 57.8589 70.41 57.821 70.2131 57.821C70.0123 57.821 69.8362 57.8589 69.6847 57.9347C69.535 58.0085 69.4186 58.1136 69.3352 58.25C69.2519 58.3864 69.2112 58.5455 69.2131 58.7273C69.2112 58.9129 69.2528 59.0748 69.3381 59.2131C69.4233 59.3513 69.5407 59.4593 69.6903 59.5369C69.8419 59.6146 70.0161 59.6534 70.2131 59.6534ZM75.4304 63V58.6364H76.2457V59.3466H76.2997C76.3906 59.1061 76.5393 58.9186 76.7457 58.7841C76.9522 58.6477 77.1993 58.5795 77.4872 58.5795C77.7789 58.5795 78.0232 58.6477 78.2202 58.7841C78.419 58.9205 78.5658 59.108 78.6605 59.3466H78.706C78.8101 59.1136 78.9759 58.928 79.2031 58.7898C79.4304 58.6496 79.7012 58.5795 80.0156 58.5795C80.4115 58.5795 80.7344 58.7036 80.9844 58.9517C81.2363 59.1998 81.3622 59.5739 81.3622 60.0739V63H80.5128V60.1534C80.5128 59.858 80.4323 59.6439 80.2713 59.5114C80.1103 59.3788 79.9181 59.3125 79.6946 59.3125C79.4181 59.3125 79.2031 59.3977 79.0497 59.5682C78.8963 59.7367 78.8196 59.9536 78.8196 60.2188V63H77.973V60.0994C77.973 59.8627 77.8991 59.6723 77.7514 59.5284C77.6037 59.3845 77.4115 59.3125 77.1747 59.3125C77.0137 59.3125 76.8651 59.3551 76.7287 59.4403C76.5942 59.5237 76.4853 59.6402 76.402 59.7898C76.3205 59.9394 76.2798 60.1127 76.2798 60.3097V63H75.4304ZM85.8253 60.4545L85.8793 59.2557L84.8679 59.9062L84.5582 59.3665L85.6321 58.8182L84.5582 58.2699L84.8679 57.7301L85.8793 58.3807L85.8253 57.1818H86.4418L86.3878 58.3807L87.3991 57.7301L87.7088 58.2699L86.6349 58.8182L87.7088 59.3665L87.3991 59.9062L86.3878 59.2557L86.4418 60.4545H85.8253ZM90.9751 63V57.1818H91.853V59.7102H94.7536V57.1818H95.6342V63H94.7536V60.4631H91.853V63H90.9751ZM100.976 63.0966C100.527 63.0947 100.143 62.9763 99.8253 62.7415C99.5071 62.5066 99.2637 62.1648 99.0952 61.7159C98.9266 61.267 98.8423 60.7263 98.8423 60.0938C98.8423 59.4631 98.9266 58.9242 99.0952 58.4773C99.2656 58.0303 99.5099 57.6894 99.8281 57.4545C100.148 57.2197 100.531 57.1023 100.976 57.1023C101.421 57.1023 101.803 57.2206 102.121 57.4574C102.439 57.6922 102.682 58.0331 102.851 58.4801C103.021 58.9252 103.107 59.4631 103.107 60.0938C103.107 60.7282 103.022 61.2699 102.854 61.7188C102.685 62.1657 102.442 62.5076 102.124 62.7443C101.805 62.9792 101.423 63.0966 100.976 63.0966ZM100.976 62.3381C101.37 62.3381 101.678 62.1458 101.899 61.7614C102.123 61.3769 102.234 60.821 102.234 60.0938C102.234 59.6108 102.183 59.2027 102.081 58.8693C101.981 58.5341 101.836 58.2803 101.646 58.108C101.459 57.9337 101.235 57.8466 100.976 57.8466C100.584 57.8466 100.276 58.0398 100.053 58.4261C99.8291 58.8125 99.7164 59.3684 99.7145 60.0938C99.7145 60.5786 99.7647 60.9886 99.8651 61.3239C99.9673 61.6572 100.112 61.91 100.3 62.0824C100.487 62.2528 100.713 62.3381 100.976 62.3381ZM104.474 63.054C104.319 63.054 104.186 62.9991 104.074 62.8892C103.962 62.7775 103.906 62.643 103.906 62.4858C103.906 62.3305 103.962 62.1979 104.074 62.0881C104.186 61.9763 104.319 61.9205 104.474 61.9205C104.63 61.9205 104.763 61.9763 104.875 62.0881C104.987 62.1979 105.043 62.3305 105.043 62.4858C105.043 62.59 105.016 62.6856 104.963 62.7727C104.912 62.858 104.844 62.9261 104.759 62.9773C104.673 63.0284 104.579 63.054 104.474 63.054ZM107.989 63.0795C107.73 63.0758 107.474 63.0284 107.222 62.9375C106.972 62.8466 106.745 62.6951 106.54 62.483C106.336 62.2708 106.172 61.9858 106.049 61.6278C105.928 61.2699 105.867 60.8229 105.867 60.2869C105.867 59.7794 105.917 59.3286 106.018 58.9347C106.12 58.5407 106.267 58.2083 106.458 57.9375C106.649 57.6648 106.88 57.4574 107.151 57.3153C107.422 57.1733 107.726 57.1023 108.063 57.1023C108.41 57.1023 108.718 57.1705 108.987 57.3068C109.255 57.4432 109.473 57.6316 109.64 57.8722C109.808 58.1127 109.915 58.3864 109.961 58.6932H109.094C109.036 58.4508 108.919 58.2528 108.745 58.0994C108.571 57.946 108.344 57.8693 108.063 57.8693C107.637 57.8693 107.305 58.0549 107.066 58.4261C106.829 58.7973 106.71 59.3134 106.708 59.9744H106.751C106.851 59.8097 106.974 59.6695 107.12 59.554C107.268 59.4366 107.433 59.3466 107.614 59.2841C107.798 59.2197 107.991 59.1875 108.194 59.1875C108.531 59.1875 108.836 59.2699 109.109 59.4347C109.383 59.5975 109.602 59.8229 109.765 60.1108C109.928 60.3987 110.009 60.7282 110.009 61.0994C110.009 61.4706 109.925 61.8068 109.756 62.108C109.59 62.4091 109.355 62.6477 109.052 62.8239C108.749 62.9981 108.395 63.0833 107.989 63.0795ZM107.987 62.3409C108.21 62.3409 108.41 62.286 108.586 62.1761C108.762 62.0663 108.901 61.9186 109.004 61.733C109.106 61.5473 109.157 61.34 109.157 61.1108C109.157 60.8873 109.107 60.6837 109.006 60.5C108.908 60.3163 108.772 60.1705 108.597 60.0625C108.425 59.9545 108.228 59.9006 108.006 59.9006C107.838 59.9006 107.682 59.9328 107.538 59.9972C107.396 60.0616 107.271 60.1506 107.163 60.2642C107.055 60.3778 106.969 60.5085 106.907 60.6562C106.846 60.8021 106.816 60.9564 106.816 61.1193C106.816 61.3371 106.866 61.5388 106.967 61.7244C107.069 61.91 107.208 62.0597 107.384 62.1733C107.562 62.285 107.763 62.3409 107.987 62.3409ZM113.173 63V58.6364H113.988V59.3466H114.042C114.133 59.1061 114.281 58.9186 114.488 58.7841C114.694 58.6477 114.942 58.5795 115.229 58.5795C115.521 58.5795 115.765 58.6477 115.962 58.7841C116.161 58.9205 116.308 59.108 116.403 59.3466H116.448C116.552 59.1136 116.718 58.928 116.945 58.7898C117.173 58.6496 117.443 58.5795 117.758 58.5795C118.154 58.5795 118.477 58.7036 118.727 58.9517C118.978 59.1998 119.104 59.5739 119.104 60.0739V63H118.255V60.1534C118.255 59.858 118.174 59.6439 118.013 59.5114C117.853 59.3788 117.66 59.3125 117.437 59.3125C117.16 59.3125 116.945 59.3977 116.792 59.5682C116.638 59.7367 116.562 59.9536 116.562 60.2188V63H115.715V60.0994C115.715 59.8627 115.641 59.6723 115.494 59.5284C115.346 59.3845 115.154 59.3125 114.917 59.3125C114.756 59.3125 114.607 59.3551 114.471 59.4403C114.336 59.5237 114.228 59.6402 114.144 59.7898C114.063 59.9394 114.022 60.1127 114.022 60.3097V63H113.173Z" fill="#d8b56c"/>
<path d="M51.6051 103.08C51.196 103.08 50.8324 103.009 50.5142 102.869C50.1979 102.729 49.9479 102.534 49.7642 102.284C49.5805 102.034 49.483 101.745 49.4716 101.418H50.5398C50.5492 101.575 50.6013 101.712 50.696 101.83C50.7907 101.945 50.9167 102.035 51.0739 102.099C51.2311 102.164 51.4072 102.196 51.6023 102.196C51.8106 102.196 51.9953 102.16 52.1562 102.088C52.3172 102.014 52.4432 101.912 52.5341 101.781C52.625 101.651 52.6695 101.5 52.6676 101.33C52.6695 101.153 52.6241 100.998 52.5312 100.864C52.4384 100.729 52.304 100.624 52.1278 100.548C51.9536 100.473 51.7434 100.435 51.4972 100.435H50.983V99.6222H51.4972C51.6998 99.6222 51.8769 99.5871 52.0284 99.517C52.1818 99.447 52.3021 99.3485 52.3892 99.2216C52.4763 99.0928 52.5189 98.9441 52.517 98.7756C52.5189 98.6108 52.482 98.4678 52.4062 98.3466C52.3324 98.2235 52.2273 98.1278 52.0909 98.0597C51.9564 97.9915 51.7983 97.9574 51.6165 97.9574C51.4384 97.9574 51.2737 97.9896 51.1222 98.054C50.9706 98.1184 50.8485 98.2102 50.7557 98.3295C50.6629 98.447 50.6136 98.5871 50.608 98.75H49.5938C49.6013 98.4242 49.6951 98.1383 49.875 97.892C50.0568 97.6439 50.2992 97.4508 50.6023 97.3125C50.9053 97.1723 51.2453 97.1023 51.6222 97.1023C52.0104 97.1023 52.3475 97.1752 52.6335 97.321C52.9214 97.465 53.1439 97.6591 53.3011 97.9034C53.4583 98.1477 53.5369 98.4176 53.5369 98.7131C53.5388 99.0407 53.4422 99.3153 53.2472 99.5369C53.054 99.7585 52.8002 99.9034 52.4858 99.9716V100.017C52.8949 100.074 53.2083 100.225 53.4261 100.472C53.6458 100.716 53.7547 101.02 53.7528 101.384C53.7528 101.709 53.66 102.001 53.4744 102.259C53.2907 102.514 53.0369 102.715 52.7131 102.861C52.3911 103.007 52.0218 103.08 51.6051 103.08ZM56.8587 103.08C56.5803 103.078 56.3085 103.029 56.0433 102.935C55.7782 102.838 55.5395 102.682 55.3274 102.466C55.1153 102.248 54.9467 101.959 54.8217 101.599C54.6967 101.238 54.6352 100.79 54.6371 100.256C54.6371 99.7576 54.6901 99.3134 54.7962 98.9233C54.9022 98.5331 55.0547 98.2036 55.2536 97.9347C55.4524 97.6638 55.692 97.4574 55.9723 97.3153C56.2545 97.1733 56.5698 97.1023 56.9183 97.1023C57.2839 97.1023 57.6077 97.1742 57.8899 97.3182C58.174 97.4621 58.4032 97.6591 58.5774 97.9091C58.7517 98.1572 58.8596 98.4375 58.9013 98.75H57.8643C57.8113 98.5265 57.7024 98.3485 57.5376 98.2159C57.3748 98.0814 57.1683 98.0142 56.9183 98.0142C56.5149 98.0142 56.2043 98.1894 55.9865 98.5398C55.7706 98.8902 55.6617 99.3712 55.6598 99.983H55.6996C55.7924 99.8163 55.9126 99.6733 56.0604 99.554C56.2081 99.4347 56.3748 99.3428 56.5604 99.2784C56.7479 99.2121 56.9458 99.179 57.1541 99.179C57.495 99.179 57.8009 99.2604 58.0717 99.4233C58.3445 99.5862 58.5604 99.8106 58.7195 100.097C58.8786 100.381 58.9571 100.706 58.9553 101.074C58.9571 101.456 58.87 101.8 58.6939 102.105C58.5178 102.408 58.2725 102.647 57.9581 102.821C57.6437 102.995 57.2772 103.081 56.8587 103.08ZM56.853 102.227C57.0594 102.227 57.2441 102.177 57.407 102.077C57.5698 101.976 57.6986 101.841 57.7933 101.67C57.888 101.5 57.9344 101.309 57.9325 101.097C57.9344 100.888 57.889 100.7 57.7962 100.531C57.7053 100.363 57.5793 100.229 57.4183 100.131C57.2573 100.032 57.0736 99.983 56.8672 99.983C56.7138 99.983 56.5708 100.012 56.4382 100.071C56.3056 100.13 56.1901 100.211 56.0916 100.315C55.9931 100.418 55.9155 100.537 55.8587 100.673C55.8037 100.808 55.7753 100.952 55.7734 101.105C55.7753 101.308 55.8227 101.494 55.9155 101.665C56.0083 101.835 56.1361 101.972 56.299 102.074C56.4619 102.176 56.6465 102.227 56.853 102.227ZM61.9567 103V97.1818H64.1839C64.6044 97.1818 64.9538 97.2481 65.2322 97.3807C65.5125 97.5114 65.7218 97.6903 65.8601 97.9176C66.0002 98.1449 66.0703 98.4025 66.0703 98.6903C66.0703 98.9271 66.0249 99.1297 65.9339 99.2983C65.843 99.465 65.7209 99.6004 65.5675 99.7045C65.4141 99.8087 65.2427 99.8835 65.0533 99.929V99.9858C65.2597 99.9972 65.4576 100.061 65.647 100.176C65.8383 100.29 65.9946 100.451 66.1158 100.659C66.237 100.867 66.2976 101.119 66.2976 101.415C66.2976 101.716 66.2247 101.987 66.0788 102.227C65.933 102.466 65.7133 102.654 65.4197 102.793C65.1262 102.931 64.7569 103 64.3118 103H61.9567ZM63.0107 102.119H64.1442C64.5268 102.119 64.8023 102.046 64.9709 101.901C65.1413 101.753 65.2266 101.563 65.2266 101.332C65.2266 101.16 65.1839 101.005 65.0987 100.866C65.0135 100.726 64.8923 100.616 64.7351 100.537C64.5779 100.455 64.3904 100.415 64.1726 100.415H63.0107V102.119ZM63.0107 99.6562H64.0533C64.2351 99.6562 64.3989 99.6231 64.5447 99.5568C64.6906 99.4886 64.8052 99.393 64.8885 99.2699C64.9737 99.1449 65.0163 98.9972 65.0163 98.8267C65.0163 98.6013 64.9368 98.4157 64.7777 98.2699C64.6205 98.1241 64.3866 98.0511 64.076 98.0511H63.0107V99.6562ZM72.4134 100.091C72.4134 100.718 72.2959 101.255 72.0611 101.702C71.8281 102.147 71.5099 102.488 71.1065 102.724C70.705 102.961 70.2495 103.08 69.7401 103.08C69.2306 103.08 68.7741 102.961 68.3707 102.724C67.9692 102.486 67.651 102.144 67.4162 101.699C67.1832 101.252 67.0668 100.716 67.0668 100.091C67.0668 99.464 67.1832 98.928 67.4162 98.483C67.651 98.036 67.9692 97.6941 68.3707 97.4574C68.7741 97.2206 69.2306 97.1023 69.7401 97.1023C70.2495 97.1023 70.705 97.2206 71.1065 97.4574C71.5099 97.6941 71.8281 98.036 72.0611 98.483C72.2959 98.928 72.4134 99.464 72.4134 100.091ZM71.3537 100.091C71.3537 99.6496 71.2846 99.2775 71.1463 98.9744C71.0099 98.6695 70.8205 98.4394 70.5781 98.2841C70.3357 98.1269 70.0563 98.0483 69.7401 98.0483C69.4238 98.0483 69.1444 98.1269 68.902 98.2841C68.6596 98.4394 68.4692 98.6695 68.331 98.9744C68.1946 99.2775 68.1264 99.6496 68.1264 100.091C68.1264 100.532 68.1946 100.905 68.331 101.21C68.4692 101.513 68.6596 101.743 68.902 101.901C69.1444 102.056 69.4238 102.134 69.7401 102.134C70.0563 102.134 70.3357 102.056 70.5781 101.901C70.8205 101.743 71.0099 101.513 71.1463 101.21C71.2846 100.905 71.3537 100.532 71.3537 100.091ZM74.0795 97.1818L75.3608 99.3125H75.4062L76.6932 97.1818H77.8949L76.1023 100.091L77.9233 103H76.7017L75.4062 100.884H75.3608L74.0653 103H72.8494L74.6875 100.091L72.8722 97.1818H74.0795ZM78.7223 103V97.1818H82.5064V98.0653H79.7763V99.6449H82.3104V100.528H79.7763V102.116H82.5291V103H78.7223ZM86.7436 98.7812C86.7171 98.5331 86.6054 98.34 86.4084 98.2017C86.2133 98.0634 85.9595 97.9943 85.647 97.9943C85.4273 97.9943 85.2389 98.0275 85.0817 98.0938C84.9245 98.16 84.8042 98.25 84.7209 98.3636C84.6375 98.4773 84.5949 98.607 84.593 98.7528C84.593 98.8741 84.6205 98.9792 84.6754 99.0682C84.7322 99.1572 84.8089 99.233 84.9055 99.2955C85.0021 99.3561 85.1091 99.4072 85.2266 99.4489C85.344 99.4905 85.4624 99.5256 85.5817 99.554L86.1271 99.6903C86.3468 99.7415 86.558 99.8106 86.7607 99.8977C86.9652 99.9848 87.148 100.095 87.3089 100.227C87.4718 100.36 87.6006 100.52 87.6953 100.707C87.79 100.895 87.8374 101.115 87.8374 101.366C87.8374 101.707 87.7502 102.008 87.576 102.267C87.4018 102.525 87.1499 102.726 86.8203 102.872C86.4927 103.016 86.0959 103.088 85.63 103.088C85.1773 103.088 84.7843 103.018 84.451 102.878C84.1196 102.738 83.8601 102.533 83.6726 102.264C83.487 101.995 83.3866 101.668 83.3714 101.281H84.4084C84.4235 101.484 84.486 101.652 84.5959 101.787C84.7057 101.921 84.8487 102.022 85.0249 102.088C85.2029 102.154 85.4018 102.188 85.6214 102.188C85.8506 102.188 86.0514 102.153 86.2237 102.085C86.398 102.015 86.5343 101.919 86.6328 101.795C86.7313 101.67 86.7815 101.525 86.7834 101.358C86.7815 101.206 86.737 101.081 86.6499 100.983C86.5627 100.883 86.4406 100.799 86.2834 100.733C86.1281 100.665 85.9463 100.604 85.7379 100.551L85.076 100.381C84.5968 100.258 84.218 100.071 83.9396 99.821C83.6631 99.5691 83.5249 99.2348 83.5249 98.8182C83.5249 98.4754 83.6177 98.1752 83.8033 97.9176C83.9908 97.66 84.2455 97.4602 84.5675 97.3182C84.8894 97.1742 85.254 97.1023 85.6612 97.1023C86.0741 97.1023 86.4358 97.1742 86.7464 97.3182C87.0589 97.4602 87.3042 97.6581 87.4822 97.9119C87.6603 98.1638 87.7521 98.4536 87.7578 98.7812H86.7436Z" fill="#d8b56c"/>
<path d="M57.6053 38.5567C56.988 38.5567 56.4623 38.3888 56.028 38.0528C55.5937 37.7141 55.2619 37.2239 55.0324 36.582C54.803 35.9374 54.6883 35.159 54.6883 34.2467C54.6883 33.3399 54.803 32.5656 55.0324 31.9238C55.2646 31.2792 55.5978 30.7875 56.0321 30.4488C56.4691 30.1074 56.9935 29.9367 57.6053 29.9367C58.2171 29.9367 58.7402 30.1074 59.1745 30.4488C59.6115 30.7875 59.9447 31.2792 60.1741 31.9238C60.4063 32.5656 60.5224 33.3399 60.5224 34.2467C60.5224 35.159 60.4076 35.9374 60.1782 36.582C59.9488 37.2239 59.6169 37.7141 59.1827 38.0528C58.7484 38.3888 58.2226 38.5567 57.6053 38.5567ZM57.6053 37.6554C58.2171 37.6554 58.6924 37.3604 59.0311 36.7705C59.3697 36.1805 59.5391 35.3393 59.5391 34.2467C59.5391 33.5202 59.4612 32.9016 59.3056 32.3908C59.1526 31.8801 58.9314 31.4908 58.6419 31.2232C58.3551 30.9555 58.0096 30.8217 57.6053 30.8217C56.999 30.8217 56.5251 31.1207 56.1837 31.7189C55.8423 32.3143 55.6716 33.1569 55.6716 34.2467C55.6716 34.9733 55.748 35.5905 55.901 36.0986C56.0539 36.6066 56.2738 36.9931 56.5606 37.258C56.8501 37.5229 57.1984 37.6554 57.6053 37.6554ZM62.5073 38.5076C62.3052 38.5076 62.1318 38.4352 61.987 38.2904C61.8423 38.1457 61.7699 37.9722 61.7699 37.7701C61.7699 37.568 61.8423 37.3946 61.987 37.2498C62.1318 37.105 62.3052 37.0327 62.5073 37.0327C62.7095 37.0327 62.8829 37.105 63.0277 37.2498C63.1724 37.3946 63.2448 37.568 63.2448 37.7701C63.2448 37.9039 63.2106 38.0269 63.1424 38.1388C63.0768 38.2508 62.988 38.341 62.8761 38.4092C62.7668 38.4748 62.6439 38.5076 62.5073 38.5076ZM67.4165 38.5567C66.9358 38.5567 66.5029 38.4611 66.1178 38.2699C65.7327 38.0788 65.424 37.8165 65.1919 37.4833C64.9597 37.1501 64.8327 36.7705 64.8109 36.3444H65.7941C65.8324 36.724 66.0044 37.0381 66.3103 37.2867C66.619 37.5325 66.9877 37.6554 67.4165 37.6554C67.7607 37.6554 68.0666 37.5748 68.3342 37.4137C68.6046 37.2525 68.8163 37.0313 68.9693 36.75C69.125 36.4659 69.2028 36.145 69.2028 35.7872C69.2028 35.4212 69.1222 35.0948 68.9611 34.808C68.8027 34.5185 68.5842 34.2904 68.3056 34.1238C68.027 33.9572 67.7088 33.8725 67.351 33.8698C67.0942 33.8671 66.8307 33.9067 66.5603 33.9886C66.2899 34.0678 66.0673 34.1703 65.8924 34.2959L64.942 34.1812L65.45 30.0514H69.8091V30.9528H66.3021L66.0072 33.4273H66.0563C66.2284 33.2908 66.4442 33.1774 66.7036 33.0873C66.9631 32.9972 67.2335 32.9521 67.5148 32.9521C68.0283 32.9521 68.4858 33.075 68.8873 33.3208C69.2916 33.5639 69.6084 33.8971 69.8378 34.3205C70.07 34.7438 70.1861 35.2273 70.1861 35.7708C70.1861 36.3061 70.0659 36.7841 69.8255 37.2047C69.5879 37.6226 69.2602 37.9531 68.8423 38.1962C68.4244 38.4366 67.9491 38.5567 67.4165 38.5567ZM71.9611 30.0514H73.1738L76.0253 37.0163H76.1236L78.9751 30.0514H80.1878V38.442H79.2373V32.0671H79.1553L76.5333 38.442H75.6156L72.9935 32.0671H72.9116V38.442H71.9611V30.0514Z" fill="#d8b56c"/>
<path d="M83.2512 32.0574C82.9808 32.0574 82.7398 32.0109 82.5281 31.9181C82.3178 31.8252 82.1505 31.6961 82.0262 31.5309C81.9033 31.3643 81.8364 31.171 81.8255 30.9512H82.3417C82.3526 31.0864 82.3991 31.2031 82.481 31.3015C82.563 31.3984 82.6702 31.4735 82.8026 31.5268C82.9351 31.5801 83.0819 31.6067 83.243 31.6067C83.4233 31.6067 83.5831 31.5753 83.7224 31.5125C83.8617 31.4496 83.9709 31.3622 84.0501 31.2503C84.1294 31.1383 84.169 31.0085 84.169 30.861C84.169 30.7067 84.1307 30.5708 84.0542 30.4534C83.9778 30.3346 83.8658 30.2417 83.7183 30.1748C83.5708 30.1079 83.3905 30.0744 83.1775 30.0744H82.8415V29.6238H83.1775C83.3441 29.6238 83.4902 29.5937 83.6159 29.5336C83.7429 29.4735 83.8419 29.3889 83.9129 29.2796C83.9853 29.1704 84.0215 29.042 84.0215 28.8945C84.0215 28.7525 83.9901 28.6289 83.9272 28.5237C83.8644 28.4186 83.7757 28.3366 83.6609 28.2779C83.5476 28.2192 83.4138 28.1898 83.2594 28.1898C83.1147 28.1898 82.9781 28.2165 82.8497 28.2697C82.7227 28.3216 82.6189 28.3974 82.5384 28.4971C82.4578 28.5954 82.4141 28.7142 82.4073 28.8535H81.9156C81.9238 28.6337 81.9901 28.4411 82.1143 28.2759C82.2386 28.1093 82.4011 27.9795 82.6019 27.8867C82.804 27.7938 83.0259 27.7474 83.2676 27.7474C83.5271 27.7474 83.7497 27.7999 83.9354 27.9051C84.1212 28.0089 84.2639 28.1461 84.3636 28.3168C84.4633 28.4875 84.5131 28.6719 84.5131 28.8699C84.5131 29.1062 84.451 29.3076 84.3267 29.4742C84.2038 29.6408 84.0365 29.7562 83.8248 29.8204V29.8532C84.0898 29.8969 84.2966 30.0096 84.4455 30.1912C84.5944 30.3715 84.6688 30.5947 84.6688 30.861C84.6688 31.0891 84.6067 31.294 84.4824 31.4756C84.3595 31.6559 84.1915 31.7979 83.9785 31.9017C83.7654 32.0055 83.523 32.0574 83.2512 32.0574Z" fill="#d8b56c"/>
<defs>
<clipPath id="clip0_2034_96991">
<rect width="14.4213" height="14.4213" fill="white" transform="translate(111.59 8.65271)"/>
</clipPath>
</defs>
</svg>
