<svg width="139" height="145" viewBox="0 0 139 145" fill="none" xmlns="http://www.w3.org/2000/svg">
<rect width="138.444" height="144.213" fill="#18365a"/>
<path d="M44.0963 15.1809C44.0554 14.7678 43.8795 14.4468 43.5689 14.2181C43.2582 13.9893 42.8365 13.875 42.3039 13.875C41.942 13.875 41.6365 13.9262 41.3872 14.0286C41.138 14.1276 40.9468 14.2659 40.8137 14.4434C40.6839 14.621 40.619 14.8224 40.619 15.0477C40.6122 15.2355 40.6515 15.3994 40.7368 15.5394C40.8256 15.6793 40.9468 15.8005 41.1004 15.903C41.2541 16.002 41.4316 16.089 41.633 16.1642C41.8345 16.2358 42.0496 16.2973 42.2783 16.3485L43.2206 16.5738C43.6781 16.6763 44.0981 16.8128 44.4804 16.9835C44.8628 17.1542 45.194 17.3642 45.4739 17.6134C45.7539 17.8627 45.9707 18.1563 46.1243 18.4943C46.2814 18.8323 46.3616 19.2198 46.365 19.6568C46.3616 20.2987 46.1977 20.8552 45.8734 21.3263C45.5525 21.7941 45.0881 22.1577 44.4804 22.4171C43.8761 22.6732 43.1472 22.8012 42.2937 22.8012C41.447 22.8012 40.7095 22.6715 40.0813 22.412C39.4565 22.1525 38.9683 21.7684 38.6167 21.2597C38.2684 20.7476 38.0858 20.1143 38.0687 19.3598H40.2145C40.2384 19.7114 40.3391 20.005 40.5166 20.2406C40.6976 20.4728 40.9383 20.6486 41.2387 20.7681C41.5426 20.8842 41.8857 20.9422 42.2681 20.9422C42.6436 20.9422 42.9697 20.8876 43.2462 20.7784C43.5262 20.6691 43.743 20.5172 43.8966 20.3226C44.0503 20.128 44.1271 19.9043 44.1271 19.6517C44.1271 19.4161 44.0571 19.2181 43.9171 19.0576C43.7805 18.8972 43.5791 18.7606 43.3128 18.6479C43.0499 18.5353 42.7273 18.4328 42.3449 18.3407L41.2029 18.0539C40.3186 17.8388 39.6204 17.5025 39.1083 17.045C38.5962 16.5875 38.3418 15.9713 38.3452 15.1962C38.3418 14.5612 38.5108 14.0064 38.8522 13.5319C39.1971 13.0573 39.6699 12.6869 40.2708 12.4206C40.8717 12.1543 41.5545 12.0211 42.3193 12.0211C43.0977 12.0211 43.7771 12.1543 44.3575 12.4206C44.9413 12.6869 45.3954 13.0573 45.7198 13.5319C46.0441 14.0064 46.2114 14.5561 46.2216 15.1809H44.0963ZM49.0908 22.7859C48.7528 22.7859 48.4626 22.6664 48.2202 22.4274C47.9812 22.185 47.8617 21.8948 47.8617 21.5568C47.8617 21.2222 47.9812 20.9354 48.2202 20.6964C48.4626 20.4574 48.7528 20.3379 49.0908 20.3379C49.4185 20.3379 49.7053 20.4574 49.9512 20.6964C50.197 20.9354 50.3199 21.2222 50.3199 21.5568C50.3199 21.7821 50.2618 21.9887 50.1458 22.1764C50.0331 22.3608 49.8846 22.5093 49.7002 22.622C49.5159 22.7312 49.3127 22.7859 49.0908 22.7859ZM57.8416 15.1809C57.8007 14.7678 57.6248 14.4468 57.3142 14.2181C57.0035 13.9893 56.5818 13.875 56.0492 13.875C55.6873 13.875 55.3818 13.9262 55.1325 14.0286C54.8833 14.1276 54.6921 14.2659 54.559 14.4434C54.4292 14.621 54.3643 14.8224 54.3643 15.0477C54.3575 15.2355 54.3968 15.3994 54.4821 15.5394C54.5709 15.6793 54.6921 15.8005 54.8457 15.903C54.9994 16.002 55.1769 16.089 55.3783 16.1642C55.5798 16.2358 55.7949 16.2973 56.0236 16.3485L56.9659 16.5738C57.4234 16.6763 57.8433 16.8128 58.2257 16.9835C58.6081 17.1542 58.9393 17.3642 59.2192 17.6134C59.4992 17.8627 59.716 18.1563 59.8696 18.4943C60.0267 18.8323 60.1069 19.2198 60.1103 19.6568C60.1069 20.2987 59.943 20.8552 59.6187 21.3263C59.2978 21.7941 58.8334 22.1577 58.2257 22.4171C57.6214 22.6732 56.8925 22.8012 56.039 22.8012C55.1923 22.8012 54.4548 22.6715 53.8266 22.412C53.2018 22.1525 52.7136 21.7684 52.362 21.2597C52.0137 20.7476 51.8311 20.1143 51.814 19.3598H53.9598C53.9837 19.7114 54.0844 20.005 54.2619 20.2406C54.4429 20.4728 54.6836 20.6486 54.984 20.7681C55.2879 20.8842 55.631 20.9422 56.0134 20.9422C56.3889 20.9422 56.715 20.8876 56.9915 20.7784C57.2715 20.6691 57.4883 20.5172 57.6419 20.3226C57.7956 20.128 57.8724 19.9043 57.8724 19.6517C57.8724 19.4161 57.8024 19.2181 57.6624 19.0576C57.5258 18.8972 57.3244 18.7606 57.0581 18.6479C56.7952 18.5353 56.4726 18.4328 56.0902 18.3407L54.9482 18.0539C54.0639 17.8388 53.3657 17.5025 52.8536 17.045C52.3415 16.5875 52.0871 15.9713 52.0905 15.1962C52.0871 14.5612 52.2561 14.0064 52.5975 13.5319C52.9424 13.0573 53.4152 12.6869 54.0161 12.4206C54.617 12.1543 55.2998 12.0211 56.0646 12.0211C56.843 12.0211 57.5224 12.1543 58.1028 12.4206C58.6866 12.6869 59.1407 13.0573 59.4651 13.5319C59.7894 14.0064 59.9567 14.5561 59.9669 15.1809H57.8416ZM61.6019 12.1645H64.3366L67.225 19.2113H67.3479L70.2362 12.1645H72.9709V22.6527H70.82V15.8262H70.733L68.0187 22.6015H66.5541L63.8398 15.8005H63.7528V22.6527H61.6019V12.1645ZM76.6057 22.6527H74.2295L77.8502 12.1645H80.7078L84.3234 22.6527H81.9471L79.32 14.5612H79.238L76.6057 22.6527ZM76.4572 18.5301H82.07V20.2611H76.4572V18.5301ZM85.5857 22.6527V12.1645H87.8032V20.8244H92.2996V22.6527H85.5857ZM93.7681 22.6527V12.1645H95.9856V20.8244H100.482V22.6527H93.7681Z" fill="#F37A1D"/>
<g clip-path="url(#clip0_2034_96990)">
<path d="M118.801 8.65259C115.065 8.65259 112.041 11.6759 112.041 15.4123C112.041 17.0504 112.63 18.6201 113.703 19.8511V22.6509C113.703 23.026 114.158 23.2156 114.424 22.9496L115.869 21.5046C120.359 23.6646 125.561 20.3825 125.561 15.4123C125.561 11.6765 122.538 8.65259 118.801 8.65259ZM118.801 19.6625C118.568 19.6625 118.38 19.474 118.38 19.2415C118.38 19.0089 118.568 18.8204 118.801 18.8204C119.034 18.8204 119.222 19.0089 119.222 19.2415C119.222 19.474 119.034 19.6625 118.801 19.6625ZM119.223 16.6728V17.5515C119.223 17.7848 119.034 17.974 118.801 17.974C118.568 17.974 118.378 17.7848 118.378 17.5515V16.2855C118.378 16.0521 118.568 15.863 118.801 15.863C119.734 15.863 120.492 15.1042 120.492 14.1716C120.492 13.239 119.734 12.4803 118.801 12.4803C117.868 12.4803 117.11 13.239 117.11 14.1716C117.11 14.405 116.92 14.5941 116.687 14.5941C116.454 14.5941 116.265 14.4049 116.265 14.1716C116.265 12.7731 117.402 11.6353 118.801 11.6353C120.2 11.6353 121.337 12.7731 121.337 14.1716C121.337 15.4263 120.422 16.471 119.223 16.6728Z" fill="#F37A1D"/>
</g>
<path d="M82.2021 76.4329L85.8075 78.5144L85.8075 74.3513L82.2021 76.4329ZM96.6234 76.4329L93.0181 74.3513L93.0181 78.5144L96.6234 76.4329ZM85.4469 76.7934L93.3787 76.7934L93.3787 76.0723L85.4469 76.0723L85.4469 76.7934Z" fill="#18365a"/>
<path d="M16.517 79.1818V85H15.6392V79.1818H16.517ZM19.679 85H17.7955V79.1818H19.7386C20.3087 79.1818 20.7983 79.2983 21.2074 79.5312C21.6165 79.7623 21.9299 80.0947 22.1477 80.5284C22.3674 80.9602 22.4773 81.4782 22.4773 82.0824C22.4773 82.6884 22.3665 83.2093 22.1449 83.6449C21.9252 84.0805 21.607 84.4157 21.1903 84.6506C20.7737 84.8835 20.2699 85 19.679 85ZM18.6733 84.233H19.6307C20.0739 84.233 20.4422 84.1496 20.7358 83.983C21.0294 83.8144 21.2491 83.571 21.3949 83.2528C21.5407 82.9328 21.6136 82.5426 21.6136 82.0824C21.6136 81.6259 21.5407 81.2386 21.3949 80.9205C21.2509 80.6023 21.036 80.3608 20.75 80.196C20.464 80.0312 20.1089 79.9489 19.6847 79.9489H18.6733V84.233ZM23.5689 85V79.1818H27.2166V79.9375H24.4467V81.7102H27.0263V82.4631H24.4467V84.2443H27.2507V85H23.5689ZM25.0405 78.5994L25.7053 77.2898H26.6001L25.7195 78.5994H25.0405ZM28.8807 85H27.9489L30.0426 79.1818H31.0568L33.1506 85H32.2188L30.5739 80.2386H30.5284L28.8807 85ZM29.0369 82.7216H32.0597V83.4602H29.0369V82.7216ZM33.9908 85V79.1818H34.8686V84.2443H37.505V85H33.9908ZM40.6236 85V79.1818H42.6974C43.1501 79.1818 43.5251 79.2642 43.8224 79.429C44.1198 79.5937 44.3423 79.8191 44.4901 80.1051C44.6378 80.3892 44.7116 80.7093 44.7116 81.0653C44.7116 81.4233 44.6368 81.7453 44.4872 82.0312C44.3395 82.3153 44.116 82.5407 43.8168 82.7074C43.5194 82.8722 43.1454 82.9545 42.6946 82.9545H41.2685V82.2102H42.6151C42.901 82.2102 43.133 82.161 43.3111 82.0625C43.4891 81.9621 43.6198 81.8258 43.7031 81.6534C43.7865 81.4811 43.8281 81.285 43.8281 81.0653C43.8281 80.8456 43.7865 80.6506 43.7031 80.4801C43.6198 80.3097 43.4882 80.1761 43.3082 80.0795C43.1302 79.983 42.8954 79.9347 42.6037 79.9347H41.5014V85H40.6236ZM50.7947 82.0909C50.7947 82.7121 50.6811 83.2462 50.4538 83.6932C50.2266 84.1383 49.915 84.4811 49.5192 84.7216C49.1252 84.9602 48.6773 85.0795 48.1754 85.0795C47.6716 85.0795 47.2218 84.9602 46.826 84.7216C46.4321 84.4811 46.1214 84.1373 45.8942 83.6903C45.6669 83.2434 45.5533 82.7102 45.5533 82.0909C45.5533 81.4697 45.6669 80.9366 45.8942 80.4915C46.1214 80.0445 46.4321 79.7017 46.826 79.4631C47.2218 79.2225 47.6716 79.1023 48.1754 79.1023C48.6773 79.1023 49.1252 79.2225 49.5192 79.4631C49.915 79.7017 50.2266 80.0445 50.4538 80.4915C50.6811 80.9366 50.7947 81.4697 50.7947 82.0909ZM49.9254 82.0909C49.9254 81.6174 49.8487 81.2187 49.6953 80.8949C49.5438 80.5691 49.3355 80.3229 49.0703 80.1562C48.8071 79.9877 48.5088 79.9034 48.1754 79.9034C47.8402 79.9034 47.541 79.9877 47.2777 80.1562C47.0144 80.3229 46.8061 80.5691 46.6527 80.8949C46.5012 81.2187 46.4254 81.6174 46.4254 82.0909C46.4254 82.5644 46.5012 82.964 46.6527 83.2898C46.8061 83.6136 47.0144 83.8598 47.2777 84.0284C47.541 84.1951 47.8402 84.2784 48.1754 84.2784C48.5088 84.2784 48.8071 84.1951 49.0703 84.0284C49.3355 83.8598 49.5438 83.6136 49.6953 83.2898C49.8487 82.964 49.9254 82.5644 49.9254 82.0909ZM55.6307 79.1818H56.5114V83.0085C56.5114 83.4157 56.4157 83.7765 56.2244 84.0909C56.0331 84.4034 55.7642 84.6496 55.4176 84.8295C55.071 85.0076 54.6648 85.0966 54.1989 85.0966C53.7348 85.0966 53.3295 85.0076 52.983 84.8295C52.6364 84.6496 52.3674 84.4034 52.1761 84.0909C51.9848 83.7765 51.8892 83.4157 51.8892 83.0085V79.1818H52.767V82.9375C52.767 83.2008 52.8248 83.4347 52.9403 83.6392C53.0578 83.8438 53.2235 84.0047 53.4375 84.1222C53.6515 84.2377 53.9053 84.2955 54.1989 84.2955C54.4943 84.2955 54.7491 84.2377 54.9631 84.1222C55.179 84.0047 55.3438 83.8438 55.4574 83.6392C55.5729 83.4347 55.6307 83.2008 55.6307 82.9375V79.1818ZM57.7876 85V79.1818H59.8615C60.3123 79.1818 60.6863 79.2595 60.9837 79.4148C61.2829 79.5701 61.5064 79.785 61.6541 80.0597C61.8018 80.3324 61.8757 80.6477 61.8757 81.0057C61.8757 81.3617 61.8009 81.6752 61.6513 81.946C61.5036 82.215 61.2801 82.4242 60.9808 82.5739C60.6835 82.7235 60.3094 82.7983 59.8587 82.7983H58.2876V82.0426H59.7791C60.0632 82.0426 60.2943 82.0019 60.4723 81.9205C60.6522 81.839 60.7839 81.7206 60.8672 81.5653C60.9505 81.41 60.9922 81.2235 60.9922 81.0057C60.9922 80.786 60.9496 80.5956 60.8643 80.4347C60.781 80.2737 60.6494 80.1506 60.4695 80.0653C60.2914 79.9782 60.0575 79.9347 59.7678 79.9347H58.6655V85H57.7876ZM60.6598 82.375L62.0973 85H61.0973L59.6882 82.375H60.6598ZM64.7741 79.9375V79.1818H69.277V79.9375H67.4616V85H66.5866V79.9375H64.7741ZM70.272 85V79.1818H72.3459C72.7966 79.1818 73.1707 79.2595 73.468 79.4148C73.7673 79.5701 73.9908 79.785 74.1385 80.0597C74.2862 80.3324 74.3601 80.6477 74.3601 81.0057C74.3601 81.3617 74.2853 81.6752 74.1357 81.946C73.9879 82.215 73.7644 82.4242 73.4652 82.5739C73.1679 82.7235 72.7938 82.7983 72.343 82.7983H70.772V82.0426H72.2635C72.5476 82.0426 72.7786 82.0019 72.9567 81.9205C73.1366 81.839 73.2682 81.7206 73.3516 81.5653C73.4349 81.41 73.4766 81.2235 73.4766 81.0057C73.4766 80.786 73.4339 80.5956 73.3487 80.4347C73.2654 80.2737 73.1338 80.1506 72.9538 80.0653C72.7758 79.9782 72.5419 79.9347 72.2521 79.9347H71.1499V85H70.272ZM73.1442 82.375L74.5817 85H73.5817L72.1726 82.375H73.1442ZM75.9197 85H74.9879L77.0817 79.1818H78.0959L80.1896 85H79.2578L77.6129 80.2386H77.5675L75.9197 85ZM76.076 82.7216H79.0987V83.4602H76.076V82.7216ZM85.7259 79.1818V85H84.919L81.9616 80.733H81.9077V85H81.0298V79.1818H81.8423L84.8026 83.4545H84.8565V79.1818H85.7259ZM90.1797 80.7102C90.1494 80.4413 90.0244 80.233 89.8047 80.0852C89.585 79.9356 89.3085 79.8608 88.9751 79.8608C88.7365 79.8608 88.5301 79.8987 88.3558 79.9744C88.1816 80.0483 88.0462 80.1506 87.9496 80.2812C87.8549 80.41 87.8075 80.5568 87.8075 80.7216C87.8075 80.8598 87.8397 80.9792 87.9041 81.0795C87.9704 81.1799 88.0566 81.2642 88.1626 81.3324C88.2706 81.3987 88.3861 81.4545 88.5092 81.5C88.6323 81.5436 88.7507 81.5795 88.8643 81.608L89.4325 81.7557C89.6181 81.8011 89.8085 81.8627 90.0036 81.9403C90.1986 82.018 90.3795 82.1203 90.5462 82.2472C90.7128 82.3741 90.8473 82.5312 90.9496 82.7188C91.0537 82.9062 91.1058 83.1307 91.1058 83.392C91.1058 83.7216 91.0206 84.0142 90.8501 84.2699C90.6816 84.5256 90.4363 84.7273 90.1143 84.875C89.7943 85.0227 89.407 85.0966 88.9524 85.0966C88.5168 85.0966 88.1399 85.0275 87.8217 84.8892C87.5036 84.7509 87.2545 84.5549 87.0746 84.3011C86.8946 84.0455 86.7952 83.7424 86.7763 83.392H87.657C87.674 83.6023 87.7422 83.7775 87.8615 83.9176C87.9827 84.0559 88.1371 84.1591 88.3246 84.2273C88.514 84.2936 88.7214 84.3267 88.9467 84.3267C89.1948 84.3267 89.4155 84.2879 89.6087 84.2102C89.8037 84.1307 89.9571 84.0208 90.0689 83.8807C90.1806 83.7386 90.2365 83.5729 90.2365 83.3835C90.2365 83.2112 90.1873 83.0701 90.0888 82.9602C89.9922 82.8504 89.8606 82.7595 89.6939 82.6875C89.5291 82.6155 89.3426 82.5521 89.1342 82.4972L88.4467 82.3097C87.9808 82.1828 87.6115 81.9962 87.3388 81.75C87.0679 81.5038 86.9325 81.178 86.9325 80.7727C86.9325 80.4375 87.0234 80.1449 87.2053 79.8949C87.3871 79.6449 87.6333 79.4508 87.9439 79.3125C88.2545 79.1723 88.6049 79.1023 88.995 79.1023C89.389 79.1023 89.7365 79.1714 90.0376 79.3097C90.3407 79.4479 90.5793 79.6383 90.7536 79.8807C90.9278 80.1212 91.0187 80.3977 91.0263 80.7102H90.1797ZM92.1548 85V79.1818H94.2287C94.6813 79.1818 95.0563 79.2642 95.3537 79.429C95.651 79.5937 95.8736 79.8191 96.0213 80.1051C96.169 80.3892 96.2429 80.7093 96.2429 81.0653C96.2429 81.4233 96.1681 81.7453 96.0185 82.0312C95.8707 82.3153 95.6473 82.5407 95.348 82.7074C95.0507 82.8722 94.6766 82.9545 94.2259 82.9545H92.7997V82.2102H94.1463C94.4323 82.2102 94.6643 82.161 94.8423 82.0625C95.0204 81.9621 95.151 81.8258 95.2344 81.6534C95.3177 81.4811 95.3594 81.285 95.3594 81.0653C95.3594 80.8456 95.3177 80.6506 95.2344 80.4801C95.151 80.3097 95.0194 80.1761 94.8395 80.0795C94.6615 79.983 94.4266 79.9347 94.1349 79.9347H93.0327V85H92.1548ZM102.326 82.0909C102.326 82.7121 102.212 83.2462 101.985 83.6932C101.758 84.1383 101.446 84.4811 101.05 84.7216C100.656 84.9602 100.209 85.0795 99.7067 85.0795C99.2029 85.0795 98.7531 84.9602 98.3572 84.7216C97.9633 84.4811 97.6527 84.1373 97.4254 83.6903C97.1982 83.2434 97.0845 82.7102 97.0845 82.0909C97.0845 81.4697 97.1982 80.9366 97.4254 80.4915C97.6527 80.0445 97.9633 79.7017 98.3572 79.4631C98.7531 79.2225 99.2029 79.1023 99.7067 79.1023C100.209 79.1023 100.656 79.2225 101.05 79.4631C101.446 79.7017 101.758 80.0445 101.985 80.4915C102.212 80.9366 102.326 81.4697 102.326 82.0909ZM101.457 82.0909C101.457 81.6174 101.38 81.2187 101.227 80.8949C101.075 80.5691 100.867 80.3229 100.602 80.1562C100.338 79.9877 100.04 79.9034 99.7067 79.9034C99.3714 79.9034 99.0722 79.9877 98.8089 80.1562C98.5457 80.3229 98.3374 80.5691 98.1839 80.8949C98.0324 81.2187 97.9567 81.6174 97.9567 82.0909C97.9567 82.5644 98.0324 82.964 98.1839 83.2898C98.3374 83.6136 98.5457 83.8598 98.8089 84.0284C99.0722 84.1951 99.3714 84.2784 99.7067 84.2784C100.04 84.2784 100.338 84.1951 100.602 84.0284C100.867 83.8598 101.075 83.6136 101.227 83.2898C101.38 82.964 101.457 82.5644 101.457 82.0909ZM103.42 85V79.1818H105.494C105.945 79.1818 106.319 79.2595 106.616 79.4148C106.916 79.5701 107.139 79.785 107.287 80.0597C107.435 80.3324 107.509 80.6477 107.509 81.0057C107.509 81.3617 107.434 81.6752 107.284 81.946C107.136 82.215 106.913 82.4242 106.614 82.5739C106.316 82.7235 105.942 82.7983 105.491 82.7983H103.92V82.0426H105.412C105.696 82.0426 105.927 82.0019 106.105 81.9205C106.285 81.839 106.417 81.7206 106.5 81.5653C106.583 81.41 106.625 81.2235 106.625 81.0057C106.625 80.786 106.582 80.5956 106.497 80.4347C106.414 80.2737 106.282 80.1506 106.102 80.0653C105.924 79.9782 105.69 79.9347 105.401 79.9347H104.298V85H103.42ZM106.293 82.375L107.73 85H106.73L105.321 82.375H106.293ZM108.29 79.9375V79.1818H112.793V79.9375H110.977V85H110.102V79.9375H108.29ZM113.788 85V79.1818H117.435V79.9375H114.665V81.7102H117.245V82.4631H114.665V84.2443H117.469V85H113.788ZM118.608 85V79.1818H120.682C121.133 79.1818 121.507 79.2595 121.804 79.4148C122.103 79.5701 122.327 79.785 122.474 80.0597C122.622 80.3324 122.696 80.6477 122.696 81.0057C122.696 81.3617 122.621 81.6752 122.472 81.946C122.324 82.215 122.1 82.4242 121.801 82.5739C121.504 82.7235 121.13 82.7983 120.679 82.7983H119.108V82.0426H120.599C120.884 82.0426 121.115 82.0019 121.293 81.9205C121.473 81.839 121.604 81.7206 121.688 81.5653C121.771 81.41 121.812 81.2235 121.812 81.0057C121.812 80.786 121.77 80.5956 121.685 80.4347C121.601 80.2737 121.47 80.1506 121.29 80.0653C121.112 79.9782 120.878 79.9347 120.588 79.9347H119.486V85H118.608ZM121.48 82.375L122.918 85H121.918L120.509 82.375H121.48Z" fill="#F37A1D"/>
<path d="M58.8835 97.1818V103H57.8295V98.2074H57.7955L56.4347 99.0767V98.1108L57.8807 97.1818H58.8835ZM62.402 103V97.1818H64.6293C65.0497 97.1818 65.3991 97.2481 65.6776 97.3807C65.9579 97.5114 66.1671 97.6903 66.3054 97.9176C66.4455 98.1449 66.5156 98.4025 66.5156 98.6903C66.5156 98.9271 66.4702 99.1297 66.3793 99.2983C66.2884 99.465 66.1662 99.6004 66.0128 99.7045C65.8594 99.8087 65.688 99.8835 65.4986 99.929V99.9858C65.705 99.9972 65.9029 100.061 66.0923 100.176C66.2836 100.29 66.4399 100.451 66.5611 100.659C66.6823 100.867 66.7429 101.119 66.7429 101.415C66.7429 101.716 66.67 101.987 66.5241 102.227C66.3783 102.466 66.1586 102.654 65.8651 102.793C65.5715 102.931 65.2022 103 64.7571 103H62.402ZM63.456 102.119H64.5895C64.9721 102.119 65.2476 102.046 65.4162 101.901C65.5866 101.753 65.6719 101.563 65.6719 101.332C65.6719 101.16 65.6293 101.005 65.544 100.866C65.4588 100.726 65.3376 100.616 65.1804 100.537C65.0232 100.455 64.8357 100.415 64.6179 100.415H63.456V102.119ZM63.456 99.6562H64.4986C64.6804 99.6562 64.8442 99.6231 64.9901 99.5568C65.1359 99.4886 65.2505 99.393 65.3338 99.2699C65.419 99.1449 65.4616 98.9972 65.4616 98.8267C65.4616 98.6013 65.3821 98.4157 65.223 98.2699C65.0658 98.1241 64.8319 98.0511 64.5213 98.0511H63.456V99.6562ZM72.8587 100.091C72.8587 100.718 72.7412 101.255 72.5064 101.702C72.2734 102.147 71.9553 102.488 71.5518 102.724C71.1503 102.961 70.6948 103.08 70.1854 103.08C69.6759 103.08 69.2195 102.961 68.8161 102.724C68.4145 102.486 68.0964 102.144 67.8615 101.699C67.6286 101.252 67.5121 100.716 67.5121 100.091C67.5121 99.464 67.6286 98.928 67.8615 98.483C68.0964 98.036 68.4145 97.6941 68.8161 97.4574C69.2195 97.2206 69.6759 97.1023 70.1854 97.1023C70.6948 97.1023 71.1503 97.2206 71.5518 97.4574C71.9553 97.6941 72.2734 98.036 72.5064 98.483C72.7412 98.928 72.8587 99.464 72.8587 100.091ZM71.799 100.091C71.799 99.6496 71.7299 99.2775 71.5916 98.9744C71.4553 98.6695 71.2659 98.4394 71.0234 98.2841C70.781 98.1269 70.5017 98.0483 70.1854 98.0483C69.8691 98.0483 69.5897 98.1269 69.3473 98.2841C69.1049 98.4394 68.9145 98.6695 68.7763 98.9744C68.6399 99.2775 68.5717 99.6496 68.5717 100.091C68.5717 100.532 68.6399 100.905 68.7763 101.21C68.9145 101.513 69.1049 101.743 69.3473 101.901C69.5897 102.056 69.8691 102.134 70.1854 102.134C70.5017 102.134 70.781 102.056 71.0234 101.901C71.2659 101.743 71.4553 101.513 71.5916 101.21C71.7299 100.905 71.799 100.532 71.799 100.091ZM74.5249 97.1818L75.8061 99.3125H75.8516L77.1385 97.1818H78.3402L76.5476 100.091L78.3686 103H77.147L75.8516 100.884H75.8061L74.5107 103H73.2947L75.1328 100.091L73.3175 97.1818H74.5249ZM79.1676 103V97.1818H82.9517V98.0653H80.2216V99.6449H82.7557V100.528H80.2216V102.116H82.9744V103H79.1676Z" fill="#F37A1D"/>
<defs>
<clipPath id="clip0_2034_96990">
<rect width="14.4213" height="14.4213" fill="white" transform="translate(111.59 8.65271)"/>
</clipPath>
</defs>
</svg>
