<svg width="139" height="145" viewBox="0 0 139 145" fill="none" xmlns="http://www.w3.org/2000/svg">
<rect width="138.444" height="144.213" fill="#18365a"/>
<path d="M45.4116 22.6527V12.1645H47.6291V20.8244H52.1255V22.6527H45.4116ZM55.6693 22.6527H53.2931L56.9138 12.1645H59.7714L63.387 22.6527H61.0107L58.3836 14.5612H58.3016L55.6693 22.6527ZM55.5208 18.5301H61.1337V20.2611H55.5208V18.5301ZM64.6494 22.6527V12.1645H68.7873C69.5794 12.1645 70.2554 12.3062 70.8153 12.5896C71.3786 12.8695 71.8071 13.2673 72.1007 13.7828C72.3977 14.2949 72.5462 14.8975 72.5462 15.5906C72.5462 16.2871 72.396 16.8862 72.0956 17.3881C71.7951 17.8866 71.3598 18.269 70.7897 18.5353C70.2229 18.8016 69.5367 18.9347 68.731 18.9347H65.9604V17.1525H68.3725C68.7958 17.1525 69.1475 17.0945 69.4274 16.9784C69.7074 16.8623 69.9157 16.6882 70.0522 16.4561C70.1922 16.2239 70.2622 15.9354 70.2622 15.5906C70.2622 15.2423 70.1922 14.9487 70.0522 14.7097C69.9157 14.4707 69.7057 14.2898 69.4223 14.1669C69.1424 14.0406 68.789 13.9774 68.3622 13.9774H66.8668V22.6527H64.6494ZM70.3134 17.8798L72.9201 22.6527H70.4722L67.9218 17.8798H70.3134ZM81.0679 15.5547C80.9962 15.3055 80.8955 15.0853 80.7658 14.8941C80.636 14.6995 80.4773 14.5356 80.2895 14.4025C80.1051 14.2659 79.8935 14.1618 79.6545 14.0901C79.4189 14.0184 79.1577 13.9825 78.8709 13.9825C78.3349 13.9825 77.8638 14.1157 77.4575 14.382C77.0546 14.6483 76.7405 15.0358 76.5152 15.5445C76.2898 16.0498 76.1772 16.6677 76.1772 17.3984C76.1772 18.129 76.2881 18.7504 76.5101 19.2625C76.732 19.7746 77.0461 20.1655 77.4524 20.4352C77.8586 20.7015 78.3383 20.8347 78.8914 20.8347C79.3933 20.8347 79.8218 20.7459 80.1768 20.5684C80.5353 20.3874 80.8084 20.1331 80.9962 19.8053C81.1874 19.4776 81.283 19.0901 81.283 18.6428L81.7337 18.7094H79.0297V17.0399H83.4186V18.3611C83.4186 19.283 83.2239 20.075 82.8347 20.7374C82.4455 21.3963 81.9095 21.905 81.2267 22.2635C80.5439 22.6186 79.762 22.7961 78.8812 22.7961C77.8979 22.7961 77.0341 22.5793 76.2898 22.1457C75.5456 21.7087 74.9652 21.089 74.5486 20.2867C74.1355 19.481 73.929 18.525 73.929 17.4188C73.929 16.5687 74.0519 15.8108 74.2977 15.145C74.5469 14.4759 74.8952 13.9091 75.3424 13.4448C75.7897 12.9805 76.3103 12.6271 76.9044 12.3847C77.4984 12.1423 78.142 12.0211 78.8351 12.0211C79.4291 12.0211 79.9822 12.1082 80.4943 12.2823C81.0065 12.453 81.4605 12.6954 81.8566 13.0095C82.256 13.3236 82.5821 13.6974 82.8347 14.131C83.0874 14.5612 83.2496 15.0358 83.3213 15.5547H81.0679ZM85.0842 22.6527V12.1645H92.1515V13.9928H87.3017V16.4919H91.7879V18.3202H87.3017V20.8244H92.172V22.6527H85.0842Z" fill="#d8b56c"/>
<g clip-path="url(#clip0_2264_99791)">
<path d="M118.801 8.65259C115.065 8.65259 112.041 11.6759 112.041 15.4123C112.041 17.0504 112.63 18.6201 113.703 19.8511V22.6509C113.703 23.026 114.158 23.2156 114.424 22.9496L115.869 21.5046C120.359 23.6646 125.561 20.3825 125.561 15.4123C125.561 11.6765 122.538 8.65259 118.801 8.65259ZM118.801 19.6625C118.568 19.6625 118.38 19.474 118.38 19.2415C118.38 19.0089 118.568 18.8204 118.801 18.8204C119.034 18.8204 119.222 19.0089 119.222 19.2415C119.222 19.474 119.034 19.6625 118.801 19.6625ZM119.223 16.6728V17.5515C119.223 17.7848 119.034 17.974 118.801 17.974C118.568 17.974 118.378 17.7848 118.378 17.5515V16.2855C118.378 16.0521 118.568 15.863 118.801 15.863C119.734 15.863 120.492 15.1042 120.492 14.1716C120.492 13.239 119.734 12.4803 118.801 12.4803C117.868 12.4803 117.11 13.239 117.11 14.1716C117.11 14.405 116.92 14.5941 116.687 14.5941C116.454 14.5941 116.265 14.4049 116.265 14.1716C116.265 12.7731 117.402 11.6353 118.801 11.6353C120.2 11.6353 121.337 12.7731 121.337 14.1716C121.337 15.4263 120.422 16.471 119.223 16.6728Z" fill="#d8b56c"/>
</g>
<path d="M82.2021 76.4329L85.8075 78.5144L85.8075 74.3513L82.2021 76.4329ZM96.6234 76.4329L93.0181 74.3513L93.0181 78.5144L96.6234 76.4329ZM85.4469 76.7934L93.3787 76.7934L93.3787 76.0723L85.4469 76.0723L85.4469 76.7934Z" fill="#18365a"/>
<path d="M16.517 79.1818V85H15.6392V79.1818H16.517ZM19.679 85H17.7955V79.1818H19.7386C20.3087 79.1818 20.7983 79.2983 21.2074 79.5312C21.6165 79.7623 21.9299 80.0947 22.1477 80.5284C22.3674 80.9602 22.4773 81.4782 22.4773 82.0824C22.4773 82.6884 22.3665 83.2093 22.1449 83.6449C21.9252 84.0805 21.607 84.4157 21.1903 84.6506C20.7737 84.8835 20.2699 85 19.679 85ZM18.6733 84.233H19.6307C20.0739 84.233 20.4422 84.1496 20.7358 83.983C21.0294 83.8144 21.2491 83.571 21.3949 83.2528C21.5407 82.9328 21.6136 82.5426 21.6136 82.0824C21.6136 81.6259 21.5407 81.2386 21.3949 80.9205C21.2509 80.6023 21.036 80.3608 20.75 80.196C20.464 80.0312 20.1089 79.9489 19.6847 79.9489H18.6733V84.233ZM23.5689 85V79.1818H27.2166V79.9375H24.4467V81.7102H27.0263V82.4631H24.4467V84.2443H27.2507V85H23.5689ZM25.0405 78.5994L25.7053 77.2898H26.6001L25.7195 78.5994H25.0405ZM28.8807 85H27.9489L30.0426 79.1818H31.0568L33.1506 85H32.2188L30.5739 80.2386H30.5284L28.8807 85ZM29.0369 82.7216H32.0597V83.4602H29.0369V82.7216ZM33.9908 85V79.1818H34.8686V84.2443H37.505V85H33.9908ZM40.6236 85V79.1818H42.6974C43.1501 79.1818 43.5251 79.2642 43.8224 79.429C44.1198 79.5937 44.3423 79.8191 44.4901 80.1051C44.6378 80.3892 44.7116 80.7093 44.7116 81.0653C44.7116 81.4233 44.6368 81.7453 44.4872 82.0312C44.3395 82.3153 44.116 82.5407 43.8168 82.7074C43.5194 82.8722 43.1454 82.9545 42.6946 82.9545H41.2685V82.2102H42.6151C42.901 82.2102 43.133 82.161 43.3111 82.0625C43.4891 81.9621 43.6198 81.8258 43.7031 81.6534C43.7865 81.4811 43.8281 81.285 43.8281 81.0653C43.8281 80.8456 43.7865 80.6506 43.7031 80.4801C43.6198 80.3097 43.4882 80.1761 43.3082 80.0795C43.1302 79.983 42.8954 79.9347 42.6037 79.9347H41.5014V85H40.6236ZM50.7947 82.0909C50.7947 82.7121 50.6811 83.2462 50.4538 83.6932C50.2266 84.1383 49.915 84.4811 49.5192 84.7216C49.1252 84.9602 48.6773 85.0795 48.1754 85.0795C47.6716 85.0795 47.2218 84.9602 46.826 84.7216C46.4321 84.4811 46.1214 84.1373 45.8942 83.6903C45.6669 83.2434 45.5533 82.7102 45.5533 82.0909C45.5533 81.4697 45.6669 80.9366 45.8942 80.4915C46.1214 80.0445 46.4321 79.7017 46.826 79.4631C47.2218 79.2225 47.6716 79.1023 48.1754 79.1023C48.6773 79.1023 49.1252 79.2225 49.5192 79.4631C49.915 79.7017 50.2266 80.0445 50.4538 80.4915C50.6811 80.9366 50.7947 81.4697 50.7947 82.0909ZM49.9254 82.0909C49.9254 81.6174 49.8487 81.2187 49.6953 80.8949C49.5438 80.5691 49.3355 80.3229 49.0703 80.1562C48.8071 79.9877 48.5088 79.9034 48.1754 79.9034C47.8402 79.9034 47.541 79.9877 47.2777 80.1562C47.0144 80.3229 46.8061 80.5691 46.6527 80.8949C46.5012 81.2187 46.4254 81.6174 46.4254 82.0909C46.4254 82.5644 46.5012 82.964 46.6527 83.2898C46.8061 83.6136 47.0144 83.8598 47.2777 84.0284C47.541 84.1951 47.8402 84.2784 48.1754 84.2784C48.5088 84.2784 48.8071 84.1951 49.0703 84.0284C49.3355 83.8598 49.5438 83.6136 49.6953 83.2898C49.8487 82.964 49.9254 82.5644 49.9254 82.0909ZM55.6307 79.1818H56.5114V83.0085C56.5114 83.4157 56.4157 83.7765 56.2244 84.0909C56.0331 84.4034 55.7642 84.6496 55.4176 84.8295C55.071 85.0076 54.6648 85.0966 54.1989 85.0966C53.7348 85.0966 53.3295 85.0076 52.983 84.8295C52.6364 84.6496 52.3674 84.4034 52.1761 84.0909C51.9848 83.7765 51.8892 83.4157 51.8892 83.0085V79.1818H52.767V82.9375C52.767 83.2008 52.8248 83.4347 52.9403 83.6392C53.0578 83.8438 53.2235 84.0047 53.4375 84.1222C53.6515 84.2377 53.9053 84.2955 54.1989 84.2955C54.4943 84.2955 54.7491 84.2377 54.9631 84.1222C55.179 84.0047 55.3438 83.8438 55.4574 83.6392C55.5729 83.4347 55.6307 83.2008 55.6307 82.9375V79.1818ZM57.7876 85V79.1818H59.8615C60.3123 79.1818 60.6863 79.2595 60.9837 79.4148C61.2829 79.5701 61.5064 79.785 61.6541 80.0597C61.8018 80.3324 61.8757 80.6477 61.8757 81.0057C61.8757 81.3617 61.8009 81.6752 61.6513 81.946C61.5036 82.215 61.2801 82.4242 60.9808 82.5739C60.6835 82.7235 60.3094 82.7983 59.8587 82.7983H58.2876V82.0426H59.7791C60.0632 82.0426 60.2943 82.0019 60.4723 81.9205C60.6522 81.839 60.7839 81.7206 60.8672 81.5653C60.9505 81.41 60.9922 81.2235 60.9922 81.0057C60.9922 80.786 60.9496 80.5956 60.8643 80.4347C60.781 80.2737 60.6494 80.1506 60.4695 80.0653C60.2914 79.9782 60.0575 79.9347 59.7678 79.9347H58.6655V85H57.7876ZM60.6598 82.375L62.0973 85H61.0973L59.6882 82.375H60.6598ZM64.7741 79.9375V79.1818H69.277V79.9375H67.4616V85H66.5866V79.9375H64.7741ZM70.272 85V79.1818H72.3459C72.7966 79.1818 73.1707 79.2595 73.468 79.4148C73.7673 79.5701 73.9908 79.785 74.1385 80.0597C74.2862 80.3324 74.3601 80.6477 74.3601 81.0057C74.3601 81.3617 74.2853 81.6752 74.1357 81.946C73.9879 82.215 73.7644 82.4242 73.4652 82.5739C73.1679 82.7235 72.7938 82.7983 72.343 82.7983H70.772V82.0426H72.2635C72.5476 82.0426 72.7786 82.0019 72.9567 81.9205C73.1366 81.839 73.2682 81.7206 73.3516 81.5653C73.4349 81.41 73.4766 81.2235 73.4766 81.0057C73.4766 80.786 73.4339 80.5956 73.3487 80.4347C73.2654 80.2737 73.1338 80.1506 72.9538 80.0653C72.7758 79.9782 72.5419 79.9347 72.2521 79.9347H71.1499V85H70.272ZM73.1442 82.375L74.5817 85H73.5817L72.1726 82.375H73.1442ZM75.9197 85H74.9879L77.0817 79.1818H78.0959L80.1896 85H79.2578L77.6129 80.2386H77.5675L75.9197 85ZM76.076 82.7216H79.0987V83.4602H76.076V82.7216ZM85.7259 79.1818V85H84.919L81.9616 80.733H81.9077V85H81.0298V79.1818H81.8423L84.8026 83.4545H84.8565V79.1818H85.7259ZM90.1797 80.7102C90.1494 80.4413 90.0244 80.233 89.8047 80.0852C89.585 79.9356 89.3085 79.8608 88.9751 79.8608C88.7365 79.8608 88.5301 79.8987 88.3558 79.9744C88.1816 80.0483 88.0462 80.1506 87.9496 80.2812C87.8549 80.41 87.8075 80.5568 87.8075 80.7216C87.8075 80.8598 87.8397 80.9792 87.9041 81.0795C87.9704 81.1799 88.0566 81.2642 88.1626 81.3324C88.2706 81.3987 88.3861 81.4545 88.5092 81.5C88.6323 81.5436 88.7507 81.5795 88.8643 81.608L89.4325 81.7557C89.6181 81.8011 89.8085 81.8627 90.0036 81.9403C90.1986 82.018 90.3795 82.1203 90.5462 82.2472C90.7128 82.3741 90.8473 82.5312 90.9496 82.7188C91.0537 82.9062 91.1058 83.1307 91.1058 83.392C91.1058 83.7216 91.0206 84.0142 90.8501 84.2699C90.6816 84.5256 90.4363 84.7273 90.1143 84.875C89.7943 85.0227 89.407 85.0966 88.9524 85.0966C88.5168 85.0966 88.1399 85.0275 87.8217 84.8892C87.5036 84.7509 87.2545 84.5549 87.0746 84.3011C86.8946 84.0455 86.7952 83.7424 86.7763 83.392H87.657C87.674 83.6023 87.7422 83.7775 87.8615 83.9176C87.9827 84.0559 88.1371 84.1591 88.3246 84.2273C88.514 84.2936 88.7214 84.3267 88.9467 84.3267C89.1948 84.3267 89.4155 84.2879 89.6087 84.2102C89.8037 84.1307 89.9571 84.0208 90.0689 83.8807C90.1806 83.7386 90.2365 83.5729 90.2365 83.3835C90.2365 83.2112 90.1873 83.0701 90.0888 82.9602C89.9922 82.8504 89.8606 82.7595 89.6939 82.6875C89.5291 82.6155 89.3426 82.5521 89.1342 82.4972L88.4467 82.3097C87.9808 82.1828 87.6115 81.9962 87.3388 81.75C87.0679 81.5038 86.9325 81.178 86.9325 80.7727C86.9325 80.4375 87.0234 80.1449 87.2053 79.8949C87.3871 79.6449 87.6333 79.4508 87.9439 79.3125C88.2545 79.1723 88.6049 79.1023 88.995 79.1023C89.389 79.1023 89.7365 79.1714 90.0376 79.3097C90.3407 79.4479 90.5793 79.6383 90.7536 79.8807C90.9278 80.1212 91.0187 80.3977 91.0263 80.7102H90.1797ZM92.1548 85V79.1818H94.2287C94.6813 79.1818 95.0563 79.2642 95.3537 79.429C95.651 79.5937 95.8736 79.8191 96.0213 80.1051C96.169 80.3892 96.2429 80.7093 96.2429 81.0653C96.2429 81.4233 96.1681 81.7453 96.0185 82.0312C95.8707 82.3153 95.6473 82.5407 95.348 82.7074C95.0507 82.8722 94.6766 82.9545 94.2259 82.9545H92.7997V82.2102H94.1463C94.4323 82.2102 94.6643 82.161 94.8423 82.0625C95.0204 81.9621 95.151 81.8258 95.2344 81.6534C95.3177 81.4811 95.3594 81.285 95.3594 81.0653C95.3594 80.8456 95.3177 80.6506 95.2344 80.4801C95.151 80.3097 95.0194 80.1761 94.8395 80.0795C94.6615 79.983 94.4266 79.9347 94.1349 79.9347H93.0327V85H92.1548ZM102.326 82.0909C102.326 82.7121 102.212 83.2462 101.985 83.6932C101.758 84.1383 101.446 84.4811 101.05 84.7216C100.656 84.9602 100.209 85.0795 99.7067 85.0795C99.2029 85.0795 98.7531 84.9602 98.3572 84.7216C97.9633 84.4811 97.6527 84.1373 97.4254 83.6903C97.1982 83.2434 97.0845 82.7102 97.0845 82.0909C97.0845 81.4697 97.1982 80.9366 97.4254 80.4915C97.6527 80.0445 97.9633 79.7017 98.3572 79.4631C98.7531 79.2225 99.2029 79.1023 99.7067 79.1023C100.209 79.1023 100.656 79.2225 101.05 79.4631C101.446 79.7017 101.758 80.0445 101.985 80.4915C102.212 80.9366 102.326 81.4697 102.326 82.0909ZM101.457 82.0909C101.457 81.6174 101.38 81.2187 101.227 80.8949C101.075 80.5691 100.867 80.3229 100.602 80.1562C100.338 79.9877 100.04 79.9034 99.7067 79.9034C99.3714 79.9034 99.0722 79.9877 98.8089 80.1562C98.5457 80.3229 98.3374 80.5691 98.1839 80.8949C98.0324 81.2187 97.9567 81.6174 97.9567 82.0909C97.9567 82.5644 98.0324 82.964 98.1839 83.2898C98.3374 83.6136 98.5457 83.8598 98.8089 84.0284C99.0722 84.1951 99.3714 84.2784 99.7067 84.2784C100.04 84.2784 100.338 84.1951 100.602 84.0284C100.867 83.8598 101.075 83.6136 101.227 83.2898C101.38 82.964 101.457 82.5644 101.457 82.0909ZM103.42 85V79.1818H105.494C105.945 79.1818 106.319 79.2595 106.616 79.4148C106.916 79.5701 107.139 79.785 107.287 80.0597C107.435 80.3324 107.509 80.6477 107.509 81.0057C107.509 81.3617 107.434 81.6752 107.284 81.946C107.136 82.215 106.913 82.4242 106.614 82.5739C106.316 82.7235 105.942 82.7983 105.491 82.7983H103.92V82.0426H105.412C105.696 82.0426 105.927 82.0019 106.105 81.9205C106.285 81.839 106.417 81.7206 106.5 81.5653C106.583 81.41 106.625 81.2235 106.625 81.0057C106.625 80.786 106.582 80.5956 106.497 80.4347C106.414 80.2737 106.282 80.1506 106.102 80.0653C105.924 79.9782 105.69 79.9347 105.401 79.9347H104.298V85H103.42ZM106.293 82.375L107.73 85H106.73L105.321 82.375H106.293ZM108.29 79.9375V79.1818H112.793V79.9375H110.977V85H110.102V79.9375H108.29ZM113.788 85V79.1818H117.435V79.9375H114.665V81.7102H117.245V82.4631H114.665V84.2443H117.469V85H113.788ZM118.608 85V79.1818H120.682C121.133 79.1818 121.507 79.2595 121.804 79.4148C122.103 79.5701 122.327 79.785 122.474 80.0597C122.622 80.3324 122.696 80.6477 122.696 81.0057C122.696 81.3617 122.621 81.6752 122.472 81.946C122.324 82.215 122.1 82.4242 121.801 82.5739C121.504 82.7235 121.13 82.7983 120.679 82.7983H119.108V82.0426H120.599C120.884 82.0426 121.115 82.0019 121.293 81.9205C121.473 81.839 121.604 81.7206 121.688 81.5653C121.771 81.41 121.812 81.2235 121.812 81.0057C121.812 80.786 121.77 80.5956 121.685 80.4347C121.601 80.2737 121.47 80.1506 121.29 80.0653C121.112 79.9782 120.878 79.9347 120.588 79.9347H119.486V85H118.608ZM121.48 82.375L122.918 85H121.918L120.509 82.375H121.48Z" fill="#d8b56c"/>
<path d="M18.6392 63V57.1818H19.517V62.2443H22.1534V63H18.6392ZM25.1925 63V62.3636L27.1612 60.3239C27.3714 60.1023 27.5447 59.9081 27.6811 59.7415C27.8194 59.5729 27.9226 59.4129 27.9908 59.2614C28.0589 59.1098 28.093 58.9489 28.093 58.7784C28.093 58.5852 28.0476 58.4186 27.9567 58.2784C27.8658 58.1364 27.7417 58.0275 27.5845 57.9517C27.4273 57.8741 27.2502 57.8352 27.0533 57.8352C26.8449 57.8352 26.6631 57.8778 26.5078 57.9631C26.3525 58.0483 26.2332 58.1686 26.1499 58.3239C26.0665 58.4792 26.0249 58.661 26.0249 58.8693H25.1868C25.1868 58.5152 25.2682 58.2055 25.4311 57.9403C25.594 57.6752 25.8175 57.4697 26.1016 57.3239C26.3857 57.1761 26.7086 57.1023 27.0703 57.1023C27.4358 57.1023 27.7578 57.1752 28.0362 57.321C28.3165 57.465 28.5353 57.6619 28.6925 57.9119C28.8497 58.16 28.9283 58.4403 28.9283 58.7528C28.9283 58.9688 28.8875 59.1799 28.8061 59.3864C28.7266 59.5928 28.5874 59.8229 28.3885 60.0767C28.1896 60.3286 27.9131 60.6345 27.5589 60.9943L26.4027 62.2045V62.2472H29.022V63H25.1925ZM30.1101 63V58.6364H30.9254V59.3466H30.9794C31.0703 59.1061 31.219 58.9186 31.4254 58.7841C31.6319 58.6477 31.879 58.5795 32.1669 58.5795C32.4586 58.5795 32.7029 58.6477 32.8999 58.7841C33.0987 58.9205 33.2455 59.108 33.3402 59.3466H33.3857C33.4898 59.1136 33.6555 58.928 33.8828 58.7898C34.1101 58.6496 34.3809 58.5795 34.6953 58.5795C35.0911 58.5795 35.4141 58.7036 35.6641 58.9517C35.916 59.1998 36.0419 59.5739 36.0419 60.0739V63H35.1925V60.1534C35.1925 59.858 35.112 59.6439 34.951 59.5114C34.79 59.3788 34.5978 59.3125 34.3743 59.3125C34.0978 59.3125 33.8828 59.3977 33.7294 59.5682C33.576 59.7367 33.4993 59.9536 33.4993 60.2188V63H32.6527V60.0994C32.6527 59.8627 32.5788 59.6723 32.4311 59.5284C32.2834 59.3845 32.0911 59.3125 31.8544 59.3125C31.6934 59.3125 31.5447 59.3551 31.4084 59.4403C31.2739 59.5237 31.165 59.6402 31.0817 59.7898C31.0002 59.9394 30.9595 60.1127 30.9595 60.3097V63H30.1101ZM40.505 60.4545L40.5589 59.2557L39.5476 59.9062L39.2379 59.3665L40.3118 58.8182L39.2379 58.2699L39.5476 57.7301L40.5589 58.3807L40.505 57.1818H41.1214L41.0675 58.3807L42.0788 57.7301L42.3885 58.2699L41.3146 58.8182L42.3885 59.3665L42.0788 59.9062L41.0675 59.2557L41.1214 60.4545H40.505ZM46.794 63L45.1804 57.1818H46.1037L47.2372 61.6875H47.2912L48.4702 57.1818H49.3849L50.5639 61.6903H50.6179L51.7486 57.1818H52.6747L51.0582 63H50.1747L48.9503 58.642H48.9048L47.6804 63H46.794ZM57.7202 57.1818V63H56.8395V58.0625H56.8054L55.4134 58.9716V58.1307L56.8651 57.1818H57.7202ZM59.5291 63.054C59.3738 63.054 59.2403 62.9991 59.1286 62.8892C59.0168 62.7775 58.9609 62.643 58.9609 62.4858C58.9609 62.3305 59.0168 62.1979 59.1286 62.0881C59.2403 61.9763 59.3738 61.9205 59.5291 61.9205C59.6844 61.9205 59.8179 61.9763 59.9297 62.0881C60.0414 62.1979 60.0973 62.3305 60.0973 62.4858C60.0973 62.59 60.0708 62.6856 60.0178 62.7727C59.9666 62.858 59.8984 62.9261 59.8132 62.9773C59.728 63.0284 59.6333 63.054 59.5291 63.054ZM61.1016 61.8636V61.1534L63.6158 57.1818H64.1754V58.2273H63.8203L62.022 61.0739V61.1193H65.468V61.8636H61.1016ZM63.8601 63V61.6477L63.8658 61.3239V57.1818H64.6982V63H63.8601ZM68.5866 63V58.6364H69.402V59.3466H69.456C69.5469 59.1061 69.6955 58.9186 69.902 58.7841C70.1084 58.6477 70.3556 58.5795 70.6435 58.5795C70.9351 58.5795 71.1795 58.6477 71.3764 58.7841C71.5753 58.9205 71.7221 59.108 71.8168 59.3466H71.8622C71.9664 59.1136 72.1321 58.928 72.3594 58.7898C72.5866 58.6496 72.8575 58.5795 73.1719 58.5795C73.5677 58.5795 73.8906 58.7036 74.1406 58.9517C74.3925 59.1998 74.5185 59.5739 74.5185 60.0739V63H73.669V60.1534C73.669 59.858 73.5885 59.6439 73.4276 59.5114C73.2666 59.3788 73.0743 59.3125 72.8509 59.3125C72.5743 59.3125 72.3594 59.3977 72.206 59.5682C72.0526 59.7367 71.9759 59.9536 71.9759 60.2188V63H71.1293V60.0994C71.1293 59.8627 71.0554 59.6723 70.9077 59.5284C70.7599 59.3845 70.5677 59.3125 70.331 59.3125C70.17 59.3125 70.0213 59.3551 69.8849 59.4403C69.7505 59.5237 69.6416 59.6402 69.5582 59.7898C69.4768 59.9394 69.4361 60.1127 69.4361 60.3097V63H68.5866ZM78.9815 60.4545L79.0355 59.2557L78.0241 59.9062L77.7145 59.3665L78.7884 58.8182L77.7145 58.2699L78.0241 57.7301L79.0355 58.3807L78.9815 57.1818H79.598L79.544 58.3807L80.5554 57.7301L80.8651 58.2699L79.7912 58.8182L80.8651 59.3665L80.5554 59.9062L79.544 59.2557L79.598 60.4545H78.9815ZM84.1314 63V57.1818H85.0092V59.7102H87.9098V57.1818H88.7905V63H87.9098V60.4631H85.0092V63H84.1314ZM94.3139 57.1818V63H93.4332V58.0625H93.3991L92.0071 58.9716V58.1307L93.4588 57.1818H94.3139ZM96.1229 63.054C95.9676 63.054 95.834 62.9991 95.7223 62.8892C95.6106 62.7775 95.5547 62.643 95.5547 62.4858C95.5547 62.3305 95.6106 62.1979 95.7223 62.0881C95.834 61.9763 95.9676 61.9205 96.1229 61.9205C96.2782 61.9205 96.4117 61.9763 96.5234 62.0881C96.6352 62.1979 96.6911 62.3305 96.6911 62.4858C96.6911 62.59 96.6645 62.6856 96.6115 62.7727C96.5604 62.858 96.4922 62.9261 96.407 62.9773C96.3217 63.0284 96.227 63.054 96.1229 63.054ZM97.8175 63V62.3636L99.7862 60.3239C99.9964 60.1023 100.17 59.9081 100.306 59.7415C100.444 59.5729 100.548 59.4129 100.616 59.2614C100.684 59.1098 100.718 58.9489 100.718 58.7784C100.718 58.5852 100.673 58.4186 100.582 58.2784C100.491 58.1364 100.367 58.0275 100.21 57.9517C100.052 57.8741 99.8752 57.8352 99.6783 57.8352C99.4699 57.8352 99.2881 57.8778 99.1328 57.9631C98.9775 58.0483 98.8582 58.1686 98.7749 58.3239C98.6915 58.4792 98.6499 58.661 98.6499 58.8693H97.8118C97.8118 58.5152 97.8932 58.2055 98.0561 57.9403C98.219 57.6752 98.4425 57.4697 98.7266 57.3239C99.0107 57.1761 99.3336 57.1023 99.6953 57.1023C100.061 57.1023 100.383 57.1752 100.661 57.321C100.942 57.465 101.16 57.6619 101.317 57.9119C101.475 58.16 101.553 58.4403 101.553 58.7528C101.553 58.9688 101.513 59.1799 101.431 59.3864C101.352 59.5928 101.212 59.8229 101.013 60.0767C100.815 60.3286 100.538 60.6345 100.184 60.9943L99.0277 62.2045V62.2472H101.647V63H97.8175ZM104.852 63V58.6364H105.668V59.3466H105.722C105.813 59.1061 105.961 58.9186 106.168 58.7841C106.374 58.6477 106.621 58.5795 106.909 58.5795C107.201 58.5795 107.445 58.6477 107.642 58.7841C107.841 58.9205 107.988 59.108 108.082 59.3466H108.128C108.232 59.1136 108.398 58.928 108.625 58.7898C108.852 58.6496 109.123 58.5795 109.438 58.5795C109.833 58.5795 110.156 58.7036 110.406 58.9517C110.658 59.1998 110.784 59.5739 110.784 60.0739V63H109.935V60.1534C109.935 59.858 109.854 59.6439 109.693 59.5114C109.532 59.3788 109.34 59.3125 109.116 59.3125C108.84 59.3125 108.625 59.3977 108.472 59.5682C108.318 59.7367 108.241 59.9536 108.241 60.2188V63H107.395V60.0994C107.395 59.8627 107.321 59.6723 107.173 59.5284C107.026 59.3845 106.833 59.3125 106.597 59.3125C106.436 59.3125 106.287 59.3551 106.151 59.4403C106.016 59.5237 105.907 59.6402 105.824 59.7898C105.742 59.9394 105.702 60.1127 105.702 60.3097V63H104.852Z" fill="#d8b56c"/>
<path d="M49.517 103V102.239L51.5369 100.259C51.7301 100.063 51.8911 99.8902 52.0199 99.7386C52.1487 99.5871 52.2453 99.4403 52.3097 99.2983C52.3741 99.1562 52.4062 99.0047 52.4062 98.8438C52.4062 98.66 52.3646 98.5028 52.2812 98.3722C52.1979 98.2396 52.0833 98.1373 51.9375 98.0653C51.7917 97.9934 51.6259 97.9574 51.4403 97.9574C51.2491 97.9574 51.0814 97.9972 50.9375 98.0767C50.7936 98.1544 50.6818 98.2652 50.6023 98.4091C50.5246 98.553 50.4858 98.7244 50.4858 98.9233H49.483C49.483 98.554 49.5672 98.233 49.7358 97.9602C49.9044 97.6875 50.1364 97.4763 50.4318 97.3267C50.7292 97.1771 51.0701 97.1023 51.4545 97.1023C51.8447 97.1023 52.1875 97.1752 52.483 97.321C52.7784 97.4669 53.0076 97.6667 53.1705 97.9205C53.3352 98.1742 53.4176 98.464 53.4176 98.7898C53.4176 99.0076 53.3759 99.2216 53.2926 99.4318C53.2093 99.642 53.0625 99.875 52.8523 100.131C52.6439 100.386 52.3513 100.696 51.9744 101.06L50.9716 102.08V102.119H53.5057V103H49.517ZM56.8523 97.1818V103H55.7983V98.2074H55.7642L54.4034 99.0767V98.1108L55.8494 97.1818H56.8523ZM60.4801 103.111C60.0123 103.111 59.6108 102.992 59.2756 102.756C58.9422 102.517 58.6856 102.173 58.5057 101.724C58.3277 101.274 58.2386 100.731 58.2386 100.097C58.2405 99.4621 58.3305 98.9223 58.5085 98.4773C58.6884 98.0303 58.9451 97.6894 59.2784 97.4545C59.6136 97.2197 60.0142 97.1023 60.4801 97.1023C60.946 97.1023 61.3466 97.2197 61.6818 97.4545C62.017 97.6894 62.2737 98.0303 62.4517 98.4773C62.6316 98.9242 62.7216 99.464 62.7216 100.097C62.7216 100.733 62.6316 101.277 62.4517 101.727C62.2737 102.176 62.017 102.519 61.6818 102.756C61.3485 102.992 60.9479 103.111 60.4801 103.111ZM60.4801 102.222C60.8438 102.222 61.1307 102.043 61.3409 101.685C61.553 101.325 61.6591 100.795 61.6591 100.097C61.6591 99.6345 61.6108 99.2462 61.5142 98.9318C61.4176 98.6174 61.2813 98.3807 61.1051 98.2216C60.929 98.0606 60.7206 97.9801 60.4801 97.9801C60.1184 97.9801 59.8324 98.16 59.6222 98.5199C59.4119 98.8778 59.3059 99.4034 59.304 100.097C59.3021 100.561 59.3485 100.951 59.4432 101.267C59.5398 101.583 59.6761 101.822 59.8523 101.983C60.0284 102.142 60.2377 102.222 60.4801 102.222ZM65.7067 103V97.1818H67.9339C68.3544 97.1818 68.7038 97.2481 68.9822 97.3807C69.2625 97.5114 69.4718 97.6903 69.6101 97.9176C69.7502 98.1449 69.8203 98.4025 69.8203 98.6903C69.8203 98.9271 69.7749 99.1297 69.6839 99.2983C69.593 99.465 69.4709 99.6004 69.3175 99.7045C69.1641 99.8087 68.9927 99.8835 68.8033 99.929V99.9858C69.0097 99.9972 69.2076 100.061 69.397 100.176C69.5883 100.29 69.7446 100.451 69.8658 100.659C69.987 100.867 70.0476 101.119 70.0476 101.415C70.0476 101.716 69.9747 101.987 69.8288 102.227C69.683 102.466 69.4633 102.654 69.1697 102.793C68.8762 102.931 68.5069 103 68.0618 103H65.7067ZM66.7607 102.119H67.8942C68.2768 102.119 68.5523 102.046 68.7209 101.901C68.8913 101.753 68.9766 101.563 68.9766 101.332C68.9766 101.16 68.9339 101.005 68.8487 100.866C68.7635 100.726 68.6423 100.616 68.4851 100.537C68.3279 100.455 68.1404 100.415 67.9226 100.415H66.7607V102.119ZM66.7607 99.6562H67.8033C67.9851 99.6562 68.1489 99.6231 68.2947 99.5568C68.4406 99.4886 68.5552 99.393 68.6385 99.2699C68.7237 99.1449 68.7663 98.9972 68.7663 98.8267C68.7663 98.6013 68.6868 98.4157 68.5277 98.2699C68.3705 98.1241 68.1366 98.0511 67.826 98.0511H66.7607V99.6562ZM76.1634 100.091C76.1634 100.718 76.0459 101.255 75.8111 101.702C75.5781 102.147 75.2599 102.488 74.8565 102.724C74.455 102.961 73.9995 103.08 73.4901 103.08C72.9806 103.08 72.5241 102.961 72.1207 102.724C71.7192 102.486 71.401 102.144 71.1662 101.699C70.9332 101.252 70.8168 100.716 70.8168 100.091C70.8168 99.464 70.9332 98.928 71.1662 98.483C71.401 98.036 71.7192 97.6941 72.1207 97.4574C72.5241 97.2206 72.9806 97.1023 73.4901 97.1023C73.9995 97.1023 74.455 97.2206 74.8565 97.4574C75.2599 97.6941 75.5781 98.036 75.8111 98.483C76.0459 98.928 76.1634 99.464 76.1634 100.091ZM75.1037 100.091C75.1037 99.6496 75.0346 99.2775 74.8963 98.9744C74.7599 98.6695 74.5705 98.4394 74.3281 98.2841C74.0857 98.1269 73.8063 98.0483 73.4901 98.0483C73.1738 98.0483 72.8944 98.1269 72.652 98.2841C72.4096 98.4394 72.2192 98.6695 72.081 98.9744C71.9446 99.2775 71.8764 99.6496 71.8764 100.091C71.8764 100.532 71.9446 100.905 72.081 101.21C72.2192 101.513 72.4096 101.743 72.652 101.901C72.8944 102.056 73.1738 102.134 73.4901 102.134C73.8063 102.134 74.0857 102.056 74.3281 101.901C74.5705 101.743 74.7599 101.513 74.8963 101.21C75.0346 100.905 75.1037 100.532 75.1037 100.091ZM77.8295 97.1818L79.1108 99.3125H79.1562L80.4432 97.1818H81.6449L79.8523 100.091L81.6733 103H80.4517L79.1562 100.884H79.1108L77.8153 103H76.5994L78.4375 100.091L76.6222 97.1818H77.8295ZM82.4723 103V97.1818H86.2564V98.0653H83.5263V99.6449H86.0604V100.528H83.5263V102.116H86.2791V103H82.4723ZM90.4936 98.7812C90.4671 98.5331 90.3554 98.34 90.1584 98.2017C89.9633 98.0634 89.7095 97.9943 89.397 97.9943C89.1773 97.9943 88.9889 98.0275 88.8317 98.0938C88.6745 98.16 88.5542 98.25 88.4709 98.3636C88.3875 98.4773 88.3449 98.607 88.343 98.7528C88.343 98.8741 88.3705 98.9792 88.4254 99.0682C88.4822 99.1572 88.5589 99.233 88.6555 99.2955C88.7521 99.3561 88.8591 99.4072 88.9766 99.4489C89.094 99.4905 89.2124 99.5256 89.3317 99.554L89.8771 99.6903C90.0968 99.7415 90.308 99.8106 90.5107 99.8977C90.7152 99.9848 90.898 100.095 91.0589 100.227C91.2218 100.36 91.3506 100.52 91.4453 100.707C91.54 100.895 91.5874 101.115 91.5874 101.366C91.5874 101.707 91.5002 102.008 91.326 102.267C91.1518 102.525 90.8999 102.726 90.5703 102.872C90.2427 103.016 89.8459 103.088 89.38 103.088C88.9273 103.088 88.5343 103.018 88.201 102.878C87.8696 102.738 87.6101 102.533 87.4226 102.264C87.237 101.995 87.1366 101.668 87.1214 101.281H88.1584C88.1735 101.484 88.236 101.652 88.3459 101.787C88.4557 101.921 88.5987 102.022 88.7749 102.088C88.9529 102.154 89.1518 102.188 89.3714 102.188C89.6006 102.188 89.8014 102.153 89.9737 102.085C90.148 102.015 90.2843 101.919 90.3828 101.795C90.4813 101.67 90.5315 101.525 90.5334 101.358C90.5315 101.206 90.487 101.081 90.3999 100.983C90.3127 100.883 90.1906 100.799 90.0334 100.733C89.8781 100.665 89.6963 100.604 89.4879 100.551L88.826 100.381C88.3468 100.258 87.968 100.071 87.6896 99.821C87.4131 99.5691 87.2749 99.2348 87.2749 98.8182C87.2749 98.4754 87.3677 98.1752 87.5533 97.9176C87.7408 97.66 87.9955 97.4602 88.3175 97.3182C88.6394 97.1742 89.004 97.1023 89.4112 97.1023C89.8241 97.1023 90.1858 97.1742 90.4964 97.3182C90.8089 97.4602 91.0542 97.6581 91.2322 97.9119C91.4103 98.1638 91.5021 98.4536 91.5078 98.7812H90.4936Z" fill="#d8b56c"/>
<path d="M57.7037 38.5567C57.1629 38.5567 56.6808 38.4639 56.2574 38.2781C55.8368 38.0924 55.5022 37.8343 55.2537 37.5038C55.0079 37.1706 54.874 36.7841 54.8522 36.3444H55.8846C55.9065 36.6148 55.9993 36.8483 56.1632 37.045C56.3271 37.2389 56.5415 37.3891 56.8064 37.4956C57.0714 37.6021 57.365 37.6554 57.6873 37.6554C58.0478 37.6554 58.3674 37.5926 58.646 37.4669C58.9245 37.3413 59.143 37.1665 59.3015 36.9425C59.4599 36.7186 59.5391 36.4591 59.5391 36.1641C59.5391 35.8555 59.4626 35.5837 59.3097 35.3488C59.1567 35.1112 58.9327 34.9255 58.6378 34.7916C58.3428 34.6578 57.9822 34.5909 57.5562 34.5909H56.8843V33.6895H57.5562C57.8894 33.6895 58.1816 33.6295 58.4329 33.5093C58.6869 33.3891 58.8849 33.2198 59.027 33.0013C59.1717 32.7827 59.2441 32.526 59.2441 32.231C59.2441 31.947 59.1813 31.6998 59.0556 31.4895C58.93 31.2792 58.7525 31.1153 58.523 30.9978C58.2963 30.8804 58.0287 30.8217 57.72 30.8217C57.4305 30.8217 57.1574 30.8749 56.9006 30.9815C56.6466 31.0852 56.4391 31.2368 56.2779 31.4362C56.1168 31.6329 56.0294 31.8705 56.0157 32.1491H55.0324C55.0488 31.7093 55.1813 31.3242 55.4298 30.9937C55.6784 30.6605 56.0034 30.4011 56.4049 30.2153C56.8091 30.0296 57.253 29.9367 57.7364 29.9367C58.2554 29.9367 58.7006 30.0419 59.072 30.2522C59.4435 30.4598 59.7289 30.7343 59.9283 31.0757C60.1277 31.4171 60.2274 31.7858 60.2274 32.1819C60.2274 32.6544 60.1031 33.0572 59.8546 33.3905C59.6087 33.7237 59.2742 33.9545 58.8508 34.0829V34.1484C59.3807 34.2358 59.7945 34.4611 60.0922 34.8244C60.3899 35.1849 60.5387 35.6315 60.5387 36.1641C60.5387 36.6202 60.4145 37.0299 60.1659 37.3932C59.9201 37.7537 59.5842 38.0378 59.1581 38.2454C58.732 38.4529 58.2472 38.5567 57.7037 38.5567ZM62.6763 38.5076C62.4742 38.5076 62.3008 38.4352 62.156 38.2904C62.0113 38.1457 61.9389 37.9722 61.9389 37.7701C61.9389 37.568 62.0113 37.3946 62.156 37.2498C62.3008 37.105 62.4742 37.0327 62.6763 37.0327C62.8785 37.0327 63.0519 37.105 63.1966 37.2498C63.3414 37.3946 63.4138 37.568 63.4138 37.7701C63.4138 37.9039 63.3796 38.0269 63.3114 38.1388C63.2458 38.2508 63.157 38.341 63.0451 38.4092C62.9358 38.4748 62.8129 38.5076 62.6763 38.5076ZM64.9358 36.7213V35.8855L68.6231 30.0514H69.2294V31.3461H68.8197L66.0338 35.7544V35.82H70.9993V36.7213H64.9358ZM68.8853 38.442V36.4673V36.0781V30.0514H69.8522V38.442H68.8853ZM72.6821 30.0514H73.8948L76.7463 37.0163H76.8446L79.6961 30.0514H80.9088V38.442H79.9583V32.0671H79.8764L77.2543 38.442H76.3366L73.7146 32.0671H73.6326V38.442H72.6821V30.0514Z" fill="#d8b56c"/>
<path d="M83.2512 32.0574C82.9808 32.0574 82.7398 32.0109 82.5281 31.9181C82.3178 31.8252 82.1505 31.6961 82.0262 31.5309C81.9033 31.3643 81.8364 31.171 81.8255 30.9512H82.3417C82.3526 31.0864 82.3991 31.2031 82.481 31.3015C82.563 31.3984 82.6702 31.4735 82.8026 31.5268C82.9351 31.5801 83.0819 31.6067 83.243 31.6067C83.4233 31.6067 83.5831 31.5753 83.7224 31.5125C83.8617 31.4496 83.9709 31.3622 84.0501 31.2503C84.1294 31.1383 84.169 31.0085 84.169 30.861C84.169 30.7067 84.1307 30.5708 84.0542 30.4534C83.9778 30.3346 83.8658 30.2417 83.7183 30.1748C83.5708 30.1079 83.3905 30.0744 83.1775 30.0744H82.8415V29.6238H83.1775C83.3441 29.6238 83.4902 29.5937 83.6159 29.5336C83.7429 29.4735 83.8419 29.3889 83.9129 29.2796C83.9853 29.1704 84.0215 29.042 84.0215 28.8945C84.0215 28.7525 83.9901 28.6289 83.9272 28.5237C83.8644 28.4186 83.7757 28.3366 83.6609 28.2779C83.5476 28.2192 83.4138 28.1898 83.2594 28.1898C83.1147 28.1898 82.9781 28.2165 82.8497 28.2697C82.7227 28.3216 82.6189 28.3974 82.5384 28.4971C82.4578 28.5954 82.4141 28.7142 82.4073 28.8535H81.9156C81.9238 28.6337 81.9901 28.4411 82.1143 28.2759C82.2386 28.1093 82.4011 27.9795 82.6019 27.8867C82.804 27.7938 83.0259 27.7474 83.2676 27.7474C83.5271 27.7474 83.7497 27.7999 83.9354 27.9051C84.1212 28.0089 84.2639 28.1461 84.3636 28.3168C84.4633 28.4875 84.5131 28.6719 84.5131 28.8699C84.5131 29.1062 84.451 29.3076 84.3267 29.4742C84.2038 29.6408 84.0365 29.7562 83.8248 29.8204V29.8532C84.0898 29.8969 84.2966 30.0096 84.4455 30.1912C84.5944 30.3715 84.6688 30.5947 84.6688 30.861C84.6688 31.0891 84.6067 31.294 84.4824 31.4756C84.3595 31.6559 84.1915 31.7979 83.9785 31.9017C83.7654 32.0055 83.523 32.0574 83.2512 32.0574Z" fill="#d8b56c"/>
<defs>
<clipPath id="clip0_2264_99791">
<rect width="14.4213" height="14.4213" fill="white" transform="translate(111.59 8.65271)"/>
</clipPath>
</defs>
</svg>
