<svg width="148" height="139" viewBox="0 0 148 139" fill="none" xmlns="http://www.w3.org/2000/svg">
<g filter="url(#filter0_d_1721_91853)">
<path d="M29.3663 19.4165H126.477C132.752 19.4165 137.843 24.4827 137.843 30.7271V84.7119C137.843 90.9563 132.752 96.0225 126.477 96.0225H29.3663C23.0911 96.0225 18 90.9563 18 84.7119V30.7271C18 24.4827 23.0911 19.4165 29.3663 19.4165Z" fill="white"/>
<path d="M29.3663 20.1665H126.477C132.341 20.1665 137.093 24.9004 137.093 30.7271V84.7119C137.093 90.5386 132.341 95.2725 126.477 95.2725H29.3663C23.5019 95.2725 18.75 90.5386 18.75 84.7119V30.7271C18.75 24.9004 23.5019 20.1665 29.3663 20.1665Z" stroke="black" stroke-width="1.5"/>
</g>
<path d="M129.864 70.5977H77.9102V84.0526H129.864V70.5977Z" fill="#020111"/>
<path d="M129.887 36.6183H77.9339C77.0104 36.6183 76.2764 35.8878 76.2764 34.9688C76.2764 34.0498 77.0104 33.3193 77.9339 33.3193H129.887C130.811 33.3193 131.545 34.0498 131.545 34.9688C131.545 35.8878 130.811 36.6183 129.887 36.6183Z" fill="#9EA1AE"/>
<path d="M129.887 48.6124H77.9339C77.0104 48.6124 76.2764 47.8819 76.2764 46.9629C76.2764 46.044 77.0104 45.3135 77.9339 45.3135H129.887C130.811 45.3135 131.545 46.044 131.545 46.9629C131.545 47.8819 130.811 48.6124 129.887 48.6124Z" fill="#9EA1AE"/>
<path d="M129.887 59.381H25.6254C24.7018 59.381 23.9678 58.6505 23.9678 57.7315C23.9678 56.8125 24.7018 56.082 25.6254 56.082H129.887C130.811 56.082 131.545 56.8125 131.545 57.7315C131.545 58.6505 130.811 59.381 129.887 59.381Z" fill="#9EA1AE"/>
<path fill-rule="evenodd" clip-rule="evenodd" d="M36.939 20.0317C36.939 13.0185 31.2529 7.33252 24.239 7.33252C17.2251 7.33252 11.5391 13.0185 11.5391 20.0317C11.5391 27.0457 17.2251 32.7324 24.239 32.7324C31.2529 32.7324 36.939 27.0457 36.939 20.0317Z" fill="#020111"/>
<path fill-rule="evenodd" clip-rule="evenodd" d="M36 19.4993C36 12.5965 30.4035 7 23.5 7C16.5965 7 11 12.5965 11 19.4993C11 26.4028 16.5965 32 23.5 32C30.4035 32 36 26.4028 36 19.4993Z" stroke="#1C1F34" stroke-width="1.5" stroke-linecap="round" stroke-linejoin="round"/>
<path d="M17.8887 22.2123L21.0181 25.4751L30.5886 15.4966" stroke="white" stroke-width="3" stroke-linecap="round" stroke-linejoin="round"/>
<path d="M15.2704 132.022H12.3527V122.568H15.3996C16.3168 122.568 17.1016 122.757 17.754 123.136C18.4065 123.511 18.9066 124.051 19.2544 124.756C19.6021 125.458 19.776 126.298 19.776 127.277C19.776 128.262 19.6006 129.109 19.2498 129.82C18.8989 130.528 18.388 131.073 17.7171 131.455C17.0462 131.833 16.2306 132.022 15.2704 132.022ZM13.4976 131.007H15.1965C15.9782 131.007 16.6261 130.856 17.14 130.554C17.654 130.253 18.0372 129.823 18.2895 129.266C18.5419 128.709 18.6681 128.046 18.6681 127.277C18.6681 126.513 18.5434 125.856 18.2941 125.305C18.0449 124.752 17.6725 124.327 17.177 124.031C16.6815 123.733 16.0644 123.584 15.3257 123.584H13.4976V131.007ZM24.7818 132.17C24.0985 132.17 23.5092 132.019 23.0137 131.718C22.5212 131.413 22.1411 130.988 21.8734 130.444C21.6087 129.896 21.4764 129.259 21.4764 128.532C21.4764 127.806 21.6087 127.166 21.8734 126.612C22.1411 126.055 22.5135 125.621 22.9906 125.31C23.4707 124.996 24.0308 124.839 24.671 124.839C25.0403 124.839 25.405 124.901 25.7651 125.024C26.1252 125.147 26.4529 125.347 26.7484 125.624C27.0438 125.898 27.2793 126.261 27.4547 126.714C27.6301 127.166 27.7179 127.723 27.7179 128.385V128.846H22.2519V127.905H26.6099C26.6099 127.504 26.5299 127.147 26.3698 126.834C26.2129 126.52 25.9882 126.272 25.6958 126.09C25.4065 125.909 25.0649 125.818 24.671 125.818C24.237 125.818 23.8616 125.926 23.5446 126.141C23.2306 126.353 22.989 126.63 22.8198 126.972C22.6505 127.314 22.5659 127.68 22.5659 128.071V128.699C22.5659 129.234 22.6582 129.688 22.8429 130.06C23.0306 130.43 23.2907 130.711 23.623 130.905C23.9554 131.096 24.3417 131.191 24.7818 131.191C25.068 131.191 25.3265 131.151 25.5573 131.071C25.7912 130.988 25.9928 130.865 26.1621 130.702C26.3314 130.536 26.4622 130.33 26.5545 130.084L27.6071 130.379C27.4963 130.736 27.3101 131.05 27.0485 131.321C26.7869 131.589 26.4637 131.798 26.079 131.949C25.6943 132.096 25.2619 132.17 24.7818 132.17ZM24.117 123.971L25.2434 121.829H26.5176L25.0772 123.971H24.117ZM32.719 124.932V125.855H29.0443V124.932H32.719ZM30.1153 123.233H31.2048V129.991C31.2048 130.299 31.2494 130.53 31.3386 130.684C31.431 130.834 31.5479 130.936 31.6895 130.988C31.8341 131.038 31.9865 131.062 32.1465 131.062C32.2666 131.062 32.365 131.056 32.442 131.044C32.5189 131.028 32.5805 131.016 32.6266 131.007L32.8482 131.986C32.7744 132.013 32.6713 132.041 32.5389 132.069C32.4066 132.099 32.2389 132.115 32.0357 132.115C31.728 132.115 31.4264 132.049 31.1309 131.916C30.8385 131.784 30.5954 131.582 30.4015 131.312C30.2107 131.041 30.1153 130.699 30.1153 130.287V123.233ZM36.7045 132.189C36.2551 132.189 35.8473 132.104 35.4811 131.935C35.1149 131.762 34.824 131.515 34.6086 131.191C34.3932 130.865 34.2854 130.471 34.2854 130.01C34.2854 129.603 34.3655 129.274 34.5255 129.022C34.6855 128.766 34.8994 128.566 35.1672 128.422C35.4349 128.277 35.7304 128.169 36.0536 128.098C36.3798 128.025 36.7076 127.966 37.0369 127.923C37.4677 127.868 37.817 127.826 38.0848 127.798C38.3556 127.768 38.5526 127.717 38.6757 127.646C38.8019 127.575 38.865 127.452 38.865 127.277V127.24C38.865 126.784 38.7403 126.43 38.4911 126.178C38.2448 125.926 37.8709 125.799 37.3692 125.799C36.8491 125.799 36.4413 125.913 36.1459 126.141C35.8504 126.369 35.6427 126.612 35.5227 126.87L34.4886 126.501C34.6732 126.07 34.9194 125.735 35.2272 125.495C35.538 125.252 35.8766 125.082 36.2428 124.987C36.6121 124.888 36.9753 124.839 37.3323 124.839C37.5601 124.839 37.8217 124.867 38.1171 124.922C38.4156 124.975 38.7034 125.084 38.9804 125.25C39.2605 125.416 39.4928 125.667 39.6775 126.003C39.8621 126.338 39.9545 126.787 39.9545 127.351V132.022H38.865V131.062H38.8096C38.7357 131.216 38.6126 131.381 38.4403 131.556C38.2679 131.732 38.0386 131.881 37.7524 132.004C37.4662 132.127 37.1169 132.189 36.7045 132.189ZM36.8707 131.21C37.3015 131.21 37.6647 131.125 37.9602 130.956C38.2587 130.787 38.4834 130.568 38.6342 130.301C38.788 130.033 38.865 129.751 38.865 129.456V128.459C38.8188 128.514 38.7173 128.565 38.5603 128.611C38.4064 128.654 38.2279 128.692 38.0248 128.726C37.8247 128.757 37.6293 128.785 37.4385 128.809C37.2508 128.831 37.0984 128.849 36.9815 128.865C36.6983 128.902 36.4336 128.962 36.1874 129.045C35.9443 129.125 35.7473 129.246 35.5965 129.41C35.4488 129.57 35.3749 129.788 35.3749 130.065C35.3749 130.444 35.515 130.73 35.795 130.924C36.0782 131.115 36.4367 131.21 36.8707 131.21ZM42.203 132.022V124.932H43.2925V132.022H42.203ZM42.757 123.75C42.5446 123.75 42.3615 123.677 42.2076 123.533C42.0568 123.388 41.9814 123.214 41.9814 123.011C41.9814 122.808 42.0568 122.634 42.2076 122.489C42.3615 122.345 42.5446 122.272 42.757 122.272C42.9694 122.272 43.1509 122.345 43.3017 122.489C43.4556 122.634 43.5326 122.808 43.5326 123.011C43.5326 123.214 43.4556 123.388 43.3017 123.533C43.1509 123.677 42.9694 123.75 42.757 123.75ZM46.6375 122.568V132.022H45.548V122.568H46.6375ZM55.4867 132.17C54.8958 132.17 54.3742 132.021 53.9218 131.722C53.4693 131.421 53.1154 130.996 52.86 130.448C52.6045 129.897 52.4768 129.246 52.4768 128.495C52.4768 127.751 52.6045 127.104 52.86 126.557C53.1154 126.009 53.4709 125.586 53.9264 125.287C54.3819 124.988 54.9081 124.839 55.5052 124.839C55.9669 124.839 56.3316 124.916 56.5993 125.07C56.8702 125.221 57.0764 125.393 57.2179 125.587C57.3626 125.778 57.4749 125.935 57.5549 126.058H57.6473V122.568H58.7367V132.022H57.6842V130.933H57.5549C57.4749 131.062 57.361 131.225 57.2133 131.422C57.0656 131.616 56.8548 131.79 56.5809 131.944C56.3069 132.095 55.9422 132.17 55.4867 132.17ZM55.6345 131.191C56.0715 131.191 56.4408 131.078 56.7424 130.85C57.044 130.619 57.2733 130.301 57.4303 129.894C57.5872 129.485 57.6657 129.013 57.6657 128.477C57.6657 127.948 57.5888 127.484 57.4349 127.087C57.281 126.687 57.0533 126.377 56.7517 126.155C56.4501 125.93 56.0777 125.818 55.6345 125.818C55.1728 125.818 54.7881 125.936 54.4804 126.173C54.1757 126.407 53.9464 126.726 53.7925 127.129C53.6417 127.529 53.5663 127.978 53.5663 128.477C53.5663 128.982 53.6432 129.44 53.7971 129.853C53.9541 130.262 54.1849 130.588 54.4896 130.831C54.7974 131.071 55.179 131.191 55.6345 131.191ZM65.6122 129.123V124.932H66.7016V132.022H65.6122V130.822H65.5383C65.3721 131.182 65.1136 131.488 64.7627 131.741C64.4119 131.99 63.9687 132.115 63.4332 132.115C62.99 132.115 62.5961 132.018 62.2514 131.824C61.9067 131.627 61.6358 131.332 61.4389 130.938C61.2419 130.541 61.1434 130.04 61.1434 129.437V124.932H62.2329V129.363C62.2329 129.88 62.3775 130.293 62.6668 130.601C62.9592 130.908 63.3316 131.062 63.784 131.062C64.0549 131.062 64.3303 130.993 64.6104 130.854C64.8935 130.716 65.1305 130.504 65.3213 130.217C65.5152 129.931 65.6122 129.566 65.6122 129.123ZM72.8734 134.682V124.932H73.9259V126.058H74.0552C74.1352 125.935 74.246 125.778 74.3876 125.587C74.5322 125.393 74.7384 125.221 75.0062 125.07C75.277 124.916 75.6433 124.839 76.1049 124.839C76.702 124.839 77.2282 124.988 77.6837 125.287C78.1392 125.586 78.4947 126.009 78.7501 126.557C79.0056 127.104 79.1333 127.751 79.1333 128.495C79.1333 129.246 79.0056 129.897 78.7501 130.448C78.4947 130.996 78.1408 131.421 77.6884 131.722C77.2359 132.021 76.7143 132.17 76.1234 132.17C75.6679 132.17 75.3032 132.095 75.0293 131.944C74.7553 131.79 74.5445 131.616 74.3968 131.422C74.2491 131.225 74.1352 131.062 74.0552 130.933H73.9629V134.682H72.8734ZM73.9444 128.477C73.9444 129.013 74.0229 129.485 74.1798 129.894C74.3368 130.301 74.5661 130.619 74.8677 130.85C75.1693 131.078 75.5386 131.191 75.9756 131.191C76.4311 131.191 76.8112 131.071 77.1159 130.831C77.4237 130.588 77.6545 130.262 77.8084 129.853C77.9653 129.44 78.0438 128.982 78.0438 128.477C78.0438 127.978 77.9669 127.529 77.813 127.129C77.6622 126.726 77.4329 126.407 77.1251 126.173C76.8205 125.936 76.4373 125.818 75.9756 125.818C75.5325 125.818 75.1601 125.93 74.8584 126.155C74.5568 126.377 74.3291 126.687 74.1752 127.087C74.0213 127.484 73.9444 127.948 73.9444 128.477ZM83.1419 132.189C82.6926 132.189 82.2848 132.104 81.9185 131.935C81.5523 131.762 81.2615 131.515 81.046 131.191C80.8306 130.865 80.7229 130.471 80.7229 130.01C80.7229 129.603 80.8029 129.274 80.9629 129.022C81.123 128.766 81.3369 128.566 81.6046 128.422C81.8724 128.277 82.1678 128.169 82.491 128.098C82.8172 128.025 83.145 127.966 83.4743 127.923C83.9052 127.868 84.2545 127.826 84.5222 127.798C84.7931 127.768 84.99 127.717 85.1131 127.646C85.2393 127.575 85.3024 127.452 85.3024 127.277V127.24C85.3024 126.784 85.1778 126.43 84.9285 126.178C84.6823 125.926 84.3083 125.799 83.8067 125.799C83.2865 125.799 82.8788 125.913 82.5833 126.141C82.2878 126.369 82.0801 126.612 81.9601 126.87L80.926 126.501C81.1106 126.07 81.3569 125.735 81.6646 125.495C81.9755 125.252 82.314 125.082 82.6802 124.987C83.0496 124.888 83.4127 124.839 83.7697 124.839C83.9975 124.839 84.2591 124.867 84.5545 124.922C84.8531 124.975 85.1408 125.084 85.4178 125.25C85.6979 125.416 85.9302 125.667 86.1149 126.003C86.2996 126.338 86.3919 126.787 86.3919 127.351V132.022H85.3024V131.062H85.247C85.1731 131.216 85.05 131.381 84.8777 131.556C84.7053 131.732 84.4761 131.881 84.1898 132.004C83.9036 132.127 83.5543 132.189 83.1419 132.189ZM83.3081 131.21C83.739 131.21 84.1021 131.125 84.3976 130.956C84.6961 130.787 84.9208 130.568 85.0716 130.301C85.2255 130.033 85.3024 129.751 85.3024 129.456V128.459C85.2562 128.514 85.1547 128.565 84.9977 128.611C84.8438 128.654 84.6653 128.692 84.4622 128.726C84.2622 128.757 84.0667 128.785 83.8759 128.809C83.6882 128.831 83.5358 128.849 83.4189 128.865C83.1357 128.902 82.8711 128.962 82.6249 129.045C82.3817 129.125 82.1847 129.246 82.0339 129.41C81.8862 129.57 81.8124 129.788 81.8124 130.065C81.8124 130.444 81.9524 130.73 82.2325 130.924C82.5156 131.115 82.8741 131.21 83.3081 131.21ZM88.6404 132.022V124.932H89.7299V132.022H88.6404ZM89.1944 123.75C88.9821 123.75 88.7989 123.677 88.6451 123.533C88.4943 123.388 88.4188 123.214 88.4188 123.011C88.4188 122.808 88.4943 122.634 88.6451 122.489C88.7989 122.345 88.9821 122.272 89.1944 122.272C89.4068 122.272 89.5884 122.345 89.7392 122.489C89.893 122.634 89.97 122.808 89.97 123.011C89.97 123.214 89.893 123.388 89.7392 123.533C89.5884 123.677 89.4068 123.75 89.1944 123.75ZM94.9584 132.17C94.2752 132.17 93.6858 132.019 93.1903 131.718C92.6979 131.413 92.3178 130.988 92.05 130.444C91.7853 129.896 91.653 129.259 91.653 128.532C91.653 127.806 91.7853 127.166 92.05 126.612C92.3178 126.055 92.6902 125.621 93.1672 125.31C93.6473 124.996 94.2075 124.839 94.8476 124.839C95.2169 124.839 95.5816 124.901 95.9417 125.024C96.3018 125.147 96.6296 125.347 96.925 125.624C97.2205 125.898 97.4559 126.261 97.6313 126.714C97.8068 127.166 97.8945 127.723 97.8945 128.385V128.846H92.4286V127.905H96.7865C96.7865 127.504 96.7065 127.147 96.5465 126.834C96.3895 126.52 96.1648 126.272 95.8725 126.09C95.5832 125.909 95.2416 125.818 94.8476 125.818C94.4137 125.818 94.0382 125.926 93.7212 126.141C93.4073 126.353 93.1657 126.63 92.9964 126.972C92.8271 127.314 92.7425 127.68 92.7425 128.071V128.699C92.7425 129.234 92.8348 129.688 93.0195 130.06C93.2072 130.43 93.4673 130.711 93.7997 130.905C94.1321 131.096 94.5183 131.191 94.9584 131.191C95.2446 131.191 95.5032 131.151 95.734 131.071C95.9679 130.988 96.1695 130.865 96.3387 130.702C96.508 130.536 96.6388 130.33 96.7311 130.084L97.7837 130.379C97.6729 130.736 97.4867 131.05 97.2251 131.321C96.9635 131.589 96.6403 131.798 96.2556 131.949C95.8709 132.096 95.4385 132.17 94.9584 132.17ZM99.8118 132.022V124.932H100.864V126.04H100.957C101.104 125.661 101.343 125.367 101.672 125.158C102.002 124.945 102.397 124.839 102.859 124.839C103.326 124.839 103.716 124.945 104.027 125.158C104.341 125.367 104.585 125.661 104.761 126.04H104.835C105.016 125.673 105.288 125.382 105.652 125.167C106.015 124.948 106.45 124.839 106.958 124.839C107.592 124.839 108.111 125.038 108.514 125.435C108.917 125.829 109.119 126.443 109.119 127.277V132.022H108.029V127.277C108.029 126.754 107.886 126.38 107.6 126.155C107.314 125.93 106.977 125.818 106.589 125.818C106.09 125.818 105.704 125.969 105.43 126.27C105.156 126.569 105.019 126.947 105.019 127.406V132.022H103.911V127.166C103.911 126.763 103.78 126.438 103.519 126.192C103.257 125.943 102.92 125.818 102.508 125.818C102.225 125.818 101.96 125.893 101.714 126.044C101.471 126.195 101.274 126.404 101.123 126.672C100.975 126.937 100.901 127.243 100.901 127.591V132.022H99.8118ZM114.344 132.17C113.66 132.17 113.071 132.019 112.576 131.718C112.083 131.413 111.703 130.988 111.435 130.444C111.171 129.896 111.038 129.259 111.038 128.532C111.038 127.806 111.171 127.166 111.435 126.612C111.703 126.055 112.075 125.621 112.552 125.31C113.033 124.996 113.593 124.839 114.233 124.839C114.602 124.839 114.967 124.901 115.327 125.024C115.687 125.147 116.015 125.347 116.31 125.624C116.606 125.898 116.841 126.261 117.017 126.714C117.192 127.166 117.28 127.723 117.28 128.385V128.846H111.814V127.905H116.172C116.172 127.504 116.092 127.147 115.932 126.834C115.775 126.52 115.55 126.272 115.258 126.09C114.968 125.909 114.627 125.818 114.233 125.818C113.799 125.818 113.423 125.926 113.106 126.141C112.793 126.353 112.551 126.63 112.382 126.972C112.212 127.314 112.128 127.68 112.128 128.071V128.699C112.128 129.234 112.22 129.688 112.405 130.06C112.592 130.43 112.853 130.711 113.185 130.905C113.517 131.096 113.904 131.191 114.344 131.191C114.63 131.191 114.888 131.151 115.119 131.071C115.353 130.988 115.555 130.865 115.724 130.702C115.893 130.536 116.024 130.33 116.116 130.084L117.169 130.379C117.058 130.736 116.872 131.05 116.61 131.321C116.349 131.589 116.026 131.798 115.641 131.949C115.256 132.096 114.824 132.17 114.344 132.17ZM120.287 127.757V132.022H119.197V124.932H120.25V126.04H120.342C120.508 125.679 120.76 125.39 121.099 125.172C121.438 124.95 121.875 124.839 122.41 124.839C122.89 124.839 123.31 124.938 123.67 125.135C124.031 125.329 124.311 125.624 124.511 126.021C124.711 126.415 124.811 126.914 124.811 127.517V132.022H123.721V127.591C123.721 127.034 123.577 126.6 123.287 126.289C122.998 125.975 122.601 125.818 122.096 125.818C121.748 125.818 121.438 125.893 121.164 126.044C120.893 126.195 120.679 126.415 120.522 126.704C120.365 126.994 120.287 127.344 120.287 127.757ZM130.145 124.932V125.855H126.471V124.932H130.145ZM127.542 123.233H128.631V129.991C128.631 130.299 128.676 130.53 128.765 130.684C128.857 130.834 128.974 130.936 129.116 130.988C129.261 131.038 129.413 131.062 129.573 131.062C129.693 131.062 129.791 131.056 129.868 131.044C129.945 131.028 130.007 131.016 130.053 131.007L130.275 131.986C130.201 132.013 130.098 132.041 129.965 132.069C129.833 132.099 129.665 132.115 129.462 132.115C129.154 132.115 128.853 132.049 128.557 131.916C128.265 131.784 128.022 131.582 127.828 131.312C127.637 131.041 127.542 130.699 127.542 130.287V123.233ZM133.466 129.363V129.308C133.472 128.72 133.534 128.252 133.651 127.905C133.768 127.557 133.934 127.275 134.149 127.06C134.365 126.844 134.623 126.646 134.925 126.464C135.106 126.353 135.27 126.223 135.414 126.072C135.559 125.918 135.673 125.741 135.756 125.541C135.842 125.341 135.885 125.119 135.885 124.876C135.885 124.575 135.814 124.313 135.673 124.091C135.531 123.87 135.342 123.699 135.105 123.579C134.868 123.459 134.605 123.399 134.315 123.399C134.063 123.399 133.82 123.451 133.586 123.556C133.352 123.66 133.157 123.825 133 124.05C132.843 124.274 132.752 124.568 132.727 124.932H131.564C131.589 124.408 131.724 123.961 131.97 123.588C132.22 123.216 132.547 122.931 132.954 122.734C133.363 122.537 133.817 122.439 134.315 122.439C134.857 122.439 135.328 122.546 135.728 122.762C136.131 122.977 136.442 123.273 136.661 123.648C136.882 124.024 136.993 124.451 136.993 124.932C136.993 125.27 136.941 125.576 136.836 125.85C136.735 126.124 136.587 126.369 136.393 126.584C136.202 126.8 135.971 126.991 135.7 127.157C135.43 127.326 135.213 127.504 135.05 127.692C134.886 127.877 134.768 128.097 134.694 128.352C134.62 128.608 134.58 128.926 134.574 129.308V129.363H133.466ZM134.057 132.096C133.829 132.096 133.634 132.015 133.471 131.852C133.308 131.689 133.226 131.493 133.226 131.265C133.226 131.038 133.308 130.842 133.471 130.679C133.634 130.516 133.829 130.434 134.057 130.434C134.285 130.434 134.48 130.516 134.643 130.679C134.806 130.842 134.888 131.038 134.888 131.265C134.888 131.416 134.849 131.555 134.773 131.681C134.699 131.807 134.599 131.909 134.472 131.986C134.349 132.059 134.211 132.096 134.057 132.096Z" fill="#666666"/>
<defs>
<filter id="filter0_d_1721_91853" x="14" y="19.4165" width="127.843" height="84.606" filterUnits="userSpaceOnUse" color-interpolation-filters="sRGB">
<feFlood flood-opacity="0" result="BackgroundImageFix"/>
<feColorMatrix in="SourceAlpha" type="matrix" values="0 0 0 0 0 0 0 0 0 0 0 0 0 0 0 0 0 0 127 0" result="hardAlpha"/>
<feOffset dy="4"/>
<feGaussianBlur stdDeviation="2"/>
<feComposite in2="hardAlpha" operator="out"/>
<feColorMatrix type="matrix" values="0 0 0 0 0 0 0 0 0 0 0 0 0 0 0 0 0 0 0.25 0"/>
<feBlend mode="normal" in2="BackgroundImageFix" result="effect1_dropShadow_1721_91853"/>
<feBlend mode="normal" in="SourceGraphic" in2="effect1_dropShadow_1721_91853" result="shape"/>
</filter>
</defs>
</svg>
