<svg width="85" height="109" viewBox="0 0 85 109" fill="none" xmlns="http://www.w3.org/2000/svg">
<path d="M71.0377 35.9029C68.7548 47.3174 60.1483 58.0653 48.0717 60.4669C42.1818 61.6398 36.0719 60.9247 30.6121 58.4232C25.1523 55.9217 20.6208 51.7614 17.663 46.5347C14.7051 41.308 13.4717 35.2814 14.1383 29.3129C14.8048 23.3444 17.3374 17.7384 21.3755 13.293C29.6578 4.17054 43.6429 1.65934 55.0574 6.22515" stroke="#6AD09D" stroke-width="6.8487" stroke-linecap="round" stroke-linejoin="round"/>
<path d="M32.2285 31.3365L43.643 42.751L71.0378 13.0732" stroke="#6AD09D" stroke-width="6.8487" stroke-linecap="round" stroke-linejoin="round"/>
<path d="M10.0923 89.6544C10.0355 89.0815 9.79167 88.6364 9.3608 88.3192C8.92992 88.0019 8.34517 87.8433 7.60653 87.8433C7.10464 87.8433 6.68087 87.9143 6.33523 88.0564C5.98958 88.1937 5.72443 88.3854 5.53977 88.6317C5.35985 88.8779 5.26989 89.1572 5.26989 89.4697C5.26042 89.7301 5.31487 89.9574 5.43324 90.1515C5.55634 90.3457 5.72443 90.5138 5.9375 90.6558C6.15057 90.7931 6.39678 90.9139 6.67614 91.018C6.95549 91.1175 7.25379 91.2027 7.57102 91.2737L8.87784 91.5862C9.51231 91.7282 10.0947 91.9176 10.625 92.1544C11.1553 92.3911 11.6146 92.6823 12.0028 93.028C12.3911 93.3736 12.6918 93.7808 12.9048 94.2496C13.1226 94.7183 13.2339 95.2557 13.2386 95.8618C13.2339 96.7519 13.0066 97.5237 12.5568 98.1771C12.1117 98.8258 11.4678 99.33 10.625 99.6899C9.78693 100.045 8.77604 100.223 7.59233 100.223C6.41809 100.223 5.39536 100.043 4.52415 99.6828C3.65767 99.3229 2.98059 98.7903 2.4929 98.0848C2.00994 97.3746 1.75663 96.4962 1.73295 95.4498H4.70881C4.74195 95.9375 4.88163 96.3447 5.12784 96.6714C5.37879 96.9934 5.71259 97.2372 6.12926 97.403C6.55066 97.5639 7.02652 97.6444 7.55682 97.6444C8.07765 97.6444 8.52983 97.5687 8.91335 97.4172C9.30161 97.2657 9.60227 97.055 9.81534 96.7851C10.0284 96.5152 10.1349 96.205 10.1349 95.8547C10.1349 95.528 10.0379 95.2533 9.84375 95.0308C9.65436 94.8083 9.375 94.6189 9.00568 94.4626C8.6411 94.3064 8.19366 94.1643 7.66335 94.0365L6.07955 93.6388C4.85322 93.3405 3.88494 92.8741 3.17472 92.2396C2.46449 91.6051 2.11174 90.7505 2.11648 89.6757C2.11174 88.795 2.34612 88.0256 2.8196 87.3675C3.29782 86.7093 3.9536 86.1956 4.78693 85.8263C5.62027 85.4569 6.56723 85.2723 7.62784 85.2723C8.70739 85.2723 9.64962 85.4569 10.4545 85.8263C11.2642 86.1956 11.8939 86.7093 12.3438 87.3675C12.7936 88.0256 13.0256 88.7879 13.0398 89.6544H10.0923ZM24.2915 85.4711H27.3668V94.9172C27.3668 95.9778 27.1135 96.9058 26.6069 97.7013C26.105 98.4967 25.4019 99.117 24.4975 99.5621C23.5932 100.002 22.5397 100.223 21.337 100.223C20.1296 100.223 19.0737 100.002 18.1694 99.5621C17.265 99.117 16.5619 98.4967 16.06 97.7013C15.5581 96.9058 15.3072 95.9778 15.3072 94.9172V85.4711H18.3825V94.6544C18.3825 95.2084 18.5032 95.7008 18.7447 96.1317C18.9909 96.5625 19.3365 96.9011 19.7816 97.1473C20.2267 97.3935 20.7451 97.5166 21.337 97.5166C21.9336 97.5166 22.4521 97.3935 22.8924 97.1473C23.3375 96.9011 23.6808 96.5625 23.9222 96.1317C24.1684 95.7008 24.2915 95.2084 24.2915 94.6544V85.4711ZM42.7308 90.5635H39.62C39.5632 90.161 39.4472 89.8035 39.272 89.491C39.0968 89.1738 38.8719 88.9039 38.5973 88.6814C38.3227 88.4588 38.0054 88.2884 37.6456 88.17C37.2905 88.0516 36.9046 87.9925 36.4879 87.9925C35.7351 87.9925 35.0793 88.1795 34.5206 88.5535C33.9619 88.9229 33.5286 89.4626 33.2209 90.1729C32.9131 90.8783 32.7592 91.7354 32.7592 92.7439C32.7592 93.7808 32.9131 94.652 33.2209 95.3575C33.5334 96.063 33.969 96.5957 34.5277 96.9555C35.0864 97.3154 35.7327 97.4953 36.4666 97.4953C36.8786 97.4953 37.2597 97.4408 37.6101 97.3319C37.9652 97.223 38.2801 97.0644 38.5547 96.8561C38.8293 96.643 39.0566 96.385 39.2365 96.0819C39.4212 95.7789 39.549 95.4333 39.62 95.045L42.7308 95.0592C42.6503 95.7268 42.4491 96.3708 42.1271 96.991C41.8099 97.6066 41.3814 98.1582 40.8416 98.6459C40.3066 99.1288 39.6674 99.5123 38.924 99.7964C38.1854 100.076 37.3497 100.215 36.4169 100.215C35.1196 100.215 33.9595 99.9219 32.9368 99.3348C31.9188 98.7477 31.1139 97.8978 30.522 96.7851C29.9349 95.6724 29.6413 94.3253 29.6413 92.7439C29.6413 91.1577 29.9396 89.8083 30.5362 88.6956C31.1328 87.5829 31.9425 86.7354 32.9652 86.153C33.9879 85.5658 35.1385 85.2723 36.4169 85.2723C37.2597 85.2723 38.041 85.3907 38.7607 85.6274C39.4851 85.8641 40.1267 86.2098 40.6854 86.6643C41.2441 87.1141 41.6986 87.6657 42.049 88.3192C42.4041 88.9726 42.6314 89.7207 42.7308 90.5635ZM57.7699 90.5635H54.6591C54.6023 90.161 54.4863 89.8035 54.3111 89.491C54.1359 89.1738 53.911 88.9039 53.6364 88.6814C53.3617 88.4588 53.0445 88.2884 52.6847 88.17C52.3295 88.0516 51.9437 87.9925 51.527 87.9925C50.7741 87.9925 50.1184 88.1795 49.5597 88.5535C49.0009 88.9229 48.5677 89.4626 48.2599 90.1729C47.9522 90.8783 47.7983 91.7354 47.7983 92.7439C47.7983 93.7808 47.9522 94.652 48.2599 95.3575C48.5724 96.063 49.008 96.5957 49.5668 96.9555C50.1255 97.3154 50.7718 97.4953 51.5057 97.4953C51.9176 97.4953 52.2988 97.4408 52.6491 97.3319C53.0043 97.223 53.3191 97.0644 53.5938 96.8561C53.8684 96.643 54.0956 96.385 54.2756 96.0819C54.4602 95.7789 54.5881 95.4333 54.6591 95.045L57.7699 95.0592C57.6894 95.7268 57.4882 96.3708 57.1662 96.991C56.849 97.6066 56.4205 98.1582 55.8807 98.6459C55.3456 99.1288 54.7064 99.5123 53.9631 99.7964C53.2244 100.076 52.3887 100.215 51.456 100.215C50.1586 100.215 48.9986 99.9219 47.9759 99.3348C46.9579 98.7477 46.1529 97.8978 45.5611 96.7851C44.974 95.6724 44.6804 94.3253 44.6804 92.7439C44.6804 91.1577 44.9787 89.8083 45.5753 88.6956C46.1719 87.5829 46.9815 86.7354 48.0043 86.153C49.027 85.5658 50.1776 85.2723 51.456 85.2723C52.2988 85.2723 53.08 85.3907 53.7997 85.6274C54.5241 85.8641 55.1657 86.2098 55.7244 86.6643C56.2831 87.1141 56.7377 87.6657 57.0881 88.3192C57.4432 88.9726 57.6705 89.7207 57.7699 90.5635ZM59.9751 100.017V85.4711H69.7763V88.0067H63.0504V91.4726H69.272V94.0081H63.0504V97.4811H69.8047V100.017H59.9751ZM63.853 84.0649L61.6868 80.8334H64.478L65.9908 84.0649H63.853ZM80.1119 89.6544C80.055 89.0815 79.8112 88.6364 79.3803 88.3192C78.9495 88.0019 78.3647 87.8433 77.6261 87.8433C77.1242 87.8433 76.7004 87.9143 76.3548 88.0564C76.0091 88.1937 75.744 88.3854 75.5593 88.6317C75.3794 88.8779 75.2894 89.1572 75.2894 89.4697C75.2799 89.7301 75.3344 89.9574 75.4528 90.1515C75.5759 90.3457 75.744 90.5138 75.957 90.6558C76.1701 90.7931 76.4163 90.9139 76.6957 91.018C76.975 91.1175 77.2733 91.2027 77.5906 91.2737L78.8974 91.5862C79.5318 91.7282 80.1142 91.9176 80.6445 92.1544C81.1748 92.3911 81.6341 92.6823 82.0224 93.028C82.4106 93.3736 82.7113 93.7808 82.9244 94.2496C83.1422 94.7183 83.2534 95.2557 83.2582 95.8618C83.2534 96.7519 83.0262 97.5237 82.5763 98.1771C82.1313 98.8258 81.4873 99.33 80.6445 99.6899C79.8065 100.045 78.7956 100.223 77.6119 100.223C76.4376 100.223 75.4149 100.043 74.5437 99.6828C73.6772 99.3229 73.0001 98.7903 72.5124 98.0848C72.0295 97.3746 71.7762 96.4962 71.7525 95.4498H74.7283C74.7615 95.9375 74.9012 96.3447 75.1474 96.6714C75.3983 96.9934 75.7321 97.2372 76.1488 97.403C76.5702 97.5639 77.046 97.6444 77.5763 97.6444C78.0972 97.6444 78.5494 97.5687 78.9329 97.4172C79.3211 97.2657 79.6218 97.055 79.8349 96.7851C80.0479 96.5152 80.1545 96.205 80.1545 95.8547C80.1545 95.528 80.0574 95.2533 79.8633 95.0308C79.6739 94.8083 79.3945 94.6189 79.0252 94.4626C78.6606 94.3064 78.2132 94.1643 77.6829 94.0365L76.0991 93.6388C74.8728 93.3405 73.9045 92.8741 73.1942 92.2396C72.484 91.6051 72.1313 90.7505 72.136 89.6757C72.1313 88.795 72.3656 88.0256 72.8391 87.3675C73.3174 86.7093 73.9731 86.1956 74.8065 85.8263C75.6398 85.4569 76.5868 85.2723 77.6474 85.2723C78.7269 85.2723 79.6692 85.4569 80.4741 85.8263C81.2837 86.1956 81.9135 86.7093 82.3633 87.3675C82.8131 88.0256 83.0451 88.7879 83.0593 89.6544H80.1119Z" fill="#53B483"/>
</svg>
