<svg width="204" height="138" viewBox="0 0 204 138" fill="none" xmlns="http://www.w3.org/2000/svg">
<g clip-path="url(#clip0_1285_90688)">
<path d="M125 0H69C64.5817 0 61 3.58172 61 8V74C61 78.4183 64.5817 82 69 82H125C129.418 82 133 78.4183 133 74V8C133 3.58172 129.418 0 125 0Z" fill="white"/>
<path d="M123.5 1.5H70.5C66.0817 1.5 62.5 5.08172 62.5 9.5V72.5C62.5 76.9183 66.0817 80.5 70.5 80.5H123.5C127.918 80.5 131.5 76.9183 131.5 72.5V9.5C131.5 5.08172 127.918 1.5 123.5 1.5Z" stroke="#1F223B" stroke-width="3"/>
<path d="M121 10H73C71.8954 10 71 10.8954 71 12V18C71 19.1046 71.8954 20 73 20H121C122.105 20 123 19.1046 123 18V12C123 10.8954 122.105 10 121 10Z" fill="#F8F8F9"/>
<path d="M100 32H76C75.4477 32 75 32.4477 75 33C75 33.5523 75.4477 34 76 34H100C100.552 34 101 33.5523 101 33C101 32.4477 100.552 32 100 32Z" fill="#9EA1AE"/>
<path fill-rule="evenodd" clip-rule="evenodd" d="M112.439 36.561C113.025 37.147 113.975 37.147 114.56 36.561L120.561 30.561C121.146 29.975 121.146 29.025 120.561 28.439C119.975 27.854 119.025 27.854 118.439 28.439L113.517 33.396L111.561 31.44C110.975 30.854 110.025 30.854 109.439 31.439C108.854 32.025 108.854 32.975 109.439 33.561L112.439 36.561Z" fill="#020111"/>
<path d="M100 48H76C75.4477 48 75 48.4477 75 49C75 49.5523 75.4477 50 76 50H100C100.552 50 101 49.5523 101 49C101 48.4477 100.552 48 100 48Z" fill="#9EA1AE"/>
<path fill-rule="evenodd" clip-rule="evenodd" d="M112.439 52.561C113.025 53.147 113.975 53.147 114.56 52.561L120.561 46.561C121.146 45.975 121.146 45.025 120.561 44.439C119.975 43.854 119.025 43.854 118.439 44.439L113.517 49.396L111.561 47.44C110.975 46.854 110.025 46.854 109.439 47.439C108.854 48.025 108.854 48.975 109.439 49.561L112.439 52.561Z" fill="#020111"/>
<path d="M100 64H76C75.4477 64 75 64.4477 75 65C75 65.5523 75.4477 66 76 66H100C100.552 66 101 65.5523 101 65C101 64.4477 100.552 64 100 64Z" fill="#9EA1AE"/>
<path fill-rule="evenodd" clip-rule="evenodd" d="M112.439 68.561C113.025 69.147 113.975 69.147 114.56 68.561L120.561 62.561C121.146 61.975 121.146 61.025 120.561 60.439C119.975 59.854 119.025 59.854 118.439 60.439L113.517 65.396L111.561 63.44C110.975 62.854 110.025 62.854 109.439 63.439C108.854 64.025 108.854 64.975 109.439 65.561L112.439 68.561Z" fill="#020111"/>
<path opacity="0.2" fill-rule="evenodd" clip-rule="evenodd" d="M119.454 55.186C119.455 54.336 119.616 53.591 119.892 52.938C109.106 53.233 100.419 61.949 100.419 72.647C100.419 75.184 100.925 77.604 101.815 79.835C102.136 79.639 102.481 79.461 102.863 79.314C106.779 77.801 110.44 75.852 113.997 73.73C116.93 67.892 119.444 61.798 119.454 55.186Z" fill="#1C1F34"/>
<path fill-rule="evenodd" clip-rule="evenodd" d="M140.922 71.913C140.922 62.248 133.086 54.412 123.42 54.412C113.754 54.412 105.918 62.248 105.918 71.913C105.918 81.579 113.754 89.416 123.42 89.416C133.086 89.416 140.922 81.579 140.922 71.913Z" fill="#020111"/>
<path fill-rule="evenodd" clip-rule="evenodd" d="M140.922 71.913C140.922 62.248 133.086 54.412 123.42 54.412C113.754 54.412 105.918 62.248 105.918 71.913C105.918 81.579 113.754 89.416 123.42 89.416C133.086 89.416 140.922 81.579 140.922 71.913Z" stroke="#1C1F34" stroke-width="3" stroke-linecap="round" stroke-linejoin="round"/>
<path d="M114.904 74.822L119.061 78.979L131.774 66.266" stroke="white" stroke-width="3" stroke-linecap="round" stroke-linejoin="round"/>
</g>
<path d="M7.90827 128H4.14122V116.364H8.02759C9.16774 116.364 10.1469 116.597 10.9651 117.062C11.7833 117.525 12.4102 118.189 12.8458 119.057C13.2852 119.92 13.5049 120.956 13.5049 122.165C13.5049 123.377 13.2833 124.419 12.8401 125.29C12.4007 126.161 11.7643 126.831 10.931 127.301C10.0977 127.767 9.09009 128 7.90827 128ZM5.89691 126.466H7.81168C8.69804 126.466 9.43479 126.299 10.0219 125.966C10.609 125.629 11.0484 125.142 11.3401 124.506C11.6318 123.866 11.7776 123.085 11.7776 122.165C11.7776 121.252 11.6318 120.477 11.3401 119.841C11.0522 119.205 10.6223 118.722 10.0503 118.392C9.47835 118.062 8.76812 117.898 7.91963 117.898H5.89691V126.466ZM19.6331 128.176C18.7733 128.176 18.0327 127.992 17.4115 127.625C16.7941 127.254 16.3168 126.733 15.9797 126.062C15.6464 125.388 15.4797 124.598 15.4797 123.693C15.4797 122.799 15.6464 122.011 15.9797 121.33C16.3168 120.648 16.7865 120.116 17.3888 119.733C17.9948 119.35 18.7032 119.159 19.5138 119.159C20.0062 119.159 20.4835 119.241 20.9456 119.403C21.4077 119.566 21.8225 119.822 22.1899 120.17C22.5573 120.519 22.8471 120.972 23.0592 121.528C23.2714 122.081 23.3774 122.754 23.3774 123.545V124.148H16.4399V122.875H21.7126C21.7126 122.428 21.6217 122.032 21.4399 121.688C21.2581 121.339 21.0024 121.064 20.6729 120.864C20.3471 120.663 19.9645 120.562 19.5251 120.562C19.0479 120.562 18.6312 120.68 18.2751 120.915C17.9229 121.146 17.6501 121.449 17.457 121.824C17.2676 122.195 17.1729 122.598 17.1729 123.034V124.028C17.1729 124.612 17.2751 125.108 17.4797 125.517C17.688 125.926 17.9778 126.239 18.349 126.455C18.7202 126.667 19.1539 126.773 19.6501 126.773C19.9721 126.773 20.2657 126.727 20.5308 126.636C20.796 126.542 21.0251 126.402 21.2183 126.216C21.4115 126.03 21.5592 125.801 21.6615 125.528L23.2695 125.818C23.1407 126.292 22.9096 126.706 22.5763 127.062C22.2467 127.415 21.832 127.689 21.332 127.886C20.8358 128.08 20.2695 128.176 19.6331 128.176ZM18.7467 118.108L20.0763 115.489H21.8661L20.1047 118.108H18.7467ZM29.6562 119.273V120.636H24.8892V119.273H29.6562ZM26.1676 117.182H27.8665V125.438C27.8665 125.767 27.9157 126.015 28.0142 126.182C28.1127 126.345 28.2396 126.456 28.3949 126.517C28.554 126.574 28.7263 126.602 28.9119 126.602C29.0483 126.602 29.1676 126.593 29.2699 126.574C29.3721 126.555 29.4517 126.54 29.5085 126.528L29.8153 127.932C29.7168 127.97 29.5767 128.008 29.3949 128.045C29.213 128.087 28.9858 128.11 28.713 128.114C28.2661 128.121 27.8494 128.042 27.463 127.875C27.0767 127.708 26.7642 127.451 26.5255 127.102C26.2869 126.754 26.1676 126.316 26.1676 125.79V117.182ZM34.3953 128.193C33.8422 128.193 33.3422 128.091 32.8953 127.886C32.4483 127.678 32.0941 127.377 31.8328 126.983C31.5752 126.589 31.4464 126.106 31.4464 125.534C31.4464 125.042 31.5411 124.636 31.7305 124.318C31.9199 124 32.1756 123.748 32.4975 123.562C32.8195 123.377 33.1793 123.237 33.5771 123.142C33.9748 123.047 34.3801 122.975 34.793 122.926C35.3157 122.866 35.74 122.816 36.0657 122.778C36.3915 122.737 36.6282 122.67 36.7759 122.58C36.9237 122.489 36.9975 122.341 36.9975 122.136V122.097C36.9975 121.6 36.8574 121.216 36.5771 120.943C36.3006 120.67 35.8877 120.534 35.3384 120.534C34.7665 120.534 34.3157 120.661 33.9862 120.915C33.6604 121.165 33.435 121.443 33.31 121.75L31.7134 121.386C31.9028 120.856 32.1793 120.428 32.543 120.102C32.9104 119.773 33.3328 119.534 33.81 119.386C34.2873 119.235 34.7892 119.159 35.3157 119.159C35.6642 119.159 36.0335 119.201 36.4237 119.284C36.8176 119.364 37.185 119.511 37.5259 119.727C37.8706 119.943 38.1528 120.252 38.3725 120.653C38.5922 121.051 38.7021 121.568 38.7021 122.205V128H37.043V126.807H36.9748C36.865 127.027 36.7002 127.242 36.4805 127.455C36.2608 127.667 35.9786 127.843 35.6339 127.983C35.2892 128.123 34.8763 128.193 34.3953 128.193ZM34.7646 126.83C35.2343 126.83 35.6358 126.737 35.9691 126.551C36.3062 126.366 36.5619 126.123 36.7362 125.824C36.9142 125.521 37.0032 125.197 37.0032 124.852V123.727C36.9426 123.788 36.8252 123.845 36.6509 123.898C36.4805 123.947 36.2854 123.991 36.0657 124.028C35.846 124.062 35.632 124.095 35.4237 124.125C35.2153 124.152 35.0411 124.174 34.9009 124.193C34.5714 124.235 34.2703 124.305 33.9975 124.403C33.7286 124.502 33.5127 124.644 33.3498 124.83C33.1907 125.011 33.1112 125.254 33.1112 125.557C33.1112 125.977 33.2665 126.295 33.5771 126.511C33.8877 126.723 34.2835 126.83 34.7646 126.83ZM41.2849 128V119.273H42.9837V128H41.2849ZM42.1428 117.926C41.8474 117.926 41.5936 117.828 41.3815 117.631C41.1731 117.43 41.069 117.191 41.069 116.915C41.069 116.634 41.1731 116.396 41.3815 116.199C41.5936 115.998 41.8474 115.898 42.1428 115.898C42.4383 115.898 42.6902 115.998 42.8985 116.199C43.1106 116.396 43.2167 116.634 43.2167 116.915C43.2167 117.191 43.1106 117.43 42.8985 117.631C42.6902 117.828 42.4383 117.926 42.1428 117.926ZM47.2881 116.364V128H45.5892V116.364H47.2881ZM56.4334 121.403L54.8936 121.676C54.8292 121.479 54.7269 121.292 54.5868 121.114C54.4504 120.936 54.2648 120.79 54.03 120.676C53.7951 120.562 53.5016 120.506 53.1493 120.506C52.6682 120.506 52.2667 120.614 51.9447 120.83C51.6228 121.042 51.4618 121.316 51.4618 121.653C51.4618 121.945 51.5697 122.18 51.7857 122.358C52.0016 122.536 52.35 122.682 52.8311 122.795L54.2175 123.114C55.0205 123.299 55.619 123.585 56.0129 123.972C56.4069 124.358 56.6038 124.86 56.6038 125.477C56.6038 126 56.4523 126.466 56.1493 126.875C55.85 127.28 55.4315 127.598 54.8936 127.83C54.3595 128.061 53.7402 128.176 53.0357 128.176C52.0584 128.176 51.261 127.968 50.6436 127.551C50.0262 127.131 49.6474 126.534 49.5072 125.761L51.1493 125.511C51.2516 125.939 51.4618 126.263 51.78 126.483C52.0982 126.699 52.5129 126.807 53.0243 126.807C53.5811 126.807 54.0262 126.691 54.3595 126.46C54.6929 126.225 54.8595 125.939 54.8595 125.602C54.8595 125.33 54.7572 125.1 54.5527 124.915C54.3519 124.729 54.0432 124.589 53.6266 124.494L52.1493 124.17C51.3349 123.985 50.7326 123.689 50.3425 123.284C49.9561 122.879 49.7629 122.366 49.7629 121.744C49.7629 121.229 49.9069 120.778 50.1947 120.392C50.4826 120.006 50.8804 119.705 51.3879 119.489C51.8955 119.269 52.4769 119.159 53.1322 119.159C54.0754 119.159 54.8179 119.364 55.3595 119.773C55.9012 120.178 56.2591 120.722 56.4334 121.403ZM66.6132 128.17C65.9086 128.17 65.2798 127.991 64.7268 127.631C64.1776 127.267 63.7457 126.75 63.4313 126.08C63.1207 125.405 62.9654 124.597 62.9654 123.653C62.9654 122.71 63.1226 121.903 63.437 121.233C63.7552 120.562 64.1908 120.049 64.7438 119.693C65.2969 119.337 65.9238 119.159 66.6245 119.159C67.1662 119.159 67.6018 119.25 67.9313 119.432C68.2647 119.61 68.5222 119.818 68.7041 120.057C68.8897 120.295 69.0336 120.506 69.1359 120.688H69.2382V116.364H70.937V128H69.2779V126.642H69.1359C69.0336 126.828 68.8859 127.04 68.6927 127.278C68.5033 127.517 68.2419 127.725 67.9086 127.903C67.5753 128.081 67.1435 128.17 66.6132 128.17ZM66.9882 126.722C67.4768 126.722 67.8897 126.593 68.2268 126.335C68.5677 126.074 68.8253 125.712 68.9995 125.25C69.1776 124.788 69.2666 124.25 69.2666 123.636C69.2666 123.03 69.1794 122.5 69.0052 122.045C68.831 121.591 68.5753 121.237 68.2382 120.983C67.901 120.729 67.4844 120.602 66.9882 120.602C66.4768 120.602 66.0507 120.735 65.7097 121C65.3688 121.265 65.1113 121.627 64.937 122.085C64.7666 122.544 64.6813 123.061 64.6813 123.636C64.6813 124.22 64.7685 124.744 64.9427 125.21C65.1169 125.676 65.3745 126.045 65.7154 126.318C66.0601 126.587 66.4844 126.722 66.9882 126.722ZM77.4431 128.176C76.5832 128.176 75.8427 127.992 75.2215 127.625C74.6041 127.254 74.1268 126.733 73.7897 126.062C73.4564 125.388 73.2897 124.598 73.2897 123.693C73.2897 122.799 73.4564 122.011 73.7897 121.33C74.1268 120.648 74.5965 120.116 75.1988 119.733C75.8048 119.35 76.5132 119.159 77.3238 119.159C77.8162 119.159 78.2935 119.241 78.7556 119.403C79.2177 119.566 79.6325 119.822 79.9999 120.17C80.3673 120.519 80.6571 120.972 80.8692 121.528C81.0814 122.081 81.1874 122.754 81.1874 123.545V124.148H74.2499V122.875H79.5226C79.5226 122.428 79.4317 122.032 79.2499 121.688C79.0681 121.339 78.8124 121.064 78.4829 120.864C78.1571 120.663 77.7745 120.562 77.3351 120.562C76.8579 120.562 76.4412 120.68 76.0851 120.915C75.7329 121.146 75.4601 121.449 75.267 121.824C75.0776 122.195 74.9829 122.598 74.9829 123.034V124.028C74.9829 124.612 75.0851 125.108 75.2897 125.517C75.498 125.926 75.7878 126.239 76.159 126.455C76.5302 126.667 76.9639 126.773 77.4601 126.773C77.7821 126.773 78.0757 126.727 78.3408 126.636C78.606 126.542 78.8351 126.402 79.0283 126.216C79.2215 126.03 79.3692 125.801 79.4715 125.528L81.0795 125.818C80.9507 126.292 80.7196 126.706 80.3863 127.062C80.0567 127.415 79.642 127.689 79.142 127.886C78.6457 128.08 78.0795 128.176 77.4431 128.176ZM89.6456 116.364V128H87.9467V116.364H89.6456ZM94.7909 128.193C94.2379 128.193 93.7379 128.091 93.2909 127.886C92.8439 127.678 92.4897 127.377 92.2284 126.983C91.9708 126.589 91.842 126.106 91.842 125.534C91.842 125.042 91.9367 124.636 92.1261 124.318C92.3155 124 92.5712 123.748 92.8932 123.562C93.2151 123.377 93.575 123.237 93.9727 123.142C94.3704 123.047 94.7757 122.975 95.1886 122.926C95.7113 122.866 96.1356 122.816 96.4613 122.778C96.7871 122.737 97.0238 122.67 97.1716 122.58C97.3193 122.489 97.3932 122.341 97.3932 122.136V122.097C97.3932 121.6 97.253 121.216 96.9727 120.943C96.6962 120.67 96.2833 120.534 95.7341 120.534C95.1621 120.534 94.7113 120.661 94.3818 120.915C94.056 121.165 93.8307 121.443 93.7057 121.75L92.1091 121.386C92.2985 120.856 92.575 120.428 92.9386 120.102C93.306 119.773 93.7284 119.534 94.2057 119.386C94.6829 119.235 95.1848 119.159 95.7113 119.159C96.0598 119.159 96.4291 119.201 96.8193 119.284C97.2132 119.364 97.5807 119.511 97.9216 119.727C98.2663 119.943 98.5485 120.252 98.7682 120.653C98.9879 121.051 99.0977 121.568 99.0977 122.205V128H97.4386V126.807H97.3704C97.2606 127.027 97.0958 127.242 96.8761 127.455C96.6564 127.667 96.3742 127.843 96.0295 127.983C95.6848 128.123 95.2719 128.193 94.7909 128.193ZM95.1602 126.83C95.6299 126.83 96.0314 126.737 96.3647 126.551C96.7019 126.366 96.9575 126.123 97.1318 125.824C97.3098 125.521 97.3988 125.197 97.3988 124.852V123.727C97.3382 123.788 97.2208 123.845 97.0466 123.898C96.8761 123.947 96.681 123.991 96.4613 124.028C96.2416 124.062 96.0276 124.095 95.8193 124.125C95.611 124.152 95.4367 124.174 95.2966 124.193C94.967 124.235 94.6659 124.305 94.3932 124.403C94.1242 124.502 93.9083 124.644 93.7454 124.83C93.5863 125.011 93.5068 125.254 93.5068 125.557C93.5068 125.977 93.6621 126.295 93.9727 126.511C94.2833 126.723 94.6791 126.83 95.1602 126.83ZM109.911 128.176C109.066 128.176 108.339 127.985 107.729 127.602C107.123 127.216 106.657 126.684 106.331 126.006C106.006 125.328 105.843 124.551 105.843 123.676C105.843 122.79 106.009 122.008 106.343 121.33C106.676 120.648 107.146 120.116 107.752 119.733C108.358 119.35 109.072 119.159 109.894 119.159C110.557 119.159 111.148 119.282 111.667 119.528C112.186 119.771 112.604 120.112 112.922 120.551C113.244 120.991 113.436 121.504 113.496 122.091H111.843C111.752 121.682 111.544 121.33 111.218 121.034C110.896 120.739 110.464 120.591 109.922 120.591C109.449 120.591 109.034 120.716 108.678 120.966C108.326 121.212 108.051 121.564 107.854 122.023C107.657 122.477 107.559 123.015 107.559 123.636C107.559 124.273 107.655 124.822 107.849 125.284C108.042 125.746 108.314 126.104 108.667 126.358C109.023 126.612 109.441 126.739 109.922 126.739C110.244 126.739 110.536 126.68 110.797 126.562C111.063 126.441 111.284 126.269 111.462 126.045C111.644 125.822 111.771 125.553 111.843 125.239H113.496C113.436 125.803 113.252 126.307 112.945 126.75C112.638 127.193 112.227 127.542 111.712 127.795C111.201 128.049 110.6 128.176 109.911 128.176ZM119.309 128.176C118.491 128.176 117.777 127.989 117.167 127.614C116.557 127.239 116.084 126.714 115.747 126.04C115.41 125.366 115.241 124.578 115.241 123.676C115.241 122.771 115.41 121.979 115.747 121.301C116.084 120.623 116.557 120.097 117.167 119.722C117.777 119.347 118.491 119.159 119.309 119.159C120.127 119.159 120.841 119.347 121.451 119.722C122.061 120.097 122.535 120.623 122.872 121.301C123.209 121.979 123.377 122.771 123.377 123.676C123.377 124.578 123.209 125.366 122.872 126.04C122.535 126.714 122.061 127.239 121.451 127.614C120.841 127.989 120.127 128.176 119.309 128.176ZM119.315 126.75C119.845 126.75 120.285 126.61 120.633 126.33C120.981 126.049 121.239 125.676 121.406 125.21C121.576 124.744 121.661 124.231 121.661 123.67C121.661 123.114 121.576 122.602 121.406 122.136C121.239 121.667 120.981 121.29 120.633 121.006C120.285 120.722 119.845 120.58 119.315 120.58C118.781 120.58 118.338 120.722 117.985 121.006C117.637 121.29 117.377 121.667 117.207 122.136C117.04 122.602 116.957 123.114 116.957 123.67C116.957 124.231 117.04 124.744 117.207 125.21C117.377 125.676 117.637 126.049 117.985 126.33C118.338 126.61 118.781 126.75 119.315 126.75ZM125.594 128V119.273H127.224V120.693H127.332C127.514 120.212 127.811 119.837 128.224 119.568C128.637 119.295 129.131 119.159 129.707 119.159C130.291 119.159 130.779 119.295 131.173 119.568C131.571 119.841 131.864 120.216 132.054 120.693H132.145C132.353 120.227 132.685 119.856 133.139 119.58C133.594 119.299 134.135 119.159 134.764 119.159C135.556 119.159 136.202 119.407 136.702 119.903C137.205 120.4 137.457 121.148 137.457 122.148V128H135.758V122.307C135.758 121.716 135.597 121.288 135.275 121.023C134.953 120.758 134.569 120.625 134.122 120.625C133.569 120.625 133.139 120.795 132.832 121.136C132.525 121.473 132.372 121.907 132.372 122.438V128H130.679V122.199C130.679 121.725 130.531 121.345 130.236 121.057C129.94 120.769 129.556 120.625 129.082 120.625C128.76 120.625 128.463 120.71 128.19 120.881C127.921 121.047 127.703 121.28 127.537 121.58C127.374 121.879 127.292 122.225 127.292 122.619V128H125.594ZM140.054 128V119.273H141.685V120.693H141.793C141.975 120.212 142.272 119.837 142.685 119.568C143.098 119.295 143.592 119.159 144.168 119.159C144.751 119.159 145.24 119.295 145.634 119.568C146.032 119.841 146.325 120.216 146.514 120.693H146.605C146.814 120.227 147.145 119.856 147.6 119.58C148.054 119.299 148.596 119.159 149.225 119.159C150.016 119.159 150.662 119.407 151.162 119.903C151.666 120.4 151.918 121.148 151.918 122.148V128H150.219V122.307C150.219 121.716 150.058 121.288 149.736 121.023C149.414 120.758 149.03 120.625 148.583 120.625C148.03 120.625 147.6 120.795 147.293 121.136C146.986 121.473 146.833 121.907 146.833 122.438V128H145.139V122.199C145.139 121.725 144.992 121.345 144.696 121.057C144.401 120.769 144.016 120.625 143.543 120.625C143.221 120.625 142.924 120.71 142.651 120.881C142.382 121.047 142.164 121.28 141.997 121.58C141.835 121.879 141.753 122.225 141.753 122.619V128H140.054ZM157.055 128.193C156.502 128.193 156.002 128.091 155.555 127.886C155.108 127.678 154.753 127.377 154.492 126.983C154.235 126.589 154.106 126.106 154.106 125.534C154.106 125.042 154.2 124.636 154.39 124.318C154.579 124 154.835 123.748 155.157 123.562C155.479 123.377 155.839 123.237 156.236 123.142C156.634 123.047 157.039 122.975 157.452 122.926C157.975 122.866 158.399 122.816 158.725 122.778C159.051 122.737 159.288 122.67 159.435 122.58C159.583 122.489 159.657 122.341 159.657 122.136V122.097C159.657 121.6 159.517 121.216 159.236 120.943C158.96 120.67 158.547 120.534 157.998 120.534C157.426 120.534 156.975 120.661 156.646 120.915C156.32 121.165 156.094 121.443 155.969 121.75L154.373 121.386C154.562 120.856 154.839 120.428 155.202 120.102C155.57 119.773 155.992 119.534 156.469 119.386C156.947 119.235 157.449 119.159 157.975 119.159C158.324 119.159 158.693 119.201 159.083 119.284C159.477 119.364 159.844 119.511 160.185 119.727C160.53 119.943 160.812 120.252 161.032 120.653C161.252 121.051 161.361 121.568 161.361 122.205V128H159.702V126.807H159.634C159.524 127.027 159.36 127.242 159.14 127.455C158.92 127.667 158.638 127.843 158.293 127.983C157.949 128.123 157.536 128.193 157.055 128.193ZM157.424 126.83C157.894 126.83 158.295 126.737 158.628 126.551C158.966 126.366 159.221 126.123 159.396 125.824C159.574 125.521 159.663 125.197 159.663 124.852V123.727C159.602 123.788 159.485 123.845 159.31 123.898C159.14 123.947 158.945 123.991 158.725 124.028C158.505 124.062 158.291 124.095 158.083 124.125C157.875 124.152 157.7 124.174 157.56 124.193C157.231 124.235 156.93 124.305 156.657 124.403C156.388 124.502 156.172 124.644 156.009 124.83C155.85 125.011 155.771 125.254 155.771 125.557C155.771 125.977 155.926 126.295 156.236 126.511C156.547 126.723 156.943 126.83 157.424 126.83ZM165.643 122.818V128H163.944V119.273H165.575V120.693H165.683C165.884 120.231 166.198 119.86 166.626 119.58C167.058 119.299 167.601 119.159 168.257 119.159C168.851 119.159 169.372 119.284 169.819 119.534C170.266 119.78 170.613 120.148 170.859 120.636C171.105 121.125 171.228 121.729 171.228 122.449V128H169.529V122.653C169.529 122.021 169.365 121.527 169.035 121.17C168.706 120.811 168.253 120.631 167.677 120.631C167.283 120.631 166.933 120.716 166.626 120.886C166.323 121.057 166.082 121.307 165.904 121.636C165.73 121.962 165.643 122.356 165.643 122.818ZM177.094 128.17C176.389 128.17 175.76 127.991 175.207 127.631C174.658 127.267 174.226 126.75 173.912 126.08C173.601 125.405 173.446 124.597 173.446 123.653C173.446 122.71 173.603 121.903 173.918 121.233C174.236 120.562 174.671 120.049 175.224 119.693C175.777 119.337 176.404 119.159 177.105 119.159C177.647 119.159 178.082 119.25 178.412 119.432C178.745 119.61 179.003 119.818 179.185 120.057C179.37 120.295 179.514 120.506 179.617 120.688H179.719V116.364H181.418V128H179.759V126.642H179.617C179.514 126.828 179.367 127.04 179.173 127.278C178.984 127.517 178.723 127.725 178.389 127.903C178.056 128.081 177.624 128.17 177.094 128.17ZM177.469 126.722C177.957 126.722 178.37 126.593 178.707 126.335C179.048 126.074 179.306 125.712 179.48 125.25C179.658 124.788 179.747 124.25 179.747 123.636C179.747 123.03 179.66 122.5 179.486 122.045C179.312 121.591 179.056 121.237 178.719 120.983C178.382 120.729 177.965 120.602 177.469 120.602C176.957 120.602 176.531 120.735 176.19 121C175.849 121.265 175.592 121.627 175.418 122.085C175.247 122.544 175.162 123.061 175.162 123.636C175.162 124.22 175.249 124.744 175.423 125.21C175.598 125.676 175.855 126.045 176.196 126.318C176.541 126.587 176.965 126.722 177.469 126.722ZM187.924 128.176C187.064 128.176 186.323 127.992 185.702 127.625C185.085 127.254 184.607 126.733 184.27 126.062C183.937 125.388 183.77 124.598 183.77 123.693C183.77 122.799 183.937 122.011 184.27 121.33C184.607 120.648 185.077 120.116 185.679 119.733C186.285 119.35 186.994 119.159 187.804 119.159C188.297 119.159 188.774 119.241 189.236 119.403C189.698 119.566 190.113 119.822 190.481 120.17C190.848 120.519 191.138 120.972 191.35 121.528C191.562 122.081 191.668 122.754 191.668 123.545V124.148H184.731V122.875H190.003C190.003 122.428 189.912 122.032 189.731 121.688C189.549 121.339 189.293 121.064 188.964 120.864C188.638 120.663 188.255 120.562 187.816 120.562C187.339 120.562 186.922 120.68 186.566 120.915C186.214 121.146 185.941 121.449 185.748 121.824C185.558 122.195 185.464 122.598 185.464 123.034V124.028C185.464 124.612 185.566 125.108 185.77 125.517C185.979 125.926 186.268 126.239 186.64 126.455C187.011 126.667 187.445 126.773 187.941 126.773C188.263 126.773 188.556 126.727 188.821 126.636C189.087 126.542 189.316 126.402 189.509 126.216C189.702 126.03 189.85 125.801 189.952 125.528L191.56 125.818C191.431 126.292 191.2 126.706 190.867 127.062C190.537 127.415 190.123 127.689 189.623 127.886C189.126 128.08 188.56 128.176 187.924 128.176ZM195.731 124.653V124.545C195.739 123.841 195.809 123.28 195.941 122.864C196.078 122.447 196.271 122.11 196.521 121.852C196.771 121.595 197.072 121.36 197.424 121.148C197.651 121.004 197.856 120.843 198.038 120.665C198.22 120.487 198.364 120.282 198.47 120.051C198.576 119.82 198.629 119.564 198.629 119.284C198.629 118.947 198.549 118.655 198.39 118.409C198.231 118.163 198.019 117.973 197.754 117.841C197.492 117.705 197.201 117.636 196.879 117.636C196.587 117.636 196.309 117.697 196.043 117.818C195.778 117.939 195.559 118.129 195.384 118.386C195.21 118.64 195.11 118.968 195.083 119.369H193.356C193.382 118.688 193.555 118.112 193.873 117.642C194.191 117.169 194.612 116.811 195.134 116.568C195.661 116.326 196.242 116.205 196.879 116.205C197.576 116.205 198.185 116.335 198.708 116.597C199.231 116.854 199.636 117.216 199.924 117.682C200.216 118.144 200.362 118.684 200.362 119.301C200.362 119.725 200.295 120.108 200.163 120.449C200.03 120.786 199.841 121.087 199.595 121.352C199.352 121.617 199.06 121.852 198.72 122.057C198.398 122.258 198.136 122.466 197.935 122.682C197.739 122.898 197.595 123.153 197.504 123.449C197.413 123.744 197.364 124.11 197.356 124.545V124.653H195.731ZM196.589 128.108C196.278 128.108 196.011 127.998 195.788 127.778C195.564 127.555 195.453 127.286 195.453 126.972C195.453 126.661 195.564 126.396 195.788 126.176C196.011 125.953 196.278 125.841 196.589 125.841C196.896 125.841 197.161 125.953 197.384 126.176C197.612 126.396 197.725 126.661 197.725 126.972C197.725 127.18 197.672 127.371 197.566 127.545C197.464 127.716 197.328 127.852 197.157 127.955C196.987 128.057 196.797 128.108 196.589 128.108Z" fill="#666666"/>
<defs>
<clipPath id="clip0_1285_90688">
<rect width="82" height="91" fill="white" transform="translate(61)"/>
</clipPath>
</defs>
</svg>
