<svg width="641" height="482" viewBox="0 0 641 482" fill="none" xmlns="http://www.w3.org/2000/svg">
<path d="M589.014 329.567C586.991 327.543 583.698 327.543 581.674 329.567C580.964 330.278 580.469 331.182 580.254 332.173L541.146 477.176H629.521L590.413 332.173C590.198 331.182 589.724 330.278 588.992 329.567H589.014Z" fill="url(#paint0_linear_3384_132080)"/>
<path d="M529.526 473.148H641.147C643.278 473.148 644.999 474.871 644.999 477.003V478.145C644.999 480.277 643.278 482 641.147 482H529.526C527.395 482 525.673 480.277 525.673 478.145V477.003C525.673 474.871 527.395 473.148 529.526 473.148Z" fill="url(#paint1_linear_3384_132080)"/>
<path d="M596.829 355.927H573.842L564.737 389.739H605.955L596.829 355.927Z" fill="#003AA5"/>
<path d="M557.784 415.475L548.68 449.286H622.01L612.885 415.475H557.784Z" fill="#003AA5"/>
<path d="M524.162 170.588C524.162 191.5 507.223 208.47 486.302 208.47C507.201 208.47 524.162 225.419 524.162 246.352C524.162 225.441 541.101 208.47 562.022 208.47C541.122 208.47 524.162 191.521 524.162 170.588Z" fill="#FFBE00"/>
<path d="M483.806 167.4C483.806 176.23 476.66 183.38 467.835 183.38C476.66 183.38 483.806 190.53 483.806 199.36C483.806 190.53 490.951 183.38 499.776 183.38C490.951 183.38 483.806 176.23 483.806 167.4Z" fill="#FFBE00"/>
<path d="M63.3225 329.566C61.2993 327.541 58.0062 327.541 55.9829 329.566C55.2727 330.276 54.7776 331.181 54.5624 332.172L15.4541 477.175H103.83L64.7215 332.172C64.5063 331.181 64.0327 330.276 63.3009 329.566H63.3225Z" fill="url(#paint2_linear_3384_132080)"/>
<path d="M115.452 473.147H3.85274C1.72494 473.147 0 474.873 0 477.002V478.144C0 480.273 1.72494 481.999 3.85274 481.999H115.452C117.58 481.999 119.305 480.273 119.305 478.144V477.002C119.305 474.873 117.58 473.147 115.452 473.147Z" fill="url(#paint3_linear_3384_132080)"/>
<path d="M71.16 355.925H48.1728L39.0469 389.737H80.2645L71.16 355.925Z" fill="#003AA5"/>
<path d="M32.1123 415.474L22.9863 449.285H96.3171L87.2126 415.474H32.1123Z" fill="#003AA5"/>
<path d="M80.2615 300.083C80.2615 308.913 73.1157 316.063 64.291 316.063C73.1157 316.063 80.2615 323.213 80.2615 332.043C80.2615 323.213 87.4074 316.063 96.232 316.063C87.4074 316.063 80.2615 308.913 80.2615 300.083Z" fill="#FFBE00"/>
<path d="M495.449 224.212H155.097C149.153 224.212 144.335 229.033 144.335 234.98V440.522C144.335 446.469 149.153 451.29 155.097 451.29H495.449C501.392 451.29 506.211 446.469 506.211 440.522V234.98C506.211 229.033 501.392 224.212 495.449 224.212Z" fill="#003AA5"/>
<path d="M492.59 237.306H157.941V438.196H492.59V237.306Z" fill="#C2E1FE"/>
<path d="M295.583 245.511H165.839V277.794H295.583V245.511Z" fill="#DCEFFF"/>
<path d="M295.583 284.168H165.839V298.683H295.583V284.168Z" fill="#DCEFFF"/>
<path d="M480.191 245.511H306.604V298.706H480.191V245.511Z" fill="#DCEFFF"/>
<path d="M295.583 305.511H165.839V320.027H295.583V305.511Z" fill="#DCEFFF"/>
<path d="M480.191 305.511H306.604V320.027H480.191V305.511Z" fill="#DCEFFF"/>
<path d="M295.583 326.832H165.839V341.347H295.583V326.832Z" fill="#DCEFFF"/>
<path d="M480.191 326.832H306.604V341.347H480.191V326.832Z" fill="#DCEFFF"/>
<path d="M295.583 348.174H165.839V362.689H295.583V348.174Z" fill="#DCEFFF"/>
<path d="M480.191 348.174H306.604V362.689H480.191V348.174Z" fill="#DCEFFF"/>
<path d="M295.583 369.517H165.839V384.032H295.583V369.517Z" fill="#DCEFFF"/>
<path opacity="0.5" d="M480.191 369.517H306.604V384.032H480.191V369.517Z" fill="#DCEFFF"/>
<path d="M480.191 395.77H165.839V403.027H480.191V395.77Z" fill="#DCEFFF"/>
<path opacity="0.5" d="M480.191 409.466H165.839V424.132H480.191V409.466Z" fill="#DCEFFF"/>
<path d="M149.956 471.211H500.575C511.574 471.211 520.506 462.273 520.506 451.268H130.004C130.004 462.273 138.936 471.211 149.935 471.211H149.956Z" fill="#259AFF"/>
<g style="mix-blend-mode:multiply">
<path d="M286.802 451.268H363.727V451.311C363.727 456.803 359.272 461.239 353.805 461.239H296.724C291.236 461.239 286.802 456.781 286.802 451.311V451.268Z" fill="#259AFF"/>
</g>
<g style="mix-blend-mode:multiply" opacity="0.2">
<path d="M149.955 471.211H500.574C506.213 471.211 511.292 468.863 514.908 465.094H135.599C139.215 468.863 144.294 471.211 149.933 471.211H149.955Z" fill="#259AFF"/>
</g>
<path d="M537.654 349.074L124.595 265.438L112.838 323.57L525.897 407.207L537.654 349.074Z" fill="url(#paint4_linear_3384_132080)"/>
<path d="M149.782 331.033L112.848 323.56L145.133 269.568L182.046 277.041L149.782 331.033Z" fill="#023382"/>
<path d="M220.92 345.441L183.985 337.968L216.249 283.977L253.184 291.45L220.92 345.441Z" fill="#023382"/>
<path d="M292.031 359.827L255.097 352.354L287.382 298.363L324.295 305.836L292.031 359.827Z" fill="#023382"/>
<path d="M363.167 374.234L326.232 366.761L358.496 312.77L395.431 320.243L363.167 374.234Z" fill="#023382"/>
<path d="M434.279 388.62L397.366 381.147L429.63 327.155L466.543 334.65L434.279 388.62Z" fill="#023382"/>
<path d="M505.418 403.029L468.483 395.556L500.747 341.565L537.682 349.038L505.418 403.029Z" fill="#023382"/>
<path d="M524.556 261.607L113.146 353.019L125.996 410.919L537.406 319.507L524.556 261.607Z" fill="url(#paint5_linear_3384_132080)"/>
<path d="M162.758 402.792L125.975 410.954L133.551 348.499L170.335 340.337L162.758 402.792Z" fill="#023382"/>
<path d="M233.613 387.048L196.829 395.21L204.405 332.777L241.189 324.593L233.613 387.048Z" fill="#023382"/>
<path d="M304.449 371.305L267.665 379.489L275.241 317.034L312.025 308.85L304.449 371.305Z" fill="#023382"/>
<path d="M375.283 355.563L338.499 363.747L346.075 301.292L382.859 293.13L375.283 355.563Z" fill="#023382"/>
<path d="M446.138 339.841L409.354 348.003L416.931 285.548L453.715 277.386L446.138 339.841Z" fill="#023382"/>
<path d="M516.972 324.098L480.188 332.26L487.765 269.827L524.549 261.643L516.972 324.098Z" fill="#023382"/>
<path d="M254.45 183.446L316.89 106.044L320.076 108.607L264.416 177.588L391.146 155.858L391.835 159.885L254.45 183.446Z" fill="#003AA5"/>
<path d="M408.987 149.363L246.995 170.673C239.924 171.603 234.945 178.093 235.875 185.169L246.766 268.059C247.696 275.135 254.182 280.116 261.254 279.186L423.245 257.876C430.316 256.946 435.295 250.456 434.366 243.38L423.474 160.49C422.544 153.414 416.058 148.432 408.987 149.363Z" fill="url(#paint6_linear_3384_132080)"/>
<path d="M294.29 205.519L292.774 193.981L300.548 192.959L300.812 194.97L295.478 195.672L295.839 198.421L300.773 197.772L301.038 199.783L296.103 200.432L296.465 203.187L301.822 202.482L302.086 204.493L294.29 205.519ZM305.701 198.929L306.358 203.931L303.958 204.247L302.821 195.594L305.108 195.293L305.309 196.82L305.41 196.806C305.536 196.278 305.804 195.837 306.217 195.485C306.628 195.129 307.155 194.909 307.797 194.825C308.398 194.745 308.939 194.808 309.421 195.012C309.902 195.216 310.299 195.546 310.611 196.002C310.923 196.454 311.123 197.016 311.211 197.688L311.935 203.197L309.535 203.513L308.867 198.432C308.802 197.902 308.612 197.506 308.299 197.246C307.985 196.981 307.588 196.881 307.107 196.944C306.784 196.986 306.508 197.094 306.279 197.265C306.053 197.436 305.888 197.664 305.784 197.949C305.683 198.23 305.655 198.556 305.701 198.929ZM321.429 202.12C320.543 202.237 319.756 202.149 319.068 201.858C318.384 201.562 317.826 201.1 317.396 200.473C316.97 199.845 316.699 199.094 316.584 198.219C316.468 197.332 316.537 196.533 316.791 195.819C317.048 195.101 317.469 194.513 318.054 194.054C318.639 193.591 319.369 193.302 320.244 193.187C320.999 193.088 321.678 193.138 322.281 193.338C322.884 193.537 323.384 193.863 323.779 194.315C324.175 194.768 324.433 195.326 324.555 195.99L322.291 196.288C322.17 195.864 321.955 195.539 321.647 195.312C321.341 195.081 320.969 194.994 320.529 195.052C320.158 195.101 319.846 195.245 319.595 195.485C319.347 195.72 319.171 196.039 319.067 196.442C318.964 196.846 318.948 197.32 319.019 197.864C319.092 198.416 319.229 198.876 319.43 199.243C319.634 199.609 319.889 199.876 320.194 200.042C320.498 200.208 320.836 200.267 321.208 200.218C321.482 200.182 321.721 200.093 321.924 199.952C322.131 199.81 322.291 199.623 322.406 199.39C322.524 199.153 322.585 198.879 322.59 198.569L324.855 198.271C324.904 198.937 324.8 199.543 324.544 200.089C324.29 200.63 323.9 201.079 323.374 201.435C322.847 201.79 322.199 202.019 321.429 202.12ZM330.74 200.895C329.865 201.011 329.084 200.924 328.396 200.636C327.712 200.344 327.154 199.887 326.72 199.264C326.286 198.637 326.011 197.88 325.895 196.994C325.777 196.1 325.847 195.296 326.105 194.582C326.362 193.865 326.784 193.278 327.37 192.823C327.959 192.363 328.691 192.076 329.566 191.961C330.441 191.846 331.22 191.934 331.904 192.226C332.592 192.514 333.152 192.971 333.586 193.598C334.02 194.221 334.295 194.98 334.412 195.874C334.529 196.76 334.458 197.562 334.201 198.28C333.944 198.994 333.52 199.58 332.931 200.04C332.345 200.495 331.615 200.78 330.74 200.895ZM330.507 199.035C330.905 198.983 331.222 198.826 331.46 198.566C331.696 198.302 331.856 197.963 331.939 197.551C332.027 197.139 332.037 196.681 331.971 196.177C331.905 195.674 331.776 195.235 331.586 194.859C331.399 194.482 331.157 194.197 330.86 194.003C330.563 193.809 330.216 193.738 329.818 193.79C329.416 193.843 329.093 194.002 328.849 194.267C328.609 194.532 328.445 194.871 328.358 195.283C328.274 195.695 328.266 196.153 328.332 196.656C328.398 197.159 328.525 197.599 328.712 197.976C328.902 198.352 329.148 198.637 329.448 198.83C329.752 199.02 330.105 199.088 330.507 199.035ZM341.601 195.547L340.949 190.578L343.348 190.262L344.485 198.915L342.181 199.218L341.975 197.647L341.885 197.658C341.756 198.191 341.485 198.641 341.071 199.009C340.661 199.376 340.131 199.603 339.481 199.688C338.903 199.764 338.376 199.7 337.902 199.495C337.429 199.29 337.036 198.961 336.724 198.509C336.417 198.057 336.216 197.493 336.124 196.817L335.4 191.308L337.8 190.992L338.467 196.074C338.538 196.584 338.728 196.97 339.038 197.231C339.347 197.492 339.729 197.592 340.183 197.533C340.473 197.495 340.734 197.393 340.969 197.229C341.203 197.061 341.379 196.835 341.499 196.552C341.622 196.268 341.656 195.933 341.601 195.547ZM346.405 198.663L345.268 190.01L347.594 189.704L347.793 191.214L347.883 191.202C347.97 190.644 348.182 190.203 348.517 189.88C348.853 189.554 349.263 189.358 349.747 189.295C349.867 189.279 349.998 189.269 350.139 189.266C350.28 189.263 350.404 189.267 350.513 189.28L350.793 191.409C350.676 191.39 350.516 191.381 350.313 191.381C350.111 191.38 349.927 191.391 349.762 191.413C349.409 191.459 349.103 191.578 348.846 191.768C348.591 191.955 348.401 192.194 348.275 192.485C348.153 192.776 348.115 193.099 348.161 193.452L348.805 198.347L346.405 198.663ZM359.282 190.676L357.103 191.1C357.041 190.918 356.938 190.759 356.794 190.625C356.65 190.488 356.471 190.387 356.256 190.324C356.045 190.256 355.8 190.24 355.522 190.277C355.15 190.326 354.847 190.446 354.613 190.637C354.377 190.825 354.277 191.048 354.311 191.307C354.338 191.514 354.444 191.678 354.628 191.799C354.812 191.92 355.11 191.997 355.523 192.03L357.131 192.14C357.995 192.202 358.659 192.397 359.122 192.726C359.585 193.055 359.858 193.531 359.94 194.154C360.015 194.721 359.913 195.241 359.635 195.713C359.361 196.185 358.95 196.579 358.403 196.895C357.86 197.207 357.213 197.413 356.461 197.512C355.316 197.662 354.372 197.544 353.63 197.156C352.89 196.765 352.408 196.163 352.183 195.352L354.527 194.918C354.645 195.258 354.853 195.502 355.151 195.65C355.449 195.794 355.812 195.838 356.24 195.781C356.66 195.726 356.988 195.601 357.222 195.406C357.459 195.207 357.563 194.977 357.533 194.717C357.5 194.5 357.385 194.334 357.186 194.219C356.987 194.1 356.695 194.027 356.31 194.001L354.772 193.9C353.905 193.842 353.237 193.632 352.769 193.27C352.305 192.906 352.031 192.402 351.946 191.756C351.873 191.2 351.96 190.702 352.208 190.26C352.459 189.818 352.845 189.452 353.364 189.162C353.888 188.872 354.519 188.678 355.259 188.581C356.352 188.437 357.242 188.555 357.93 188.934C358.622 189.313 359.073 189.894 359.282 190.676ZM368.682 195.875C368.025 195.962 367.407 195.871 366.83 195.603C366.255 195.331 365.769 194.885 365.37 194.265C364.975 193.641 364.714 192.846 364.587 191.881C364.457 190.89 364.508 190.044 364.741 189.345C364.973 188.642 365.333 188.092 365.819 187.696C366.309 187.295 366.871 187.053 367.506 186.97C367.99 186.906 368.405 186.936 368.75 187.058C369.098 187.177 369.387 187.345 369.618 187.563C369.853 187.777 370.038 187.993 370.174 188.212L370.247 188.202L369.677 183.865L372.071 183.55L373.587 195.087L371.221 195.398L371.039 194.012L370.937 194.026C370.856 194.281 370.728 194.54 370.553 194.804C370.38 195.064 370.141 195.292 369.835 195.489C369.532 195.685 369.148 195.814 368.682 195.875ZM369.191 193.866C369.578 193.815 369.891 193.667 370.13 193.421C370.373 193.172 370.54 192.846 370.632 192.444C370.728 192.042 370.743 191.583 370.675 191.069C370.607 190.554 370.477 190.117 370.285 189.756C370.092 189.396 369.847 189.13 369.55 188.959C369.252 188.788 368.91 188.728 368.523 188.779C368.129 188.831 367.81 188.981 367.568 189.231C367.326 189.481 367.16 189.804 367.071 190.202C366.982 190.599 366.97 191.048 367.036 191.547C367.102 192.051 367.23 192.487 367.42 192.855C367.613 193.219 367.857 193.493 368.152 193.676C368.451 193.854 368.797 193.918 369.191 193.866ZM379.525 194.478C378.635 194.595 377.846 194.515 377.156 194.239C376.47 193.959 375.91 193.509 375.477 192.89C375.044 192.267 374.767 191.499 374.647 190.586C374.53 189.696 374.601 188.892 374.858 188.175C375.115 187.457 375.532 186.869 376.11 186.411C376.692 185.952 377.407 185.667 378.256 185.556C378.827 185.48 379.37 185.503 379.886 185.622C380.406 185.737 380.873 185.952 381.289 186.268C381.709 186.584 382.058 187.004 382.337 187.529C382.616 188.05 382.804 188.678 382.9 189.415L382.987 190.074L375.681 191.035L375.485 189.548L380.533 188.884C380.487 188.538 380.372 188.242 380.187 187.995C380.001 187.748 379.766 187.567 379.479 187.452C379.196 187.333 378.88 187.296 378.531 187.342C378.166 187.39 377.854 187.517 377.595 187.723C377.339 187.925 377.15 188.177 377.03 188.479C376.908 188.778 376.868 189.098 376.909 189.441L377.095 190.854C377.152 191.283 377.279 191.642 377.478 191.933C377.68 192.224 377.939 192.434 378.254 192.565C378.569 192.695 378.928 192.734 379.33 192.681C379.596 192.646 379.835 192.576 380.047 192.472C380.259 192.368 380.434 192.23 380.572 192.059C380.71 191.888 380.806 191.688 380.86 191.46L383.098 191.314C383.056 191.862 382.886 192.358 382.589 192.802C382.295 193.242 381.889 193.609 381.37 193.903C380.854 194.192 380.239 194.384 379.525 194.478ZM289.574 228.328L288.437 219.676L290.725 219.375L290.925 220.901L291.027 220.888C291.14 220.357 291.388 219.918 291.77 219.569C292.152 219.221 292.636 219.009 293.222 218.931C293.816 218.853 294.34 218.935 294.796 219.177C295.251 219.415 295.582 219.777 295.787 220.262L295.877 220.25C295.988 219.731 296.255 219.293 296.678 218.935C297.105 218.574 297.635 218.351 298.27 218.267C299.077 218.161 299.766 218.332 300.337 218.781C300.911 219.225 301.26 219.916 301.383 220.855L302.148 226.674L299.754 226.989L299.051 221.643C298.988 221.163 298.813 220.819 298.526 220.612C298.239 220.405 297.904 220.327 297.521 220.377C297.085 220.435 296.764 220.618 296.556 220.928C296.348 221.235 296.274 221.613 296.333 222.064L297.027 227.348L294.701 227.654L293.992 222.257C293.936 221.833 293.769 221.511 293.492 221.291C293.219 221.071 292.885 220.987 292.491 221.039C292.224 221.074 291.992 221.174 291.796 221.337C291.603 221.496 291.46 221.704 291.368 221.961C291.275 222.213 291.25 222.5 291.292 222.819L291.974 228.013L289.574 228.328ZM306.532 226.264C305.98 226.336 305.476 226.305 305.019 226.171C304.561 226.032 304.182 225.79 303.88 225.444C303.582 225.093 303.395 224.632 303.32 224.062C303.257 223.581 303.292 223.166 303.426 222.816C303.56 222.466 303.765 222.171 304.043 221.932C304.321 221.693 304.647 221.497 305.021 221.345C305.398 221.192 305.798 221.067 306.221 220.969C306.717 220.851 307.116 220.748 307.418 220.663C307.72 220.574 307.934 220.473 308.06 220.361C308.187 220.248 308.238 220.1 308.214 219.916L308.21 219.883C308.163 219.526 308.014 219.265 307.763 219.099C307.516 218.933 307.187 218.877 306.778 218.93C306.346 218.987 306.015 219.128 305.785 219.353C305.554 219.575 305.416 219.834 305.371 220.13L303.128 220.242C303.171 219.701 303.333 219.217 303.613 218.791C303.893 218.361 304.28 218.008 304.775 217.733C305.273 217.453 305.868 217.268 306.559 217.177C307.04 217.114 307.507 217.11 307.961 217.164C308.419 217.219 308.835 217.342 309.208 217.533C309.584 217.725 309.896 217.993 310.144 218.339C310.392 218.68 310.549 219.109 310.617 219.623L311.384 225.459L309.108 225.759L308.95 224.559L308.883 224.568C308.779 224.856 308.625 225.119 308.419 225.357C308.213 225.59 307.954 225.786 307.642 225.946C307.331 226.101 306.96 226.207 306.532 226.264ZM307.002 224.517C307.355 224.471 307.658 224.36 307.91 224.186C308.161 224.007 308.348 223.788 308.471 223.527C308.593 223.267 308.634 222.984 308.594 222.68L308.474 221.762C308.405 221.821 308.308 221.879 308.182 221.938C308.059 221.992 307.919 222.047 307.762 222.102C307.604 222.153 307.447 222.203 307.289 222.25C307.13 222.294 306.986 222.334 306.857 222.37C306.581 222.448 306.344 222.546 306.145 222.664C305.947 222.782 305.8 222.926 305.703 223.095C305.607 223.26 305.573 223.456 305.603 223.681C305.646 224.008 305.797 224.242 306.056 224.384C306.319 224.521 306.634 224.566 307.002 224.517ZM313.245 225.214L312.109 216.562L314.508 216.246L315.645 224.899L313.245 225.214ZM313.167 215.288C312.811 215.334 312.489 215.256 312.203 215.053C311.919 214.846 311.756 214.575 311.712 214.241C311.669 213.911 311.757 213.611 311.978 213.341C312.201 213.067 312.492 212.907 312.848 212.86C313.205 212.813 313.525 212.893 313.808 213.1C314.095 213.303 314.26 213.57 314.303 213.9C314.347 214.235 314.257 214.539 314.033 214.813C313.813 215.082 313.524 215.241 313.167 215.288ZM319.31 219.328L319.967 224.33L317.568 224.646L316.431 215.993L318.718 215.692L318.918 217.219L319.02 217.205C319.145 216.677 319.414 216.237 319.826 215.884C320.238 215.528 320.765 215.308 321.407 215.224C322.008 215.145 322.549 215.207 323.03 215.411C323.512 215.615 323.909 215.945 324.221 216.401C324.532 216.853 324.732 217.415 324.82 218.087L325.544 223.597L323.145 223.912L322.477 218.831C322.411 218.301 322.222 217.906 321.908 217.645C321.595 217.381 321.198 217.28 320.717 217.343C320.394 217.386 320.118 217.493 319.888 217.664C319.662 217.835 319.497 218.063 319.393 218.348C319.293 218.629 319.265 218.955 319.31 219.328ZM330.901 214.089L331.138 215.892L325.927 216.578L325.69 214.775L330.901 214.089ZM326.601 212.546L329.001 212.23L330.061 220.297C330.09 220.519 330.146 220.687 330.23 220.802C330.314 220.914 330.419 220.986 330.545 221.019C330.676 221.051 330.821 221.057 330.983 221.036C331.096 221.021 331.207 220.997 331.317 220.963C331.427 220.926 331.511 220.898 331.57 220.878L332.182 222.614C332.067 222.668 331.903 222.733 331.692 222.811C331.481 222.892 331.22 222.959 330.91 223.011C330.335 223.11 329.818 223.099 329.359 222.98C328.904 222.86 328.532 222.63 328.242 222.29C327.953 221.95 327.773 221.496 327.702 220.929L326.601 212.546ZM337.474 222.199C336.584 222.316 335.794 222.237 335.104 221.961C334.418 221.68 333.859 221.231 333.426 220.611C332.992 219.988 332.716 219.22 332.596 218.308C332.479 217.418 332.549 216.614 332.806 215.896C333.063 215.178 333.481 214.591 334.059 214.132C334.64 213.674 335.355 213.389 336.204 213.277C336.775 213.202 337.318 213.224 337.835 213.343C338.354 213.458 338.822 213.674 339.238 213.99C339.657 214.305 340.007 214.725 340.286 215.25C340.564 215.771 340.752 216.4 340.849 217.136L340.935 217.795L333.629 218.756L333.434 217.269L338.481 216.605C338.436 216.26 338.32 215.963 338.135 215.717C337.95 215.47 337.714 215.289 337.428 215.174C337.144 215.054 336.828 215.017 336.479 215.063C336.115 215.111 335.803 215.238 335.543 215.444C335.287 215.646 335.099 215.898 334.978 216.201C334.857 216.499 334.817 216.82 334.858 217.162L335.044 218.576C335.1 219.004 335.227 219.364 335.426 219.655C335.629 219.945 335.887 220.156 336.202 220.286C336.518 220.417 336.876 220.455 337.278 220.402C337.545 220.367 337.784 220.298 337.995 220.193C338.207 220.089 338.382 219.952 338.52 219.781C338.658 219.61 338.754 219.41 338.808 219.181L341.047 219.036C341.004 219.584 340.834 220.08 340.537 220.524C340.244 220.964 339.837 221.33 339.318 221.624C338.802 221.914 338.187 222.105 337.474 222.199ZM344.732 215.983L345.389 220.986L342.989 221.302L341.852 212.649L344.139 212.348L344.34 213.874L344.441 213.861C344.567 213.333 344.836 212.892 345.248 212.54C345.659 212.184 346.186 211.964 346.829 211.879C347.429 211.8 347.971 211.863 348.452 212.067C348.933 212.271 349.33 212.601 349.642 213.057C349.954 213.508 350.154 214.071 350.242 214.743L350.966 220.252L348.566 220.568L347.898 215.487C347.833 214.957 347.643 214.561 347.33 214.301C347.016 214.036 346.619 213.936 346.139 213.999C345.816 214.041 345.539 214.148 345.31 214.32C345.084 214.491 344.919 214.719 344.815 215.004C344.714 215.285 344.687 215.611 344.732 215.983ZM355.346 219.842C354.794 219.915 354.29 219.884 353.832 219.749C353.375 219.611 352.995 219.368 352.694 219.022C352.396 218.672 352.209 218.211 352.134 217.64C352.071 217.159 352.106 216.744 352.24 216.394C352.373 216.044 352.579 215.75 352.857 215.511C353.135 215.271 353.461 215.076 353.835 214.923C354.212 214.771 354.612 214.646 355.034 214.548C355.531 214.429 355.93 214.327 356.232 214.241C356.534 214.152 356.748 214.051 356.874 213.939C357.001 213.827 357.052 213.679 357.028 213.495L357.023 213.461C356.977 213.104 356.828 212.843 356.577 212.677C356.329 212.511 356.001 212.455 355.592 212.509C355.16 212.566 354.829 212.707 354.599 212.932C354.368 213.153 354.23 213.412 354.185 213.708L351.942 213.82C351.985 213.279 352.147 212.796 352.427 212.369C352.707 211.939 353.094 211.586 353.589 211.311C354.087 211.032 354.682 210.846 355.373 210.755C355.854 210.692 356.321 210.688 356.775 210.743C357.233 210.797 357.649 210.92 358.021 211.112C358.398 211.303 358.71 211.571 358.958 211.917C359.206 212.259 359.363 212.687 359.431 213.202L360.197 219.038L357.922 219.337L357.764 218.137L357.696 218.146C357.593 218.435 357.438 218.698 357.233 218.935C357.026 219.168 356.768 219.365 356.456 219.524C356.144 219.68 355.774 219.786 355.346 219.842ZM355.816 218.096C356.169 218.049 356.471 217.939 356.724 217.764C356.975 217.586 357.162 217.366 357.285 217.106C357.407 216.845 357.448 216.563 357.408 216.259L357.288 215.34C357.219 215.399 357.122 215.458 356.996 215.516C356.873 215.571 356.733 215.625 356.576 215.68C356.418 215.732 356.26 215.781 356.102 215.829C355.944 215.872 355.8 215.912 355.671 215.948C355.395 216.027 355.158 216.125 354.959 216.243C354.761 216.36 354.613 216.504 354.517 216.673C354.42 216.839 354.387 217.034 354.417 217.26C354.459 217.586 354.611 217.821 354.87 217.962C355.132 218.1 355.448 218.144 355.816 218.096ZM363.802 213.475L364.459 218.477L362.059 218.793L360.922 210.14L363.209 209.839L363.41 211.366L363.511 211.352C363.637 210.824 363.906 210.384 364.318 210.031C364.729 209.675 365.256 209.455 365.899 209.371C366.499 209.292 367.041 209.354 367.522 209.558C368.004 209.762 368.4 210.092 368.712 210.548C369.024 211 369.224 211.562 369.312 212.234L370.036 217.744L367.636 218.059L366.969 212.978C366.903 212.448 366.713 212.053 366.4 211.792C366.086 211.528 365.689 211.427 365.209 211.49C364.886 211.533 364.609 211.64 364.38 211.811C364.154 211.982 363.989 212.21 363.885 212.495C363.784 212.776 363.757 213.102 363.802 213.475ZM375.859 217.149C374.973 217.266 374.186 217.179 373.498 216.887C372.813 216.591 372.256 216.13 371.826 215.502C371.4 214.875 371.129 214.123 371.014 213.248C370.898 212.362 370.966 211.562 371.22 210.848C371.477 210.131 371.899 209.542 372.484 209.083C373.069 208.62 373.799 208.331 374.674 208.216C375.429 208.117 376.108 208.167 376.711 208.367C377.314 208.566 377.813 208.892 378.209 209.344C378.605 209.797 378.863 210.355 378.985 211.019L376.72 211.317C376.6 210.893 376.385 210.568 376.076 210.341C375.771 210.11 375.398 210.024 374.959 210.081C374.587 210.13 374.276 210.274 374.024 210.514C373.776 210.749 373.601 211.068 373.497 211.472C373.393 211.875 373.377 212.349 373.449 212.893C373.521 213.445 373.658 213.905 373.859 214.272C374.064 214.639 374.319 214.905 374.623 215.071C374.928 215.238 375.266 215.296 375.638 215.247C375.912 215.211 376.151 215.123 376.354 214.981C376.56 214.839 376.721 214.652 376.836 214.419C376.953 214.182 377.015 213.908 377.02 213.598L379.285 213.3C379.334 213.966 379.23 214.572 378.973 215.118C378.72 215.659 378.33 216.108 377.803 216.464C377.277 216.82 376.629 217.048 375.859 217.149ZM385.203 215.92C384.313 216.037 383.523 215.958 382.834 215.682C382.148 215.401 381.588 214.952 381.155 214.332C380.722 213.709 380.445 212.941 380.325 212.029C380.208 211.139 380.278 210.335 380.536 209.617C380.793 208.899 381.21 208.312 381.788 207.854C382.37 207.395 383.085 207.11 383.934 206.998C384.504 206.923 385.048 206.945 385.564 207.065C386.083 207.18 386.551 207.395 386.967 207.711C387.387 208.026 387.736 208.446 388.015 208.971C388.294 209.492 388.481 210.121 388.578 210.857L388.665 211.516L381.358 212.477L381.163 210.99L386.21 210.326C386.165 209.981 386.05 209.685 385.864 209.438C385.679 209.191 385.443 209.01 385.157 208.895C384.874 208.775 384.558 208.738 384.208 208.784C383.844 208.832 383.532 208.959 383.273 209.165C383.017 209.367 382.828 209.619 382.707 209.922C382.586 210.22 382.546 210.541 382.587 210.883L382.773 212.297C382.829 212.725 382.957 213.085 383.156 213.376C383.358 213.666 383.617 213.877 383.932 214.007C384.247 214.138 384.606 214.176 385.007 214.124C385.274 214.088 385.513 214.019 385.725 213.915C385.937 213.81 386.111 213.673 386.249 213.502C386.387 213.331 386.483 213.131 386.537 212.902L388.776 212.757C388.734 213.305 388.564 213.801 388.267 214.245C387.973 214.685 387.567 215.051 387.048 215.345C386.532 215.635 385.917 215.826 385.203 215.92ZM392.141 214.985C391.769 215.034 391.432 214.944 391.131 214.716C390.833 214.484 390.66 214.182 390.611 213.81C390.563 213.442 390.653 213.11 390.881 212.812C391.113 212.514 391.415 212.341 391.787 212.292C392.147 212.244 392.48 212.334 392.785 212.562C393.09 212.789 393.267 213.087 393.315 213.455C393.347 213.703 393.313 213.938 393.213 214.162C393.116 214.381 392.974 214.566 392.787 214.716C392.6 214.863 392.385 214.953 392.141 214.985Z" fill="#003AA5"/>
<path d="M426.103 260.092L259.145 282.059C252.021 282.985 245.477 277.967 244.552 270.839L233.015 182.993C232.09 175.864 237.105 169.317 244.229 168.391L411.187 146.424C418.312 145.498 424.855 150.516 425.78 157.644L437.317 245.491C438.243 252.619 433.227 259.166 426.103 260.092ZM244.875 173.56C240.613 174.12 237.6 178.061 238.159 182.325L249.696 270.171C250.256 274.435 254.195 277.45 258.456 276.89L425.414 254.923C429.676 254.364 432.689 250.422 432.13 246.158L420.593 158.312C420.034 154.048 416.095 151.033 411.833 151.593L244.875 173.56Z" fill="url(#paint7_linear_3384_132080)"/>
<path d="M264.028 276.158L268.29 280.853L291.342 277.816L287.08 273.122L264.028 276.158Z" fill="#003AA5"/>
<path d="M243.819 225.483L237.685 218.721L242.054 251.93L248.188 258.713L243.819 225.483Z" fill="#003AA5"/>
<path d="M306.216 270.602L310.477 275.297L333.529 272.26L329.268 267.565L306.216 270.602Z" fill="#003AA5"/>
<path d="M238.158 182.302C237.641 178.318 240.246 174.657 244.055 173.731L240.267 169.553C235.338 171.922 232.239 177.263 232.992 182.991L234.069 191.154L240.203 197.916L238.158 182.324V182.302Z" fill="#003AA5"/>
<path d="M348.38 265.067L352.642 269.762L375.693 266.726L371.432 262.031L348.38 265.067Z" fill="#003AA5"/>
<path d="M286.154 168.111L281.893 163.417L258.841 166.453L263.103 171.148L286.154 168.111Z" fill="#003AA5"/>
<path d="M328.342 162.576L324.058 157.881L301.028 160.896L305.29 165.612L328.342 162.576Z" fill="#003AA5"/>
<path d="M390.544 259.511L394.806 264.206L417.857 261.169L413.596 256.475L390.544 259.511Z" fill="#003AA5"/>
<path d="M432.15 246.158C432.43 248.204 431.849 250.186 430.708 251.736L434.26 255.634C436.584 252.921 437.811 249.281 437.316 245.469L435.035 228.068L428.9 221.306L432.172 246.158H432.15Z" fill="#003AA5"/>
<path d="M370.508 157.019L366.246 152.324L343.194 155.361L347.456 160.056L370.508 157.019Z" fill="#003AA5"/>
<path d="M425.262 193.74L431.396 200.502L427.027 167.272L420.893 160.509L425.262 193.74Z" fill="#003AA5"/>
<path d="M411.829 151.593C412.131 151.55 412.432 151.571 412.734 151.571L408.386 146.79L385.334 149.827L389.596 154.522L411.808 151.593H411.829Z" fill="#003AA5"/>
<path d="M331.504 110.158C331.504 110.158 331.504 110.201 331.461 110.244C330.902 111.299 330.105 112.484 329.007 113.582C327.888 114.68 326.446 115.65 324.81 116.296C323.971 116.597 323.089 116.856 322.163 116.92C321.689 116.985 321.281 117.006 320.872 117.006C320.592 117.028 319.559 116.985 319.343 116.942C317.385 116.662 315.469 115.951 313.833 114.788C313.015 114.207 312.284 113.496 311.616 112.742C310.992 111.945 310.433 111.105 310.002 110.179C309.615 109.253 309.292 108.306 309.12 107.315C309.055 107.057 309.077 106.884 309.055 106.69C309.055 106.475 308.991 106.389 308.991 105.958V104.881V104.752C308.991 104.688 308.991 105.183 308.991 104.946V104.903V104.838V104.58C308.991 104.365 309.012 104.278 309.034 104.171C309.163 102.297 309.873 100.531 310.992 99.1097C311.573 98.4206 312.219 97.796 312.951 97.2792C313.683 96.7838 314.479 96.4177 315.275 96.1162C316.266 95.8578 316.373 95.7716 317.987 95.664H318.009C318.009 95.664 317.578 95.664 317.815 95.664H317.901H318.052H318.375L318.999 95.5994C319.408 95.5563 319.838 95.5348 320.226 95.4701C321.044 95.3194 321.84 95.1902 322.615 94.9533C325.714 94.1134 328.383 92.4981 330.363 90.5814C332.387 88.7078 333.743 86.5541 334.625 84.5513C335.551 82.5269 335.852 80.6963 336.024 79.0811C336.218 77.1859 336.003 76.6906 335.96 75.6353C335.873 74.9677 335.809 74.6016 335.809 74.6016H329.911C329.911 74.6016 329.868 74.9677 329.761 75.6353C329.675 75.9153 329.481 77.4013 329.201 77.9612C328.921 78.8011 328.448 79.9425 327.716 80.9978C326.984 82.0746 325.994 83.1514 324.767 84.0775C323.54 85.0035 321.991 85.6496 320.333 86.0157C319.925 86.1234 319.494 86.1449 319.064 86.188C318.848 86.2311 318.633 86.188 318.418 86.2096H317.492C316.545 86.1665 314.027 86.4249 312.434 86.9418C308.947 87.9755 305.654 90.1507 303.351 93.2088C301.005 96.2239 299.692 100.122 299.692 103.955C299.692 104.192 299.692 104.451 299.692 104.601V104.86L299.714 105.226V105.355L299.822 106.432C299.886 107.143 300.101 108.456 300.317 109.296C300.747 111.105 301.543 112.785 302.447 114.357C304.32 117.459 307.053 119.892 310.067 121.378C313.08 122.907 316.373 123.381 319.3 123.187C320.312 123.08 320.506 123.058 321.388 122.886C322.184 122.735 322.938 122.541 323.562 122.283C324.875 121.809 326.059 121.141 327.092 120.431C329.18 118.966 330.622 117.157 331.547 115.434C332.494 113.711 332.903 112.053 333.097 110.739C333.118 110.545 333.14 110.352 333.14 110.158C333.183 109.361 332.021 109.038 331.461 110.158H331.504Z" fill="url(#paint8_linear_3384_132080)"/>
<path d="M317.36 53.4956H346.848V72.5551C346.848 76.2594 343.834 79.2744 340.132 79.2744H324.054C320.352 79.2744 317.339 76.2594 317.339 72.5551V53.4956H317.36Z" fill="#003AA5"/>
<g style="mix-blend-mode:multiply" opacity="0.2">
<path d="M317.36 53.4956H346.848V72.5551C346.848 76.2594 343.834 79.2744 340.132 79.2744H324.054C320.352 79.2744 317.339 76.2594 317.339 72.5551V53.4956H317.36Z" fill="#003AA5"/>
</g>
<path d="M361.161 59.8911L334.085 70.0346C332.815 70.5084 331.394 70.5084 330.124 70.0346L303.048 59.8911C300.831 59.0727 299.389 56.9621 299.389 54.5932V34.9306C299.389 31.8079 301.928 29.2666 305.049 29.2666H359.181C362.302 29.2666 364.842 31.8079 364.842 34.9306V54.5932C364.842 56.9621 363.378 59.0727 361.183 59.8911H361.161Z" fill="#003AA5"/>
<path d="M314.604 50.0071V0" stroke="#003AA5" stroke-miterlimit="10"/>
<path d="M349.58 50.0071V0" stroke="#003AA5" stroke-miterlimit="10"/>
<path d="M332.103 50.0071V0" stroke="#003AA5" stroke-width="3" stroke-miterlimit="10"/>
<path d="M316.933 106.044L314.522 109.339L372.12 151.55L377.995 150.775L316.933 106.044Z" fill="#003AA5"/>
<defs>
<linearGradient id="paint0_linear_3384_132080" x1="541.146" y1="402.618" x2="629.521" y2="402.618" gradientUnits="userSpaceOnUse">
<stop stop-color="#E5A003"/>
<stop offset="1" stop-color="#FDDA42"/>
</linearGradient>
<linearGradient id="paint1_linear_3384_132080" x1="525.694" y1="477.585" x2="645" y2="477.585" gradientUnits="userSpaceOnUse">
<stop stop-color="#E5A003"/>
<stop offset="0.72" stop-color="#FDE442"/>
<stop offset="1" stop-color="#E5A003"/>
</linearGradient>
<linearGradient id="paint2_linear_3384_132080" x1="15.4756" y1="-249.801" x2="103.851" y2="-249.801" gradientUnits="userSpaceOnUse">
<stop stop-color="#E5A003"/>
<stop offset="1" stop-color="#FDDA42"/>
</linearGradient>
<linearGradient id="paint3_linear_3384_132080" x1="0" y1="-249.799" x2="119.305" y2="-249.799" gradientUnits="userSpaceOnUse">
<stop stop-color="#E5A003"/>
<stop offset="0.72" stop-color="#FDE442"/>
<stop offset="1" stop-color="#E5A003"/>
</linearGradient>
<linearGradient id="paint4_linear_3384_132080" x1="118.771" y1="294.559" x2="531.87" y2="378.106" gradientUnits="userSpaceOnUse">
<stop stop-color="#FDDA42"/>
<stop offset="1" stop-color="#E5A003"/>
</linearGradient>
<linearGradient id="paint5_linear_3384_132080" x1="585.729" y1="268.961" x2="114.544" y2="390.636" gradientUnits="userSpaceOnUse">
<stop stop-color="#FDDA42"/>
<stop offset="1" stop-color="#E5A003"/>
</linearGradient>
<linearGradient id="paint6_linear_3384_132080" x1="241.299" y1="226.617" x2="428.902" y2="201.966" gradientUnits="userSpaceOnUse">
<stop stop-color="#FDDA42"/>
<stop offset="1" stop-color="#E5A003"/>
</linearGradient>
<linearGradient id="paint7_linear_3384_132080" x1="232.886" y1="214.242" x2="437.425" y2="214.242" gradientUnits="userSpaceOnUse">
<stop stop-color="#FDDA42"/>
<stop offset="1" stop-color="#E5A003"/>
</linearGradient>
<linearGradient id="paint8_linear_3384_132080" x1="299.692" y1="98.9159" x2="336.089" y2="98.9159" gradientUnits="userSpaceOnUse">
<stop stop-color="#FDDA42"/>
<stop offset="1" stop-color="#E5A003"/>
</linearGradient>
</defs>
</svg>
