<svg width="758" height="801" viewBox="0 0 758 801" fill="none" xmlns="http://www.w3.org/2000/svg">
<path opacity="0.3" d="M807.962 368.604C843.063 331.29 882.811 295.457 904.549 248.1C923.121 207.671 927.717 158.833 902.796 120.004C878.045 81.4472 831.879 56.5089 792.54 35.3836C770.751 23.672 747.991 13.4924 723.989 7.33018C711.546 4.12991 698.796 2.15527 685.943 1.91695C672.274 1.66161 658.962 1.21902 645.293 0.487045C602.719 -1.77698 547.957 2.78512 517.827 37.2051C501.042 56.3897 496.6 82.8771 475.781 99.0997C457.72 113.178 434.484 118.846 412.014 120.259C360.401 123.493 309.622 102.794 258.077 113.637C218.584 121.944 182.956 145.453 158.085 177.013C130.168 212.454 120.142 253.683 122.219 298.198C123.512 326.115 127.649 354.696 121.64 382.341C115.614 410.071 97.6377 431.145 78.6403 451.198C45.0715 486.622 14.9072 526.047 3.33175 574.528C-6.11587 614.072 3.65518 657.207 43.9139 674.485C84.3259 691.831 128.262 679.132 167.312 664.782C191.552 655.879 215.912 646.21 241.769 643.317C270.129 640.15 298.217 646.517 324.125 657.922C374.07 679.898 413.597 718.234 457.566 749.487C495.663 776.571 537.352 796.113 584.437 799.687C669.295 806.122 770.7 762.459 800.523 677.209C814.686 636.712 803.451 595.721 789.629 556.841C775.96 518.387 756.86 476.289 766.512 434.618C772.572 408.437 790.089 387.754 807.962 368.57V368.604Z" fill="url(#paint0_linear_3384_131991)" fill-opacity="0.4"/>
<defs>
<linearGradient id="paint0_linear_3384_131991" x1="-0.0217315" y1="400.164" x2="919.989" y2="400.164" gradientUnits="userSpaceOnUse">
<stop stop-color="#C2E1FE"/>
<stop offset="1" stop-color="#259AFF" stop-opacity="0"/>
</linearGradient>
</defs>
</svg>
