<svg width="331" height="451" viewBox="0 0 331 451" fill="none" xmlns="http://www.w3.org/2000/svg">
<rect width="331" height="451" rx="16" fill="white"/>
<path d="M63 38H302C304.761 38 307 40.2386 307 43V111C307 113.761 304.761 116 302 116H68C65.2386 116 63 113.761 63 111V38Z" fill="#F6F6F6"/>
<path d="M76.696 70H75.2983L78.4389 61.2727H79.9602L83.1009 70H81.7031L79.2358 62.858H79.1676L76.696 70ZM76.9304 66.5824H81.4645V67.6903H76.9304V66.5824ZM89.038 63.4545L86.6644 70H85.3008L82.9229 63.4545H84.2908L85.9485 68.4915H86.0167L87.6701 63.4545H89.038ZM92.8338 70.1321C92.1889 70.1321 91.6335 69.9943 91.1676 69.7188C90.7045 69.4403 90.3466 69.0497 90.0938 68.5469C89.8438 68.0412 89.7188 67.4489 89.7188 66.7699C89.7188 66.0994 89.8438 65.5085 90.0938 64.9972C90.3466 64.4858 90.6989 64.0866 91.1506 63.7997C91.6051 63.5128 92.1364 63.3693 92.7443 63.3693C93.1136 63.3693 93.4716 63.4304 93.8182 63.5526C94.1648 63.6747 94.4759 63.8665 94.7514 64.1278C95.027 64.3892 95.2443 64.7287 95.4034 65.1463C95.5625 65.5611 95.642 66.0653 95.642 66.6591V67.1108H90.4389V66.1562H94.3935C94.3935 65.821 94.3253 65.5241 94.1889 65.2656C94.0526 65.0043 93.8608 64.7983 93.6136 64.6477C93.3693 64.4972 93.0824 64.4219 92.7528 64.4219C92.3949 64.4219 92.0824 64.5099 91.8153 64.6861C91.5511 64.8594 91.3466 65.0866 91.2017 65.3679C91.0597 65.6463 90.9886 65.9489 90.9886 66.2756V67.0213C90.9886 67.4588 91.0653 67.831 91.2188 68.1378C91.375 68.4446 91.5923 68.679 91.8707 68.8409C92.1491 69 92.4744 69.0795 92.8466 69.0795C93.0881 69.0795 93.3082 69.0455 93.5071 68.9773C93.706 68.9062 93.8778 68.8011 94.0227 68.6619C94.1676 68.5227 94.2784 68.3509 94.3551 68.1463L95.5611 68.3636C95.4645 68.7187 95.2912 69.0298 95.0412 69.2969C94.794 69.5611 94.483 69.767 94.108 69.9148C93.7358 70.0597 93.3111 70.1321 92.8338 70.1321ZM96.9194 70V69.1264L100.465 64.6222V64.5625H97.0344V63.4545H102.054V64.3835L98.6452 68.8324V68.892H102.174V70H96.9194ZM107.533 65.7599V66.8636H103.664V65.7599H107.533ZM114.831 63.4545L112.457 70H111.094L108.716 63.4545H110.084L111.741 68.4915H111.81L113.463 63.4545H114.831ZM118.563 70.1321C117.949 70.1321 117.414 69.9915 116.956 69.7102C116.499 69.429 116.144 69.0355 115.891 68.5298C115.638 68.0241 115.512 67.4332 115.512 66.7571C115.512 66.0781 115.638 65.4844 115.891 64.9759C116.144 64.4673 116.499 64.0724 116.956 63.7912C117.414 63.5099 117.949 63.3693 118.563 63.3693C119.176 63.3693 119.712 63.5099 120.169 63.7912C120.627 64.0724 120.982 64.4673 121.235 64.9759C121.488 65.4844 121.614 66.0781 121.614 66.7571C121.614 67.4332 121.488 68.0241 121.235 68.5298C120.982 69.0355 120.627 69.429 120.169 69.7102C119.712 69.9915 119.176 70.1321 118.563 70.1321ZM118.567 69.0625C118.965 69.0625 119.294 68.9574 119.556 68.7472C119.817 68.5369 120.01 68.2571 120.135 67.9077C120.263 67.5582 120.327 67.1733 120.327 66.7528C120.327 66.3352 120.263 65.9517 120.135 65.6023C120.01 65.25 119.817 64.9673 119.556 64.7543C119.294 64.5412 118.965 64.4347 118.567 64.4347C118.167 64.4347 117.834 64.5412 117.57 64.7543C117.309 64.9673 117.114 65.25 116.986 65.6023C116.861 65.9517 116.799 66.3352 116.799 66.7528C116.799 67.1733 116.861 67.5582 116.986 67.9077C117.114 68.2571 117.309 68.5369 117.57 68.7472C117.834 68.9574 118.167 69.0625 118.567 69.0625ZM127.183 67.2855V63.4545H128.461V70H127.208V68.8665H127.14C126.989 69.2159 126.748 69.5071 126.415 69.7401C126.086 69.9702 125.675 70.0852 125.184 70.0852C124.763 70.0852 124.391 69.9929 124.067 69.8082C123.746 69.6207 123.494 69.3438 123.309 68.9773C123.127 68.6108 123.036 68.1577 123.036 67.6179V63.4545H124.31V67.4645C124.31 67.9105 124.434 68.2656 124.681 68.5298C124.928 68.794 125.249 68.9261 125.644 68.9261C125.883 68.9261 126.12 68.8665 126.356 68.7472C126.594 68.6278 126.792 68.4474 126.948 68.206C127.107 67.9645 127.185 67.6577 127.183 67.2855ZM135.078 65.0526L133.923 65.2571C133.875 65.1094 133.798 64.9687 133.693 64.8352C133.591 64.7017 133.451 64.5923 133.275 64.5071C133.099 64.4219 132.879 64.3793 132.615 64.3793C132.254 64.3793 131.953 64.4602 131.711 64.6222C131.47 64.7812 131.349 64.9872 131.349 65.2401C131.349 65.4588 131.43 65.6349 131.592 65.7685C131.754 65.902 132.015 66.0114 132.376 66.0966L133.416 66.3352C134.018 66.4744 134.467 66.6889 134.762 66.9787C135.058 67.2685 135.206 67.6449 135.206 68.108C135.206 68.5 135.092 68.8494 134.865 69.1562C134.64 69.4602 134.326 69.6989 133.923 69.8722C133.522 70.0455 133.058 70.1321 132.529 70.1321C131.797 70.1321 131.199 69.9759 130.735 69.6634C130.272 69.348 129.988 68.9006 129.883 68.321L131.115 68.1335C131.191 68.4545 131.349 68.6974 131.588 68.8622C131.826 69.0241 132.137 69.1051 132.521 69.1051C132.939 69.1051 133.272 69.0185 133.522 68.8452C133.772 68.669 133.897 68.4545 133.897 68.2017C133.897 67.9972 133.821 67.8253 133.667 67.6861C133.517 67.5469 133.285 67.4418 132.973 67.3707L131.865 67.1278C131.254 66.9886 130.802 66.767 130.51 66.4631C130.22 66.1591 130.075 65.7741 130.075 65.3082C130.075 64.9219 130.183 64.5838 130.399 64.294C130.615 64.0043 130.913 63.7784 131.294 63.6165C131.674 63.4517 132.11 63.3693 132.602 63.3693C133.309 63.3693 133.866 63.5227 134.272 63.8295C134.679 64.1335 134.947 64.5412 135.078 65.0526ZM144.201 72.4545V68.9815H144.125C144.048 69.1207 143.937 69.2798 143.792 69.4588C143.65 69.6378 143.454 69.794 143.204 69.9276C142.954 70.0611 142.63 70.1278 142.233 70.1278C141.704 70.1278 141.233 69.9929 140.818 69.723C140.406 69.4503 140.082 69.0625 139.846 68.5597C139.613 68.054 139.497 67.4474 139.497 66.7401C139.497 66.0327 139.615 65.4276 139.85 64.9247C140.089 64.4219 140.416 64.0369 140.831 63.7699C141.245 63.5028 141.716 63.3693 142.241 63.3693C142.647 63.3693 142.974 63.4375 143.221 63.5739C143.471 63.7074 143.664 63.8636 143.801 64.0426C143.94 64.2216 144.048 64.3793 144.125 64.5156H144.231V63.4545H145.475V72.4545H144.201ZM142.514 69.0412C142.88 69.0412 143.19 68.9446 143.443 68.7514C143.699 68.5554 143.892 68.2841 144.022 67.9375C144.156 67.5909 144.223 67.1875 144.223 66.7273C144.223 66.2727 144.157 65.875 144.027 65.5341C143.896 65.1932 143.704 64.9276 143.451 64.7372C143.199 64.5469 142.886 64.4517 142.514 64.4517C142.13 64.4517 141.811 64.5511 141.555 64.75C141.299 64.9489 141.106 65.2202 140.975 65.5639C140.848 65.9077 140.784 66.2955 140.784 66.7273C140.784 67.1648 140.849 67.5582 140.98 67.9077C141.11 68.2571 141.304 68.5341 141.559 68.7386C141.818 68.9403 142.136 69.0412 142.514 69.0412ZM151.335 67.2855V63.4545H152.613V70H151.36V68.8665H151.292C151.142 69.2159 150.9 69.5071 150.568 69.7401C150.238 69.9702 149.828 70.0852 149.336 70.0852C148.916 70.0852 148.544 69.9929 148.22 69.8082C147.899 69.6207 147.646 69.3438 147.461 68.9773C147.279 68.6108 147.189 68.1577 147.189 67.6179V63.4545H148.463V67.4645C148.463 67.9105 148.586 68.2656 148.833 68.5298C149.081 68.794 149.402 68.9261 149.797 68.9261C150.035 68.9261 150.272 68.8665 150.508 68.7472C150.747 68.6278 150.944 68.4474 151.1 68.206C151.26 67.9645 151.338 67.6577 151.335 67.2855ZM157.146 70.1321C156.501 70.1321 155.946 69.9943 155.48 69.7188C155.017 69.4403 154.659 69.0497 154.406 68.5469C154.156 68.0412 154.031 67.4489 154.031 66.7699C154.031 66.0994 154.156 65.5085 154.406 64.9972C154.659 64.4858 155.011 64.0866 155.463 63.7997C155.918 63.5128 156.449 63.3693 157.057 63.3693C157.426 63.3693 157.784 63.4304 158.131 63.5526C158.477 63.6747 158.788 63.8665 159.064 64.1278C159.339 64.3892 159.557 64.7287 159.716 65.1463C159.875 65.5611 159.955 66.0653 159.955 66.6591V67.1108H154.751V66.1562H158.706C158.706 65.821 158.638 65.5241 158.501 65.2656C158.365 65.0043 158.173 64.7983 157.926 64.6477C157.682 64.4972 157.395 64.4219 157.065 64.4219C156.707 64.4219 156.395 64.5099 156.128 64.6861C155.864 64.8594 155.659 65.0866 155.514 65.3679C155.372 65.6463 155.301 65.9489 155.301 66.2756V67.0213C155.301 67.4588 155.378 67.831 155.531 68.1378C155.688 68.4446 155.905 68.679 156.183 68.8409C156.462 69 156.787 69.0795 157.159 69.0795C157.401 69.0795 157.621 69.0455 157.82 68.9773C158.018 68.9062 158.19 68.8011 158.335 68.6619C158.48 68.5227 158.591 68.3509 158.668 68.1463L159.874 68.3636C159.777 68.7187 159.604 69.0298 159.354 69.2969C159.107 69.5611 158.795 69.767 158.42 69.9148C158.048 70.0597 157.624 70.1321 157.146 70.1321ZM162.642 61.2727V70H161.368V61.2727H162.642ZM168.776 72.4545V68.9815H168.699C168.622 69.1207 168.511 69.2798 168.366 69.4588C168.224 69.6378 168.028 69.794 167.778 69.9276C167.528 70.0611 167.205 70.1278 166.807 70.1278C166.278 70.1278 165.807 69.9929 165.392 69.723C164.98 69.4503 164.656 69.0625 164.42 68.5597C164.188 68.054 164.071 67.4474 164.071 66.7401C164.071 66.0327 164.189 65.4276 164.425 64.9247C164.663 64.4219 164.99 64.0369 165.405 63.7699C165.82 63.5028 166.29 63.3693 166.815 63.3693C167.222 63.3693 167.548 63.4375 167.795 63.5739C168.045 63.7074 168.239 63.8636 168.375 64.0426C168.514 64.2216 168.622 64.3793 168.699 64.5156H168.805V63.4545H170.05V72.4545H168.776ZM167.088 69.0412C167.455 69.0412 167.764 68.9446 168.017 68.7514C168.273 68.5554 168.466 68.2841 168.597 67.9375C168.73 67.5909 168.797 67.1875 168.797 66.7273C168.797 66.2727 168.732 65.875 168.601 65.5341C168.47 65.1932 168.278 64.9276 168.026 64.7372C167.773 64.5469 167.46 64.4517 167.088 64.4517C166.705 64.4517 166.385 64.5511 166.129 64.75C165.874 64.9489 165.68 65.2202 165.55 65.5639C165.422 65.9077 165.358 66.2955 165.358 66.7273C165.358 67.1648 165.423 67.5582 165.554 67.9077C165.685 68.2571 165.878 68.5341 166.134 68.7386C166.392 68.9403 166.71 69.0412 167.088 69.0412ZM175.909 67.2855V63.4545H177.188V70H175.935V68.8665H175.866C175.716 69.2159 175.474 69.5071 175.142 69.7401C174.813 69.9702 174.402 70.0852 173.911 70.0852C173.49 70.0852 173.118 69.9929 172.794 69.8082C172.473 69.6207 172.22 69.3438 172.036 68.9773C171.854 68.6108 171.763 68.1577 171.763 67.6179V63.4545H173.037V67.4645C173.037 67.9105 173.161 68.2656 173.408 68.5298C173.655 68.794 173.976 68.9261 174.371 68.9261C174.609 68.9261 174.847 68.8665 175.082 68.7472C175.321 68.6278 175.518 68.4474 175.675 68.206C175.834 67.9645 175.912 67.6577 175.909 67.2855ZM181.721 70.1321C181.076 70.1321 180.52 69.9943 180.054 69.7188C179.591 69.4403 179.233 69.0497 178.98 68.5469C178.73 68.0412 178.605 67.4489 178.605 66.7699C178.605 66.0994 178.73 65.5085 178.98 64.9972C179.233 64.4858 179.586 64.0866 180.037 63.7997C180.492 63.5128 181.023 63.3693 181.631 63.3693C182 63.3693 182.358 63.4304 182.705 63.5526C183.051 63.6747 183.363 63.8665 183.638 64.1278C183.914 64.3892 184.131 64.7287 184.29 65.1463C184.449 65.5611 184.529 66.0653 184.529 66.6591V67.1108H179.326V66.1562H183.28C183.28 65.821 183.212 65.5241 183.076 65.2656C182.939 65.0043 182.748 64.7983 182.5 64.6477C182.256 64.4972 181.969 64.4219 181.64 64.4219C181.282 64.4219 180.969 64.5099 180.702 64.6861C180.438 64.8594 180.233 65.0866 180.088 65.3679C179.946 65.6463 179.875 65.9489 179.875 66.2756V67.0213C179.875 67.4588 179.952 67.831 180.105 68.1378C180.262 68.4446 180.479 68.679 180.757 68.8409C181.036 69 181.361 69.0795 181.733 69.0795C181.975 69.0795 182.195 69.0455 182.394 68.9773C182.593 68.9062 182.765 68.8011 182.909 68.6619C183.054 68.5227 183.165 68.3509 183.242 68.1463L184.448 68.3636C184.351 68.7187 184.178 69.0298 183.928 69.2969C183.681 69.5611 183.37 69.767 182.995 69.9148C182.623 70.0597 182.198 70.1321 181.721 70.1321ZM191.875 70.1321C191.242 70.1321 190.696 69.9886 190.239 69.7017C189.784 69.4119 189.435 69.0128 189.191 68.5043C188.946 67.9957 188.824 67.4134 188.824 66.7571C188.824 66.0923 188.949 65.5057 189.199 64.9972C189.449 64.4858 189.801 64.0866 190.256 63.7997C190.711 63.5128 191.246 63.3693 191.863 63.3693C192.36 63.3693 192.803 63.4616 193.192 63.6463C193.581 63.8281 193.895 64.0838 194.134 64.4134C194.375 64.7429 194.519 65.1278 194.564 65.5682H193.324C193.256 65.2614 193.1 64.9972 192.855 64.7756C192.614 64.554 192.29 64.4432 191.884 64.4432C191.529 64.4432 191.218 64.5369 190.951 64.7244C190.686 64.9091 190.48 65.1733 190.333 65.517C190.185 65.858 190.111 66.2614 190.111 66.7273C190.111 67.2045 190.184 67.6165 190.328 67.9631C190.473 68.3097 190.678 68.5781 190.942 68.7685C191.209 68.9588 191.523 69.054 191.884 69.054C192.125 69.054 192.344 69.0099 192.54 68.9219C192.739 68.831 192.905 68.7017 193.039 68.5341C193.175 68.3665 193.27 68.1648 193.324 67.929H194.564C194.519 68.3523 194.381 68.7301 194.151 69.0625C193.921 69.3949 193.613 69.6562 193.226 69.8466C192.843 70.0369 192.392 70.1321 191.875 70.1321ZM197.201 66.1136V70H195.927V61.2727H197.184V64.5199H197.265C197.418 64.1676 197.653 63.8878 197.968 63.6804C198.283 63.473 198.695 63.3693 199.204 63.3693C199.653 63.3693 200.045 63.4616 200.38 63.6463C200.718 63.831 200.979 64.1065 201.164 64.473C201.352 64.8366 201.445 65.2912 201.445 65.8366V70H200.171V65.9901C200.171 65.5099 200.048 65.1378 199.8 64.8736C199.553 64.6065 199.21 64.473 198.769 64.473C198.468 64.473 198.198 64.5369 197.96 64.6648C197.724 64.7926 197.538 64.9801 197.401 65.2273C197.268 65.4716 197.201 65.767 197.201 66.1136ZM205.903 70.1321C205.289 70.1321 204.754 69.9915 204.296 69.7102C203.839 69.429 203.484 69.0355 203.231 68.5298C202.978 68.0241 202.852 67.4332 202.852 66.7571C202.852 66.0781 202.978 65.4844 203.231 64.9759C203.484 64.4673 203.839 64.0724 204.296 63.7912C204.754 63.5099 205.289 63.3693 205.903 63.3693C206.516 63.3693 207.052 63.5099 207.509 63.7912C207.967 64.0724 208.322 64.4673 208.575 64.9759C208.827 65.4844 208.954 66.0781 208.954 66.7571C208.954 67.4332 208.827 68.0241 208.575 68.5298C208.322 69.0355 207.967 69.429 207.509 69.7102C207.052 69.9915 206.516 70.1321 205.903 70.1321ZM205.907 69.0625C206.305 69.0625 206.634 68.9574 206.896 68.7472C207.157 68.5369 207.35 68.2571 207.475 67.9077C207.603 67.5582 207.667 67.1733 207.667 66.7528C207.667 66.3352 207.603 65.9517 207.475 65.6023C207.35 65.25 207.157 64.9673 206.896 64.7543C206.634 64.5412 206.305 64.4347 205.907 64.4347C205.506 64.4347 205.174 64.5412 204.91 64.7543C204.648 64.9673 204.454 65.25 204.326 65.6023C204.201 65.9517 204.138 66.3352 204.138 66.7528C204.138 67.1733 204.201 67.5582 204.326 67.9077C204.454 68.2571 204.648 68.5369 204.91 68.7472C205.174 68.9574 205.506 69.0625 205.907 69.0625ZM215.281 65.0526L214.126 65.2571C214.078 65.1094 214.001 64.9687 213.896 64.8352C213.794 64.7017 213.654 64.5923 213.478 64.5071C213.302 64.4219 213.082 64.3793 212.818 64.3793C212.457 64.3793 212.156 64.4602 211.914 64.6222C211.673 64.7812 211.552 64.9872 211.552 65.2401C211.552 65.4588 211.633 65.6349 211.795 65.7685C211.957 65.902 212.218 66.0114 212.579 66.0966L213.619 66.3352C214.221 66.4744 214.67 66.6889 214.966 66.9787C215.261 67.2685 215.409 67.6449 215.409 68.108C215.409 68.5 215.295 68.8494 215.068 69.1562C214.843 69.4602 214.529 69.6989 214.126 69.8722C213.725 70.0455 213.261 70.1321 212.733 70.1321C212 70.1321 211.402 69.9759 210.939 69.6634C210.475 69.348 210.191 68.9006 210.086 68.321L211.318 68.1335C211.395 68.4545 211.552 68.6974 211.791 68.8622C212.029 69.0241 212.341 69.1051 212.724 69.1051C213.142 69.1051 213.475 69.0185 213.725 68.8452C213.975 68.669 214.1 68.4545 214.1 68.2017C214.1 67.9972 214.024 67.8253 213.87 67.6861C213.72 67.5469 213.488 67.4418 213.176 67.3707L212.068 67.1278C211.457 66.9886 211.005 66.767 210.713 66.4631C210.423 66.1591 210.278 65.7741 210.278 65.3082C210.278 64.9219 210.386 64.5838 210.602 64.294C210.818 64.0043 211.116 63.7784 211.497 63.6165C211.877 63.4517 212.314 63.3693 212.805 63.3693C213.512 63.3693 214.069 63.5227 214.475 63.8295C214.882 64.1335 215.15 64.5412 215.281 65.0526ZM219.631 70.1321C218.986 70.1321 218.43 69.9943 217.964 69.7188C217.501 69.4403 217.143 69.0497 216.891 68.5469C216.641 68.0412 216.516 67.4489 216.516 66.7699C216.516 66.0994 216.641 65.5085 216.891 64.9972C217.143 64.4858 217.496 64.0866 217.947 63.7997C218.402 63.5128 218.933 63.3693 219.541 63.3693C219.911 63.3693 220.268 63.4304 220.615 63.5526C220.962 63.6747 221.273 63.8665 221.548 64.1278C221.824 64.3892 222.041 64.7287 222.2 65.1463C222.359 65.5611 222.439 66.0653 222.439 66.6591V67.1108H217.236V66.1562H221.19C221.19 65.821 221.122 65.5241 220.986 65.2656C220.849 65.0043 220.658 64.7983 220.411 64.6477C220.166 64.4972 219.879 64.4219 219.55 64.4219C219.192 64.4219 218.879 64.5099 218.612 64.6861C218.348 64.8594 218.143 65.0866 217.999 65.3679C217.857 65.6463 217.786 65.9489 217.786 66.2756V67.0213C217.786 67.4588 217.862 67.831 218.016 68.1378C218.172 68.4446 218.389 68.679 218.668 68.8409C218.946 69 219.271 69.0795 219.643 69.0795C219.885 69.0795 220.105 69.0455 220.304 68.9773C220.503 68.9062 220.675 68.8011 220.82 68.6619C220.964 68.5227 221.075 68.3509 221.152 68.1463L222.358 68.3636C222.261 68.7187 222.088 69.0298 221.838 69.2969C221.591 69.5611 221.28 69.767 220.905 69.9148C220.533 70.0597 220.108 70.1321 219.631 70.1321ZM228.933 70.1449C228.518 70.1449 228.143 70.0682 227.808 69.9148C227.473 69.7585 227.207 69.5327 227.011 69.2372C226.818 68.9418 226.722 68.5795 226.722 68.1506C226.722 67.7812 226.793 67.4773 226.935 67.2386C227.077 67 227.268 66.8111 227.51 66.6719C227.751 66.5327 228.021 66.4276 228.32 66.3565C228.618 66.2855 228.922 66.2315 229.232 66.1946C229.624 66.1491 229.942 66.1122 230.186 66.0838C230.43 66.0526 230.608 66.0028 230.719 65.9347C230.83 65.8665 230.885 65.7557 230.885 65.6023V65.5724C230.885 65.2003 230.78 64.9119 230.57 64.7074C230.362 64.5028 230.053 64.4006 229.641 64.4006C229.212 64.4006 228.874 64.4957 228.626 64.6861C228.382 64.8736 228.213 65.0824 228.119 65.3125L226.922 65.0398C227.064 64.642 227.271 64.321 227.544 64.0767C227.82 63.8295 228.136 63.6506 228.494 63.5398C228.852 63.4261 229.229 63.3693 229.624 63.3693C229.885 63.3693 230.162 63.4006 230.455 63.4631C230.75 63.5227 231.026 63.6335 231.281 63.7955C231.54 63.9574 231.751 64.1889 231.916 64.4901C232.081 64.7884 232.163 65.1761 232.163 65.6534V70H230.919V69.1051H230.868C230.786 69.2699 230.662 69.4318 230.497 69.5909C230.332 69.75 230.121 69.8821 229.862 69.9872C229.604 70.0923 229.294 70.1449 228.933 70.1449ZM229.21 69.1222C229.563 69.1222 229.864 69.0526 230.114 68.9134C230.366 68.7741 230.558 68.5923 230.689 68.3679C230.822 68.1406 230.889 67.8977 230.889 67.6392V66.7955C230.844 66.8409 230.756 66.8835 230.625 66.9233C230.497 66.9602 230.351 66.9929 230.186 67.0213C230.021 67.0469 229.861 67.071 229.705 67.0938C229.548 67.1136 229.418 67.1307 229.312 67.1449C229.065 67.1761 228.839 67.2287 228.635 67.3026C228.433 67.3764 228.271 67.483 228.149 67.6222C228.03 67.7585 227.97 67.9403 227.97 68.1676C227.97 68.483 228.087 68.7216 228.32 68.8835C228.553 69.0426 228.849 69.1222 229.21 69.1222ZM229.193 62.581L227.876 60.6165H229.219L230.212 62.581H229.193ZM78.3068 92.1278C77.7784 92.1278 77.3068 91.9929 76.892 91.723C76.4801 91.4503 76.1563 91.0625 75.9205 90.5597C75.6875 90.054 75.571 89.4474 75.571 88.7401C75.571 88.0327 75.6889 87.4276 75.9247 86.9247C76.1634 86.4219 76.4901 86.0369 76.9048 85.7699C77.3196 85.5028 77.7898 85.3693 78.3153 85.3693C78.7216 85.3693 79.0483 85.4375 79.2955 85.5739C79.5455 85.7074 79.7386 85.8636 79.875 86.0426C80.0142 86.2216 80.1222 86.3793 80.1989 86.5156H80.2756V83.2727H81.5497V92H80.3054V90.9815H80.1989C80.1222 91.1207 80.0114 91.2798 79.8665 91.4588C79.7244 91.6378 79.5284 91.794 79.2784 91.9276C79.0284 92.0611 78.7045 92.1278 78.3068 92.1278ZM78.5881 91.0412C78.9545 91.0412 79.2642 90.9446 79.517 90.7514C79.7727 90.5554 79.9659 90.2841 80.0966 89.9375C80.2301 89.5909 80.2969 89.1875 80.2969 88.7273C80.2969 88.2727 80.2315 87.875 80.1009 87.5341C79.9702 87.1932 79.7784 86.9276 79.5256 86.7372C79.2727 86.5469 78.9602 86.4517 78.5881 86.4517C78.2045 86.4517 77.8849 86.5511 77.6293 86.75C77.3736 86.9489 77.1804 87.2202 77.0497 87.5639C76.9219 87.9077 76.858 88.2955 76.858 88.7273C76.858 89.1648 76.9233 89.5582 77.054 89.9077C77.1847 90.2571 77.3778 90.5341 77.6335 90.7386C77.892 90.9403 78.2102 91.0412 78.5881 91.0412ZM86.1893 92.1321C85.5444 92.1321 84.989 91.9943 84.5231 91.7188C84.06 91.4403 83.7021 91.0497 83.4492 90.5469C83.1992 90.0412 83.0742 89.4489 83.0742 88.7699C83.0742 88.0994 83.1992 87.5085 83.4492 86.9972C83.7021 86.4858 84.0543 86.0866 84.506 85.7997C84.9606 85.5128 85.4918 85.3693 86.0998 85.3693C86.4691 85.3693 86.8271 85.4304 87.1737 85.5526C87.5202 85.6747 87.8313 85.8665 88.1069 86.1278C88.3825 86.3892 88.5998 86.7287 88.7589 87.1463C88.918 87.5611 88.9975 88.0653 88.9975 88.6591V89.1108H83.7944V88.1562H87.7489C87.7489 87.821 87.6808 87.5241 87.5444 87.2656C87.408 87.0043 87.2163 86.7983 86.9691 86.6477C86.7248 86.4972 86.4379 86.4219 86.1083 86.4219C85.7504 86.4219 85.4379 86.5099 85.1708 86.6861C84.9066 86.8594 84.7021 87.0866 84.5572 87.3679C84.4151 87.6463 84.3441 87.9489 84.3441 88.2756V89.0213C84.3441 89.4588 84.4208 89.831 84.5742 90.1378C84.7305 90.4446 84.9478 90.679 85.2262 90.8409C85.5046 91 85.8299 91.0795 86.2021 91.0795C86.4435 91.0795 86.6637 91.0455 86.8626 90.9773C87.0614 90.9062 87.2333 90.8011 87.3782 90.6619C87.5231 90.5227 87.6339 90.3509 87.7106 90.1463L88.9165 90.3636C88.82 90.7187 88.6467 91.0298 88.3967 91.2969C88.1495 91.5611 87.8384 91.767 87.4634 91.9148C87.0913 92.0597 86.6665 92.1321 86.1893 92.1321ZM90.4112 92V85.4545H91.6342V86.5199H91.7152C91.8516 86.1591 92.0746 85.8778 92.3842 85.6761C92.6939 85.4716 93.0646 85.3693 93.4964 85.3693C93.9339 85.3693 94.3004 85.4716 94.5959 85.6761C94.8942 85.8807 95.1143 86.1619 95.2564 86.5199H95.3246C95.4808 86.1705 95.7294 85.892 96.0703 85.6847C96.4112 85.4744 96.8175 85.3693 97.2891 85.3693C97.8828 85.3693 98.3672 85.5554 98.7422 85.9276C99.12 86.2997 99.3089 86.8608 99.3089 87.6108V92H98.0348V87.7301C98.0348 87.2869 97.9141 86.9659 97.6726 86.767C97.4311 86.5682 97.1428 86.4688 96.8075 86.4688C96.3928 86.4688 96.0703 86.5966 95.8402 86.8523C95.6101 87.1051 95.495 87.4304 95.495 87.8281V92H94.2251V87.6491C94.2251 87.294 94.1143 87.0085 93.8928 86.7926C93.6712 86.5767 93.3828 86.4688 93.0277 86.4688C92.7862 86.4688 92.5632 86.5327 92.3587 86.6605C92.157 86.7855 91.9936 86.9602 91.8686 87.1847C91.7464 87.4091 91.6854 87.669 91.6854 87.9645V92H90.4112ZM102.922 92.1449C102.507 92.1449 102.132 92.0682 101.797 91.9148C101.461 91.7585 101.196 91.5327 101 91.2372C100.806 90.9418 100.71 90.5795 100.71 90.1506C100.71 89.7812 100.781 89.4773 100.923 89.2386C101.065 89 101.257 88.8111 101.498 88.6719C101.74 88.5327 102.01 88.4276 102.308 88.3565C102.606 88.2855 102.91 88.2315 103.22 88.1946C103.612 88.1491 103.93 88.1122 104.174 88.0838C104.419 88.0526 104.596 88.0028 104.707 87.9347C104.818 87.8665 104.873 87.7557 104.873 87.6023V87.5724C104.873 87.2003 104.768 86.9119 104.558 86.7074C104.35 86.5028 104.041 86.4006 103.629 86.4006C103.2 86.4006 102.862 86.4957 102.615 86.6861C102.37 86.8736 102.201 87.0824 102.108 87.3125L100.91 87.0398C101.052 86.642 101.26 86.321 101.532 86.0767C101.808 85.8295 102.125 85.6506 102.483 85.5398C102.841 85.4261 103.217 85.3693 103.612 85.3693C103.873 85.3693 104.15 85.4006 104.443 85.4631C104.738 85.5227 105.014 85.6335 105.27 85.7955C105.528 85.9574 105.74 86.1889 105.904 86.4901C106.069 86.7884 106.152 87.1761 106.152 87.6534V92H104.907V91.1051H104.856C104.774 91.2699 104.65 91.4318 104.485 91.5909C104.321 91.75 104.109 91.8821 103.85 91.9872C103.592 92.0923 103.282 92.1449 102.922 92.1449ZM103.199 91.1222C103.551 91.1222 103.852 91.0526 104.102 90.9134C104.355 90.7741 104.547 90.5923 104.677 90.3679C104.811 90.1406 104.877 89.8977 104.877 89.6392V88.7955C104.832 88.8409 104.744 88.8835 104.613 88.9233C104.485 88.9602 104.339 88.9929 104.174 89.0213C104.01 89.0469 103.849 89.071 103.693 89.0938C103.537 89.1136 103.406 89.1307 103.301 89.1449C103.054 89.1761 102.828 89.2287 102.623 89.3026C102.422 89.3764 102.26 89.483 102.137 89.6222C102.018 89.7585 101.958 89.9403 101.958 90.1676C101.958 90.483 102.075 90.7216 102.308 90.8835C102.541 91.0426 102.838 91.1222 103.199 91.1222ZM109.123 88.1136V92H107.849V85.4545H109.072V86.5199H109.153C109.303 86.1733 109.539 85.8949 109.86 85.6847C110.184 85.4744 110.592 85.3693 111.083 85.3693C111.529 85.3693 111.92 85.4631 112.255 85.6506C112.59 85.8352 112.85 86.1108 113.035 86.4773C113.219 86.8437 113.312 87.2969 113.312 87.8366V92H112.038V87.9901C112.038 87.5156 111.914 87.1449 111.667 86.8778C111.42 86.608 111.08 86.473 110.648 86.473C110.353 86.473 110.09 86.5369 109.86 86.6648C109.633 86.7926 109.452 86.9801 109.319 87.2273C109.188 87.4716 109.123 87.767 109.123 88.1136ZM117.471 92.1278C116.942 92.1278 116.471 91.9929 116.056 91.723C115.644 91.4503 115.32 91.0625 115.085 90.5597C114.852 90.054 114.735 89.4474 114.735 88.7401C114.735 88.0327 114.853 87.4276 115.089 86.9247C115.327 86.4219 115.654 86.0369 116.069 85.7699C116.484 85.5028 116.954 85.3693 117.479 85.3693C117.886 85.3693 118.212 85.4375 118.46 85.5739C118.71 85.7074 118.903 85.8636 119.039 86.0426C119.178 86.2216 119.286 86.3793 119.363 86.5156H119.44V83.2727H120.714V92H119.469V90.9815H119.363C119.286 91.1207 119.175 91.2798 119.031 91.4588C118.888 91.6378 118.692 91.794 118.442 91.9276C118.192 92.0611 117.869 92.1278 117.471 92.1278ZM117.752 91.0412C118.119 91.0412 118.428 90.9446 118.681 90.7514C118.937 90.5554 119.13 90.2841 119.261 89.9375C119.394 89.5909 119.461 89.1875 119.461 88.7273C119.461 88.2727 119.396 87.875 119.265 87.5341C119.134 87.1932 118.942 86.9276 118.69 86.7372C118.437 86.5469 118.124 86.4517 117.752 86.4517C117.369 86.4517 117.049 86.5511 116.793 86.75C116.538 86.9489 116.344 87.2202 116.214 87.5639C116.086 87.9077 116.022 88.2955 116.022 88.7273C116.022 89.1648 116.087 89.5582 116.218 89.9077C116.349 90.2571 116.542 90.5341 116.798 90.7386C117.056 90.9403 117.374 91.0412 117.752 91.0412ZM125.353 92.1321C124.708 92.1321 124.153 91.9943 123.687 91.7188C123.224 91.4403 122.866 91.0497 122.613 90.5469C122.363 90.0412 122.238 89.4489 122.238 88.7699C122.238 88.0994 122.363 87.5085 122.613 86.9972C122.866 86.4858 123.218 86.0866 123.67 85.7997C124.125 85.5128 124.656 85.3693 125.264 85.3693C125.633 85.3693 125.991 85.4304 126.338 85.5526C126.684 85.6747 126.995 85.8665 127.271 86.1278C127.547 86.3892 127.764 86.7287 127.923 87.1463C128.082 87.5611 128.162 88.0653 128.162 88.6591V89.1108H122.958V88.1562H126.913C126.913 87.821 126.845 87.5241 126.708 87.2656C126.572 87.0043 126.38 86.7983 126.133 86.6477C125.889 86.4972 125.602 86.4219 125.272 86.4219C124.914 86.4219 124.602 86.5099 124.335 86.6861C124.071 86.8594 123.866 87.0866 123.721 87.3679C123.579 87.6463 123.508 87.9489 123.508 88.2756V89.0213C123.508 89.4588 123.585 89.831 123.738 90.1378C123.895 90.4446 124.112 90.679 124.39 90.8409C124.669 91 124.994 91.0795 125.366 91.0795C125.608 91.0795 125.828 91.0455 126.027 90.9773C126.225 90.9062 126.397 90.8011 126.542 90.6619C126.687 90.5227 126.798 90.3509 126.875 90.1463L128.081 90.3636C127.984 90.7187 127.811 91.0298 127.561 91.2969C127.314 91.5611 127.002 91.767 126.627 91.9148C126.255 92.0597 125.831 92.1321 125.353 92.1321ZM129.575 92V85.4545H130.807V86.4943H130.875C130.994 86.142 131.205 85.8651 131.506 85.6634C131.81 85.4588 132.153 85.3565 132.537 85.3565C132.616 85.3565 132.71 85.3594 132.818 85.3651C132.929 85.3707 133.016 85.3778 133.078 85.3864V86.6051C133.027 86.5909 132.936 86.5753 132.805 86.5582C132.675 86.5384 132.544 86.5284 132.413 86.5284C132.112 86.5284 131.844 86.5923 131.608 86.7202C131.375 86.8452 131.19 87.0199 131.054 87.2443C130.918 87.4659 130.849 87.7187 130.849 88.0028V92H129.575ZM138.75 89.4901V89.4091C138.756 88.8807 138.808 88.4602 138.908 88.1477C139.01 87.8352 139.155 87.5824 139.342 87.3892C139.53 87.196 139.756 87.0199 140.02 86.8608C140.19 86.7528 140.344 86.6321 140.48 86.4986C140.616 86.3651 140.724 86.2116 140.804 86.0384C140.884 85.8651 140.923 85.6733 140.923 85.4631C140.923 85.2102 140.864 84.9915 140.744 84.8068C140.625 84.6222 140.466 84.4801 140.267 84.3807C140.071 84.2784 139.852 84.2273 139.611 84.2273C139.392 84.2273 139.183 84.2727 138.984 84.3636C138.786 84.4545 138.621 84.5966 138.49 84.7898C138.359 84.9801 138.284 85.2259 138.264 85.527H136.969C136.989 85.0156 137.118 84.5838 137.357 84.2315C137.595 83.8764 137.911 83.608 138.303 83.4261C138.697 83.2443 139.134 83.1534 139.611 83.1534C140.134 83.1534 140.591 83.2514 140.983 83.4474C141.375 83.6406 141.679 83.9119 141.895 84.2614C142.114 84.608 142.223 85.0128 142.223 85.4759C142.223 85.794 142.173 86.081 142.074 86.3366C141.974 86.5895 141.832 86.8153 141.648 87.0142C141.466 87.2131 141.247 87.3892 140.991 87.5426C140.75 87.6932 140.554 87.8494 140.403 88.0114C140.256 88.1733 140.148 88.3651 140.08 88.5866C140.011 88.8082 139.974 89.0824 139.969 89.4091V89.4901H138.75ZM139.393 92.081C139.161 92.081 138.96 91.9986 138.793 91.8338C138.625 91.6662 138.541 91.4645 138.541 91.2287C138.541 90.9957 138.625 90.7969 138.793 90.6321C138.96 90.4645 139.161 90.3807 139.393 90.3807C139.624 90.3807 139.822 90.4645 139.99 90.6321C140.161 90.7969 140.246 90.9957 140.246 91.2287C140.246 91.3849 140.206 91.5284 140.126 91.6591C140.05 91.7869 139.947 91.8892 139.82 91.9659C139.692 92.0426 139.55 92.081 139.393 92.081Z" fill="#18365a"/>
<rect x="24" y="381" width="283" height="46" rx="5" fill="#F6F6F6"/>
<path d="M36.233 398.818H37.7045L41.1648 407.27H41.2841L44.7443 398.818H46.2159V409H45.0625V401.264H44.9631L41.7812 409H40.6676L37.4858 401.264H37.3864V409H36.233V398.818ZM51.7306 409.159C50.9949 409.159 50.3601 408.997 49.8265 408.672C49.2962 408.344 48.8869 407.886 48.5985 407.3C48.3135 406.71 48.171 406.024 48.171 405.241C48.171 404.459 48.3135 403.77 48.5985 403.173C48.8869 402.573 49.2879 402.106 49.8017 401.771C50.3187 401.433 50.9219 401.264 51.6113 401.264C52.0091 401.264 52.4018 401.33 52.7896 401.463C53.1774 401.596 53.5304 401.811 53.8485 402.109C54.1667 402.404 54.4203 402.795 54.6092 403.283C54.7981 403.77 54.8926 404.37 54.8926 405.082V405.58H49.0062V404.565H53.6994C53.6994 404.134 53.6132 403.75 53.4409 403.412C53.2718 403.074 53.0299 402.807 52.715 402.612C52.4035 402.416 52.0356 402.318 51.6113 402.318C51.144 402.318 50.7396 402.434 50.3983 402.666C50.0602 402.895 49.8 403.193 49.6177 403.561C49.4354 403.929 49.3443 404.323 49.3443 404.744V405.42C49.3443 405.997 49.4437 406.486 49.6426 406.887C49.8448 407.285 50.1248 407.588 50.4828 407.797C50.8407 408.002 51.2567 408.105 51.7306 408.105C52.0389 408.105 52.3173 408.062 52.5659 407.976C52.8178 407.886 53.0349 407.754 53.2172 407.578C53.3994 407.399 53.5403 407.177 53.6397 406.912L54.7733 407.23C54.6539 407.615 54.4534 407.953 54.1717 408.244C53.89 408.533 53.542 408.758 53.1277 408.92C52.7134 409.08 52.2477 409.159 51.7306 409.159ZM62.0865 403.074L61.0325 403.372C60.9662 403.196 60.8684 403.026 60.7392 402.86C60.6132 402.691 60.4409 402.552 60.2221 402.442C60.0034 402.333 59.7233 402.278 59.3819 402.278C58.9146 402.278 58.5252 402.386 58.2136 402.602C57.9054 402.814 57.7512 403.084 57.7512 403.412C57.7512 403.704 57.8573 403.934 58.0694 404.103C58.2815 404.272 58.613 404.413 59.0637 404.526L60.1973 404.804C60.88 404.97 61.3888 405.223 61.7235 405.565C62.0583 405.903 62.2257 406.339 62.2257 406.872C62.2257 407.31 62.0997 407.701 61.8478 408.045C61.5993 408.39 61.2512 408.662 60.8038 408.861C60.3564 409.06 59.836 409.159 59.2427 409.159C58.4638 409.159 57.8192 408.99 57.3088 408.652C56.7984 408.314 56.4752 407.82 56.3393 407.17L57.4529 406.892C57.559 407.303 57.7595 407.611 58.0545 407.817C58.3528 408.022 58.7422 408.125 59.2228 408.125C59.7697 408.125 60.2039 408.009 60.5254 407.777C60.8502 407.542 61.0126 407.26 61.0126 406.932C61.0126 406.667 60.9198 406.445 60.7342 406.266C60.5486 406.083 60.2636 405.947 59.8791 405.858L58.6064 405.56C57.907 405.394 57.3933 405.137 57.0652 404.789C56.7404 404.438 56.5779 403.999 56.5779 403.472C56.5779 403.041 56.6989 402.66 56.9409 402.328C57.1861 401.997 57.5192 401.737 57.9402 401.548C58.3644 401.359 58.845 401.264 59.3819 401.264C60.1376 401.264 60.7309 401.43 61.1618 401.761C61.5959 402.093 61.9042 402.53 62.0865 403.074ZM69.4009 403.074L68.3469 403.372C68.2807 403.196 68.1829 403.026 68.0536 402.86C67.9277 402.691 67.7553 402.552 67.5366 402.442C67.3178 402.333 67.0378 402.278 66.6964 402.278C66.229 402.278 65.8396 402.386 65.5281 402.602C65.2198 402.814 65.0657 403.084 65.0657 403.412C65.0657 403.704 65.1718 403.934 65.3839 404.103C65.596 404.272 65.9274 404.413 66.3782 404.526L67.5117 404.804C68.1945 404.97 68.7032 405.223 69.038 405.565C69.3728 405.903 69.5401 406.339 69.5401 406.872C69.5401 407.31 69.4142 407.701 69.1623 408.045C68.9137 408.39 68.5657 408.662 68.1183 408.861C67.6708 409.06 67.1504 409.159 66.5572 409.159C65.7783 409.159 65.1336 408.99 64.6232 408.652C64.1128 408.314 63.7897 407.82 63.6538 407.17L64.7674 406.892C64.8735 407.303 65.074 407.611 65.369 407.817C65.6673 408.022 66.0567 408.125 66.5373 408.125C67.0842 408.125 67.5183 408.009 67.8398 407.777C68.1647 407.542 68.3271 407.26 68.3271 406.932C68.3271 406.667 68.2343 406.445 68.0487 406.266C67.863 406.083 67.578 405.947 67.1935 405.858L65.9208 405.56C65.2215 405.394 64.7077 405.137 64.3796 404.789C64.0548 404.438 63.8924 403.999 63.8924 403.472C63.8924 403.041 64.0134 402.66 64.2553 402.328C64.5006 401.997 64.8337 401.737 65.2546 401.548C65.6789 401.359 66.1594 401.264 66.6964 401.264C67.4521 401.264 68.0453 401.43 68.4762 401.761C68.9104 402.093 69.2186 402.53 69.4009 403.074ZM73.5534 409.179C73.0695 409.179 72.6304 409.088 72.236 408.906C71.8416 408.72 71.5283 408.453 71.2963 408.105C71.0643 407.754 70.9483 407.33 70.9483 406.832C70.9483 406.395 71.0345 406.04 71.2069 405.768C71.3792 405.493 71.6096 405.278 71.8979 405.122C72.1863 404.966 72.5044 404.85 72.8525 404.774C73.2038 404.695 73.5568 404.632 73.9114 404.585C74.3754 404.526 74.7516 404.481 75.04 404.451C75.3316 404.418 75.5437 404.363 75.6763 404.287C75.8122 404.211 75.8801 404.078 75.8801 403.889V403.849C75.8801 403.359 75.7459 402.978 75.4775 402.706C75.2123 402.434 74.8096 402.298 74.2694 402.298C73.7092 402.298 73.2701 402.421 72.9519 402.666C72.6337 402.911 72.41 403.173 72.2807 403.452L71.1671 403.054C71.3659 402.59 71.6311 402.229 71.9625 401.97C72.2973 401.708 72.6619 401.526 73.0563 401.423C73.454 401.317 73.8451 401.264 74.2296 401.264C74.4748 401.264 74.7566 401.294 75.0748 401.354C75.3962 401.41 75.7061 401.528 76.0044 401.707C76.306 401.886 76.5563 402.156 76.7551 402.517C76.954 402.878 77.0534 403.362 77.0534 403.969V409H75.8801V407.966H75.8205C75.7409 408.132 75.6084 408.309 75.4228 408.498C75.2372 408.687 74.9902 408.848 74.682 408.98C74.3738 409.113 73.9976 409.179 73.5534 409.179ZM73.7324 408.125C74.1964 408.125 74.5875 408.034 74.9057 407.852C75.2272 407.669 75.4692 407.434 75.6316 407.146C75.7973 406.857 75.8801 406.554 75.8801 406.236V405.162C75.8304 405.222 75.7211 405.276 75.552 405.326C75.3863 405.372 75.1941 405.414 74.9753 405.45C74.7599 405.483 74.5494 405.513 74.3439 405.54C74.1417 405.563 73.9777 405.583 73.8517 405.599C73.5468 405.639 73.2618 405.704 72.9966 405.793C72.7348 405.879 72.5227 406.01 72.3603 406.186C72.2012 406.358 72.1216 406.594 72.1216 406.892C72.1216 407.3 72.2724 407.608 72.574 407.817C72.879 408.022 73.2651 408.125 73.7324 408.125ZM82.2773 412.023C81.7106 412.023 81.2234 411.95 80.8157 411.804C80.408 411.661 80.0683 411.473 79.7965 411.237C79.5281 411.005 79.3143 410.757 79.1552 410.491L80.0898 409.835C80.1959 409.974 80.3301 410.134 80.4925 410.312C80.6549 410.495 80.877 410.652 81.1587 410.785C81.4438 410.921 81.8166 410.989 82.2773 410.989C82.8938 410.989 83.4026 410.839 83.8036 410.541C84.2047 410.243 84.4052 409.776 84.4052 409.139V407.588H84.3058C84.2196 407.727 84.0969 407.9 83.9379 408.105C83.7821 408.307 83.5567 408.488 83.2617 408.647C82.9701 408.803 82.5756 408.881 82.0785 408.881C81.462 408.881 80.9085 408.735 80.418 408.443C79.9308 408.152 79.5446 407.727 79.2596 407.17C78.9779 406.614 78.837 405.937 78.837 405.142C78.837 404.36 78.9746 403.679 79.2496 403.099C79.5247 402.515 79.9076 402.065 80.3981 401.746C80.8886 401.425 81.4554 401.264 82.0984 401.264C82.5955 401.264 82.9899 401.347 83.2816 401.513C83.5766 401.675 83.802 401.861 83.9577 402.07C84.1168 402.275 84.2395 402.444 84.3256 402.577H84.445V401.364H85.5785V409.219C85.5785 409.875 85.4293 410.409 85.131 410.82C84.8361 411.234 84.4383 411.537 83.9379 411.729C83.4407 411.925 82.8872 412.023 82.2773 412.023ZM82.2376 407.827C82.7082 407.827 83.1059 407.719 83.4308 407.504C83.7556 407.288 84.0025 406.978 84.1715 406.574C84.3406 406.17 84.4251 405.686 84.4251 405.122C84.4251 404.572 84.3422 404.086 84.1765 403.665C84.0108 403.245 83.7655 402.915 83.4407 402.676C83.1159 402.437 82.7148 402.318 82.2376 402.318C81.7404 402.318 81.3261 402.444 80.9947 402.696C80.6665 402.948 80.4196 403.286 80.2539 403.71C80.0915 404.134 80.0103 404.605 80.0103 405.122C80.0103 405.652 80.0932 406.121 80.2589 406.529C80.4279 406.933 80.6765 407.252 81.0046 407.484C81.3361 407.712 81.747 407.827 82.2376 407.827ZM90.9279 409.159C90.1921 409.159 89.5574 408.997 89.0238 408.672C88.4935 408.344 88.0842 407.886 87.7958 407.3C87.5108 406.71 87.3683 406.024 87.3683 405.241C87.3683 404.459 87.5108 403.77 87.7958 403.173C88.0842 402.573 88.4852 402.106 88.9989 401.771C89.516 401.433 90.1192 401.264 90.8086 401.264C91.2063 401.264 91.5991 401.33 91.9869 401.463C92.3746 401.596 92.7276 401.811 93.0458 402.109C93.364 402.404 93.6175 402.795 93.8065 403.283C93.9954 403.77 94.0898 404.37 94.0898 405.082V405.58H88.2035V404.565H92.8967C92.8967 404.134 92.8105 403.75 92.6381 403.412C92.4691 403.074 92.2272 402.807 91.9123 402.612C91.6007 402.416 91.2328 402.318 90.8086 402.318C90.3413 402.318 89.9369 402.434 89.5955 402.666C89.2575 402.895 88.9973 403.193 88.815 403.561C88.6327 403.929 88.5415 404.323 88.5415 404.744V405.42C88.5415 405.997 88.641 406.486 88.8398 406.887C89.042 407.285 89.3221 407.588 89.68 407.797C90.038 408.002 90.454 408.105 90.9279 408.105C91.2362 408.105 91.5146 408.062 91.7631 407.976C92.015 407.886 92.2321 407.754 92.4144 407.578C92.5967 407.399 92.7376 407.177 92.837 406.912L93.9705 407.23C93.8512 407.615 93.6507 407.953 93.369 408.244C93.0872 408.533 92.7392 408.758 92.3249 408.92C91.9106 409.08 91.445 409.159 90.9279 409.159ZM96.7298 409.08C96.4845 409.08 96.274 408.992 96.0984 408.816C95.9227 408.64 95.8349 408.43 95.8349 408.185C95.8349 407.939 95.9227 407.729 96.0984 407.553C96.274 407.378 96.4845 407.29 96.7298 407.29C96.975 407.29 97.1855 407.378 97.3612 407.553C97.5368 407.729 97.6246 407.939 97.6246 408.185C97.6246 408.347 97.5832 408.496 97.5004 408.632C97.4208 408.768 97.3131 408.877 97.1772 408.96C97.0446 409.04 96.8955 409.08 96.7298 409.08ZM100.585 409.08C100.34 409.08 100.129 408.992 99.9538 408.816C99.7782 408.64 99.6903 408.43 99.6903 408.185C99.6903 407.939 99.7782 407.729 99.9538 407.553C100.129 407.378 100.34 407.29 100.585 407.29C100.83 407.29 101.041 407.378 101.217 407.553C101.392 407.729 101.48 407.939 101.48 408.185C101.48 408.347 101.439 408.496 101.356 408.632C101.276 408.768 101.169 408.877 101.033 408.96C100.9 409.04 100.751 409.08 100.585 409.08ZM104.441 409.08C104.195 409.08 103.985 408.992 103.809 408.816C103.634 408.64 103.546 408.43 103.546 408.185C103.546 407.939 103.634 407.729 103.809 407.553C103.985 407.378 104.195 407.29 104.441 407.29C104.686 407.29 104.896 407.378 105.072 407.553C105.248 407.729 105.336 407.939 105.336 408.185C105.336 408.347 105.294 408.496 105.211 408.632C105.132 408.768 105.024 408.877 104.888 408.96C104.756 409.04 104.606 409.08 104.441 409.08Z" fill="#989898"/>
<g clip-path="url(#clip0_3901_133329)">
<path d="M284.99 394C279.47 394 275 398.48 275 404C275 409.52 279.47 414 284.99 414C290.52 414 295 409.52 295 404C295 398.48 290.52 394 284.99 394ZM285 412C283.949 412 282.909 411.794 281.938 411.392C280.967 410.99 280.085 410.401 279.342 409.658C278.599 408.915 278.01 408.033 277.608 407.062C277.206 406.091 277 405.051 277 404C277 399.58 280.58 396 285 396C289.42 396 293 399.58 293 404C293 408.42 289.42 412 285 412ZM288.5 403C289.33 403 290 402.33 290 401.5C290 400.67 289.33 400 288.5 400C287.67 400 287 400.67 287 401.5C287 402.33 287.67 403 288.5 403ZM281.5 403C282.33 403 283 402.33 283 401.5C283 400.67 282.33 400 281.5 400C280.67 400 280 400.67 280 401.5C280 402.33 280.67 403 281.5 403ZM285 409.5C285.834 409.5 286.656 409.31 287.405 408.943C288.154 408.576 288.809 408.043 289.32 407.385C289.793 406.779 289.279 406 288.51 406H281.49C280.721 406 280.207 406.779 280.68 407.385C281.191 408.043 281.846 408.576 282.595 408.943C283.344 409.31 284.166 409.5 285 409.5Z" fill="#18365a"/>
</g>
<circle cx="36.5" cy="50.5" r="12.5" fill="#18365a"/>
<path d="M44.8333 45.3003H44.484C44.4678 45.3003 44.4532 45.3003 44.4386 45.3003H44.3265C43.7448 45.3022 43.2266 45.317 42.6498 45.317C42.6433 45.33 42.6336 45.3505 42.6222 45.3746C42.1657 46.3555 42.1186 46.8125 41.7368 47.6578C41.4054 48.3582 41.2673 48.5013 41.0967 48.5347C41.0675 48.5403 40.9131 48.5273 40.6045 48.531C40.4469 48.5328 40.1203 48.5328 39.9741 48.5328C39.966 48.5328 39.8782 48.5328 39.823 48.5328C39.7597 48.5328 39.693 48.5366 39.6573 48.531C40.0732 47.4516 40.4907 46.3797 40.905 45.304C37.5745 45.2576 34.1953 45.4842 30.8535 45.5585C32.4343 45.618 34.015 45.6793 35.5974 45.7295C36.8028 45.7666 38.0148 45.787 39.2235 45.8149C39.36 45.8186 39.4526 45.9468 39.4169 46.0991C39.3746 46.2775 39.243 46.3927 39.0806 46.3964C36.3804 46.4688 33.6803 46.5413 30.9802 46.6156C30.4278 46.6305 29.8755 46.6472 29.3231 46.6639C30.0688 46.6936 30.8161 46.7178 31.5618 46.7419C33.0077 46.7865 34.4537 46.833 35.8996 46.872C36.6794 46.8943 37.4624 46.9054 38.2439 46.9221C38.4096 46.9259 38.4811 47.0392 38.434 47.2175C38.3852 47.3977 38.2618 47.5018 38.0895 47.5018C37.8637 47.5018 37.6395 47.4962 37.4137 47.5055C35.8151 47.5649 34.2148 47.63 32.6146 47.6894C32.0687 47.7098 31.5245 47.7247 30.9802 47.7414C31.3701 47.7749 31.7665 47.7953 32.1629 47.8083C34.2376 47.8752 36.3122 47.9421 38.3852 48.0089C38.5184 48.0127 38.6062 48.139 38.5721 48.2858C38.5314 48.4641 38.4015 48.5793 38.239 48.5849C35.9597 48.6443 33.682 48.7019 31.4026 48.7613C30.7853 48.7781 30.1679 48.7948 29.5522 48.8115C29.8105 48.8394 30.0786 48.8338 30.3434 48.8412C31.9729 48.8895 33.6007 48.9415 35.2286 48.9898C35.9402 49.0103 36.6534 49.0214 37.365 49.04C37.5209 49.0437 37.5908 49.1701 37.5372 49.3484C37.4884 49.5119 37.352 49.6178 37.2009 49.6234C37.1034 49.6271 37.0075 49.6234 36.9117 49.6252C35.3196 49.6735 33.7258 49.7237 32.1337 49.772C31.1524 49.8017 30.1712 49.8277 29.1899 49.8556C29.1899 49.8593 29.1866 49.863 29.185 49.8667C29.2256 49.8667 29.2679 49.8667 29.3069 49.8667C31.5862 49.9336 33.8639 50.0023 36.1433 50.0692C36.3138 50.0748 36.4877 50.0692 36.655 50.0822C36.7817 50.0897 36.8418 50.2216 36.8012 50.372C36.759 50.5318 36.6274 50.6526 36.4925 50.6581C34.6713 50.7232 32.8485 50.79 31.0273 50.8551C30.834 50.8625 30.6455 50.8551 30.4538 50.8551C30.4506 50.8681 30.4473 50.8811 30.4441 50.8959C31.1979 50.9238 31.9517 50.9517 32.7072 50.9758C34.1368 51.0204 35.5665 51.0631 36.9962 51.1059C37.0205 51.1059 37.0465 51.1059 37.0677 51.1114C37.2155 51.156 37.2317 51.4087 37.0839 51.561C37.0173 51.6298 36.9133 51.6799 36.8402 51.6818C36.4925 51.6948 36.153 51.6799 35.8053 51.6911C34.3757 51.7412 32.946 51.797 31.5163 51.8508C31.0712 51.8675 30.6261 51.8806 30.1809 51.8954C30.1777 51.9103 30.1728 51.9233 30.1695 51.9381C30.436 51.9381 30.704 51.9307 30.9672 51.9381C32.8112 51.9939 34.6535 52.0533 36.4958 52.1128C36.5348 52.1128 36.577 52.1183 36.6095 52.1369C36.6989 52.1908 36.7151 52.3283 36.6583 52.4658C36.5998 52.6032 36.4877 52.6924 36.3626 52.6943C36.0214 52.698 35.6851 52.6868 35.3423 52.698C33.9256 52.7481 32.5074 52.8039 31.0891 52.8577C30.6569 52.8745 30.2248 52.8875 29.7926 52.9005C30.3044 52.9321 30.8161 52.9581 31.3328 52.9711C32.7624 53.0119 34.1953 53.0472 35.625 53.0862C35.6607 53.0862 35.6997 53.0862 35.7322 53.0974C35.8281 53.1327 35.8654 53.2609 35.8232 53.3965C35.781 53.5303 35.6656 53.6492 35.5568 53.6659C35.5194 53.6714 35.482 53.6696 35.4463 53.6677C34.8501 53.6603 34.2587 53.6362 33.6576 53.651C32.0882 53.69 30.514 53.7476 28.9413 53.7941C28.3353 53.8126 27.7294 53.8256 27.125 53.8405C30.5871 53.9222 34.015 54.1247 37.5112 54.0913C37.5388 54.0244 37.5615 53.9706 37.5827 53.9185C37.9969 52.8466 38.4112 51.7747 38.8206 50.7009C38.8677 50.5782 38.91 50.5448 39.001 50.5448C39.4997 50.5504 40.0001 50.5448 40.4989 50.5448C40.5346 50.5448 40.5687 50.5504 40.6158 50.5541C40.338 51.2768 40.0505 52.018 39.7645 52.7537C39.5647 53.2702 39.2853 53.742 38.9392 54.1452H39.2268C39.8718 54.1452 40.5752 54.1452 41.2186 54.1452C42.1381 51.7598 42.978 49.3224 43.8699 46.9166C44.0941 46.3091 44.4223 45.7592 44.8317 45.291L44.8333 45.3003Z" fill="#d8b56c"/>
<path d="M24 137C24 134.239 26.2386 132 29 132H268V187C268 189.761 265.761 192 263 192H29C26.2386 192 24 189.761 24 187V137Z" fill="#d8b56c"/>
<path d="M41.7188 148.565C41.6733 148.162 41.4858 147.849 41.1562 147.628C40.8267 147.403 40.4119 147.291 39.9119 147.291C39.554 147.291 39.2443 147.348 38.983 147.462C38.7216 147.572 38.5185 147.726 38.3736 147.922C38.2315 148.115 38.1605 148.335 38.1605 148.582C38.1605 148.79 38.2088 148.969 38.3054 149.119C38.4048 149.27 38.5341 149.396 38.6932 149.499C38.8551 149.598 39.0284 149.682 39.2131 149.75C39.3977 149.815 39.5753 149.869 39.7457 149.912L40.598 150.134C40.8764 150.202 41.1619 150.294 41.4545 150.411C41.7472 150.527 42.0185 150.68 42.2685 150.871C42.5185 151.061 42.7202 151.297 42.8736 151.578C43.0298 151.859 43.108 152.196 43.108 152.588C43.108 153.082 42.9801 153.521 42.7244 153.905C42.4716 154.288 42.1037 154.591 41.6207 154.812C41.1406 155.034 40.5597 155.145 39.8778 155.145C39.2244 155.145 38.6591 155.041 38.1818 154.834C37.7045 154.626 37.331 154.332 37.0611 153.952C36.7912 153.568 36.642 153.114 36.6136 152.588H37.9347C37.9602 152.903 38.0625 153.166 38.2415 153.376C38.4233 153.584 38.6548 153.739 38.9361 153.841C39.2202 153.94 39.5312 153.99 39.8693 153.99C40.2415 153.99 40.5724 153.932 40.8622 153.815C41.1548 153.696 41.3849 153.531 41.5526 153.321C41.7202 153.108 41.804 152.859 41.804 152.575C41.804 152.317 41.7301 152.105 41.5824 151.94C41.4375 151.776 41.2401 151.639 40.9901 151.531C40.7429 151.423 40.4631 151.328 40.1506 151.246L39.1193 150.964C38.4205 150.774 37.8665 150.494 37.4574 150.125C37.0511 149.756 36.848 149.267 36.848 148.659C36.848 148.156 36.9844 147.717 37.2571 147.342C37.5298 146.967 37.8991 146.676 38.3651 146.469C38.831 146.259 39.3565 146.153 39.9418 146.153C40.5327 146.153 41.054 146.257 41.5057 146.464C41.9602 146.672 42.3182 146.957 42.5795 147.321C42.8409 147.682 42.9773 148.097 42.9886 148.565H41.7188ZM46.484 155.145C46.0692 155.145 45.6942 155.068 45.359 154.915C45.0238 154.759 44.7582 154.533 44.5621 154.237C44.369 153.942 44.2724 153.58 44.2724 153.151C44.2724 152.781 44.3434 152.477 44.4854 152.239C44.6275 152 44.8192 151.811 45.0607 151.672C45.3022 151.533 45.5721 151.428 45.8704 151.357C46.1687 151.286 46.4727 151.232 46.7823 151.195C47.1744 151.149 47.4925 151.112 47.7369 151.084C47.9812 151.053 48.1587 151.003 48.2695 150.935C48.3803 150.866 48.4357 150.756 48.4357 150.602V150.572C48.4357 150.2 48.3306 149.912 48.1204 149.707C47.913 149.503 47.6033 149.401 47.1914 149.401C46.7624 149.401 46.4244 149.496 46.1772 149.686C45.9329 149.874 45.7638 150.082 45.6701 150.312L44.4727 150.04C44.6147 149.642 44.8221 149.321 45.0948 149.077C45.3704 148.83 45.6871 148.651 46.0451 148.54C46.4031 148.426 46.7795 148.369 47.1744 148.369C47.4357 148.369 47.7127 148.401 48.0053 148.463C48.3008 148.523 48.5763 148.634 48.832 148.795C49.0906 148.957 49.3022 149.189 49.467 149.49C49.6317 149.788 49.7141 150.176 49.7141 150.653V155H48.4698V154.105H48.4187C48.3363 154.27 48.2127 154.432 48.0479 154.591C47.8832 154.75 47.6715 154.882 47.413 154.987C47.1545 155.092 46.8448 155.145 46.484 155.145ZM46.761 154.122C47.1133 154.122 47.4144 154.053 47.6644 153.913C47.9173 153.774 48.109 153.592 48.2397 153.368C48.3732 153.141 48.44 152.898 48.44 152.639V151.795C48.3945 151.841 48.3065 151.884 48.1758 151.923C48.0479 151.96 47.9016 151.993 47.7369 152.021C47.5721 152.047 47.4116 152.071 47.2553 152.094C47.0991 152.114 46.9684 152.131 46.8633 152.145C46.6161 152.176 46.3903 152.229 46.1857 152.303C45.984 152.376 45.8221 152.483 45.6999 152.622C45.5806 152.759 45.521 152.94 45.521 153.168C45.521 153.483 45.6374 153.722 45.8704 153.884C46.1033 154.043 46.4002 154.122 46.761 154.122ZM52.6854 146.273V155H51.4112V146.273H52.6854ZM58.5458 152.286V148.455H59.8242V155H58.5714V153.866H58.5032C58.3526 154.216 58.1112 154.507 57.7788 154.74C57.4492 154.97 57.0387 155.085 56.5472 155.085C56.1268 155.085 55.7546 154.993 55.4308 154.808C55.1097 154.621 54.8569 154.344 54.6722 153.977C54.4904 153.611 54.3995 153.158 54.3995 152.618V148.455H55.6737V152.464C55.6737 152.911 55.7972 153.266 56.0444 153.53C56.2915 153.794 56.6126 153.926 57.0075 153.926C57.2461 153.926 57.4833 153.866 57.7191 153.747C57.9577 153.628 58.1552 153.447 58.3114 153.206C58.4705 152.964 58.5487 152.658 58.5458 152.286ZM64.5916 148.455V149.477H61.0163V148.455H64.5916ZM61.9751 146.886H63.2493V153.078C63.2493 153.325 63.2862 153.511 63.3601 153.636C63.4339 153.759 63.5291 153.842 63.6456 153.888C63.7649 153.93 63.8942 153.952 64.0334 153.952C64.1357 153.952 64.2251 153.945 64.3018 153.93C64.3786 153.916 64.4382 153.905 64.4808 153.896L64.7109 154.949C64.6371 154.977 64.532 155.006 64.3956 155.034C64.2592 155.065 64.0888 155.082 63.8842 155.085C63.549 155.091 63.2365 155.031 62.9467 154.906C62.657 154.781 62.4226 154.588 62.2436 154.327C62.0646 154.065 61.9751 153.737 61.9751 153.342V146.886ZM67.6587 153.807L67.5948 154.271C67.5522 154.612 67.4798 154.967 67.3775 155.337C67.2781 155.709 67.1744 156.054 67.0664 156.372C66.9613 156.69 66.8746 156.943 66.8065 157.131H65.9031C65.94 156.955 65.9911 156.716 66.0565 156.415C66.1218 156.116 66.1857 155.783 66.2482 155.413C66.3107 155.044 66.3576 154.668 66.3888 154.284L66.4315 153.807H67.6587ZM72.4933 148.455H73.7674V155.426C73.7674 155.864 73.6879 156.233 73.5288 156.534C73.3725 156.835 73.1396 157.064 72.8299 157.22C72.5231 157.376 72.1438 157.455 71.6921 157.455C71.6467 157.455 71.604 157.455 71.5643 157.455C71.5217 157.455 71.4776 157.453 71.4322 157.45V156.355C71.4719 156.355 71.5075 156.355 71.5387 156.355C71.5671 156.355 71.5998 156.355 71.6367 156.355C71.9379 156.355 72.1552 156.274 72.2887 156.112C72.4251 155.953 72.4933 155.722 72.4933 155.418V148.455ZM73.1239 147.445C72.9023 147.445 72.712 147.371 72.5529 147.223C72.3967 147.072 72.3185 146.893 72.3185 146.686C72.3185 146.476 72.3967 146.297 72.5529 146.149C72.712 145.999 72.9023 145.923 73.1239 145.923C73.3455 145.923 73.5344 145.999 73.6907 146.149C73.8498 146.297 73.9293 146.476 73.9293 146.686C73.9293 146.893 73.8498 147.072 73.6907 147.223C73.5344 147.371 73.3455 147.445 73.1239 147.445ZM76.4489 146.273V149.379H75.392V146.273H76.4489ZM79.9996 155.145C79.5849 155.145 79.2099 155.068 78.8746 154.915C78.5394 154.759 78.2738 154.533 78.0778 154.237C77.8846 153.942 77.788 153.58 77.788 153.151C77.788 152.781 77.859 152.477 78.0011 152.239C78.1431 152 78.3349 151.811 78.5763 151.672C78.8178 151.533 79.0877 151.428 79.386 151.357C79.6843 151.286 79.9883 151.232 80.2979 151.195C80.69 151.149 81.0082 151.112 81.2525 151.084C81.4968 151.053 81.6744 151.003 81.7852 150.935C81.896 150.866 81.9513 150.756 81.9513 150.602V150.572C81.9513 150.2 81.8462 149.912 81.636 149.707C81.4286 149.503 81.119 149.401 80.707 149.401C80.2781 149.401 79.94 149.496 79.6928 149.686C79.4485 149.874 79.2795 150.082 79.1857 150.312L77.9883 150.04C78.1303 149.642 78.3377 149.321 78.6104 149.077C78.886 148.83 79.2028 148.651 79.5607 148.54C79.9187 148.426 80.2951 148.369 80.69 148.369C80.9513 148.369 81.2283 148.401 81.521 148.463C81.8164 148.523 82.092 148.634 82.3477 148.795C82.6062 148.957 82.8178 149.189 82.9826 149.49C83.1474 149.788 83.2298 150.176 83.2298 150.653V155H81.9854V154.105H81.9343C81.8519 154.27 81.7283 154.432 81.5636 154.591C81.3988 154.75 81.1871 154.882 80.9286 154.987C80.6701 155.092 80.3604 155.145 79.9996 155.145ZM80.2766 154.122C80.6289 154.122 80.93 154.053 81.18 153.913C81.4329 153.774 81.6246 153.592 81.7553 153.368C81.8888 153.141 81.9556 152.898 81.9556 152.639V151.795C81.9102 151.841 81.8221 151.884 81.6914 151.923C81.5636 151.96 81.4173 151.993 81.2525 152.021C81.0877 152.047 80.9272 152.071 80.771 152.094C80.6147 152.114 80.484 152.131 80.3789 152.145C80.1317 152.176 79.9059 152.229 79.7013 152.303C79.4996 152.376 79.3377 152.483 79.2156 152.622C79.0962 152.759 79.0366 152.94 79.0366 153.168C79.0366 153.483 79.1531 153.722 79.386 153.884C79.619 154.043 79.9158 154.122 80.2766 154.122ZM84.9268 155V148.455H86.201V155H84.9268ZM85.5703 147.445C85.3487 147.445 85.1584 147.371 84.9993 147.223C84.843 147.072 84.7649 146.893 84.7649 146.686C84.7649 146.476 84.843 146.297 84.9993 146.149C85.1584 145.999 85.3487 145.923 85.5703 145.923C85.7919 145.923 85.9808 145.999 86.1371 146.149C86.2962 146.297 86.3757 146.476 86.3757 146.686C86.3757 146.893 86.2962 147.072 86.1371 147.223C85.9808 147.371 85.7919 147.445 85.5703 147.445ZM93.5412 155.128C93.0128 155.128 92.5412 154.993 92.1264 154.723C91.7145 154.45 91.3906 154.062 91.1548 153.56C90.9219 153.054 90.8054 152.447 90.8054 151.74C90.8054 151.033 90.9233 150.428 91.1591 149.925C91.3977 149.422 91.7244 149.037 92.1392 148.77C92.554 148.503 93.0241 148.369 93.5497 148.369C93.956 148.369 94.2827 148.438 94.5298 148.574C94.7798 148.707 94.973 148.864 95.1094 149.043C95.2486 149.222 95.3565 149.379 95.4332 149.516H95.5099V146.273H96.7841V155H95.5398V153.982H95.4332C95.3565 154.121 95.2457 154.28 95.1009 154.459C94.9588 154.638 94.7628 154.794 94.5128 154.928C94.2628 155.061 93.9389 155.128 93.5412 155.128ZM93.8224 154.041C94.1889 154.041 94.4986 153.945 94.7514 153.751C95.0071 153.555 95.2003 153.284 95.331 152.938C95.4645 152.591 95.5312 152.187 95.5312 151.727C95.5312 151.273 95.4659 150.875 95.3352 150.534C95.2045 150.193 95.0128 149.928 94.7599 149.737C94.5071 149.547 94.1946 149.452 93.8224 149.452C93.4389 149.452 93.1193 149.551 92.8636 149.75C92.608 149.949 92.4148 150.22 92.2841 150.564C92.1563 150.908 92.0923 151.295 92.0923 151.727C92.0923 152.165 92.1577 152.558 92.2884 152.908C92.419 153.257 92.6122 153.534 92.8679 153.739C93.1264 153.94 93.4446 154.041 93.8224 154.041ZM101.424 155.132C100.779 155.132 100.223 154.994 99.7575 154.719C99.2944 154.44 98.9364 154.05 98.6836 153.547C98.4336 153.041 98.3086 152.449 98.3086 151.77C98.3086 151.099 98.4336 150.509 98.6836 149.997C98.9364 149.486 99.2887 149.087 99.7404 148.8C100.195 148.513 100.726 148.369 101.334 148.369C101.703 148.369 102.061 148.43 102.408 148.553C102.755 148.675 103.066 148.866 103.341 149.128C103.617 149.389 103.834 149.729 103.993 150.146C104.152 150.561 104.232 151.065 104.232 151.659V152.111H99.0288V151.156H102.983C102.983 150.821 102.915 150.524 102.779 150.266C102.642 150.004 102.451 149.798 102.203 149.648C101.959 149.497 101.672 149.422 101.343 149.422C100.985 149.422 100.672 149.51 100.405 149.686C100.141 149.859 99.9364 150.087 99.7915 150.368C99.6495 150.646 99.5785 150.949 99.5785 151.276V152.021C99.5785 152.459 99.6552 152.831 99.8086 153.138C99.9648 153.445 100.182 153.679 100.461 153.841C100.739 154 101.064 154.08 101.436 154.08C101.678 154.08 101.898 154.045 102.097 153.977C102.296 153.906 102.468 153.801 102.613 153.662C102.757 153.523 102.868 153.351 102.945 153.146L104.151 153.364C104.054 153.719 103.881 154.03 103.631 154.297C103.384 154.561 103.073 154.767 102.698 154.915C102.326 155.06 101.901 155.132 101.424 155.132ZM110.55 150.053L109.396 150.257C109.347 150.109 109.271 149.969 109.165 149.835C109.063 149.702 108.924 149.592 108.748 149.507C108.572 149.422 108.352 149.379 108.087 149.379C107.727 149.379 107.425 149.46 107.184 149.622C106.942 149.781 106.822 149.987 106.822 150.24C106.822 150.459 106.903 150.635 107.065 150.768C107.227 150.902 107.488 151.011 107.849 151.097L108.888 151.335C109.491 151.474 109.94 151.689 110.235 151.979C110.531 152.268 110.678 152.645 110.678 153.108C110.678 153.5 110.565 153.849 110.337 154.156C110.113 154.46 109.799 154.699 109.396 154.872C108.995 155.045 108.531 155.132 108.002 155.132C107.269 155.132 106.671 154.976 106.208 154.663C105.745 154.348 105.461 153.901 105.356 153.321L106.587 153.134C106.664 153.455 106.822 153.697 107.06 153.862C107.299 154.024 107.61 154.105 107.994 154.105C108.411 154.105 108.745 154.018 108.995 153.845C109.245 153.669 109.37 153.455 109.37 153.202C109.37 152.997 109.293 152.825 109.14 152.686C108.989 152.547 108.758 152.442 108.445 152.371L107.337 152.128C106.727 151.989 106.275 151.767 105.982 151.463C105.692 151.159 105.548 150.774 105.548 150.308C105.548 149.922 105.656 149.584 105.871 149.294C106.087 149.004 106.386 148.778 106.766 148.616C107.147 148.452 107.583 148.369 108.075 148.369C108.782 148.369 109.339 148.523 109.745 148.83C110.151 149.134 110.42 149.541 110.55 150.053ZM115.255 157.455V148.455H116.499V149.516H116.606C116.68 149.379 116.786 149.222 116.925 149.043C117.065 148.864 117.258 148.707 117.505 148.574C117.752 148.438 118.079 148.369 118.485 148.369C119.013 148.369 119.485 148.503 119.9 148.77C120.315 149.037 120.64 149.422 120.876 149.925C121.114 150.428 121.234 151.033 121.234 151.74C121.234 152.447 121.116 153.054 120.88 153.56C120.644 154.062 120.32 154.45 119.908 154.723C119.496 154.993 119.026 155.128 118.498 155.128C118.1 155.128 117.775 155.061 117.522 154.928C117.272 154.794 117.076 154.638 116.934 154.459C116.792 154.28 116.683 154.121 116.606 153.982H116.529V157.455H115.255ZM116.504 151.727C116.504 152.187 116.57 152.591 116.704 152.938C116.837 153.284 117.031 153.555 117.283 153.751C117.536 153.945 117.846 154.041 118.212 154.041C118.593 154.041 118.911 153.94 119.167 153.739C119.423 153.534 119.616 153.257 119.746 152.908C119.88 152.558 119.947 152.165 119.947 151.727C119.947 151.295 119.881 150.908 119.751 150.564C119.623 150.22 119.43 149.949 119.171 149.75C118.915 149.551 118.596 149.452 118.212 149.452C117.843 149.452 117.531 149.547 117.275 149.737C117.022 149.928 116.83 150.193 116.7 150.534C116.569 150.875 116.504 151.273 116.504 151.727ZM122.661 155V148.455H123.893V149.494H123.961C124.08 149.142 124.29 148.865 124.592 148.663C124.896 148.459 125.239 148.357 125.623 148.357C125.702 148.357 125.796 148.359 125.904 148.365C126.015 148.371 126.102 148.378 126.164 148.386V149.605C126.113 149.591 126.022 149.575 125.891 149.558C125.761 149.538 125.63 149.528 125.499 149.528C125.198 149.528 124.93 149.592 124.694 149.72C124.461 149.845 124.276 150.02 124.14 150.244C124.004 150.466 123.935 150.719 123.935 151.003V155H122.661ZM129.789 155.132C129.176 155.132 128.64 154.991 128.183 154.71C127.725 154.429 127.37 154.036 127.118 153.53C126.865 153.024 126.738 152.433 126.738 151.757C126.738 151.078 126.865 150.484 127.118 149.976C127.37 149.467 127.725 149.072 128.183 148.791C128.64 148.51 129.176 148.369 129.789 148.369C130.403 148.369 130.939 148.51 131.396 148.791C131.853 149.072 132.208 149.467 132.461 149.976C132.714 150.484 132.841 151.078 132.841 151.757C132.841 152.433 132.714 153.024 132.461 153.53C132.208 154.036 131.853 154.429 131.396 154.71C130.939 154.991 130.403 155.132 129.789 155.132ZM129.794 154.062C130.191 154.062 130.521 153.957 130.782 153.747C131.044 153.537 131.237 153.257 131.362 152.908C131.49 152.558 131.554 152.173 131.554 151.753C131.554 151.335 131.49 150.952 131.362 150.602C131.237 150.25 131.044 149.967 130.782 149.754C130.521 149.541 130.191 149.435 129.794 149.435C129.393 149.435 129.061 149.541 128.797 149.754C128.535 149.967 128.341 150.25 128.213 150.602C128.088 150.952 128.025 151.335 128.025 151.753C128.025 152.173 128.088 152.558 128.213 152.908C128.341 153.257 128.535 153.537 128.797 153.747C129.061 153.957 129.393 154.062 129.794 154.062ZM134.365 155V146.273H135.639V149.516H135.716C135.79 149.379 135.896 149.222 136.036 149.043C136.175 148.864 136.368 148.707 136.615 148.574C136.862 148.438 137.189 148.369 137.595 148.369C138.124 148.369 138.595 148.503 139.01 148.77C139.425 149.037 139.75 149.422 139.986 149.925C140.224 150.428 140.344 151.033 140.344 151.74C140.344 152.447 140.226 153.054 139.99 153.56C139.754 154.062 139.43 154.45 139.018 154.723C138.607 154.993 138.136 155.128 137.608 155.128C137.21 155.128 136.885 155.061 136.632 154.928C136.382 154.794 136.186 154.638 136.044 154.459C135.902 154.28 135.793 154.121 135.716 153.982H135.609V155H134.365ZM135.614 151.727C135.614 152.187 135.68 152.591 135.814 152.938C135.947 153.284 136.141 153.555 136.393 153.751C136.646 153.945 136.956 154.041 137.322 154.041C137.703 154.041 138.021 153.94 138.277 153.739C138.533 153.534 138.726 153.257 138.857 152.908C138.99 152.558 139.057 152.165 139.057 151.727C139.057 151.295 138.991 150.908 138.861 150.564C138.733 150.22 138.54 149.949 138.281 149.75C138.026 149.551 137.706 149.452 137.322 149.452C136.953 149.452 136.641 149.547 136.385 149.737C136.132 149.928 135.94 150.193 135.81 150.534C135.679 150.875 135.614 151.273 135.614 151.727ZM143.049 146.273V155H141.775V146.273H143.049ZM147.584 155.132C146.939 155.132 146.384 154.994 145.918 154.719C145.455 154.44 145.097 154.05 144.844 153.547C144.594 153.041 144.469 152.449 144.469 151.77C144.469 151.099 144.594 150.509 144.844 149.997C145.097 149.486 145.449 149.087 145.901 148.8C146.355 148.513 146.886 148.369 147.494 148.369C147.864 148.369 148.222 148.43 148.568 148.553C148.915 148.675 149.226 148.866 149.501 149.128C149.777 149.389 149.994 149.729 150.153 150.146C150.313 150.561 150.392 151.065 150.392 151.659V152.111H145.189V151.156H149.143C149.143 150.821 149.075 150.524 148.939 150.266C148.803 150.004 148.611 149.798 148.364 149.648C148.119 149.497 147.832 149.422 147.503 149.422C147.145 149.422 146.832 149.51 146.565 149.686C146.301 149.859 146.097 150.087 145.952 150.368C145.81 150.646 145.739 150.949 145.739 151.276V152.021C145.739 152.459 145.815 152.831 145.969 153.138C146.125 153.445 146.342 153.679 146.621 153.841C146.899 154 147.224 154.08 147.597 154.08C147.838 154.08 148.058 154.045 148.257 153.977C148.456 153.906 148.628 153.801 148.773 153.662C148.918 153.523 149.028 153.351 149.105 153.146L150.311 153.364C150.214 153.719 150.041 154.03 149.791 154.297C149.544 154.561 149.233 154.767 148.858 154.915C148.486 155.06 148.061 155.132 147.584 155.132ZM146.949 147.581L145.632 145.616H146.974L147.967 147.581H146.949ZM151.806 155V148.455H153.029V149.52H153.11C153.246 149.159 153.469 148.878 153.779 148.676C154.088 148.472 154.459 148.369 154.891 148.369C155.328 148.369 155.695 148.472 155.99 148.676C156.289 148.881 156.509 149.162 156.651 149.52H156.719C156.875 149.17 157.124 148.892 157.465 148.685C157.806 148.474 158.212 148.369 158.684 148.369C159.277 148.369 159.762 148.555 160.137 148.928C160.515 149.3 160.703 149.861 160.703 150.611V155H159.429V150.73C159.429 150.287 159.309 149.966 159.067 149.767C158.826 149.568 158.537 149.469 158.202 149.469C157.787 149.469 157.465 149.597 157.235 149.852C157.005 150.105 156.89 150.43 156.89 150.828V155H155.62V150.649C155.62 150.294 155.509 150.009 155.287 149.793C155.066 149.577 154.777 149.469 154.422 149.469C154.181 149.469 153.958 149.533 153.753 149.661C153.551 149.786 153.388 149.96 153.263 150.185C153.141 150.409 153.08 150.669 153.08 150.964V155H151.806ZM165.232 155.132C164.587 155.132 164.032 154.994 163.566 154.719C163.103 154.44 162.745 154.05 162.492 153.547C162.242 153.041 162.117 152.449 162.117 151.77C162.117 151.099 162.242 150.509 162.492 149.997C162.745 149.486 163.097 149.087 163.549 148.8C164.004 148.513 164.535 148.369 165.143 148.369C165.512 148.369 165.87 148.43 166.217 148.553C166.563 148.675 166.874 148.866 167.15 149.128C167.425 149.389 167.643 149.729 167.802 150.146C167.961 150.561 168.04 151.065 168.04 151.659V152.111H162.837V151.156H166.792C166.792 150.821 166.724 150.524 166.587 150.266C166.451 150.004 166.259 149.798 166.012 149.648C165.768 149.497 165.481 149.422 165.151 149.422C164.793 149.422 164.481 149.51 164.214 149.686C163.95 149.859 163.745 150.087 163.6 150.368C163.458 150.646 163.387 150.949 163.387 151.276V152.021C163.387 152.459 163.464 152.831 163.617 153.138C163.773 153.445 163.991 153.679 164.269 153.841C164.548 154 164.873 154.08 165.245 154.08C165.487 154.08 165.707 154.045 165.906 153.977C166.104 153.906 166.276 153.801 166.421 153.662C166.566 153.523 166.677 153.351 166.754 153.146L167.96 153.364C167.863 153.719 167.69 154.03 167.44 154.297C167.192 154.561 166.881 154.767 166.506 154.915C166.134 155.06 165.71 155.132 165.232 155.132ZM174.359 150.053L173.204 150.257C173.156 150.109 173.079 149.969 172.974 149.835C172.872 149.702 172.733 149.592 172.556 149.507C172.38 149.422 172.16 149.379 171.896 149.379C171.535 149.379 171.234 149.46 170.993 149.622C170.751 149.781 170.63 149.987 170.63 150.24C170.63 150.459 170.711 150.635 170.873 150.768C171.035 150.902 171.297 151.011 171.657 151.097L172.697 151.335C173.299 151.474 173.748 151.689 174.044 151.979C174.339 152.268 174.487 152.645 174.487 153.108C174.487 153.5 174.373 153.849 174.146 154.156C173.922 154.46 173.608 154.699 173.204 154.872C172.804 155.045 172.339 155.132 171.811 155.132C171.078 155.132 170.48 154.976 170.017 154.663C169.554 154.348 169.27 153.901 169.164 153.321L170.396 153.134C170.473 153.455 170.63 153.697 170.869 153.862C171.108 154.024 171.419 154.105 171.802 154.105C172.22 154.105 172.554 154.018 172.804 153.845C173.054 153.669 173.179 153.455 173.179 153.202C173.179 152.997 173.102 152.825 172.949 152.686C172.798 152.547 172.566 152.442 172.254 152.371L171.146 152.128C170.535 151.989 170.083 151.767 169.791 151.463C169.501 151.159 169.356 150.774 169.356 150.308C169.356 149.922 169.464 149.584 169.68 149.294C169.896 149.004 170.194 148.778 170.575 148.616C170.956 148.452 171.392 148.369 171.883 148.369C172.591 148.369 173.147 148.523 173.554 148.83C173.96 149.134 174.228 149.541 174.359 150.053ZM180.968 155.145C180.554 155.145 180.179 155.068 179.843 154.915C179.508 154.759 179.243 154.533 179.047 154.237C178.853 153.942 178.757 153.58 178.757 153.151C178.757 152.781 178.828 152.477 178.97 152.239C179.112 152 179.304 151.811 179.545 151.672C179.787 151.533 180.056 151.428 180.355 151.357C180.653 151.286 180.957 151.232 181.267 151.195C181.659 151.149 181.977 151.112 182.221 151.084C182.466 151.053 182.643 151.003 182.754 150.935C182.865 150.866 182.92 150.756 182.92 150.602V150.572C182.92 150.2 182.815 149.912 182.605 149.707C182.397 149.503 182.088 149.401 181.676 149.401C181.247 149.401 180.909 149.496 180.662 149.686C180.417 149.874 180.248 150.082 180.154 150.312L178.957 150.04C179.099 149.642 179.306 149.321 179.579 149.077C179.855 148.83 180.172 148.651 180.529 148.54C180.887 148.426 181.264 148.369 181.659 148.369C181.92 148.369 182.197 148.401 182.49 148.463C182.785 148.523 183.061 148.634 183.316 148.795C183.575 148.957 183.787 149.189 183.951 149.49C184.116 149.788 184.199 150.176 184.199 150.653V155H182.954V154.105H182.903C182.821 154.27 182.697 154.432 182.532 154.591C182.368 154.75 182.156 154.882 181.897 154.987C181.639 155.092 181.329 155.145 180.968 155.145ZM181.245 154.122C181.598 154.122 181.899 154.053 182.149 153.913C182.402 153.774 182.593 153.592 182.724 153.368C182.858 153.141 182.924 152.898 182.924 152.639V151.795C182.879 151.841 182.791 151.884 182.66 151.923C182.532 151.96 182.386 151.993 182.221 152.021C182.056 152.047 181.896 152.071 181.74 152.094C181.583 152.114 181.453 152.131 181.348 152.145C181.1 152.176 180.875 152.229 180.67 152.303C180.468 152.376 180.306 152.483 180.184 152.622C180.065 152.759 180.005 152.94 180.005 153.168C180.005 153.483 180.122 153.722 180.355 153.884C180.588 154.043 180.885 154.122 181.245 154.122ZM191.261 148.455L188.887 155H187.523L185.146 148.455H186.513L188.171 153.491H188.239L189.893 148.455H191.261ZM195.056 155.132C194.412 155.132 193.856 154.994 193.39 154.719C192.927 154.44 192.569 154.05 192.316 153.547C192.066 153.041 191.941 152.449 191.941 151.77C191.941 151.099 192.066 150.509 192.316 149.997C192.569 149.486 192.922 149.087 193.373 148.8C193.828 148.513 194.359 148.369 194.967 148.369C195.336 148.369 195.694 148.43 196.041 148.553C196.387 148.675 196.699 148.866 196.974 149.128C197.25 149.389 197.467 149.729 197.626 150.146C197.785 150.561 197.865 151.065 197.865 151.659V152.111H192.662V151.156H196.616C196.616 150.821 196.548 150.524 196.412 150.266C196.275 150.004 196.083 149.798 195.836 149.648C195.592 149.497 195.305 149.422 194.975 149.422C194.618 149.422 194.305 149.51 194.038 149.686C193.774 149.859 193.569 150.087 193.424 150.368C193.282 150.646 193.211 150.949 193.211 151.276V152.021C193.211 152.459 193.288 152.831 193.441 153.138C193.598 153.445 193.815 153.679 194.093 153.841C194.372 154 194.697 154.08 195.069 154.08C195.311 154.08 195.531 154.045 195.73 153.977C195.929 153.906 196.1 153.801 196.245 153.662C196.39 153.523 196.501 153.351 196.578 153.146L197.784 153.364C197.687 153.719 197.514 154.03 197.264 154.297C197.017 154.561 196.706 154.767 196.331 154.915C195.958 155.06 195.534 155.132 195.056 155.132ZM202.036 155.132C201.402 155.132 200.857 154.989 200.399 154.702C199.945 154.412 199.595 154.013 199.351 153.504C199.107 152.996 198.984 152.413 198.984 151.757C198.984 151.092 199.109 150.506 199.359 149.997C199.609 149.486 199.962 149.087 200.416 148.8C200.871 148.513 201.406 148.369 202.023 148.369C202.52 148.369 202.963 148.462 203.352 148.646C203.741 148.828 204.055 149.084 204.294 149.413C204.536 149.743 204.679 150.128 204.724 150.568H203.484C203.416 150.261 203.26 149.997 203.016 149.776C202.774 149.554 202.45 149.443 202.044 149.443C201.689 149.443 201.378 149.537 201.111 149.724C200.847 149.909 200.641 150.173 200.493 150.517C200.345 150.858 200.271 151.261 200.271 151.727C200.271 152.205 200.344 152.616 200.489 152.963C200.634 153.31 200.838 153.578 201.102 153.768C201.369 153.959 201.683 154.054 202.044 154.054C202.286 154.054 202.504 154.01 202.7 153.922C202.899 153.831 203.065 153.702 203.199 153.534C203.335 153.366 203.43 153.165 203.484 152.929H204.724C204.679 153.352 204.541 153.73 204.311 154.062C204.081 154.395 203.773 154.656 203.386 154.847C203.003 155.037 202.553 155.132 202.036 155.132ZM36.8565 177V170.455H38.0795V171.52H38.1605C38.2969 171.159 38.5199 170.878 38.8295 170.676C39.1392 170.472 39.5099 170.369 39.9418 170.369C40.3793 170.369 40.7457 170.472 41.0412 170.676C41.3395 170.881 41.5597 171.162 41.7017 171.52H41.7699C41.9261 171.17 42.1747 170.892 42.5156 170.685C42.8565 170.474 43.2628 170.369 43.7344 170.369C44.3281 170.369 44.8125 170.555 45.1875 170.928C45.5653 171.3 45.7543 171.861 45.7543 172.611V177H44.4801V172.73C44.4801 172.287 44.3594 171.966 44.1179 171.767C43.8764 171.568 43.5881 171.469 43.2528 171.469C42.8381 171.469 42.5156 171.597 42.2855 171.852C42.0554 172.105 41.9403 172.43 41.9403 172.828V177H40.6705V172.649C40.6705 172.294 40.5597 172.009 40.3381 171.793C40.1165 171.577 39.8281 171.469 39.473 171.469C39.2315 171.469 39.0085 171.533 38.804 171.661C38.6023 171.786 38.4389 171.96 38.3139 172.185C38.1918 172.409 38.1307 172.669 38.1307 172.964V177H36.8565ZM50.2191 177.132C49.6055 177.132 49.07 176.991 48.6126 176.71C48.1552 176.429 47.8001 176.036 47.5472 175.53C47.2944 175.024 47.168 174.433 47.168 173.757C47.168 173.078 47.2944 172.484 47.5472 171.976C47.8001 171.467 48.1552 171.072 48.6126 170.791C49.07 170.51 49.6055 170.369 50.2191 170.369C50.8327 170.369 51.3683 170.51 51.8256 170.791C52.283 171.072 52.6381 171.467 52.891 171.976C53.1438 172.484 53.2702 173.078 53.2702 173.757C53.2702 174.433 53.1438 175.024 52.891 175.53C52.6381 176.036 52.283 176.429 51.8256 176.71C51.3683 176.991 50.8327 177.132 50.2191 177.132ZM50.2234 176.062C50.6211 176.062 50.9506 175.957 51.212 175.747C51.4734 175.537 51.6665 175.257 51.7915 174.908C51.9194 174.558 51.9833 174.173 51.9833 173.753C51.9833 173.335 51.9194 172.952 51.7915 172.602C51.6665 172.25 51.4734 171.967 51.212 171.754C50.9506 171.541 50.6211 171.435 50.2234 171.435C49.8228 171.435 49.4904 171.541 49.2262 171.754C48.9648 171.967 48.7702 172.25 48.6424 172.602C48.5174 172.952 48.4549 173.335 48.4549 173.753C48.4549 174.173 48.5174 174.558 48.6424 174.908C48.7702 175.257 48.9648 175.537 49.2262 175.747C49.4904 175.957 49.8228 176.062 50.2234 176.062ZM55.9666 173.114V177H54.6925V170.455H55.9155V171.52H55.9964C56.147 171.173 56.3828 170.895 56.7038 170.685C57.0277 170.474 57.4354 170.369 57.9268 170.369C58.3729 170.369 58.7635 170.463 59.0987 170.651C59.4339 170.835 59.6939 171.111 59.8786 171.477C60.0632 171.844 60.1555 172.297 60.1555 172.837V177H58.8814V172.99C58.8814 172.516 58.7578 172.145 58.5107 171.878C58.2635 171.608 57.924 171.473 57.4922 171.473C57.1967 171.473 56.9339 171.537 56.7038 171.665C56.4766 171.793 56.2962 171.98 56.1626 172.227C56.032 172.472 55.9666 172.767 55.9666 173.114ZM65.0401 179.455V170.455H66.2844V171.516H66.391C66.4648 171.379 66.5714 171.222 66.7106 171.043C66.8498 170.864 67.043 170.707 67.2901 170.574C67.5373 170.438 67.864 170.369 68.2702 170.369C68.7987 170.369 69.2702 170.503 69.685 170.77C70.0998 171.037 70.4251 171.422 70.6609 171.925C70.8995 172.428 71.0188 173.033 71.0188 173.74C71.0188 174.447 70.9009 175.054 70.6651 175.56C70.4293 176.062 70.1055 176.45 69.6935 176.723C69.2816 176.993 68.8114 177.128 68.283 177.128C67.8853 177.128 67.56 177.061 67.3072 176.928C67.0572 176.794 66.8612 176.638 66.7191 176.459C66.5771 176.28 66.4677 176.121 66.391 175.982H66.3143V179.455H65.0401ZM66.2887 173.727C66.2887 174.187 66.3555 174.591 66.489 174.938C66.6225 175.284 66.8157 175.555 67.0685 175.751C67.3214 175.945 67.631 176.041 67.9975 176.041C68.3782 176.041 68.6964 175.94 68.9521 175.739C69.2077 175.534 69.4009 175.257 69.5316 174.908C69.6651 174.558 69.7319 174.165 69.7319 173.727C69.7319 173.295 69.6665 172.908 69.5359 172.564C69.408 172.22 69.2148 171.949 68.9563 171.75C68.7006 171.551 68.381 171.452 67.9975 171.452C67.6282 171.452 67.3157 171.547 67.06 171.737C66.8072 171.928 66.6154 172.193 66.4847 172.534C66.354 172.875 66.2887 173.273 66.2887 173.727ZM74.3512 177.145C73.9364 177.145 73.5614 177.068 73.2262 176.915C72.891 176.759 72.6254 176.533 72.4293 176.237C72.2362 175.942 72.1396 175.58 72.1396 175.151C72.1396 174.781 72.2106 174.477 72.3526 174.239C72.4947 174 72.6864 173.811 72.9279 173.672C73.1694 173.533 73.4393 173.428 73.7376 173.357C74.0359 173.286 74.3398 173.232 74.6495 173.195C75.0415 173.149 75.3597 173.112 75.604 173.084C75.8484 173.053 76.0259 173.003 76.1367 172.935C76.2475 172.866 76.3029 172.756 76.3029 172.602V172.572C76.3029 172.2 76.1978 171.912 75.9876 171.707C75.7802 171.503 75.4705 171.401 75.0586 171.401C74.6296 171.401 74.2915 171.496 74.0444 171.686C73.8001 171.874 73.631 172.082 73.5373 172.312L72.3398 172.04C72.4819 171.642 72.6893 171.321 72.962 171.077C73.2376 170.83 73.5543 170.651 73.9123 170.54C74.2702 170.426 74.6467 170.369 75.0415 170.369C75.3029 170.369 75.5799 170.401 75.8725 170.463C76.168 170.523 76.4435 170.634 76.6992 170.795C76.9577 170.957 77.1694 171.189 77.3342 171.49C77.4989 171.788 77.5813 172.176 77.5813 172.653V177H76.337V176.105H76.2859C76.2035 176.27 76.0799 176.432 75.9151 176.591C75.7504 176.75 75.5387 176.882 75.2802 176.987C75.0217 177.092 74.712 177.145 74.3512 177.145ZM74.6282 176.122C74.9805 176.122 75.2816 176.053 75.5316 175.913C75.7844 175.774 75.9762 175.592 76.1069 175.368C76.2404 175.141 76.3072 174.898 76.3072 174.639V173.795C76.2617 173.841 76.1737 173.884 76.043 173.923C75.9151 173.96 75.7688 173.993 75.604 174.021C75.4393 174.047 75.2788 174.071 75.1225 174.094C74.9663 174.114 74.8356 174.131 74.7305 174.145C74.4833 174.176 74.2575 174.229 74.0529 174.303C73.8512 174.376 73.6893 174.483 73.5671 174.622C73.4478 174.759 73.3881 174.94 73.3881 175.168C73.3881 175.483 73.5046 175.722 73.7376 175.884C73.9705 176.043 74.2674 176.122 74.6282 176.122ZM79.2784 177V170.455H80.5526V177H79.2784ZM79.9219 169.445C79.7003 169.445 79.5099 169.371 79.3509 169.223C79.1946 169.072 79.1165 168.893 79.1165 168.686C79.1165 168.476 79.1946 168.297 79.3509 168.149C79.5099 167.999 79.7003 167.923 79.9219 167.923C80.1435 167.923 80.3324 167.999 80.4886 168.149C80.6477 168.297 80.7273 168.476 80.7273 168.686C80.7273 168.893 80.6477 169.072 80.4886 169.223C80.3324 169.371 80.1435 169.445 79.9219 169.445ZM85.0877 177.132C84.4428 177.132 83.8874 176.994 83.4215 176.719C82.9585 176.44 82.6005 176.05 82.3477 175.547C82.0977 175.041 81.9727 174.449 81.9727 173.77C81.9727 173.099 82.0977 172.509 82.3477 171.997C82.6005 171.486 82.9528 171.087 83.4045 170.8C83.859 170.513 84.3903 170.369 84.9982 170.369C85.3675 170.369 85.7255 170.43 86.0721 170.553C86.4187 170.675 86.7298 170.866 87.0053 171.128C87.2809 171.389 87.4982 171.729 87.6573 172.146C87.8164 172.561 87.896 173.065 87.896 173.659V174.111H82.6928V173.156H86.6474C86.6474 172.821 86.5792 172.524 86.4428 172.266C86.3065 172.004 86.1147 171.798 85.8675 171.648C85.6232 171.497 85.3363 171.422 85.0067 171.422C84.6488 171.422 84.3363 171.51 84.0692 171.686C83.805 171.859 83.6005 172.087 83.4556 172.368C83.3136 172.646 83.2425 172.949 83.2425 173.276V174.021C83.2425 174.459 83.3192 174.831 83.4727 175.138C83.6289 175.445 83.8462 175.679 84.1246 175.841C84.4031 176 84.7283 176.08 85.1005 176.08C85.342 176.08 85.5621 176.045 85.761 175.977C85.9599 175.906 86.1317 175.801 86.2766 175.662C86.4215 175.523 86.5323 175.351 86.609 175.146L87.815 175.364C87.7184 175.719 87.5451 176.03 87.2951 176.297C87.0479 176.561 86.7369 176.767 86.3619 176.915C85.9897 177.06 85.565 177.132 85.0877 177.132ZM89.3097 177V170.455H90.5327V171.52H90.6136C90.75 171.159 90.973 170.878 91.2827 170.676C91.5923 170.472 91.9631 170.369 92.3949 170.369C92.8324 170.369 93.1989 170.472 93.4943 170.676C93.7926 170.881 94.0128 171.162 94.1548 171.52H94.223C94.3793 171.17 94.6278 170.892 94.9688 170.685C95.3097 170.474 95.7159 170.369 96.1875 170.369C96.7812 170.369 97.2656 170.555 97.6406 170.928C98.0185 171.3 98.2074 171.861 98.2074 172.611V177H96.9332V172.73C96.9332 172.287 96.8125 171.966 96.571 171.767C96.3295 171.568 96.0412 171.469 95.706 171.469C95.2912 171.469 94.9688 171.597 94.7386 171.852C94.5085 172.105 94.3935 172.43 94.3935 172.828V177H93.1236V172.649C93.1236 172.294 93.0128 172.009 92.7912 171.793C92.5696 171.577 92.2813 171.469 91.9261 171.469C91.6847 171.469 91.4616 171.533 91.2571 171.661C91.0554 171.786 90.892 171.96 90.767 172.185C90.6449 172.409 90.5838 172.669 90.5838 172.964V177H89.3097ZM102.736 177.132C102.091 177.132 101.536 176.994 101.07 176.719C100.607 176.44 100.249 176.05 99.9961 175.547C99.7461 175.041 99.6211 174.449 99.6211 173.77C99.6211 173.099 99.7461 172.509 99.9961 171.997C100.249 171.486 100.601 171.087 101.053 170.8C101.507 170.513 102.039 170.369 102.647 170.369C103.016 170.369 103.374 170.43 103.721 170.553C104.067 170.675 104.378 170.866 104.654 171.128C104.929 171.389 105.147 171.729 105.306 172.146C105.465 172.561 105.544 173.065 105.544 173.659V174.111H100.341V173.156H104.296C104.296 172.821 104.228 172.524 104.091 172.266C103.955 172.004 103.763 171.798 103.516 171.648C103.272 171.497 102.985 171.422 102.655 171.422C102.297 171.422 101.985 171.51 101.718 171.686C101.453 171.859 101.249 172.087 101.104 172.368C100.962 172.646 100.891 172.949 100.891 173.276V174.021C100.891 174.459 100.968 174.831 101.121 175.138C101.277 175.445 101.495 175.679 101.773 175.841C102.051 176 102.377 176.08 102.749 176.08C102.99 176.08 103.211 176.045 103.409 175.977C103.608 175.906 103.78 175.801 103.925 175.662C104.07 175.523 104.181 175.351 104.257 175.146L105.463 175.364C105.367 175.719 105.194 176.03 104.944 176.297C104.696 176.561 104.385 176.767 104.01 176.915C103.638 177.06 103.213 177.132 102.736 177.132ZM108.232 173.114V177H106.958V170.455H108.181V171.52H108.262C108.413 171.173 108.648 170.895 108.969 170.685C109.293 170.474 109.701 170.369 110.192 170.369C110.638 170.369 111.029 170.463 111.364 170.651C111.7 170.835 111.96 171.111 112.144 171.477C112.329 171.844 112.421 172.297 112.421 172.837V177H111.147V172.99C111.147 172.516 111.023 172.145 110.776 171.878C110.529 171.608 110.19 171.473 109.758 171.473C109.462 171.473 109.2 171.537 108.969 171.665C108.742 171.793 108.562 171.98 108.428 172.227C108.298 172.472 108.232 172.767 108.232 173.114ZM117.185 170.455V171.477H113.61V170.455H117.185ZM114.569 168.886H115.843V175.078C115.843 175.325 115.88 175.511 115.954 175.636C116.028 175.759 116.123 175.842 116.239 175.888C116.359 175.93 116.488 175.952 116.627 175.952C116.729 175.952 116.819 175.945 116.896 175.93C116.972 175.916 117.032 175.905 117.075 175.896L117.305 176.949C117.231 176.977 117.126 177.006 116.989 177.034C116.853 177.065 116.683 177.082 116.478 177.085C116.143 177.091 115.83 177.031 115.54 176.906C115.251 176.781 115.016 176.588 114.837 176.327C114.658 176.065 114.569 175.737 114.569 175.342V168.886ZM119.434 177.081C119.201 177.081 119.001 176.999 118.833 176.834C118.666 176.666 118.582 176.464 118.582 176.229C118.582 175.996 118.666 175.797 118.833 175.632C119.001 175.464 119.201 175.381 119.434 175.381C119.667 175.381 119.868 175.464 120.035 175.632C120.203 175.797 120.287 175.996 120.287 176.229C120.287 176.385 120.247 176.528 120.167 176.659C120.091 176.787 119.988 176.889 119.86 176.966C119.733 177.043 119.591 177.081 119.434 177.081Z" fill="#18365a"/>
<defs>
<clipPath id="clip0_3901_133329">
<rect width="20" height="20" fill="white" transform="translate(275 394)"/>
</clipPath>
</defs>
</svg>
