<svg width="138" height="69" viewBox="0 0 138 69" fill="none" xmlns="http://www.w3.org/2000/svg">
<rect x="0.5" y="0.944336" width="137" height="67" rx="11.5" stroke="#020111"/>
<path d="M78.9278 16C79.0116 16 79.0954 16 79.1839 16C79.3894 18.5388 78.4204 20.4358 77.2427 21.8095C76.0871 23.1738 74.5047 24.4969 71.9453 24.2961C71.7746 21.7937 72.7452 20.0374 73.9214 18.6668C75.0121 17.3895 77.0119 16.2529 78.9278 16Z" fill="black"/>
<path d="M86.6757 42.4249C86.6757 42.4502 86.6757 42.4724 86.6757 42.4961C85.9564 44.6744 84.9304 46.5414 83.6784 48.274C82.5355 49.8469 81.1349 51.9636 78.634 51.9636C76.4731 51.9636 75.0377 50.5741 72.8229 50.5361C70.4802 50.4982 69.1918 51.698 67.0498 52C66.8048 52 66.5597 52 66.3195 52C64.7465 51.7723 63.4771 50.5266 62.5524 49.4043C59.8254 46.0877 57.7182 41.8037 57.3262 36.3214C57.3262 35.7839 57.3262 35.248 57.3262 34.7105C57.4922 30.7869 59.3986 27.5969 61.9327 26.0508C63.2701 25.2288 65.1085 24.5285 67.1557 24.8415C68.0331 24.9774 68.9294 25.2778 69.7151 25.575C70.4596 25.8611 71.3907 26.3686 72.2728 26.3417C72.8704 26.3243 73.4648 26.0129 74.067 25.7931C75.8312 25.1561 77.5607 24.4257 79.8402 24.7688C82.5798 25.1829 84.5242 26.4002 85.7256 28.2782C83.4081 29.7531 81.5759 31.9757 81.8889 35.7713C82.1672 39.219 84.1716 41.2362 86.6757 42.4249Z" fill="black"/>
</svg>
