<svg width="174" height="42" viewBox="0 0 174 42" fill="none" xmlns="http://www.w3.org/2000/svg">
<path d="M28.2535 13.0907L21.963 19.3458L3.49719 0.522123C4.42329 -0.0376792 5.63002 -0.124135 6.69859 0.498348L28.2535 13.0907Z" fill="#00F076"/>
<path d="M28.4088 27.9519L6.69845 40.6329C5.40105 41.3915 3.89642 41.0976 2.94226 40.1854L21.9628 21.3618L28.4088 27.9519Z" fill="#F73448"/>
<path d="M35.687 23.2793L29.4634 26.9148L29.4138 26.9429L22.97 20.3527L29.2605 14.0977L29.3102 14.1258L35.6892 17.852C37.7637 19.0646 37.7637 22.0667 35.6892 23.2793H35.687Z" fill="#FFCA00"/>
<path d="M1.93623 39.178C1.92327 39.1651 1.91032 39.1521 1.89737 39.1391C1.3361 38.5836 0.975592 37.8099 0.975592 36.9107V4.21954C0.973433 3.05455 1.58004 2.09921 2.44353 1.55886C2.45864 1.54805 2.47591 1.53941 2.49102 1.53076L20.9568 20.3544L1.93623 39.178Z" fill="#00D2FF"/>
<path d="M71.7749 25.0166H62.745V27.5216H69.0765C68.3188 30.312 65.7715 32.3632 62.745 32.3632C59.1205 32.3632 56.1824 29.4215 56.1824 25.7925C56.1824 22.1635 59.1205 19.2219 62.745 19.2219C64.459 19.2219 66.0176 19.8789 67.1855 20.9553L68.9556 19.183C67.3344 17.6527 65.1476 16.7168 62.745 16.7168C57.7389 16.7168 53.6826 20.7802 53.6826 25.7904C53.6826 30.8005 57.741 34.8639 62.745 34.8639C67.7489 34.8639 71.8073 30.8005 71.8073 25.7904C71.8073 25.5288 71.7965 25.2695 71.7749 25.0144V25.0166Z" fill="#18365A"/>
<path d="M78.9096 23.1406C75.7082 23.1406 73.1134 25.7559 73.1134 28.9807C73.1134 32.2055 75.7082 34.8208 78.9096 34.8208C82.111 34.8208 84.7058 32.2055 84.7058 28.9807C84.7058 25.7559 82.111 23.1406 78.9096 23.1406ZM78.9096 32.5038C77.1567 32.5038 75.7384 30.9692 75.7384 29.0758C75.7384 27.1824 77.1589 25.6478 78.9096 25.6478C80.6603 25.6478 82.0808 27.1824 82.0808 29.0758C82.0808 30.9692 80.6603 32.5038 78.9096 32.5038Z" fill="#18365A"/>
<path d="M91.804 23.1406C88.6026 23.1406 86.0078 25.7559 86.0078 28.9807C86.0078 32.2055 88.6026 34.8208 91.804 34.8208C95.0054 34.8208 97.6002 32.2055 97.6002 28.9807C97.6002 25.7559 95.0054 23.1406 91.804 23.1406ZM91.804 32.5038C90.0511 32.5038 88.6328 30.9692 88.6328 29.0758C88.6328 27.1824 90.0533 25.6478 91.804 25.6478C93.5547 25.6478 94.9752 27.1824 94.9752 29.0758C94.9752 30.9692 93.5547 32.5038 91.804 32.5038Z" fill="#18365A"/>
<path d="M113.441 16.7188H110.939V35.0539H113.441V16.7188Z" fill="#18365A"/>
<path d="M123.724 30.48C123.349 31.2517 122.701 31.8504 121.902 32.1638C121.054 32.4966 120.126 32.4793 119.29 32.1119C118.759 31.8785 118.304 31.524 117.958 31.0766L126.457 27.7437L126.326 27.3006C126.278 27.1364 126.222 26.9764 126.162 26.8208C125.585 25.3489 124.471 24.1904 123.025 23.5571C121.579 22.9238 119.973 22.8935 118.502 23.4685C117.032 24.0456 115.875 25.1608 115.243 26.609C114.61 28.0571 114.58 29.6652 115.154 31.1371C115.731 32.609 116.845 33.7675 118.291 34.4008C119.051 34.7337 119.854 34.9001 120.657 34.9001C121.386 34.9001 122.114 34.7639 122.813 34.4894C124.221 33.9383 125.352 32.8814 126 31.5132L126.222 31.0442L123.938 30.0434L123.727 30.4779L123.724 30.48ZM122.939 26.4382L117.255 28.6666C117.287 28.3078 117.38 27.9512 117.529 27.6119C117.894 26.7754 118.563 26.1313 119.411 25.7985C119.815 25.6407 120.236 25.5629 120.653 25.5629C121.488 25.5629 122.308 25.8698 122.939 26.4382Z" fill="#18365A"/>
<path d="M107.132 23.1403V24.1692C106.286 23.5208 105.261 23.1403 104.155 23.1403C101.254 23.1403 98.9032 25.7556 98.9032 28.9804C98.9032 32.2053 101.254 34.8206 104.155 34.8206C105.261 34.8206 106.286 34.4401 107.132 33.7917V35.0518C107.132 35.7737 106.614 37.7773 104.253 37.7773C101.891 37.7773 101.228 35.6657 101.228 35.6657L98.9615 36.7226C98.9615 36.7226 99.8142 40.0555 104.479 40.0555C107.005 40.0555 108.309 38.5879 108.972 37.2413C109.421 36.3292 109.636 35.3198 109.636 34.3018V23.1382H107.134L107.132 23.1403ZM104.155 32.5035C102.569 32.5035 101.28 30.9689 101.28 29.0755C101.28 27.1822 102.567 25.6476 104.155 25.6476C105.744 25.6476 107.031 27.1822 107.031 29.0755C107.031 30.9689 105.744 32.5035 104.155 32.5035Z" fill="#18365A"/>
<path d="M137.627 16.7188H135.125V35.0539H137.627V16.7188Z" fill="#18365A"/>
<path d="M141.128 16.7188V19.2238C142.881 19.2238 144.3 20.7584 144.3 22.6518C144.3 24.5452 142.879 26.0798 141.128 26.0798V28.399C144.33 28.399 146.925 25.7837 146.925 22.5589C146.925 19.334 144.33 16.7188 141.128 16.7188Z" fill="#18365A"/>
<path d="M141.128 16.7188H136.927V19.2238H141.128V16.7188Z" fill="#18365A"/>
<path d="M141.128 26.0825H136.927V28.4017H141.128V26.0825Z" fill="#18365A"/>
<path d="M150.729 16.7188H148.227V35.0539H150.729V16.7188Z" fill="#18365A"/>
<path d="M158.903 33.4532L159.21 33.1225V34.8754H161.315V27.3083C161.315 26.6037 161.231 25.9899 161.064 25.4798C160.902 24.9826 160.641 24.5741 160.287 24.2607C159.931 23.9452 159.467 23.7074 158.908 23.554C158.338 23.3962 157.641 23.3184 156.831 23.3184C156.378 23.3184 155.933 23.3551 155.506 23.4286C155.078 23.5021 154.679 23.5972 154.318 23.7139C154.005 23.8133 153.722 23.9236 153.479 24.0381L153.612 26.0223C153.766 25.9445 153.941 25.8623 154.133 25.7759C154.439 25.6397 154.795 25.5122 155.193 25.3998C155.596 25.2852 156.06 25.2269 156.572 25.2269C156.967 25.2269 157.304 25.2701 157.576 25.3522C157.861 25.4409 158.094 25.5792 158.269 25.7672C158.441 25.9531 158.567 26.1887 158.642 26.4632C158.713 26.7269 158.748 27.0338 158.748 27.3796V28.1966H157.541C156.619 28.1966 155.799 28.268 155.104 28.4063C154.418 28.5446 153.839 28.7564 153.384 29.0396C152.937 29.3184 152.596 29.6729 152.371 30.0965C152.144 30.5223 152.03 31.0346 152.03 31.6181C152.03 32.1585 152.121 32.6362 152.298 33.0382C152.475 33.438 152.727 33.7774 153.049 34.0454C153.373 34.3177 153.761 34.5252 154.206 34.6636C154.655 34.804 155.158 34.8754 155.698 34.8754C156.345 34.8754 156.943 34.75 157.474 34.5014C158.008 34.2507 158.489 33.8984 158.903 33.451V33.4532ZM157.593 32.7788C157.215 33.0079 156.797 33.1246 156.347 33.1246C155.808 33.1246 155.376 32.982 155.063 32.701C154.746 32.4135 154.584 32.0202 154.584 31.5274C154.584 31.2399 154.64 30.9805 154.75 30.7557C154.862 30.5266 155.039 30.3299 155.279 30.17C155.51 30.0165 155.81 29.8998 156.168 29.8242C156.518 29.7507 156.943 29.7139 157.435 29.7139H158.748V31.7586L158.703 31.8083C158.329 32.2298 157.956 32.5562 157.591 32.7788H157.593Z" fill="#18365A"/>
<path d="M171.251 23.3369L169.423 27.5711L168.298 30.1734L167.536 28.4119L165.345 23.3369H162.62L166.174 31.5654L166.966 33.4004L164.902 38.4473H167.629L169.423 33.8824L170.785 30.7267L173.975 23.3369H171.251Z" fill="#18365A"/>
<path d="M68.8632 9.89055C68.8632 9.95107 68.8589 10.0051 68.8502 10.0527C68.8416 10.1002 68.8265 10.1391 68.8049 10.1715C68.7833 10.204 68.7596 10.2299 68.7315 10.245C68.7034 10.2623 68.6732 10.2688 68.6408 10.2688H64.3946C64.3104 10.2688 64.2241 10.2364 64.1355 10.1737C64.047 10.111 64.0017 9.9943 64.0017 9.82571V1.634C64.0017 1.46542 64.047 1.35086 64.1355 1.28602C64.2241 1.22334 64.3104 1.19092 64.3946 1.19092H68.5782C68.6106 1.19092 68.6408 1.19956 68.6689 1.21469C68.6969 1.23198 68.7207 1.25576 68.738 1.28818C68.7574 1.3206 68.7703 1.36167 68.779 1.41138C68.7876 1.46109 68.7919 1.51729 68.7919 1.58429C68.7919 1.64481 68.7876 1.69885 68.779 1.7464C68.7703 1.79395 68.7552 1.83069 68.738 1.86311C68.7185 1.89337 68.6969 1.91715 68.6689 1.93228C68.6408 1.94957 68.6106 1.95605 68.5782 1.95605H64.8566V5.14844H68.0666C68.1033 5.14844 68.1357 5.15709 68.1637 5.17222C68.1918 5.18951 68.2156 5.21112 68.2328 5.24138C68.2523 5.27164 68.2652 5.31055 68.2738 5.36026C68.2825 5.40997 68.2868 5.46617 68.2868 5.53317C68.2868 5.59369 68.2825 5.64556 68.2738 5.69095C68.2652 5.73634 68.2501 5.77092 68.2328 5.79902C68.2134 5.82712 68.1918 5.84873 68.1637 5.8617C68.1357 5.87467 68.1033 5.88332 68.0666 5.88332H64.8566V9.50366H68.6408C68.6732 9.50366 68.7034 9.51231 68.7315 9.52744C68.7596 9.54473 68.7833 9.56634 68.8049 9.5966C68.8265 9.62686 68.8416 9.66577 68.8502 9.71548C68.8589 9.76519 68.8632 9.82139 68.8632 9.88839V9.89055Z" fill="#18365A"/>
<path d="M76.5094 1.58429C76.5094 1.64481 76.5051 1.69885 76.4965 1.7464C76.4878 1.79395 76.4727 1.83069 76.4554 1.86311C76.436 1.89337 76.4144 1.91715 76.3864 1.93228C76.3583 1.94957 76.3281 1.95605 76.2957 1.95605H73.5908V10.1305C73.5908 10.1586 73.5843 10.1845 73.5692 10.2083C73.5541 10.2321 73.5325 10.2493 73.5001 10.2645C73.4678 10.2774 73.4224 10.2904 73.3663 10.2991C73.3102 10.3077 73.2433 10.312 73.1634 10.312C73.0835 10.312 73.0166 10.3077 72.9605 10.2991C72.9043 10.2904 72.859 10.2774 72.8266 10.2645C72.7942 10.2515 72.7705 10.2321 72.7575 10.2083C72.7446 10.1845 72.7359 10.1586 72.7359 10.1305V1.95605H70.0311C69.9944 1.95605 69.962 1.94741 69.9361 1.93228C69.9102 1.91499 69.8886 1.89337 69.8692 1.86311C69.8497 1.83285 69.8368 1.79395 69.8281 1.7464C69.8195 1.69885 69.8152 1.64481 69.8152 1.58429C69.8152 1.51945 69.8195 1.46109 69.8281 1.41138C69.8368 1.36167 69.8519 1.3206 69.8692 1.28818C69.8886 1.25576 69.9102 1.22982 69.9361 1.21469C69.962 1.1974 69.9922 1.19092 70.0311 1.19092H76.2957C76.3281 1.19092 76.3583 1.19956 76.3864 1.21469C76.4144 1.23198 76.4382 1.25576 76.4554 1.28818C76.4749 1.3206 76.4878 1.36167 76.4965 1.41138C76.5051 1.46109 76.5094 1.51729 76.5094 1.58429Z" fill="#18365A"/>
<path d="M82.0513 10.131C82.0513 10.1591 82.0448 10.185 82.0297 10.2088C82.0146 10.2326 81.993 10.2499 81.9606 10.265C81.9282 10.278 81.885 10.2909 81.8311 10.2996C81.7771 10.3082 81.708 10.3126 81.6238 10.3126C81.544 10.3126 81.477 10.3082 81.4209 10.2996C81.3648 10.2909 81.3195 10.278 81.2871 10.265C81.2547 10.252 81.231 10.2326 81.218 10.2088C81.205 10.185 81.1964 10.1591 81.1964 10.131V1.33195C81.1964 1.30385 81.205 1.27791 81.2202 1.25414C81.2374 1.23036 81.2612 1.21307 81.2979 1.19794C81.3324 1.18497 81.3777 1.172 81.4317 1.16336C81.4857 1.15471 81.5504 1.15039 81.6238 1.15039C81.708 1.15039 81.7771 1.15471 81.8311 1.16336C81.885 1.172 81.9282 1.18497 81.9606 1.19794C81.993 1.21091 82.0167 1.23036 82.0297 1.25414C82.0426 1.27791 82.0513 1.30385 82.0513 1.33195V10.131Z" fill="#18365A"/>
<path d="M90.1939 1.58429C90.1939 1.64481 90.1895 1.69885 90.1809 1.7464C90.1723 1.79395 90.1572 1.83069 90.1399 1.86311C90.1205 1.89337 90.0989 1.91715 90.0708 1.93228C90.0427 1.94957 90.0125 1.95605 89.9801 1.95605H87.2753V10.1305C87.2753 10.1586 87.2688 10.1845 87.2537 10.2083C87.2386 10.2321 87.217 10.2493 87.1846 10.2645C87.1522 10.2774 87.1069 10.2904 87.0507 10.2991C86.9946 10.3077 86.9277 10.312 86.8478 10.312C86.7679 10.312 86.701 10.3077 86.6449 10.2991C86.5888 10.2904 86.5434 10.2774 86.5111 10.2645C86.4787 10.2515 86.4549 10.2321 86.442 10.2083C86.429 10.1845 86.4204 10.1586 86.4204 10.1305V1.95605H83.7155C83.6788 1.95605 83.6464 1.94741 83.6205 1.93228C83.5946 1.91499 83.573 1.89337 83.5536 1.86311C83.5342 1.83285 83.5212 1.79395 83.5126 1.7464C83.504 1.69885 83.4996 1.64481 83.4996 1.58429C83.4996 1.51945 83.504 1.46109 83.5126 1.41138C83.5212 1.36167 83.5363 1.3206 83.5536 1.28818C83.573 1.25576 83.5946 1.22982 83.6205 1.21469C83.6464 1.1974 83.6766 1.19092 83.7155 1.19092H89.9801C90.0125 1.19092 90.0427 1.19956 90.0708 1.21469C90.0989 1.23198 90.1226 1.25576 90.1399 1.28818C90.1593 1.3206 90.1723 1.36167 90.1809 1.41138C90.1895 1.46109 90.1939 1.51729 90.1939 1.58429Z" fill="#18365A"/>
<path d="M102.174 5.62682C102.174 6.35089 102.092 7.00796 101.926 7.5937C101.76 8.1816 101.512 8.68088 101.179 9.09587C100.847 9.51086 100.43 9.82858 99.925 10.0534C99.4198 10.2782 98.8327 10.3905 98.1591 10.3905C97.4856 10.3905 96.9092 10.2846 96.4257 10.0707C95.9421 9.85884 95.5449 9.55409 95.2341 9.15855C94.9232 8.76301 94.6944 8.28102 94.5476 7.71041C94.4008 7.1398 94.3274 6.49571 94.3274 5.78028C94.3274 5.06486 94.4094 4.42292 94.5735 3.84367C94.7375 3.26441 94.9858 2.76945 95.3204 2.36095C95.655 1.95244 96.0716 1.63472 96.5746 1.40993C97.0776 1.18515 97.6669 1.07275 98.3448 1.07275C99.0226 1.07275 99.5731 1.17866 100.055 1.38832C100.536 1.59797 100.933 1.90057 101.248 2.29394C101.563 2.68732 101.797 3.16283 101.95 3.72479C102.101 4.28676 102.177 4.92005 102.177 5.62682H102.174ZM101.263 5.70463C101.263 5.16644 101.214 4.66284 101.112 4.19381C101.011 3.72479 100.847 3.31413 100.616 2.96614C100.385 2.61815 100.078 2.34366 99.694 2.14481C99.3119 1.94596 98.837 1.84653 98.2714 1.84653C97.7058 1.84653 97.2374 1.95028 96.8531 2.15778C96.4667 2.36527 96.1537 2.64625 95.9141 2.9964C95.6744 3.34655 95.4996 3.75721 95.396 4.22407C95.2923 4.69094 95.2384 5.1859 95.2384 5.70463C95.2384 6.25579 95.2859 6.7702 95.383 7.24355C95.478 7.71906 95.6421 8.13188 95.8709 8.48203C96.0997 8.83218 96.4062 9.10668 96.7883 9.30552C97.1704 9.50437 97.6497 9.6038 98.2239 9.6038C98.7981 9.6038 99.273 9.49789 99.6595 9.28391C100.048 9.07209 100.361 8.78679 100.599 8.428C100.836 8.0692 101.006 7.65638 101.11 7.18519C101.214 6.71617 101.263 6.22121 101.263 5.70247V5.70463Z" fill="#18365A"/>
<path d="M110.779 9.85596C110.779 9.94026 110.766 10.0094 110.74 10.0656C110.714 10.1218 110.682 10.1672 110.643 10.2018C110.604 10.2364 110.559 10.2623 110.509 10.2753C110.46 10.2882 110.414 10.2969 110.373 10.2969H110.198C110.106 10.2969 110.019 10.2861 109.944 10.2623C109.866 10.2385 109.793 10.1975 109.719 10.1391C109.646 10.0807 109.575 10.0029 109.501 9.90351C109.428 9.80625 109.348 9.67873 109.259 9.52527L106.064 3.85592C105.905 3.57926 105.745 3.29611 105.585 3.00433C105.423 2.71254 105.27 2.42723 105.125 2.15273H105.119C105.123 2.49424 105.125 2.84438 105.125 3.20101V10.1305C105.125 10.1586 105.119 10.1845 105.104 10.2083C105.089 10.232 105.067 10.2493 105.035 10.2645C105.002 10.2774 104.959 10.2904 104.905 10.2991C104.851 10.3077 104.782 10.312 104.698 10.312C104.618 10.312 104.551 10.3077 104.495 10.2991C104.439 10.2904 104.394 10.2774 104.361 10.2645C104.329 10.2515 104.305 10.232 104.292 10.2083C104.279 10.1845 104.271 10.1586 104.271 10.1305V1.634C104.271 1.46541 104.316 1.35085 104.404 1.28601C104.493 1.22333 104.579 1.19091 104.663 1.19091H105.013C105.125 1.19091 105.218 1.19956 105.294 1.21901C105.369 1.23846 105.436 1.26872 105.497 1.31411C105.557 1.3595 105.618 1.42218 105.676 1.50431C105.734 1.58645 105.799 1.69019 105.868 1.81556L108.314 6.15781C108.467 6.43014 108.614 6.68951 108.752 6.94023C108.89 7.19096 109.024 7.4352 109.156 7.67727C109.287 7.91719 109.417 8.15494 109.544 8.38837C109.674 8.6218 109.799 8.8574 109.926 9.09731H109.933C109.929 8.70394 109.926 8.29543 109.926 7.86964V1.3595C109.926 1.3314 109.933 1.30547 109.948 1.28169C109.963 1.25791 109.985 1.23846 110.017 1.22117C110.049 1.20388 110.093 1.19307 110.147 1.18659C110.201 1.1801 110.27 1.17578 110.354 1.17578C110.429 1.17578 110.494 1.1801 110.55 1.18659C110.606 1.19307 110.652 1.20604 110.684 1.22117C110.716 1.23846 110.74 1.25791 110.757 1.28169C110.775 1.30547 110.781 1.3314 110.781 1.3595V9.85596H110.779Z" fill="#18365A"/>
<path d="M53.6826 5.72321C53.6826 8.17207 55.673 10.1649 58.1188 10.1649C60.5646 10.1649 62.555 8.17207 62.555 5.72321C62.555 5.66053 62.555 5.59785 62.5507 5.53516H58.3282V6.39972H61.6375L61.5663 6.66558C61.1453 8.21746 59.7271 9.30249 58.1188 9.30249C56.1479 9.30249 54.5461 7.69873 54.5461 5.72537C54.5461 3.75201 56.1479 2.14825 58.1188 2.14825C58.9499 2.14825 59.7465 2.43572 60.3855 2.96094L60.9986 2.3471C60.1955 1.65978 59.1809 1.28369 58.1188 1.28369C55.673 1.28369 53.6826 3.2765 53.6826 5.72537V5.72321Z" fill="#18365A"/>
</svg>
