<svg width="16" height="16" viewBox="0 0 16 16" fill="none" xmlns="http://www.w3.org/2000/svg">
<g clip-path="url(#clip0_3804_38732)">
<path d="M15.8856 7.79635L0.256207 1.42836C0.0910864 1.36109 -0.063427 1.54473 0.0310707 1.69593L3.90989 7.90087C3.9347 7.94054 3.9348 7.99089 3.91017 8.03066L0.0283484 14.3037C-0.0654303 14.4553 0.0897402 14.6381 0.254517 14.5703L15.8862 8.13642C16.0382 8.07384 16.0378 7.8584 15.8856 7.79635Z" fill="#d8b56c"/>
<path d="M15.8861 8.13672C15.9613 8.10577 15.9991 8.03743 15.9998 7.96875L3.9283 7.96875C3.92786 7.99034 3.92188 8.01187 3.91008 8.03096L0.0282609 14.304C-0.0655177 14.4556 0.0896527 14.6384 0.25443 14.5706L15.8861 8.13672Z" fill="#BC9C00"/>
</g>
<defs>
<clipPath id="clip0_3804_38732">
<rect width="16" height="16" fill="white" transform="translate(16) rotate(90)"/>
</clipPath>
</defs>
</svg>
