<svg width="16" height="16" viewBox="0 0 16 16" fill="none" xmlns="http://www.w3.org/2000/svg">
<g clip-path="url(#clip0_3804_32445)">
<path d="M0.114399 8.20365L15.7438 14.5716C15.9089 14.6389 16.0634 14.4553 15.9689 14.3041L12.0901 8.09913C12.0653 8.05946 12.0652 8.00911 12.0898 7.96934L15.9717 1.69625C16.0654 1.54471 15.9103 1.36185 15.7455 1.42966L0.113804 7.86358C-0.0382372 7.92616 -0.0378304 8.1416 0.114399 8.20365Z" fill="#B8B8B8"/>
<path d="M0.113892 7.86328C0.0387003 7.89423 0.000932532 7.96257 0.000244141 8.03125L12.0717 8.03125C12.0721 8.00966 12.0781 7.98813 12.0899 7.96904L15.9717 1.69596C16.0655 1.54442 15.9103 1.36156 15.7456 1.42936L0.113892 7.86328Z" fill="#AAAAAA"/>
</g>
<defs>
<clipPath id="clip0_3804_32445">
<rect width="16" height="16" fill="white" transform="translate(0 16) rotate(-90)"/>
</clipPath>
</defs>
</svg>
