<svg width="13" height="15" viewBox="0 0 13 15" fill="none" xmlns="http://www.w3.org/2000/svg">
<path d="M6.67491 8.23129L5.23305 10.4602L3.85718 11.049C3.04653 10.1202 2.18079 9.01836 1.77148 7.62525L2.59528 6.0931L3.92017 5.47656C3.89659 5.61823 3.88082 5.75991 3.88082 5.90945C3.88082 7.20808 4.94333 8.27065 6.24202 8.27065C6.39156 8.27065 6.53323 8.25488 6.67491 8.23129Z" fill="#18365a"/>
<path d="M8.56554 6.34206C8.58915 6.20118 8.60463 6.06029 8.60463 5.91154C8.60463 4.61393 7.54367 3.55191 6.24632 3.55034H6.24343C6.09389 3.55034 5.95222 3.56608 5.81055 3.58969L7.90414 1.49609C9.17132 1.96833 10.1866 2.98365 10.6589 4.25083L8.56528 6.34442C8.56528 6.34363 8.56554 6.34285 8.56554 6.34206Z" fill="#18365a"/>
<path d="M10.6588 4.25083L9.94256 5.64918L8.5652 6.34442C8.5652 6.34363 8.56546 6.34285 8.56546 6.34206C8.58907 6.20118 8.60455 6.06029 8.60455 5.91154C8.60455 4.61393 7.54359 3.55191 6.24624 3.55034H6.24414V3.15602L6.71559 2.10738L7.90406 1.49609C9.17124 1.96833 10.1866 2.98365 10.6588 4.25083Z" fill="#18365a"/>
<path d="M10.6597 4.25L8.56608 6.34357C8.38503 7.29595 7.62947 8.0515 6.6771 8.23255H6.67707L4.39794 10.5117L3.85938 11.0502C3.9932 11.1997 4.11124 11.3336 4.23719 11.4752C5.10299 12.4591 5.8507 13.3616 5.8507 14.2274C5.8507 14.4477 6.02383 14.6209 6.24424 14.6209C6.46464 14.6209 6.63777 14.4477 6.63777 14.2274C6.63777 13.3616 7.38548 12.4591 8.25126 11.4753C9.46336 10.1136 10.9666 8.41358 10.9666 5.91071C10.9666 5.32828 10.8643 4.76946 10.6597 4.25Z" fill="#18365a"/>
<path d="M10.6597 4.25L8.56618 6.34354C8.38512 7.29592 7.62957 8.0515 6.67719 8.23255C6.67716 8.23255 6.67716 8.23255 6.67714 8.23255L6.24512 8.66455V14.6208C6.46513 14.6203 6.63784 14.4474 6.63784 14.2274C6.63784 13.3616 7.38555 12.4591 8.25132 11.4753C9.46343 10.1136 10.9667 8.41358 10.9667 5.91071C10.9667 5.32828 10.8644 4.76946 10.6597 4.25Z" fill="#18365a"/>
<path d="M6.24316 8.66645L6.67524 8.23438C6.53385 8.25791 6.39244 8.27352 6.24316 8.27362V8.66645Z" fill="#18365a"/>
<path d="M7.90314 1.49836L5.80955 3.59196C5.32944 3.68641 4.9044 3.91463 4.57385 4.24525L3.35652 3.73625L2.90527 2.57664C3.75533 1.71871 4.93593 1.19141 6.24243 1.19141C6.82486 1.19141 7.38368 1.29372 7.90314 1.49836Z" fill="#18365a"/>
<path d="M6.24414 3.15818L7.90404 1.49828C7.38484 1.29372 6.82628 1.19151 6.24417 1.19141V3.15818H6.24414Z" fill="#18365a"/>
<path d="M4.57432 4.24671C4.24378 4.57727 4.01548 5.00226 3.92106 5.4824L1.77237 7.63109C1.61496 7.10378 1.52051 6.53707 1.52051 5.91529C1.52051 4.60873 2.04782 3.42813 2.90574 2.57812L4.57432 4.24671Z" fill="#18365a"/>
</svg>
