<svg width="35" height="35" viewBox="0 0 35 35" fill="none" xmlns="http://www.w3.org/2000/svg">
<path d="M10.4216 2.8548C9.63962 2.8548 9.00568 3.48874 9.00568 4.27075V5.68671H7.58972C6.0257 5.68671 4.75781 6.9546 4.75781 8.51862V11.3505H30.245V8.51862C30.245 6.9546 28.9771 5.68671 27.4131 5.68671H25.9971V4.27075C25.9971 3.48874 25.3632 2.8548 24.5812 2.8548H23.1652C22.3832 2.8548 21.7493 3.48874 21.7493 4.27075V5.68671H13.2535V4.27075C13.2535 3.48874 12.6196 2.8548 11.8376 2.8548H10.4216Z" fill="#6C6C6C"/>
<path fill-rule="evenodd" clip-rule="evenodd" d="M30.245 14.1824H4.75781V26.926C4.75781 28.49 6.0257 29.7579 7.58972 29.7579H27.4131C28.9771 29.7579 30.245 28.49 30.245 26.926V14.1824ZM9.00568 18.4303C9.00568 17.6483 9.63962 17.0143 10.4216 17.0143H13.2535C14.0355 17.0143 14.6695 17.6483 14.6695 18.4303V19.8463C14.6695 20.6283 14.0355 21.2622 13.2535 21.2622H10.4216C9.63962 21.2622 9.00568 20.6283 9.00568 19.8463V18.4303Z" fill="#6C6C6C"/>
</svg>
