<svg width="35" height="35" viewBox="0 0 35 35" fill="none" xmlns="http://www.w3.org/2000/svg">
<path fill-rule="evenodd" clip-rule="evenodd" d="M22.961 24.6445H15.1733C14.5871 24.6445 14.1113 24.1704 14.1113 23.5862C14.1113 23.0021 14.5871 22.528 15.1733 22.528H22.961C23.5472 22.528 24.023 23.0021 24.023 23.5862C24.023 24.1704 23.5472 24.6445 22.961 24.6445ZM12.7095 14.3283C12.7095 14.7192 12.3909 15.0338 12.0015 15.0338H6.33771C5.94549 15.0338 5.62973 14.7192 5.62973 14.3283V10.8007C5.62973 10.4126 5.94549 10.0951 6.33771 10.0951H12.0015C12.3909 10.0951 12.7095 10.4126 12.7095 10.8007V14.3283ZM10.9254 24.6445H6.67753C6.09133 24.6445 5.61557 24.1704 5.61557 23.5862C5.61557 23.0021 6.09133 22.528 6.67753 22.528H10.9254C11.5116 22.528 11.9874 23.0021 11.9874 23.5862C11.9874 24.1704 11.5116 24.6445 10.9254 24.6445ZM31.1169 6.5675H4.21378C3.04137 6.5675 2.08984 7.51573 2.08984 8.68409V27.0278C2.08984 28.1976 3.04137 29.1444 4.21378 29.1444H31.1169C32.2907 29.1444 33.2408 28.1976 33.2408 27.0278V8.68409C33.2408 7.51573 32.2907 6.5675 31.1169 6.5675Z" fill="#6C6C6C"/>
</svg>
