<svg width="16" height="16" viewBox="0 0 16 16" fill="none" xmlns="http://www.w3.org/2000/svg">
<g clip-path="url(#clip0_3689_23516)">
<path d="M11.4229 8.41373C11.188 8.41373 10.9976 8.22332 10.9976 7.98846C10.9976 7.75359 11.188 7.56318 11.4229 7.56318H12.6771C12.5819 6.51071 12.1325 5.48455 11.3286 4.68061C10.5246 3.87667 9.49843 3.42729 8.44596 3.33203V4.58625C8.44596 4.82112 8.25555 5.01153 8.02068 5.01153C7.78582 5.01153 7.59541 4.82112 7.59541 4.58625V3.33203C6.54294 3.42726 5.51675 3.87664 4.71281 4.68058C3.90887 5.48455 3.45952 6.51071 3.36426 7.56318H4.61848C4.85335 7.56318 5.04376 7.75359 5.04376 7.98846C5.04376 8.22332 4.85335 8.41373 4.61848 8.41373H3.36426C3.45949 9.46621 3.90887 10.4924 4.71281 11.2963C5.51675 12.1002 6.54294 12.5496 7.59541 12.6449V11.3907C7.59541 11.1558 7.78582 10.9654 8.02068 10.9654C8.25555 10.9654 8.44596 11.1558 8.44596 11.3907V12.6449C9.49843 12.5497 10.5246 12.1003 11.3286 11.2963C12.1325 10.4924 12.5819 9.46623 12.6771 8.41376H11.4229V8.41373ZM10.1257 6.48488L8.32138 8.28918C8.23837 8.37223 8.12953 8.41373 8.02068 8.41373C7.91184 8.41373 7.803 8.37223 7.71999 8.28916L5.91568 6.48485C5.7496 6.31877 5.7496 6.04951 5.91568 5.88343C6.08174 5.71735 6.35102 5.71735 6.51711 5.88343L8.02068 7.38703L9.52426 5.88346C9.69032 5.71737 9.9596 5.71737 10.1257 5.88346C10.2918 6.04954 10.2918 6.3188 10.1257 6.48488Z" fill="#18365a"/>
<path d="M13.1471 2.86218C11.7724 1.48752 9.95185 0.730469 8.02073 0.730469C6.90481 0.730469 5.83102 0.984528 4.82912 1.48559C4.41782 1.69128 4.02447 1.93814 3.6565 2.2199L3.70367 2.07837C3.77793 1.85555 3.65752 1.6147 3.4347 1.54042C3.21194 1.46617 2.97104 1.58658 2.89676 1.80939L2.29533 3.6137C2.18431 3.94669 2.50247 4.26181 2.83328 4.15164L4.63758 3.55022C4.86039 3.47593 4.9808 3.23509 4.90655 3.01227C4.8334 2.79291 4.59888 2.67324 4.37907 2.74038C5.44013 1.99158 6.70277 1.58102 8.02073 1.58102C11.5538 1.58102 14.4282 4.4554 14.4282 7.9885C14.4282 11.5216 11.5538 14.396 8.02073 14.396C4.48763 14.396 1.61325 11.5216 1.61325 7.9885C1.61325 7.75364 1.42284 7.56323 1.18797 7.56323C0.953105 7.56323 0.762695 7.75364 0.762695 7.9885C0.762695 9.91962 1.51974 11.7402 2.8944 13.1148C4.26904 14.4895 6.08961 15.2465 8.02073 15.2465C9.95185 15.2465 11.7724 14.4895 13.1471 13.1148C14.5217 11.7402 15.2788 9.91962 15.2788 7.9885C15.2788 6.05738 14.5217 4.23681 13.1471 2.86218Z" fill="#18365a"/>
</g>
<defs>
<clipPath id="clip0_3689_23516">
<rect width="14.5161" height="14.5161" fill="white" transform="translate(0.763672 0.734375)"/>
</clipPath>
</defs>
</svg>
