<svg width="44" height="44" viewBox="0 0 44 44" fill="none" xmlns="http://www.w3.org/2000/svg">
<g clip-path="url(#clip0_82_5796)">
<path d="M0.604858 35.1045V38.6576C0.604858 39.1321 0.98945 39.5167 1.46394 39.5167H27.04V35.1046H0.604858L0.604858 35.1045Z" fill="#9BB9C3"/>
<path d="M3.54342 38.6576V35.1045H0.604858V38.6576C0.604858 39.1321 0.98945 39.5167 1.46394 39.5167H4.40249C3.92801 39.5167 3.54342 39.1321 3.54342 38.6576Z" fill="#87A0AF"/>
<path d="M0.604858 36.3953H27.0399L29.2319 25.1135L27.0399 18.4744V13.7302C27.0399 13.2557 26.6553 12.8711 26.1808 12.8711H1.46394C0.98945 12.8712 0.604858 13.2559 0.604858 13.7303L0.604858 36.3953Z" fill="#E2AE83"/>
<path d="M1.46394 12.8711C0.98945 12.8711 0.604858 13.2557 0.604858 13.7302V36.3952H3.54342V17.0728C5.66092 20.5339 9.47615 22.8486 13.8223 22.8486C19.7585 22.8486 24.7046 18.5309 25.6866 12.8711H1.46394Z" fill="#D39C72"/>
<path d="M8.97731 43.6087C6.71712 43.6087 4.88489 41.7764 4.88489 39.5162C4.88489 37.2561 6.71712 35.4238 8.97731 35.4238C11.2375 35.4238 13.0697 37.2561 13.0697 39.5162C13.0696 41.7764 11.2374 43.6087 8.97731 43.6087Z" fill="#495959"/>
<path d="M8.98181 37.9375C8.11064 37.9375 7.40442 38.6437 7.40442 39.5149C7.40442 40.3861 8.11064 41.0923 8.98181 41.0923C9.85298 41.0923 10.5592 40.3861 10.5592 39.5149C10.5592 38.6437 9.85298 37.9375 8.98181 37.9375Z" fill="#F1F6F7"/>
<path d="M27.0402 35.1046V39.5167H42.4414C42.9159 39.5167 43.3005 39.1321 43.3005 38.6576V35.1045H27.0402V35.1046Z" fill="#9BB9C3"/>
<path d="M27.0402 35.1045H29.6668V39.5166H27.0402V35.1045Z" fill="#87A0AF"/>
<path d="M43.089 27.0856L35.8412 18.7702C35.6781 18.583 35.4419 18.4756 35.1936 18.4756H27.8992C27.4248 18.4756 27.0402 18.8602 27.0402 19.3347V36.3965H43.3005V27.6501C43.3005 27.4426 43.2254 27.2421 43.089 27.0856Z" fill="#d8b56c"/>
<path d="M30.5258 18.4756H27.8992C27.4248 18.4756 27.0402 18.8602 27.0402 19.3347V36.3965H29.6668V19.3346C29.6668 18.8602 30.0514 18.4756 30.5258 18.4756Z" fill="#E66400"/>
<path d="M29.6687 28.3155V21.911C29.6687 21.6737 29.861 21.4814 30.0982 21.4814H33.8277C33.9519 21.4814 34.07 21.5351 34.1515 21.6287L39.2101 27.4324C39.2783 27.5106 39.3159 27.6108 39.3159 27.7146V28.3155C39.3159 28.5527 39.1236 28.745 38.8863 28.745H30.0982C29.861 28.7451 29.6687 28.5528 29.6687 28.3155Z" fill="#7398D4"/>
<path d="M31.0559 32.0542H29.6682C29.3123 32.0542 29.0239 31.7657 29.0239 31.4099C29.0239 31.0541 29.3124 30.7656 29.6682 30.7656H31.0559C31.4118 30.7656 31.7001 31.0541 31.7001 31.4099C31.7001 31.7657 31.4118 32.0542 31.0559 32.0542Z" fill="#A81F2A"/>
<path d="M34.9201 43.6087C32.6599 43.6087 30.8276 41.7764 30.8276 39.5162C30.8276 37.2561 32.6599 35.4238 34.9201 35.4238C37.1802 35.4238 39.0125 37.2561 39.0125 39.5162C39.0125 41.7764 37.1802 43.6087 34.9201 43.6087Z" fill="#495959"/>
<path d="M34.9205 37.9375C34.0494 37.9375 33.3431 38.6437 33.3431 39.5149C33.3431 40.3861 34.0494 41.0923 34.9205 41.0923C35.7917 41.0923 36.4979 40.3861 36.4979 39.5149C36.4979 38.6437 35.7917 37.9375 34.9205 37.9375Z" fill="#F1F6F7"/>
<path d="M39.7445 33.8179H43.3015V31.3232H39.7445C39.5072 31.3232 39.3149 31.5155 39.3149 31.7528V33.3885C39.3149 33.6256 39.5072 33.8179 39.7445 33.8179Z" fill="#FFE17D"/>
<path d="M23.8074 33.2036H19.477C19.1212 33.2036 18.8328 32.9151 18.8328 32.5593C18.8328 32.2034 19.1212 31.915 19.477 31.915H23.8074C24.1633 31.915 24.4516 32.2035 24.4516 32.5593C24.4517 32.9152 24.1633 33.2036 23.8074 33.2036Z" fill="#C48D69"/>
<path d="M23.8074 30.4702H19.477C19.1212 30.4702 18.8328 30.1817 18.8328 29.8259C18.8328 29.4701 19.1212 29.1816 19.477 29.1816H23.8074C24.1633 29.1816 24.4516 29.4701 24.4516 29.8259C24.4516 30.1817 24.1633 30.4702 23.8074 30.4702Z" fill="#C48D69"/>
<path d="M11.1068 33.2036H4.40135C4.04552 33.2036 3.75708 32.9151 3.75708 32.5593C3.75708 32.2034 4.04552 31.915 4.40135 31.915H11.1068C11.4626 31.915 11.751 32.2035 11.751 32.5593C11.7511 32.9152 11.4626 33.2036 11.1068 33.2036Z" fill="#F1F6F7"/>
<path d="M6.96297 29.9434H8.54687C8.78411 29.9434 8.97641 29.7511 8.97641 29.5139V25.2261H10.0298C10.418 25.2261 10.6071 24.7518 10.3252 24.4848L8.15786 22.4312C7.99642 22.2782 7.74483 22.2738 7.57805 22.421L5.25299 24.4746C4.95646 24.7365 5.14167 25.2261 5.53735 25.2261H6.53343V29.5139C6.53343 29.7511 6.72581 29.9434 6.96297 29.9434Z" fill="#F1F6F7"/>
<path d="M13.8224 20.7018C8.35787 20.7018 3.92798 16.272 3.92798 10.8075C3.92798 5.3429 8.35787 0.913086 13.8224 0.913086C19.2869 0.913086 23.7167 5.3429 23.7167 10.8074C23.7167 16.2719 19.2869 20.7018 13.8224 20.7018Z" fill="#d8b56c"/>
<path d="M6.89689 10.8075C6.89689 5.84749 10.5465 1.74023 15.3068 1.02399C14.8226 0.951111 14.3269 0.913086 13.8224 0.913086C8.35787 0.913086 3.92798 5.3429 3.92798 10.8074C3.92798 16.2719 8.35779 20.7017 13.8223 20.7017C14.3269 20.7017 14.8225 20.6637 15.3067 20.5908C10.5466 19.8747 6.89689 15.7674 6.89689 10.8075Z" fill="#CC5800"/>
<path d="M13.8252 3.88086C10.0004 3.88086 6.89978 6.98144 6.89978 10.8063C6.89978 14.6311 10.0004 17.7317 13.8252 17.7317C17.65 17.7317 20.7506 14.6311 20.7506 10.8063C20.7506 6.98144 17.65 3.88086 13.8252 3.88086Z" fill="#FFF9DF"/>
<path d="M8.71016 10.8063C8.71016 7.28848 11.3337 4.38537 14.7304 3.94165C14.4339 3.90287 14.1322 3.88086 13.8252 3.88086C10.0004 3.88086 6.89978 6.98144 6.89978 10.8063C6.89978 14.6311 10.0004 17.7317 13.8252 17.7317C14.1322 17.7317 14.4339 17.7096 14.7304 17.6709C11.3337 17.2272 8.71016 14.3241 8.71016 10.8063Z" fill="#FFDDC2"/>
<path d="M15.3081 11.4538H13.8236C13.4678 11.4538 13.1793 11.1654 13.1793 10.8095V8.72923C13.1793 8.37332 13.4678 8.08496 13.8236 8.08496C14.1794 8.08496 14.4679 8.37341 14.4679 8.72923V10.1652H15.308C15.6638 10.1652 15.9523 10.4536 15.9523 10.8095C15.9523 11.1653 15.6639 11.4538 15.3081 11.4538Z" fill="#d8b56c"/>
<path d="M4.36718 5.04674H1.23174C0.886345 5.04674 0.606323 4.7668 0.606323 4.42132C0.606323 4.07584 0.886345 3.7959 1.23174 3.7959H4.36718C4.71258 3.7959 4.9926 4.07584 4.9926 4.42132C4.9926 4.7668 4.71258 5.04674 4.36718 5.04674Z" fill="#F1F6F7"/>
<path d="M1.99726 10.7606H1.23174C0.886345 10.7606 0.606323 10.4807 0.606323 10.1352C0.606323 9.7897 0.886345 9.50977 1.23174 9.50977H1.99726C2.34266 9.50977 2.62268 9.7897 2.62268 10.1352C2.62268 10.4807 2.34266 10.7606 1.99726 10.7606Z" fill="#F1F6F7"/>
<path d="M2.54529 7.9276H1.23174C0.886345 7.9276 0.606323 7.64766 0.606323 7.30218C0.606323 6.9567 0.886345 6.67676 1.23174 6.67676H2.54529C2.89069 6.67676 3.17071 6.9567 3.17071 7.30218C3.17071 7.64766 2.89078 7.9276 2.54529 7.9276Z" fill="#F1F6F7"/>
<path d="M13.8184 6.73711C14.1743 6.73711 14.4628 6.44859 14.4628 6.09268C14.4628 5.73676 14.1743 5.44824 13.8184 5.44824C13.4625 5.44824 13.174 5.73676 13.174 6.09268C13.174 6.44859 13.4625 6.73711 13.8184 6.73711Z" fill="#d8b56c"/>
<path d="M13.8184 16.1648C14.1743 16.1648 14.4628 15.8763 14.4628 15.5204C14.4628 15.1645 14.1743 14.876 13.8184 14.876C13.4625 14.876 13.174 15.1645 13.174 15.5204C13.174 15.8763 13.4625 16.1648 13.8184 16.1648Z" fill="#d8b56c"/>
<path d="M16.6979 7.92726C16.9496 8.17893 17.3576 8.17893 17.6093 7.92726C17.8609 7.67559 17.8609 7.26757 17.6093 7.0159C17.3576 6.76423 16.9496 6.76423 16.6979 7.0159C16.4462 7.26757 16.4462 7.67559 16.6979 7.92726Z" fill="#d8b56c"/>
<path d="M10.9429 13.6858C10.6912 13.4342 10.2832 13.4342 10.0315 13.6858C9.77986 13.9375 9.77986 14.3455 10.0315 14.5972C10.2832 14.8489 10.6912 14.8489 10.9429 14.5972C11.1946 14.3455 11.1946 13.9375 10.9429 13.6858Z" fill="#d8b56c"/>
<path d="M18.5386 11.4529C18.8945 11.4529 19.183 11.1644 19.183 10.8085C19.183 10.4526 18.8945 10.1641 18.5386 10.1641C18.1827 10.1641 17.8942 10.4526 17.8942 10.8085C17.8942 11.1644 18.1827 11.4529 18.5386 11.4529Z" fill="#d8b56c"/>
<path d="M9.10635 11.4529C9.46226 11.4529 9.75078 11.1644 9.75078 10.8085C9.75078 10.4526 9.46226 10.1641 9.10635 10.1641C8.75044 10.1641 8.46191 10.4526 8.46191 10.8085C8.46191 11.1644 8.75044 11.4529 9.10635 11.4529Z" fill="#d8b56c"/>
<path d="M16.6979 14.5972C16.9496 14.8489 17.3576 14.8489 17.6093 14.5972C17.8609 14.3455 17.8609 13.9375 17.6093 13.6858C17.3576 13.4342 16.9496 13.4342 16.6979 13.6858C16.4462 13.9376 16.4462 14.3456 16.6979 14.5972Z" fill="#d8b56c"/>
<path d="M10.9429 7.0159C10.6912 6.76423 10.2832 6.76423 10.0315 7.0159C9.77986 7.26757 9.77986 7.67559 10.0315 7.92726C10.2832 8.17893 10.6912 8.17893 10.9429 7.92726C11.1946 7.67559 11.1946 7.26757 10.9429 7.0159Z" fill="#d8b56c"/>
</g>
<defs>
<clipPath id="clip0_82_5796">
<rect width="42.6954" height="42.6954" fill="white" transform="translate(0.605835 0.914062)"/>
</clipPath>
</defs>
</svg>
