<svg width="151" height="42" viewBox="0 0 151 42" fill="none" xmlns="http://www.w3.org/2000/svg">
<g id="&#226;&#128;&#148;&#195;&#142;&#195;&#147;&#195;&#136;_1">
<g id="Group">
<g id="Group_2">
<path id="Vector" d="M25.1778 23.9358C24.1816 18.9256 28.5833 16.2491 28.9046 16.0617C28.2296 15.1702 27.4456 14.4964 26.654 14.008C24.0229 12.384 20.8181 12.2326 18.9117 13.0635C18.8926 13.0711 18.8734 13.0806 18.8543 13.0881C16.9938 13.8926 14.879 13.8926 13.0184 13.0881C12.9993 13.0806 12.9802 13.0711 12.9611 13.0635C11.0547 12.2326 7.84989 12.384 5.21877 14.008C2.58765 15.6321 0.0330212 19.2947 1.32946 26.317C2.6259 33.3393 7.35656 37.6057 7.35656 37.6057C7.35656 37.6057 9.60716 39.5307 12.5825 38.2473C14.4411 37.4448 15.2882 37.3066 15.661 37.3161C15.8465 37.3199 16.032 37.3199 16.2155 37.3161C16.5884 37.3066 17.4355 37.4467 19.2941 38.2473C22.2694 39.5307 24.52 37.6057 24.52 37.6057C24.52 37.6057 27.8338 34.615 29.6752 29.5215C28.0938 28.7984 25.8318 27.2142 25.1797 23.9358H25.1778Z" fill="white"/>
<path id="Vector_2" d="M15.1011 12.7984C15.1011 12.7984 14.2675 5.80065 22.2335 4.54761L22.201 5.48644C22.069 9.36101 19.0077 12.5144 15.1011 12.7984Z" fill="white"/>
</g>
<g id="Group_3">
<g id="Group_4">
<path id="Vector_3" d="M46.9079 6.71167C46.9079 7.57479 46.7989 8.3338 46.579 8.99439C46.3591 9.65309 46.036 10.2039 45.6096 10.6487C45.1813 11.0935 44.6535 11.4285 44.0263 11.6576C43.3991 11.8847 42.6477 11.9983 41.7776 11.9983H39.7335C39.6379 11.9983 39.5385 11.9623 39.4372 11.8904C39.3358 11.8185 39.2842 11.6879 39.2842 11.4967V2.22571C39.2842 2.03454 39.3358 1.90394 39.4372 1.83201C39.5385 1.76008 39.6379 1.72412 39.7335 1.72412H41.9153C42.7968 1.72412 43.5425 1.84337 44.1487 2.08186C44.7548 2.32036 45.2635 2.65727 45.6727 3.09451C46.0819 3.53175 46.3897 4.05417 46.5982 4.66554C46.8066 5.27692 46.9117 5.95833 46.9117 6.70977L46.9079 6.71167ZM45.8582 6.75899C45.8582 6.16086 45.7817 5.60627 45.6306 5.0971C45.4776 4.58604 45.2424 4.14691 44.925 3.77592C44.6076 3.40493 44.2041 3.11533 43.7185 2.90713C43.2328 2.69892 42.6113 2.59292 41.8579 2.59292H40.2632V11.1314H41.8675C42.5731 11.1314 43.1697 11.0462 43.6592 10.8739C44.1487 10.7017 44.556 10.4367 44.881 10.0771C45.208 9.71744 45.4509 9.26317 45.6153 8.71615C45.7798 8.16913 45.8601 7.51611 45.8601 6.75899H45.8582Z" fill="white"/>
<path id="Vector_4" d="M55.4949 8.17185C55.4949 8.74348 55.4204 9.26968 55.2712 9.75045C55.1221 10.2312 54.8983 10.6495 54.602 11.0054C54.3056 11.3593 53.9346 11.6357 53.491 11.8344C53.0474 12.0332 52.5311 12.1316 51.9441 12.1316C51.357 12.1316 50.8809 12.0426 50.4564 11.8666C50.0319 11.6887 49.6763 11.4351 49.3894 11.1038C49.1026 10.7726 48.8904 10.3732 48.7489 9.90188C48.6074 9.43057 48.5366 8.89869 48.5366 8.30624C48.5366 7.71379 48.6093 7.20841 48.7565 6.72764C48.9038 6.24687 49.1256 5.82856 49.4219 5.47839C49.7183 5.12633 50.0893 4.85187 50.5329 4.65691C50.9765 4.46195 51.4947 4.36353 52.0875 4.36353C52.6802 4.36353 53.1506 4.45059 53.5751 4.62473C53.9996 4.79887 54.3534 5.05251 54.6383 5.38186C54.9213 5.7131 55.1354 6.11248 55.2789 6.58379C55.4223 7.0551 55.4949 7.58319 55.4949 8.17185ZM54.4853 8.25892C54.4853 7.85197 54.4452 7.46205 54.3649 7.09295C54.2845 6.72196 54.1507 6.3964 53.9633 6.11248C53.7759 5.82856 53.5254 5.60521 53.2099 5.43864C52.8944 5.27207 52.5024 5.18879 52.032 5.18879C51.5999 5.18879 51.2251 5.26639 50.9096 5.41971C50.5941 5.57303 50.336 5.78692 50.1352 6.05948C49.9344 6.33204 49.7872 6.65382 49.6896 7.02292C49.5921 7.39202 49.5462 7.79329 49.5462 8.22107C49.5462 8.64884 49.5864 9.0274 49.6667 9.40028C49.747 9.77317 49.8809 10.1006 50.0683 10.3808C50.2556 10.6609 50.5061 10.8842 50.8216 11.047C51.1371 11.2117 51.5291 11.2931 51.9995 11.2931C52.4317 11.2931 52.8065 11.2155 53.122 11.0622C53.4375 10.9089 53.6956 10.6969 53.8964 10.4281C54.0972 10.1593 54.2444 9.83752 54.3419 9.46842C54.4375 9.09743 54.4853 8.69616 54.4853 8.26271V8.25892Z" fill="white"/>
<path id="Vector_5" d="M67.1844 4.63935C67.1844 4.66585 67.1806 4.69614 67.1729 4.73021C67.1653 4.76428 67.1557 4.80213 67.1442 4.84567L64.8994 11.8377C64.8879 11.8793 64.8688 11.9153 64.8401 11.9418C64.8114 11.9683 64.7713 11.9891 64.7235 12.0062C64.6757 12.0232 64.6125 12.0327 64.5341 12.0383C64.4558 12.044 64.364 12.0459 64.2569 12.0459C64.1441 12.0459 64.0485 12.0421 63.9682 12.0345C63.8878 12.027 63.8228 12.0156 63.7712 11.9986C63.7196 11.9834 63.6794 11.9607 63.6507 11.9342C63.6221 11.9077 63.601 11.8756 63.5915 11.8396L61.9069 6.17253L61.8916 6.10817L61.8763 6.17253L60.3045 11.8396C60.293 11.8812 60.272 11.9172 60.2395 11.9437C60.207 11.9702 60.163 11.991 60.1075 12.008C60.0521 12.0232 59.9832 12.0345 59.9029 12.0402C59.8226 12.0459 59.7327 12.0478 59.6295 12.0478C59.5224 12.0478 59.4325 12.044 59.3561 12.0364C59.2815 12.0289 59.2184 12.0175 59.1667 12.0005C59.1151 11.9853 59.0769 11.9626 59.0501 11.9361C59.0233 11.9096 59.0042 11.8774 58.9947 11.8415L56.7651 4.84945C56.7498 4.8116 56.7364 4.77563 56.7288 4.73778C56.7211 4.69992 56.7173 4.66964 56.7173 4.64314C56.7173 4.60528 56.7249 4.575 56.7421 4.5485C56.7574 4.522 56.7842 4.50307 56.8225 4.48982C56.8607 4.47657 56.9085 4.46711 56.9659 4.46143C57.0251 4.45575 57.0959 4.45386 57.1819 4.45386C57.2948 4.45386 57.3846 4.45764 57.4554 4.46521C57.5242 4.47279 57.5778 4.48414 57.6122 4.50118C57.6466 4.51632 57.6714 4.53903 57.6887 4.56553C57.704 4.59203 57.7173 4.62421 57.7288 4.66017L59.6448 10.931L59.6601 10.9859L59.6754 10.931L61.4154 4.66017C61.4269 4.62232 61.4403 4.59203 61.4594 4.56553C61.4785 4.53903 61.5053 4.51821 61.5397 4.50118C61.5741 4.48604 61.622 4.47279 61.6831 4.46521C61.7443 4.45764 61.8227 4.45386 61.9202 4.45386C62.012 4.45386 62.0866 4.45764 62.144 4.46521C62.2032 4.47279 62.251 4.48414 62.2874 4.50118C62.3256 4.51632 62.3524 4.53903 62.3677 4.56553C62.383 4.59203 62.3964 4.62421 62.4078 4.66017L64.2837 10.931L64.299 10.9859L64.3066 10.931L66.2149 4.66017C66.2264 4.62232 66.2398 4.59203 66.2589 4.56553C66.278 4.53903 66.3048 4.51821 66.343 4.50118C66.3813 4.48604 66.4329 4.47279 66.4998 4.46521C66.5668 4.45764 66.6528 4.45386 66.7599 4.45386C66.8459 4.45386 66.9148 4.45575 66.9683 4.46143C67.0219 4.46711 67.0639 4.47657 67.0964 4.49361C67.1289 4.50875 67.15 4.52957 67.1614 4.55228C67.1729 4.575 67.1767 4.60717 67.1767 4.64314L67.1844 4.63935Z" fill="white"/>
<path id="Vector_6" d="M74.9149 11.8382C74.9149 11.8704 74.9072 11.8988 74.89 11.9253C74.8747 11.9518 74.8479 11.9726 74.8135 11.9896C74.7791 12.0048 74.7313 12.018 74.6701 12.0294C74.6089 12.0407 74.5324 12.0445 74.4426 12.0445C74.3469 12.0445 74.2666 12.0389 74.2054 12.0294C74.1443 12.0199 74.0965 12.0048 74.062 11.9896C74.0276 11.9745 74.0028 11.9518 73.9856 11.9253C73.9703 11.8988 73.9607 11.8704 73.9607 11.8382V7.57562C73.9607 7.13081 73.9263 6.76928 73.8555 6.49293C73.7867 6.21469 73.6815 5.9762 73.5419 5.77934C73.4023 5.58249 73.2245 5.42728 73.0084 5.31939C72.7924 5.2115 72.54 5.15661 72.2512 5.15661C71.8822 5.15661 71.5131 5.28532 71.1441 5.54464C70.7751 5.80395 70.3869 6.18441 69.9815 6.68789V11.8382C69.9815 11.8704 69.9739 11.8988 69.9567 11.9253C69.9414 11.9518 69.9146 11.9726 69.8802 11.9896C69.8457 12.0048 69.7979 12.018 69.7368 12.0294C69.6756 12.0407 69.5972 12.0445 69.4996 12.0445C69.4079 12.0445 69.3333 12.0389 69.2721 12.0294C69.2109 12.0199 69.1612 12.0048 69.123 11.9896C69.0847 11.9745 69.0599 11.9518 69.0465 11.9253C69.0331 11.8988 69.0273 11.8704 69.0273 11.8382V4.65691C69.0273 4.62473 69.0331 4.59634 69.0465 4.56984C69.0599 4.54334 69.0847 4.52063 69.123 4.5017C69.1612 4.48277 69.2071 4.46952 69.2625 4.46195C69.318 4.45438 69.3926 4.45059 69.4824 4.45059C69.5723 4.45059 69.6488 4.45438 69.7062 4.46195C69.7654 4.46952 69.8113 4.48277 69.8419 4.5017C69.8725 4.52063 69.8974 4.54334 69.9108 4.56984C69.9241 4.59634 69.9299 4.62473 69.9299 4.65691V5.67335C70.3467 5.2134 70.7559 4.88026 71.1575 4.67395C71.559 4.46763 71.9568 4.36353 72.3526 4.36353C72.8287 4.36353 73.2283 4.44302 73.5553 4.60202C73.8823 4.76101 74.1443 4.9749 74.345 5.24557C74.5458 5.51624 74.6892 5.83045 74.7772 6.19008C74.8651 6.54972 74.9091 6.98317 74.9091 7.49234V11.842L74.9149 11.8382Z" fill="white"/>
<path id="Vector_7" d="M78.5142 11.8381C78.5142 11.8702 78.5065 11.8986 78.4893 11.9251C78.4721 11.9516 78.4473 11.9724 78.4128 11.9895C78.3784 12.0046 78.3306 12.0179 78.2694 12.0292C78.2082 12.0406 78.1298 12.0444 78.0323 12.0444C77.9405 12.0444 77.866 12.0387 77.8029 12.0292C77.7398 12.0198 77.692 12.0046 77.6537 11.9895C77.6155 11.9743 77.5906 11.9516 77.5772 11.9251C77.5638 11.8986 77.5581 11.8702 77.5581 11.8381V1.13991C77.5581 1.10773 77.5638 1.07934 77.5772 1.05284C77.5906 1.02634 77.6155 1.00363 77.6537 0.9847C77.692 0.965771 77.7398 0.952522 77.8029 0.944951C77.864 0.937379 77.9405 0.933594 78.0323 0.933594C78.1279 0.933594 78.2082 0.937379 78.2694 0.944951C78.3306 0.952522 78.3784 0.965771 78.4128 0.9847C78.4473 1.00363 78.4721 1.02634 78.4893 1.05284C78.5046 1.07934 78.5142 1.10773 78.5142 1.13991V11.8381Z" fill="white"/>
<path id="Vector_8" d="M87.6058 8.17185C87.6058 8.74348 87.5312 9.26968 87.3821 9.75045C87.2329 10.2312 87.0092 10.6495 86.7128 11.0054C86.4164 11.3593 86.0455 11.6357 85.6018 11.8344C85.1582 12.0332 84.6419 12.1316 84.0549 12.1316C83.4679 12.1316 82.9918 12.0426 82.5673 11.8666C82.1428 11.6887 81.7871 11.4351 81.5003 11.1038C81.2135 10.7726 81.0012 10.3732 80.8597 9.90188C80.7182 9.43057 80.6475 8.89869 80.6475 8.30624C80.6475 7.71379 80.7201 7.20841 80.8674 6.72764C81.0146 6.24687 81.2364 5.82856 81.5328 5.47839C81.8292 5.12822 82.2001 4.85187 82.6437 4.65691C83.0874 4.46195 83.6056 4.36353 84.1983 4.36353C84.7911 4.36353 85.2615 4.45059 85.686 4.62473C86.1105 4.79887 86.4642 5.05251 86.7491 5.38186C87.0321 5.7131 87.2463 6.11248 87.3897 6.58379C87.5331 7.0551 87.6058 7.58319 87.6058 8.17185ZM86.5962 8.25892C86.5962 7.85197 86.556 7.46205 86.4757 7.09295C86.3954 6.72386 86.2615 6.3964 86.0741 6.11248C85.8868 5.82856 85.6363 5.60521 85.3208 5.43864C85.0053 5.27207 84.6133 5.18879 84.1429 5.18879C83.7107 5.18879 83.3359 5.26639 83.0204 5.41971C82.7049 5.57303 82.4468 5.78692 82.246 6.05948C82.0452 6.33204 81.898 6.65382 81.8005 7.02292C81.703 7.39202 81.6571 7.79329 81.6571 8.22107C81.6571 8.64884 81.6972 9.0274 81.7775 9.40028C81.8579 9.77317 81.9917 10.1006 82.1791 10.3808C82.3665 10.6609 82.617 10.8842 82.9325 11.047C83.248 11.2117 83.64 11.2931 84.1104 11.2931C84.5425 11.2931 84.9173 11.2155 85.2328 11.0622C85.5483 10.9089 85.8064 10.6969 86.0072 10.4281C86.208 10.1574 86.3552 9.83752 86.4527 9.46842C86.5484 9.09743 86.5962 8.69616 86.5962 8.26271V8.25892Z" fill="white"/>
<path id="Vector_9" d="M94.83 11.8379C94.83 11.8909 94.8128 11.9325 94.7784 11.9609C94.7439 11.9893 94.698 12.012 94.6426 12.0252C94.5871 12.0385 94.5107 12.0442 94.415 12.0442C94.3233 12.0442 94.2468 12.0385 94.1818 12.0252C94.1167 12.012 94.0689 11.9912 94.0326 11.9609C93.9982 11.9325 93.981 11.8909 93.981 11.8379V11.0353C93.654 11.3836 93.2945 11.6543 92.9025 11.8454C92.5105 12.0366 92.1013 12.1312 91.6807 12.1312C91.3021 12.1312 90.9598 12.082 90.6577 11.9836C90.3556 11.8852 90.1012 11.7451 89.8928 11.5634C89.6844 11.3817 89.5238 11.1602 89.4109 10.9009C89.2981 10.6416 89.2427 10.3501 89.2427 10.0283C89.2427 9.63084 89.3249 9.28635 89.4913 8.99297C89.6576 8.69958 89.8928 8.45541 90.1968 8.25856C90.5009 8.0636 90.868 7.91596 91.2944 7.81753C91.7227 7.71911 92.1969 7.66989 92.7209 7.66989H93.8758V7.05095C93.8758 6.74431 93.8433 6.47364 93.7802 6.23704C93.7152 6.00233 93.6119 5.80359 93.4666 5.64648C93.3232 5.48749 93.1358 5.36824 92.9044 5.28874C92.6731 5.20925 92.3939 5.1695 92.0631 5.1695C91.7323 5.1695 91.4531 5.20735 91.1969 5.28496C90.9407 5.36256 90.715 5.44774 90.5238 5.54238C90.3307 5.63702 90.172 5.72409 90.0458 5.7998C89.9196 5.87741 89.8297 5.91526 89.7781 5.91526C89.7456 5.91526 89.7169 5.90958 89.6901 5.90012C89.6634 5.89066 89.6404 5.86983 89.6213 5.84144C89.6022 5.81305 89.5888 5.77519 89.5811 5.72977C89.5735 5.68434 89.5697 5.63134 89.5697 5.56699C89.5697 5.45531 89.5773 5.36635 89.5945 5.30199C89.6117 5.23764 89.6519 5.1695 89.7188 5.10325C89.7857 5.037 89.9043 4.95939 90.0764 4.86854C90.2485 4.77769 90.4435 4.6944 90.6653 4.61869C90.8871 4.54108 91.1261 4.48051 91.3824 4.4313C91.6386 4.38209 91.8948 4.35938 92.153 4.35938C92.6501 4.35938 93.0689 4.41805 93.4112 4.5373C93.7534 4.65655 94.0307 4.8269 94.241 5.04836C94.4514 5.26981 94.6024 5.54427 94.6942 5.86983C94.786 6.1954 94.83 6.56449 94.83 6.97713V11.8341V11.8379ZM93.8758 8.44973H92.5526C92.1683 8.44973 91.8317 8.4838 91.543 8.55383C91.2543 8.62387 91.0133 8.72229 90.8221 8.85479C90.629 8.98729 90.4875 9.14628 90.3938 9.33178C90.3001 9.51727 90.2542 9.72927 90.2542 9.96587C90.2542 10.3785 90.3861 10.7078 90.6519 10.9539C90.9158 11.2 91.2887 11.323 91.7705 11.323C92.1491 11.323 92.5048 11.2265 92.8337 11.0334C93.1626 10.8403 93.5106 10.5432 93.8796 10.14V8.44973H93.8758Z" fill="white"/>
<path id="Vector_10" d="M103.33 11.8376C103.33 11.8755 103.324 11.9058 103.311 11.9323C103.297 11.9588 103.272 11.9796 103.238 11.9966C103.203 12.0136 103.159 12.025 103.106 12.0326C103.052 12.0401 102.985 12.0439 102.905 12.0439C102.819 12.0439 102.748 12.0401 102.693 12.0326C102.637 12.025 102.592 12.0136 102.557 11.9966C102.523 11.9796 102.496 11.9588 102.477 11.9323C102.458 11.9058 102.448 11.8736 102.448 11.8376V10.806C102.064 11.2187 101.664 11.5423 101.253 11.7789C100.842 12.0136 100.393 12.1329 99.9069 12.1329C99.3829 12.1329 98.9374 12.0326 98.5684 11.8319C98.1993 11.6313 97.8991 11.3587 97.6658 11.0142C97.4326 10.6697 97.2643 10.2666 97.1572 9.80474C97.0501 9.34289 96.9966 8.85076 96.9966 8.33213C96.9966 7.72454 97.0635 7.17374 97.1974 6.68539C97.3312 6.19515 97.5282 5.77874 97.7901 5.43614C98.0521 5.09165 98.3752 4.82855 98.7596 4.64305C99.1439 4.45756 99.5914 4.36481 100.098 4.36481C100.536 4.36481 100.938 4.46134 101.301 4.65441C101.664 4.84748 102.022 5.1314 102.375 5.50807V1.17922C102.375 1.14704 102.381 1.11865 102.395 1.09215C102.408 1.06565 102.433 1.04483 102.471 1.02779C102.509 1.01265 102.557 0.9994 102.62 0.988043C102.681 0.976686 102.758 0.9729 102.85 0.9729C102.945 0.9729 103.026 0.978579 103.087 0.988043C103.148 0.997507 103.196 1.01265 103.23 1.02779C103.265 1.04293 103.289 1.06565 103.307 1.09215C103.322 1.11865 103.332 1.14704 103.332 1.17922V11.8376H103.33ZM102.375 6.65511C101.974 6.17433 101.588 5.80524 101.217 5.5516C100.846 5.29796 100.456 5.17115 100.05 5.17115C99.6812 5.17115 99.3657 5.25821 99.1038 5.43235C98.8418 5.60649 98.6276 5.83741 98.4632 6.12323C98.2968 6.40904 98.1764 6.73082 98.1018 7.09234C98.0272 7.45198 97.989 7.81729 97.989 8.18828C97.989 8.58577 98.0215 8.9719 98.0846 9.34668C98.1496 9.72145 98.2586 10.0565 98.4135 10.3499C98.5684 10.6433 98.7749 10.8799 99.0311 11.0559C99.2873 11.2338 99.6086 11.3209 99.9929 11.3209C100.186 11.3209 100.372 11.2944 100.555 11.2414C100.737 11.1884 100.924 11.1013 101.117 10.9802C101.31 10.859 101.509 10.7019 101.714 10.5089C101.92 10.3158 102.14 10.0754 102.375 9.79149V6.65511Z" fill="white"/>
<path id="Vector_11" d="M116.143 8.17185C116.143 8.74348 116.068 9.26968 115.919 9.75045C115.77 10.2312 115.546 10.6495 115.25 11.0054C114.954 11.3593 114.583 11.6357 114.139 11.8344C113.695 12.0332 113.179 12.1316 112.592 12.1316C112.005 12.1316 111.529 12.0426 111.104 11.8666C110.68 11.6906 110.324 11.4351 110.037 11.1038C109.751 10.7726 109.538 10.3732 109.397 9.90188C109.255 9.43057 109.185 8.89869 109.185 8.30624C109.185 7.71379 109.257 7.20841 109.404 6.72764C109.552 6.24687 109.774 5.82856 110.07 5.47839C110.366 5.12633 110.737 4.85187 111.181 4.65691C111.624 4.46195 112.143 4.36353 112.735 4.36353C113.328 4.36353 113.799 4.45059 114.223 4.62473C114.648 4.79887 115.001 5.05251 115.286 5.38186C115.569 5.7131 115.783 6.11248 115.927 6.58379C116.07 7.0551 116.143 7.58319 116.143 8.17185ZM115.133 8.25892C115.133 7.85197 115.093 7.46205 115.013 7.09295C114.932 6.72386 114.799 6.3964 114.611 6.11248C114.424 5.82856 114.173 5.60521 113.858 5.43864C113.542 5.27207 113.15 5.18879 112.68 5.18879C112.248 5.18879 111.873 5.26639 111.558 5.41971C111.242 5.57303 110.984 5.78692 110.783 6.05948C110.582 6.33204 110.435 6.65382 110.338 7.02292C110.242 7.39391 110.194 7.79329 110.194 8.22107C110.194 8.64884 110.234 9.0274 110.315 9.40028C110.395 9.77317 110.529 10.1006 110.716 10.3808C110.904 10.6609 111.154 10.8842 111.47 11.047C111.785 11.2098 112.177 11.2931 112.647 11.2931C113.08 11.2931 113.454 11.2155 113.77 11.0622C114.085 10.9089 114.344 10.6969 114.544 10.4281C114.745 10.1593 114.892 9.83752 114.99 9.46842C115.085 9.09743 115.133 8.69616 115.133 8.26271V8.25892Z" fill="white"/>
<path id="Vector_12" d="M124.168 11.8382C124.168 11.8704 124.161 11.8988 124.143 11.9253C124.128 11.9518 124.101 11.9726 124.067 11.9896C124.033 12.0048 123.985 12.018 123.924 12.0294C123.862 12.0407 123.786 12.0445 123.696 12.0445C123.6 12.0445 123.52 12.0389 123.459 12.0294C123.398 12.0199 123.35 12.0048 123.315 11.9896C123.281 11.9745 123.256 11.9518 123.239 11.9253C123.224 11.8988 123.214 11.8704 123.214 11.8382V7.57562C123.214 7.13081 123.18 6.76928 123.109 6.49293C123.04 6.21469 122.935 5.9762 122.795 5.77934C122.656 5.58249 122.478 5.42728 122.262 5.31939C122.046 5.2115 121.793 5.15661 121.505 5.15661C121.136 5.15661 120.767 5.28532 120.398 5.54464C120.028 5.80395 119.64 6.18441 119.235 6.68789V11.8382C119.235 11.8704 119.227 11.8988 119.21 11.9253C119.195 11.9518 119.168 11.9726 119.134 11.9896C119.099 12.0048 119.051 12.018 118.99 12.0294C118.929 12.0407 118.851 12.0445 118.753 12.0445C118.661 12.0445 118.587 12.0389 118.526 12.0294C118.464 12.018 118.415 12.0048 118.376 11.9896C118.338 11.9745 118.313 11.9518 118.3 11.9253C118.286 11.8988 118.281 11.8704 118.281 11.8382V4.65691C118.281 4.62473 118.286 4.59634 118.3 4.56984C118.313 4.54334 118.338 4.52063 118.376 4.5017C118.415 4.48277 118.461 4.46952 118.516 4.46195C118.571 4.45438 118.646 4.45059 118.736 4.45059C118.826 4.45059 118.902 4.45438 118.96 4.46195C119.019 4.46952 119.065 4.48277 119.095 4.5017C119.126 4.52063 119.151 4.54334 119.164 4.56984C119.178 4.59634 119.183 4.62473 119.183 4.65691V5.67335C119.6 5.2134 120.009 4.88026 120.411 4.67395C120.812 4.46763 121.21 4.36353 121.606 4.36353C122.082 4.36353 122.482 4.44302 122.809 4.60202C123.136 4.76101 123.398 4.9749 123.598 5.24557C123.799 5.51624 123.943 5.83045 124.031 6.19008C124.119 6.54972 124.163 6.98317 124.163 7.49234V11.842L124.168 11.8382Z" fill="white"/>
<path id="Vector_13" d="M134.023 11.4101C134.023 11.5218 134.014 11.6107 133.995 11.6808C133.975 11.7489 133.947 11.8038 133.907 11.8436C133.866 11.8833 133.807 11.9212 133.731 11.9552C133.654 11.9893 133.564 12.0196 133.463 12.0423C133.362 12.065 133.255 12.0839 133.142 12.0972C133.029 12.1104 132.92 12.1161 132.813 12.1161C132.455 12.1161 132.149 12.0688 131.899 11.9742C131.648 11.8795 131.442 11.7357 131.281 11.5407C131.121 11.3476 131.004 11.1035 130.933 10.8063C130.861 10.5091 130.824 10.1609 130.824 9.75958V5.29066H129.742C129.667 5.29066 129.608 5.25848 129.566 5.19223C129.524 5.12599 129.501 5.02756 129.501 4.89506C129.501 4.82692 129.507 4.76635 129.516 4.71714C129.528 4.66603 129.543 4.62439 129.564 4.59032C129.585 4.55625 129.61 4.53164 129.641 4.51461C129.669 4.49947 129.704 4.49 129.74 4.49H130.822V2.7278C130.822 2.69562 130.828 2.66723 130.841 2.64073C130.855 2.61423 130.88 2.59152 130.918 2.57259C130.956 2.55366 131.004 2.54041 131.067 2.53284C131.128 2.52527 131.205 2.52148 131.295 2.52148C131.39 2.52148 131.47 2.52527 131.532 2.53284C131.593 2.54041 131.641 2.55366 131.675 2.57259C131.71 2.59152 131.734 2.61423 131.752 2.64073C131.767 2.66723 131.776 2.69562 131.776 2.7278V4.49H133.78C133.819 4.49 133.851 4.49757 133.88 4.51461C133.908 4.52975 133.935 4.55625 133.956 4.59032C133.977 4.62439 133.995 4.66793 134.004 4.71714C134.016 4.76825 134.019 4.82692 134.019 4.89506C134.019 5.02756 133.996 5.12599 133.951 5.19223C133.905 5.25848 133.847 5.29066 133.778 5.29066H131.775V9.63276C131.775 10.1779 131.853 10.5924 132.012 10.8782C132.168 11.164 132.457 11.306 132.874 11.306C133.002 11.306 133.119 11.2927 133.222 11.2663C133.327 11.2398 133.419 11.2114 133.499 11.1792C133.58 11.147 133.648 11.1186 133.704 11.0921C133.759 11.0656 133.809 11.0524 133.853 11.0524C133.88 11.0524 133.905 11.058 133.926 11.0675C133.947 11.077 133.964 11.0978 133.977 11.1262C133.991 11.1546 134.002 11.1924 134.01 11.2379C134.017 11.2833 134.021 11.3401 134.021 11.4082L134.023 11.4101Z" fill="white"/>
<path id="Vector_14" d="M141.808 11.8381C141.808 11.8702 141.8 11.8986 141.783 11.9251C141.766 11.9516 141.741 11.9724 141.707 11.9895C141.672 12.0046 141.624 12.0179 141.563 12.0292C141.502 12.0406 141.425 12.0444 141.334 12.0444C141.238 12.0444 141.158 12.0387 141.097 12.0292C141.035 12.0179 140.988 12.0046 140.953 11.9895C140.919 11.9743 140.894 11.9516 140.877 11.9251C140.861 11.8986 140.852 11.8702 140.852 11.8381V7.57545C140.852 7.13064 140.817 6.76912 140.747 6.49277C140.678 6.21452 140.573 5.97603 140.433 5.77918C140.293 5.58233 140.116 5.42712 139.9 5.31923C139.683 5.21134 139.431 5.15645 139.142 5.15645C138.773 5.15645 138.404 5.28516 138.035 5.54447C137.666 5.80379 137.278 6.18424 136.873 6.68773V11.8381C136.873 11.8702 136.865 11.8986 136.848 11.9251C136.831 11.9516 136.806 11.9724 136.771 11.9895C136.737 12.0046 136.689 12.0179 136.628 12.0292C136.567 12.0406 136.488 12.0444 136.391 12.0444C136.299 12.0444 136.224 12.0387 136.161 12.0292C136.1 12.0179 136.05 12.0046 136.012 11.9895C135.974 11.9743 135.949 11.9516 135.936 11.9251C135.922 11.8986 135.917 11.8702 135.917 11.8381V1.13991C135.917 1.10773 135.922 1.07934 135.936 1.05284C135.949 1.02634 135.974 1.00363 136.012 0.9847C136.05 0.965771 136.098 0.952522 136.161 0.944951C136.222 0.937379 136.299 0.933594 136.391 0.933594C136.486 0.933594 136.567 0.937379 136.628 0.944951C136.689 0.952522 136.737 0.965771 136.771 0.9847C136.806 1.00363 136.831 1.02634 136.848 1.05284C136.863 1.07934 136.873 1.10773 136.873 1.13991V5.62397C137.268 5.19052 137.664 4.87063 138.06 4.6681C138.456 4.46368 138.852 4.36336 139.247 4.36336C139.724 4.36336 140.123 4.44286 140.45 4.60185C140.777 4.76085 141.039 4.97474 141.24 5.24541C141.441 5.51608 141.584 5.83028 141.672 6.18992C141.76 6.54955 141.804 6.983 141.804 7.49217V11.8418L141.808 11.8381Z" fill="white"/>
<path id="Vector_15" d="M150.373 7.87847C150.373 8.06964 150.321 8.20024 150.22 8.27217C150.118 8.3441 150.019 8.38006 149.923 8.38006H144.977C144.977 8.82487 145.021 9.22615 145.109 9.58578C145.196 9.94541 145.342 10.2539 145.546 10.5114C145.749 10.7688 146.015 10.9656 146.34 11.1019C146.665 11.2382 147.067 11.3082 147.543 11.3082C147.879 11.3082 148.181 11.2798 148.449 11.2212C148.717 11.1625 148.948 11.0981 149.143 11.0262C149.338 10.9543 149.499 10.8899 149.625 10.8312C149.751 10.7726 149.841 10.7442 149.893 10.7442C149.925 10.7442 149.954 10.7517 149.981 10.7688C150.007 10.7839 150.028 10.8104 150.046 10.8445C150.061 10.8786 150.074 10.9221 150.082 10.9751C150.09 11.0281 150.093 11.0943 150.093 11.1738C150.093 11.2117 150.092 11.2458 150.086 11.2817C150.08 11.3158 150.074 11.348 150.067 11.3764C150.059 11.4048 150.048 11.4332 150.03 11.4597C150.015 11.4862 149.992 11.5127 149.965 11.5392C149.939 11.5657 149.856 11.6111 149.717 11.6773C149.577 11.7436 149.396 11.8098 149.172 11.8761C148.948 11.9423 148.686 12.001 148.39 12.054C148.093 12.107 147.774 12.1335 147.432 12.1335C146.87 12.1335 146.374 12.0502 145.94 11.8836C145.508 11.7171 145.143 11.471 144.85 11.1455C144.558 10.8199 144.334 10.4167 144.181 9.93595C144.028 9.45518 143.952 8.8968 143.952 8.26081C143.952 7.62483 144.03 7.10809 144.189 6.62543C144.346 6.14466 144.573 5.73581 144.866 5.39889C145.158 5.06197 145.514 4.80644 145.929 4.62852C146.344 4.45059 146.805 4.36353 147.311 4.36353C147.856 4.36353 148.321 4.45438 148.707 4.6342C149.092 4.81401 149.409 5.05629 149.658 5.36103C149.906 5.66578 150.088 6.01784 150.202 6.42101C150.317 6.82228 150.375 7.24627 150.375 7.69108V7.88225L150.373 7.87847ZM149.386 7.60022C149.401 6.83742 149.225 6.24308 148.856 5.81531C148.487 5.38753 147.95 5.17175 147.244 5.17175C146.881 5.17175 146.562 5.23989 146.286 5.37428C146.011 5.50867 145.778 5.68849 145.588 5.90995C145.399 6.13141 145.254 6.39072 145.151 6.68411C145.049 6.97749 144.99 7.28413 144.975 7.60022H149.384H149.386Z" fill="white"/>
</g>
<g id="Group_5">
<path id="Vector_16" d="M68.6315 27.3441C68.4384 26.4942 68.1191 25.7352 67.6831 25.0916C67.2376 24.4348 66.6563 23.9086 65.9507 23.5301C65.2432 23.1496 64.3846 22.9565 63.398 22.9565C62.9429 22.9565 62.5069 23.0076 62.0996 23.108C61.6904 23.2102 61.2869 23.3673 60.9007 23.5793C60.5221 23.7856 60.1397 24.0468 59.7649 24.3553C59.6157 24.4784 59.4628 24.6109 59.306 24.7528V22.9565H56.9502V41.9338H59.4455V35.9601C59.5584 36.0586 59.6693 36.1513 59.7764 36.2365C60.1091 36.5034 60.4494 36.7286 60.7841 36.9065C61.1282 37.0901 61.4877 37.2264 61.8491 37.3135C62.2086 37.4006 62.5968 37.4441 63.0041 37.4441C63.9467 37.4441 64.7996 37.2624 65.5396 36.9065C66.2815 36.5488 66.9125 36.0377 67.4154 35.3847C67.9106 34.7412 68.2912 33.9519 68.5436 33.0376C68.7921 32.1404 68.9183 31.1221 68.9183 30.011C68.9183 29.0722 68.8227 28.175 68.6334 27.3441H68.6315ZM66.14 32.1139C66.0138 32.7083 65.813 33.2477 65.5434 33.7171C65.2833 34.1676 64.9449 34.5367 64.5319 34.8131C64.1322 35.0819 63.6599 35.2125 63.0882 35.2125C62.4629 35.2125 61.8778 35.0156 61.2984 34.6087C60.7152 34.1998 60.0919 33.6055 59.4455 32.8446V27.628C59.805 27.1908 60.1492 26.8179 60.4743 26.5169C60.8223 26.1951 61.1569 25.9301 61.4743 25.7314C61.7784 25.5383 62.0786 25.4002 62.3635 25.3188C62.6503 25.2374 62.9467 25.1957 63.245 25.1957C63.8358 25.1957 64.3234 25.3263 64.7001 25.5838C65.0902 25.8525 65.4076 26.216 65.6428 26.6683C65.8895 27.1415 66.0692 27.6905 66.1744 28.3037C66.2834 28.934 66.3388 29.6003 66.3388 30.2817C66.3388 30.8931 66.2719 31.512 66.1419 32.1196L66.14 32.1139Z" fill="white"/>
<path id="Vector_17" d="M83.6515 27.3441C83.4565 26.4942 83.139 25.7352 82.7031 25.0916C82.2595 24.4348 81.6763 23.9086 80.9707 23.5301C80.2632 23.1496 79.4046 22.9565 78.4179 22.9565C77.9629 22.9565 77.525 23.0076 77.1196 23.108C76.7104 23.2102 76.3069 23.3673 75.9207 23.5793C75.5421 23.7856 75.1596 24.0468 74.7849 24.3553C74.6357 24.4784 74.4808 24.6109 74.324 24.7528V22.9565H71.9683V41.9338H74.4655V35.9601C74.5783 36.0586 74.6873 36.1513 74.7963 36.2365C75.129 36.5034 75.4694 36.7286 75.8059 36.9065C76.1501 37.0901 76.5077 37.2264 76.8691 37.3135C77.2286 37.4006 77.6168 37.4441 78.024 37.4441C78.9667 37.4441 79.8196 37.2624 80.5596 36.9065C81.3015 36.5488 81.9325 36.0377 82.4354 35.3847C82.9306 34.7412 83.3111 33.9519 83.5635 33.0376C83.8121 32.1404 83.9383 31.1221 83.9383 30.011C83.9383 29.0722 83.8427 28.175 83.6534 27.3441H83.6515ZM81.16 32.1139C81.0338 32.7083 80.833 33.2477 80.5634 33.7171C80.3052 34.1676 79.9649 34.5367 79.5538 34.8131C79.1541 35.0819 78.6818 35.2125 78.1101 35.2125C77.4848 35.2125 76.8997 35.0156 76.3203 34.6087C75.7352 34.1998 75.1138 33.6055 74.4674 32.8446V27.628C74.825 27.1908 75.1711 26.8179 75.4962 26.5169C75.8423 26.1951 76.1788 25.9301 76.4962 25.7314C76.8003 25.5383 77.0986 25.4002 77.3854 25.3188C77.6703 25.2374 77.9686 25.1957 78.2669 25.1957C78.8558 25.1957 79.3453 25.3263 79.7201 25.5838C80.1102 25.8525 80.4276 26.216 80.6628 26.6683C80.9114 27.1415 81.0892 27.6905 81.1944 28.3037C81.3034 28.934 81.3569 29.6003 81.3569 30.2817C81.3569 30.8931 81.2919 31.512 81.1619 32.1196L81.16 32.1139Z" fill="white"/>
<path id="Vector_18" d="M126.341 24.8926C125.802 24.2642 125.121 23.7777 124.316 23.4465C123.52 23.1209 122.587 22.9543 121.541 22.9543C120.495 22.9543 119.467 23.1398 118.637 23.507C117.801 23.8761 117.096 24.3986 116.535 25.0629C115.981 25.7216 115.56 26.509 115.287 27.4062C115.017 28.2883 114.881 29.2631 114.881 30.3041C114.881 31.3452 115.013 32.3654 115.273 33.2285C115.537 34.1087 115.945 34.8696 116.484 35.4923C117.027 36.1207 117.709 36.6091 118.513 36.9441C119.308 37.2753 120.241 37.4438 121.289 37.4438C122.337 37.4438 123.35 37.2564 124.182 36.8835C125.016 36.5106 125.723 35.9825 126.284 35.3125C126.838 34.65 127.261 33.8607 127.538 32.9654C127.811 32.0834 127.951 31.1086 127.951 30.0656C127.951 29.0227 127.817 28.0176 127.551 27.1545C127.282 26.2762 126.876 25.5153 126.343 24.8945L126.341 24.8926ZM125.352 30.2189C125.352 30.9458 125.272 31.6253 125.111 32.2424C124.956 32.8405 124.716 33.3629 124.394 33.7945C124.083 34.2147 123.673 34.5497 123.18 34.7882C122.685 35.0305 122.081 35.1516 121.385 35.1516C120.627 35.1516 119.993 35.021 119.499 34.7655C119.008 34.5099 118.612 34.1598 118.323 33.7263C118.023 33.2777 117.805 32.7439 117.677 32.1401C117.543 31.5136 117.474 30.8436 117.474 30.1489C117.474 29.4542 117.555 28.7558 117.715 28.1406C117.87 27.5406 118.113 27.0163 118.434 26.581C118.746 26.157 119.153 25.8201 119.646 25.5816C120.142 25.3393 120.746 25.2181 121.442 25.2181C122.199 25.2181 122.832 25.3506 123.325 25.61C123.817 25.8693 124.213 26.2232 124.503 26.6624C124.803 27.1166 125.021 27.6504 125.152 28.2523C125.285 28.8732 125.354 29.5356 125.354 30.2208L125.352 30.2189Z" fill="white"/>
</g>
</g>
<path id="Vector_19" d="M48.3405 18.8889H45.3728L39.187 37.4157H41.7187L43.0954 32.1064H50.5356L51.9621 37.4157H54.5263L48.3405 18.8889ZM43.889 29.8729L46.7687 21.7414L49.7191 29.8729H43.889Z" fill="white"/>
<path id="Vector_20" d="M103.49 29.9008C103.226 29.3406 102.869 28.8447 102.431 28.4263C102.003 28.0175 101.511 27.6579 100.97 27.3588C100.452 27.0711 99.9146 26.7985 99.3773 26.5487C98.8495 26.3045 98.3256 26.0565 97.815 25.8105C97.3294 25.5777 96.8896 25.3108 96.509 25.0212C96.1476 24.7467 95.8532 24.4268 95.6352 24.071C95.4306 23.736 95.3273 23.3233 95.3273 22.8407C95.3273 22.5113 95.3866 22.1933 95.5033 21.8981C95.618 21.6066 95.7863 21.3605 96.0176 21.1428C96.249 20.927 96.5473 20.751 96.9068 20.6223C97.2739 20.4898 97.7156 20.4236 98.2204 20.4236C98.7252 20.4236 99.209 20.486 99.6105 20.6091C100.027 20.7359 100.387 20.8797 100.683 21.0349C100.991 21.1958 101.249 21.3435 101.45 21.4722L102.483 19.3371C102.362 19.2159 102.156 19.0834 101.832 18.915C101.536 18.7617 101.198 18.6216 100.827 18.4986C100.458 18.3774 100.062 18.2752 99.6526 18.1976C99.2339 18.1181 98.8151 18.0784 98.404 18.0784C97.5932 18.0784 96.836 18.1882 96.1553 18.4058C95.4631 18.6254 94.8569 18.951 94.3579 19.3693C93.8531 19.7933 93.4553 20.3157 93.1781 20.9214C92.9008 21.5252 92.7612 22.2142 92.7612 22.9675C92.7612 23.7208 92.897 24.4231 93.1666 24.9966C93.4305 25.5606 93.7842 26.0584 94.2183 26.4786C94.6409 26.8875 95.1266 27.249 95.662 27.5538C96.1782 27.8471 96.7117 28.1216 97.251 28.3733C97.7768 28.6175 98.3007 28.8655 98.8036 29.1115C99.2855 29.3462 99.7215 29.6093 100.098 29.8933C100.456 30.1639 100.746 30.4819 100.964 30.8359C101.169 31.1709 101.272 31.5835 101.272 32.0662C101.272 32.5489 101.186 32.9767 101.018 33.3457C100.852 33.7111 100.614 34.0234 100.316 34.2713C100.01 34.525 99.6373 34.7237 99.2109 34.86C98.7749 35.0001 98.2835 35.0701 97.7558 35.0701C97.0942 35.0701 96.511 34.9944 96.0195 34.843C95.5128 34.6877 95.073 34.5174 94.7135 34.3376C94.3502 34.1559 94.0519 33.9855 93.8282 33.8341L93.3138 36.3932C93.6083 36.5559 93.9716 36.7168 94.3942 36.8739C94.8168 37.0292 95.3006 37.1635 95.836 37.2752C96.379 37.3869 96.9622 37.4437 97.5703 37.4437C98.4652 37.4437 99.3065 37.3188 100.068 37.0746C100.84 36.8266 101.517 36.4594 102.083 35.9862C102.653 35.5073 103.102 34.9168 103.418 34.2316C103.733 33.5483 103.892 32.7684 103.892 31.9129C103.892 31.1482 103.756 30.4725 103.486 29.9046L103.49 29.9008Z" fill="white"/>
<path id="Vector_21" d="M112.1 34.987C111.976 35.0362 111.829 35.0816 111.664 35.1252C111.515 35.163 111.343 35.182 111.152 35.182C110.381 35.182 110.121 34.8715 109.993 34.6387C109.75 34.1977 109.626 33.5258 109.626 32.638V25.3999H112.662V23.1797H109.626V20.4824L107.129 21.5708V23.1797H105.775V25.3999H107.129V32.8614C107.129 33.5977 107.198 34.2507 107.331 34.7996C107.473 35.3788 107.706 35.8672 108.027 36.2533C108.354 36.647 108.777 36.9442 109.284 37.1353C109.771 37.3208 110.362 37.4136 111.039 37.4136C111.242 37.4136 111.454 37.4003 111.666 37.3757C111.878 37.3511 112.083 37.3152 112.276 37.2697C112.479 37.2224 112.662 37.1618 112.821 37.0918L112.437 34.8413C112.347 34.8829 112.234 34.9321 112.1 34.9851V34.987Z" fill="white"/>
<path id="Vector_22" d="M136.563 22.9561C136.526 22.9561 136.492 22.9561 136.459 22.9561C136.146 22.9561 135.834 22.992 135.536 23.0658C135.224 23.1416 134.905 23.2835 134.586 23.4898C134.278 23.6886 133.953 23.9649 133.622 24.3132C133.52 24.4192 133.417 24.5347 133.31 24.6615V22.9561H130.899V37.4152H133.396V28.0875C133.721 27.5745 134.025 27.1335 134.295 26.7757C134.574 26.4066 134.84 26.1095 135.088 25.8899C135.324 25.6817 135.547 25.5303 135.75 25.4413C135.945 25.3561 136.134 25.3145 136.333 25.3145C136.391 25.3145 136.452 25.3164 136.524 25.3221L136.962 25.3542V22.9674L136.565 22.9561H136.563Z" fill="white"/>
<path id="Vector_23" d="M149.06 34.3015C149.003 34.3243 148.944 34.3508 148.879 34.381C148.668 34.4776 148.395 34.5892 148.064 34.7104C147.739 34.8296 147.347 34.9394 146.898 35.0378C146.458 35.1344 145.951 35.1817 145.391 35.1817C144.613 35.1817 143.955 35.07 143.433 34.8505C142.926 34.6366 142.509 34.328 142.198 33.9324C141.878 33.5293 141.645 33.0334 141.503 32.4579C141.383 31.9677 141.312 31.4245 141.289 30.8339H149.582C149.837 30.8339 150.093 30.745 150.341 30.5708C150.634 30.3645 150.781 30.0219 150.781 29.5487V29.2137C150.781 28.3979 150.674 27.6086 150.462 26.8685C150.246 26.1114 149.898 25.4356 149.427 24.8583C148.953 24.2772 148.341 23.8097 147.611 23.469C146.882 23.1283 145.997 22.9561 144.98 22.9561C144.033 22.9561 143.159 23.1245 142.383 23.4576C141.601 23.7927 140.922 24.2848 140.366 24.9189C139.815 25.5492 139.387 26.3215 139.092 27.2168C138.803 28.1007 138.656 29.1115 138.656 30.2206C138.656 31.3298 138.798 32.4068 139.077 33.2889C139.362 34.188 139.786 34.9546 140.341 35.5678C140.899 36.1868 141.597 36.66 142.417 36.9742C143.224 37.2846 144.158 37.4417 145.19 37.4417C145.813 37.4417 146.406 37.3925 146.949 37.296C147.485 37.2013 147.963 37.0915 148.37 36.9704C148.632 36.8928 148.859 36.8171 149.06 36.7395V34.3015ZM141.568 27.5764C141.729 27.1089 141.964 26.6943 142.263 26.3442C142.559 25.9978 142.928 25.7139 143.36 25.5019C143.787 25.2937 144.291 25.1877 144.865 25.1877C145.991 25.1877 146.819 25.5113 147.391 26.1776C147.907 26.7776 148.186 27.6086 148.223 28.6553H141.316C141.364 28.2843 141.448 27.9247 141.567 27.5764H141.568Z" fill="white"/>
</g>
</g>
</svg>
