<svg width="138" height="69" viewBox="0 0 138 69" fill="none" xmlns="http://www.w3.org/2000/svg">
<rect x="0.5" y="0.944336" width="137" height="67" rx="11.5" stroke="#020111"/>
<g clip-path="url(#clip0_1285_90650)">
<path d="M87 34C87 42.9845 80.4173 50.4313 71.8125 51.7813V39.2031H76.0066L76.8047 34H71.8125V30.6236C71.8125 29.1998 72.51 27.8125 74.7459 27.8125H77.0156V23.3828C77.0156 23.3828 74.9555 23.0312 72.986 23.0312C68.8748 23.0312 66.1875 25.5231 66.1875 30.0344V34H61.6172V39.2031H66.1875V51.7813C57.5827 50.4313 51 42.9845 51 34C51 24.0592 59.0592 16 69 16C78.9408 16 87 24.0592 87 34Z" fill="#1877F2"/>
<path d="M76.0066 39.2031L76.8047 34H71.8125V30.6235C71.8125 29.2 72.5099 27.8125 74.7459 27.8125H77.0156V23.3828C77.0156 23.3828 74.9558 23.0312 72.9864 23.0312C68.8748 23.0312 66.1875 25.5231 66.1875 30.0344V34H61.6172V39.2031H66.1875V51.7813C67.104 51.925 68.0432 52 69 52C69.9568 52 70.896 51.925 71.8125 51.7813V39.2031H76.0066Z" fill="white"/>
</g>
<defs>
<clipPath id="clip0_1285_90650">
<rect width="36" height="36" fill="white" transform="translate(51 16)"/>
</clipPath>
</defs>
</svg>
