<svg width="112" height="112" viewBox="0 0 112 112" fill="none" xmlns="http://www.w3.org/2000/svg">
<circle cx="56" cy="56" r="56" fill="#F37A1D"/>
<path d="M33.9249 80.1932C29.9618 80.179 26.5385 79.2628 23.655 77.4446C20.7715 75.6264 18.5485 73.0057 16.986 69.5824C15.4235 66.1591 14.6493 62.054 14.6635 57.267C14.6777 52.4659 15.459 48.3892 17.0073 45.0369C18.5698 41.6847 20.7857 39.1349 23.655 37.3878C26.5385 35.6406 29.9618 34.767 33.9249 34.767C37.888 34.767 41.3113 35.6477 44.1948 37.4091C47.0783 39.1562 49.3013 41.706 50.8638 45.0582C52.4263 48.4105 53.2005 52.4801 53.1863 57.267C53.1863 62.0824 52.405 66.2017 50.8425 69.625C49.28 73.0483 47.057 75.669 44.1735 77.4872C41.3042 79.2912 37.888 80.1932 33.9249 80.1932ZM33.9249 70.5625C35.9703 70.5625 37.6465 69.4972 38.9533 67.3665C40.2743 65.2216 40.9277 61.8551 40.9135 57.267C40.9135 54.2699 40.6152 51.8196 40.0186 49.9162C39.4221 48.0128 38.5982 46.6065 37.5471 45.6974C36.4959 44.7741 35.2885 44.3125 33.9249 44.3125C31.8794 44.3125 30.2104 45.3494 28.9178 47.4233C27.6252 49.4972 26.9647 52.7784 26.9363 57.267C26.9221 60.321 27.2132 62.8352 27.8098 64.8097C28.4064 66.7699 29.2303 68.2188 30.2814 69.1562C31.3468 70.0938 32.5613 70.5625 33.9249 70.5625ZM58.3212 72.1818V62.9773L75.878 35.3636H84.2303V47.6364H79.4576L69.9973 62.6364V62.9773H95.9064V72.1818H58.3212ZM79.5428 79V69.3693L79.7985 65.3636V35.3636H90.878V79H79.5428Z" fill="white"/>
</svg>
