<svg width="174" height="42" viewBox="0 0 174 42" fill="none" xmlns="http://www.w3.org/2000/svg">
<path d="M28.2534 13.0907L21.9628 19.3458L3.49707 0.522123C4.42317 -0.0376792 5.6299 -0.124135 6.69847 0.498348L28.2534 13.0907Z" fill="#00F076"/>
<path d="M28.4089 27.9519L6.69857 40.6329C5.40118 41.3915 3.89654 41.0976 2.94238 40.1854L21.963 21.3618L28.4089 27.9519Z" fill="#F73448"/>
<path d="M35.6873 23.2795L29.4637 26.915L29.414 26.9431L22.9702 20.353L29.2608 14.0979L29.3104 14.126L35.6895 17.8523C37.764 19.0648 37.764 22.067 35.6895 23.2795H35.6873Z" fill="#FFCA00"/>
<path d="M1.93623 39.1783C1.92327 39.1653 1.91032 39.1523 1.89737 39.1394C1.3361 38.5839 0.975592 37.8101 0.975592 36.911V4.21979C0.973433 3.05479 1.58004 2.09945 2.44353 1.5591C2.45864 1.5483 2.47591 1.53965 2.49102 1.53101L20.9568 20.3546L1.93623 39.1783Z" fill="#00D2FF"/>
<path d="M71.7749 25.0168H62.745V27.5219H69.0765C68.3188 30.3122 65.7715 32.3634 62.745 32.3634C59.1205 32.3634 56.1824 29.4218 56.1824 25.7928C56.1824 22.1638 59.1205 19.2221 62.745 19.2221C64.459 19.2221 66.0176 19.8792 67.1855 20.9555L68.9556 19.1832C67.3344 17.6529 65.1476 16.717 62.745 16.717C57.7389 16.717 53.6826 20.7805 53.6826 25.7906C53.6826 30.8007 57.741 34.8642 62.745 34.8642C67.7489 34.8642 71.8073 30.8007 71.8073 25.7906C71.8073 25.5291 71.7965 25.2697 71.7749 25.0147V25.0168Z" fill="white"/>
<path d="M78.9095 23.1409C75.7081 23.1409 73.1133 25.7562 73.1133 28.981C73.1133 32.2058 75.7081 34.8211 78.9095 34.8211C82.1109 34.8211 84.7057 32.2058 84.7057 28.981C84.7057 25.7562 82.1109 23.1409 78.9095 23.1409ZM78.9095 32.5041C77.1566 32.5041 75.7383 30.9695 75.7383 29.0761C75.7383 27.1827 77.1587 25.6481 78.9095 25.6481C80.6602 25.6481 82.0806 27.1827 82.0806 29.0761C82.0806 30.9695 80.6602 32.5041 78.9095 32.5041Z" fill="white"/>
<path d="M91.804 23.1409C88.6026 23.1409 86.0078 25.7562 86.0078 28.981C86.0078 32.2058 88.6026 34.8211 91.804 34.8211C95.0054 34.8211 97.6002 32.2058 97.6002 28.981C97.6002 25.7562 95.0054 23.1409 91.804 23.1409ZM91.804 32.5041C90.0511 32.5041 88.6328 30.9695 88.6328 29.0761C88.6328 27.1827 90.0533 25.6481 91.804 25.6481C93.5547 25.6481 94.9752 27.1827 94.9752 29.0761C94.9752 30.9695 93.5547 32.5041 91.804 32.5041Z" fill="white"/>
<path d="M113.441 16.7188H110.939V35.0539H113.441V16.7188Z" fill="white"/>
<path d="M123.725 30.4805C123.349 31.2522 122.701 31.8509 121.903 32.1643C121.054 32.4971 120.126 32.4798 119.291 32.1124C118.76 31.879 118.304 31.5245 117.959 31.0771L126.458 27.7442L126.326 27.3011C126.278 27.1368 126.222 26.9769 126.162 26.8213C125.585 25.3494 124.472 24.1909 123.025 23.5576C121.579 22.9243 119.973 22.894 118.503 23.469C117.033 24.046 115.876 25.1613 115.243 26.6095C114.61 28.0576 114.58 29.6657 115.154 31.1376C115.731 32.6095 116.845 33.768 118.291 34.4013C119.051 34.7342 119.854 34.9006 120.657 34.9006C121.387 34.9006 122.114 34.7644 122.814 34.4899C124.221 33.9388 125.352 32.8818 126 31.5137L126.222 31.0447L123.938 30.0439L123.727 30.4784L123.725 30.4805ZM122.939 26.4387L117.255 28.6671C117.287 28.3083 117.38 27.9517 117.529 27.6124C117.894 26.7759 118.563 26.1318 119.412 25.7989C119.815 25.6412 120.236 25.5633 120.653 25.5633C121.488 25.5633 122.309 25.8703 122.939 26.4387Z" fill="white"/>
<path d="M107.132 23.1406V24.1694C106.286 23.521 105.261 23.1406 104.156 23.1406C101.254 23.1406 98.9033 25.7559 98.9033 28.9807C98.9033 32.2055 101.254 34.8208 104.156 34.8208C105.261 34.8208 106.286 34.4404 107.132 33.792V35.0521C107.132 35.774 106.614 37.7776 104.253 37.7776C101.891 37.7776 101.228 35.6659 101.228 35.6659L98.9616 36.7228C98.9616 36.7228 99.8143 40.0557 104.479 40.0557C107.005 40.0557 108.309 38.5881 108.972 37.2416C109.421 36.3295 109.637 35.3201 109.637 34.3021V23.1384H107.135L107.132 23.1406ZM104.156 32.5038C102.569 32.5038 101.28 30.9692 101.28 29.0758C101.28 27.1824 102.567 25.6478 104.156 25.6478C105.744 25.6478 107.031 27.1824 107.031 29.0758C107.031 30.9692 105.744 32.5038 104.156 32.5038Z" fill="white"/>
<path d="M137.627 16.7188H135.125V35.0539H137.627V16.7188Z" fill="white"/>
<path d="M141.128 16.719V19.2241C142.881 19.2241 144.299 20.7587 144.299 22.652C144.299 24.5454 142.879 26.08 141.128 26.08V28.3992C144.329 28.3992 146.924 25.7839 146.924 22.5591C146.924 19.3343 144.329 16.719 141.128 16.719Z" fill="white"/>
<path d="M141.128 16.719H136.927V19.2241H141.128V16.719Z" fill="white"/>
<path d="M141.128 26.0825H136.927V28.4017H141.128V26.0825Z" fill="white"/>
<path d="M150.729 16.7188H148.227V35.0539H150.729V16.7188Z" fill="white"/>
<path d="M158.904 33.4532L159.21 33.1225V34.8754H161.315V27.3083C161.315 26.6037 161.231 25.9899 161.065 25.4798C160.903 24.9826 160.641 24.5741 160.287 24.2607C159.931 23.9452 159.467 23.7074 158.908 23.554C158.338 23.3962 157.641 23.3184 156.831 23.3184C156.378 23.3184 155.933 23.3551 155.506 23.4286C155.078 23.5021 154.679 23.5972 154.319 23.7139C154.006 23.8133 153.723 23.9236 153.479 24.0381L153.613 26.0223C153.766 25.9445 153.941 25.8623 154.133 25.7759C154.439 25.6397 154.796 25.5122 155.193 25.3998C155.597 25.2852 156.061 25.2269 156.572 25.2269C156.967 25.2269 157.304 25.2701 157.576 25.3522C157.861 25.4409 158.094 25.5792 158.269 25.7672C158.442 25.9531 158.567 26.1887 158.642 26.4632C158.714 26.7269 158.748 27.0338 158.748 27.3796V28.1966H157.542C156.62 28.1966 155.799 28.268 155.104 28.4063C154.418 28.5446 153.839 28.7564 153.384 29.0396C152.937 29.3184 152.596 29.6729 152.371 30.0965C152.145 30.5223 152.03 31.0346 152.03 31.6181C152.03 32.1585 152.121 32.6362 152.298 33.0382C152.475 33.438 152.728 33.7774 153.049 34.0454C153.373 34.3177 153.762 34.5252 154.206 34.6636C154.655 34.804 155.158 34.8754 155.698 34.8754C156.346 34.8754 156.944 34.75 157.475 34.5014C158.008 34.2507 158.489 33.8984 158.904 33.451V33.4532ZM157.593 32.7788C157.216 33.0079 156.797 33.1246 156.348 33.1246C155.808 33.1246 155.376 32.982 155.063 32.701C154.746 32.4135 154.584 32.0202 154.584 31.5274C154.584 31.2399 154.64 30.9805 154.75 30.7557C154.863 30.5266 155.04 30.3299 155.279 30.17C155.51 30.0165 155.81 29.8998 156.169 29.8242C156.518 29.7507 156.944 29.7139 157.436 29.7139H158.748V31.7586L158.703 31.8083C158.329 32.2298 157.956 32.5562 157.591 32.7788H157.593Z" fill="white"/>
<path d="M171.251 23.3374L169.422 27.5716L168.298 30.1739L167.536 28.4124L165.344 23.3374H162.62L166.173 31.5659L166.966 33.4009L164.902 38.4477H167.628L169.422 33.8829L170.784 30.7272L173.975 23.3374H171.251Z" fill="white"/>
<path d="M68.8629 9.89055C68.8629 9.95107 68.8586 10.0051 68.85 10.0527C68.8413 10.1002 68.8262 10.1391 68.8046 10.1715C68.7831 10.204 68.7593 10.2299 68.7312 10.245C68.7032 10.2623 68.673 10.2688 68.6406 10.2688H64.3944C64.3102 10.2688 64.2238 10.2364 64.1353 10.1737C64.0468 10.111 64.0015 9.9943 64.0015 9.82571V1.634C64.0015 1.46542 64.0468 1.35086 64.1353 1.28602C64.2238 1.22334 64.3102 1.19092 64.3944 1.19092H68.578C68.6104 1.19092 68.6406 1.19956 68.6686 1.21469C68.6967 1.23198 68.7204 1.25576 68.7377 1.28818C68.7571 1.3206 68.7701 1.36167 68.7787 1.41138C68.7874 1.46109 68.7917 1.51729 68.7917 1.58429C68.7917 1.64481 68.7874 1.69885 68.7787 1.7464C68.7701 1.79395 68.755 1.83069 68.7377 1.86311C68.7183 1.89337 68.6967 1.91715 68.6686 1.93228C68.6406 1.94957 68.6104 1.95605 68.578 1.95605H64.8563V5.14844H68.0664C68.103 5.14844 68.1354 5.15709 68.1635 5.17222C68.1916 5.18951 68.2153 5.21112 68.2326 5.24138C68.252 5.27164 68.265 5.31055 68.2736 5.36026C68.2822 5.40997 68.2865 5.46617 68.2865 5.53317C68.2865 5.59369 68.2822 5.64556 68.2736 5.69095C68.265 5.73634 68.2498 5.77092 68.2326 5.79902C68.2131 5.82712 68.1916 5.84873 68.1635 5.8617C68.1354 5.87467 68.103 5.88332 68.0664 5.88332H64.8563V9.50366H68.6406C68.673 9.50366 68.7032 9.51231 68.7312 9.52744C68.7593 9.54473 68.7831 9.56634 68.8046 9.5966C68.8262 9.62686 68.8413 9.66577 68.85 9.71548C68.8586 9.76519 68.8629 9.82139 68.8629 9.88839V9.89055Z" fill="white"/>
<path d="M76.5092 1.58429C76.5092 1.64481 76.5048 1.69885 76.4962 1.7464C76.4876 1.79395 76.4725 1.83069 76.4552 1.86311C76.4358 1.89337 76.4142 1.91715 76.3861 1.93228C76.3581 1.94957 76.3278 1.95605 76.2955 1.95605H73.5906V10.1305C73.5906 10.1586 73.5841 10.1845 73.569 10.2083C73.5539 10.2321 73.5323 10.2493 73.4999 10.2645C73.4675 10.2774 73.4222 10.2904 73.3661 10.2991C73.3099 10.3077 73.243 10.312 73.1631 10.312C73.0833 10.312 73.0163 10.3077 72.9602 10.2991C72.9041 10.2904 72.8588 10.2774 72.8264 10.2645C72.794 10.2515 72.7702 10.2321 72.7573 10.2083C72.7443 10.1845 72.7357 10.1586 72.7357 10.1305V1.95605H70.0308C69.9941 1.95605 69.9617 1.94741 69.9358 1.93228C69.9099 1.91499 69.8883 1.89337 69.8689 1.86311C69.8495 1.83285 69.8365 1.79395 69.8279 1.7464C69.8193 1.69885 69.8149 1.64481 69.8149 1.58429C69.8149 1.51945 69.8193 1.46109 69.8279 1.41138C69.8365 1.36167 69.8516 1.3206 69.8689 1.28818C69.8883 1.25576 69.9099 1.22982 69.9358 1.21469C69.9617 1.1974 69.992 1.19092 70.0308 1.19092H76.2955C76.3278 1.19092 76.3581 1.19956 76.3861 1.21469C76.4142 1.23198 76.4379 1.25576 76.4552 1.28818C76.4746 1.3206 76.4876 1.36167 76.4962 1.41138C76.5048 1.46109 76.5092 1.51729 76.5092 1.58429Z" fill="white"/>
<path d="M82.0511 10.1308C82.0511 10.1589 82.0447 10.1848 82.0296 10.2086C82.0145 10.2323 81.9929 10.2496 81.9605 10.2648C81.9281 10.2777 81.8849 10.2907 81.831 10.2994C81.777 10.308 81.7079 10.3123 81.6237 10.3123C81.5438 10.3123 81.4769 10.308 81.4208 10.2994C81.3647 10.2907 81.3193 10.2777 81.287 10.2648C81.2546 10.2518 81.2308 10.2323 81.2179 10.2086C81.2049 10.1848 81.1963 10.1589 81.1963 10.1308V1.3317C81.1963 1.30361 81.2049 1.27767 81.22 1.25389C81.2373 1.23012 81.2611 1.21283 81.2977 1.1977C81.3323 1.18473 81.3776 1.17176 81.4316 1.16311C81.4856 1.15447 81.5503 1.15015 81.6237 1.15015C81.7079 1.15015 81.777 1.15447 81.831 1.16311C81.8849 1.17176 81.9281 1.18473 81.9605 1.1977C81.9929 1.21067 82.0166 1.23012 82.0296 1.25389C82.0425 1.27767 82.0511 1.30361 82.0511 1.3317V10.1308Z" fill="white"/>
<path d="M90.1937 1.58429C90.1937 1.64481 90.1894 1.69885 90.1808 1.7464C90.1721 1.79395 90.157 1.83069 90.1398 1.86311C90.1203 1.89337 90.0988 1.91715 90.0707 1.93228C90.0426 1.94957 90.0124 1.95605 89.98 1.95605H87.2751V10.1305C87.2751 10.1586 87.2687 10.1845 87.2535 10.2083C87.2384 10.2321 87.2168 10.2493 87.1845 10.2645C87.1521 10.2774 87.1067 10.2904 87.0506 10.2991C86.9945 10.3077 86.9276 10.312 86.8477 10.312C86.7678 10.312 86.7009 10.3077 86.6448 10.2991C86.5886 10.2904 86.5433 10.2774 86.5109 10.2645C86.4786 10.2515 86.4548 10.2321 86.4419 10.2083C86.4289 10.1845 86.4203 10.1586 86.4203 10.1305V1.95605H83.7154C83.6787 1.95605 83.6463 1.94741 83.6204 1.93228C83.5945 1.91499 83.5729 1.89337 83.5535 1.86311C83.5341 1.83285 83.5211 1.79395 83.5125 1.7464C83.5038 1.69885 83.4995 1.64481 83.4995 1.58429C83.4995 1.51945 83.5038 1.46109 83.5125 1.41138C83.5211 1.36167 83.5362 1.3206 83.5535 1.28818C83.5729 1.25576 83.5945 1.22982 83.6204 1.21469C83.6463 1.1974 83.6765 1.19092 83.7154 1.19092H89.98C90.0124 1.19092 90.0426 1.19956 90.0707 1.21469C90.0988 1.23198 90.1225 1.25576 90.1398 1.28818C90.1592 1.3206 90.1721 1.36167 90.1808 1.41138C90.1894 1.46109 90.1937 1.51729 90.1937 1.58429Z" fill="white"/>
<path d="M102.174 5.62682C102.174 6.35089 102.092 7.00796 101.926 7.5937C101.76 8.1816 101.511 8.68088 101.179 9.09587C100.847 9.51086 100.43 9.82858 99.9247 10.0534C99.4196 10.2782 98.8324 10.3905 98.1589 10.3905C97.4854 10.3905 96.909 10.2846 96.4254 10.0707C95.9419 9.85884 95.5447 9.55409 95.2338 9.15855C94.923 8.76301 94.6941 8.28102 94.5473 7.71041C94.4005 7.1398 94.3271 6.49571 94.3271 5.78028C94.3271 5.06486 94.4092 4.42292 94.5732 3.84367C94.7373 3.26441 94.9856 2.76945 95.3202 2.36095C95.6548 1.95244 96.0714 1.63472 96.5744 1.40993C97.0774 1.18515 97.6667 1.07275 98.3445 1.07275C99.0224 1.07275 99.5729 1.17866 100.054 1.38832C100.536 1.59797 100.933 1.90057 101.248 2.29394C101.563 2.68732 101.796 3.16283 101.95 3.72479C102.101 4.28676 102.176 4.92005 102.176 5.62682H102.174ZM101.263 5.70463C101.263 5.16644 101.213 4.66284 101.112 4.19381C101.011 3.72479 100.847 3.31413 100.616 2.96614C100.385 2.61815 100.078 2.34366 99.6937 2.14481C99.3117 1.94596 98.8367 1.84653 98.2711 1.84653C97.7056 1.84653 97.2371 1.95028 96.8529 2.15778C96.4664 2.36527 96.1534 2.64625 95.9138 2.9964C95.6742 3.34655 95.4993 3.75721 95.3957 4.22407C95.2921 4.69094 95.2381 5.1859 95.2381 5.70463C95.2381 6.25579 95.2856 6.7702 95.3828 7.24355C95.4777 7.71906 95.6418 8.13188 95.8706 8.48203C96.0995 8.83218 96.406 9.10668 96.7881 9.30552C97.1702 9.50437 97.6494 9.6038 98.2237 9.6038C98.7979 9.6038 99.2728 9.49789 99.6592 9.28391C100.048 9.07209 100.361 8.78679 100.598 8.428C100.836 8.0692 101.006 7.65638 101.11 7.18519C101.213 6.71617 101.263 6.22121 101.263 5.70247V5.70463Z" fill="white"/>
<path d="M110.779 9.85596C110.779 9.94026 110.766 10.0094 110.74 10.0656C110.714 10.1218 110.681 10.1672 110.643 10.2018C110.604 10.2364 110.558 10.2623 110.509 10.2753C110.459 10.2882 110.414 10.2969 110.373 10.2969H110.198C110.105 10.2969 110.019 10.2861 109.943 10.2623C109.865 10.2385 109.792 10.1975 109.719 10.1391C109.645 10.0807 109.574 10.0029 109.501 9.90351C109.427 9.80625 109.347 9.67873 109.259 9.52527L106.064 3.85592C105.904 3.57926 105.744 3.29611 105.585 3.00433C105.423 2.71254 105.27 2.42723 105.125 2.15273H105.118C105.123 2.49424 105.125 2.84438 105.125 3.20101V10.1305C105.125 10.1586 105.118 10.1845 105.103 10.2083C105.088 10.232 105.067 10.2493 105.034 10.2645C105.002 10.2774 104.959 10.2904 104.905 10.2991C104.851 10.3077 104.782 10.312 104.697 10.312C104.618 10.312 104.551 10.3077 104.495 10.2991C104.438 10.2904 104.393 10.2774 104.361 10.2645C104.328 10.2515 104.305 10.232 104.292 10.2083C104.279 10.1845 104.27 10.1586 104.27 10.1305V1.634C104.27 1.46541 104.315 1.35085 104.404 1.28601C104.492 1.22333 104.579 1.19091 104.663 1.19091H105.013C105.125 1.19091 105.218 1.19956 105.293 1.21901C105.369 1.23846 105.436 1.26872 105.496 1.31411C105.557 1.3595 105.617 1.42218 105.675 1.50431C105.734 1.58645 105.798 1.69019 105.867 1.81556L108.313 6.15781C108.467 6.43014 108.613 6.68951 108.752 6.94023C108.89 7.19096 109.024 7.4352 109.155 7.67727C109.287 7.91719 109.416 8.15494 109.544 8.38837C109.673 8.6218 109.799 8.8574 109.926 9.09731H109.932C109.928 8.70394 109.926 8.29543 109.926 7.86964V1.3595C109.926 1.3314 109.932 1.30547 109.947 1.28169C109.963 1.25791 109.984 1.23846 110.017 1.22117C110.049 1.20388 110.092 1.19307 110.146 1.18659C110.2 1.1801 110.269 1.17578 110.353 1.17578C110.429 1.17578 110.494 1.1801 110.55 1.18659C110.606 1.19307 110.651 1.20604 110.684 1.22117C110.716 1.23846 110.74 1.25791 110.757 1.28169C110.774 1.30547 110.781 1.3314 110.781 1.3595V9.85596H110.779Z" fill="white"/>
<path d="M53.6826 5.72345C53.6826 8.17232 55.673 10.1651 58.1188 10.1651C60.5646 10.1651 62.555 8.17232 62.555 5.72345C62.555 5.66077 62.555 5.59809 62.5507 5.53541H58.3282V6.39997H61.6375L61.5663 6.66582C61.1453 8.21771 59.7271 9.30273 58.1188 9.30273C56.1479 9.30273 54.5461 7.69897 54.5461 5.72561C54.5461 3.75225 56.1479 2.1485 58.1188 2.1485C58.9499 2.1485 59.7465 2.43596 60.3855 2.96118L60.9986 2.34734C60.1955 1.66002 59.1809 1.28394 58.1188 1.28394C55.673 1.28394 53.6826 3.27675 53.6826 5.72561V5.72345Z" fill="white"/>
</svg>
