<svg width="16" height="17" viewBox="0 0 16 17" fill="none" xmlns="http://www.w3.org/2000/svg">
<g clip-path="url(#clip0_4091_31529)">
<path d="M11.7244 10.7847C11.5814 10.7083 11.4922 10.5595 11.4922 10.3972V9.95777H8.41601C8.17322 9.95777 7.97656 9.7612 7.97656 9.51832V7.76051C7.97656 7.51762 8.17322 7.32105 8.41601 7.32105H11.4922V6.8816C11.4922 6.71928 11.5814 6.57042 11.7244 6.49406C11.8669 6.41807 12.0407 6.42668 12.1755 6.51594L14.8122 8.27375C14.9346 8.35523 15.0079 8.49256 15.0079 8.63941C15.0079 8.78608 14.9346 8.92341 14.8122 9.00498L12.1755 10.7628C12.0392 10.8537 11.8653 10.8603 11.7244 10.7847Z" fill="white"/>
<path d="M10.6133 1.54956V6.44213H8.416C8.25789 6.44213 8.11718 6.4684 7.97655 6.52114V4.18627C7.97655 3.69399 7.70409 3.24584 7.24715 3.00854L3.45898 1.11011H10.1738C10.42 1.11011 10.6133 1.30337 10.6133 1.54956Z" fill="white"/>
<path d="M8.41601 10.8367H10.6133V13.9127C10.6133 14.1589 10.42 14.3522 10.1738 14.3522H7.97656V10.7576C8.11719 10.8103 8.2579 10.8367 8.41601 10.8367Z" fill="white"/>
<path d="M6.85164 3.7908L1.57812 1.15408C1.44638 1.09247 1.2793 1.09247 1.15625 1.17166C1.02451 1.25946 0.945312 1.40009 0.945312 1.54959V13.9128C0.945312 14.1062 1.06836 14.2732 1.24423 14.3259L6.51766 16.0837C6.64711 16.1356 6.81282 16.1063 6.91307 16.031C7.02742 15.9431 7.09773 15.8113 7.09773 15.6707V4.1863C7.09764 4.01931 7.00105 3.86981 6.85164 3.7908ZM5.33983 9.51832C5.33983 9.76432 5.14657 9.95777 4.90038 9.95777C4.65438 9.95777 4.46093 9.76432 4.46093 9.51832V7.76051C4.46093 7.51442 4.65438 7.32106 4.90038 7.32106C5.14657 7.32106 5.33983 7.51442 5.33983 7.76051V9.51832Z" fill="white"/>
</g>
<defs>
<clipPath id="clip0_4091_31529">
<rect width="16" height="16" fill="white" transform="translate(0 0.617676)"/>
</clipPath>
</defs>
</svg>
