<svg width="20" height="21" viewBox="0 0 20 21" fill="none" xmlns="http://www.w3.org/2000/svg">
<g clip-path="url(#clip0_2550_4723)">
<path d="M16.0547 0.843018V4.40622H19.6176L16.0547 0.843018Z" fill="white"/>
<path d="M15.4688 5.57812C15.1452 5.57812 14.8828 5.31578 14.8828 4.99219V0.5H6.48438C5.51512 0.5 4.72656 1.28855 4.72656 2.25781V8.80816C4.91961 8.79066 5.11496 8.78125 5.3125 8.78125C7.30969 8.78125 9.09754 9.69438 10.2807 11.125H16.6406C16.9642 11.125 17.2266 11.3873 17.2266 11.7109C17.2266 12.0345 16.9642 12.2969 16.6406 12.2969H11.0527C11.4189 13.0116 11.6551 13.8033 11.7309 14.6406H16.6406C16.9642 14.6406 17.2266 14.903 17.2266 15.2266C17.2266 15.5502 16.9642 15.8125 16.6406 15.8125H11.7309C11.5557 17.7476 10.5218 19.4385 9.01398 20.5H18.2031C19.1724 20.5 19.9609 19.7114 19.9609 18.7422V5.57812H15.4688ZM16.6406 8.78125H8.04688C7.72328 8.78125 7.46094 8.51891 7.46094 8.19531C7.46094 7.87172 7.72328 7.60938 8.04688 7.60938H16.6406C16.9642 7.60938 17.2266 7.87172 17.2266 8.19531C17.2266 8.51891 16.9642 8.78125 16.6406 8.78125Z" fill="white"/>
<path d="M5.3125 9.95312C2.40473 9.95312 0.0390625 12.3188 0.0390625 15.2266C0.0390625 18.1343 2.40473 20.5 5.3125 20.5C8.22027 20.5 10.5859 18.1343 10.5859 15.2266C10.5859 12.3188 8.22027 9.95312 5.3125 9.95312ZM6.875 15.8125H5.3125C4.98891 15.8125 4.72656 15.5502 4.72656 15.2266V12.8828C4.72656 12.5592 4.98891 12.2969 5.3125 12.2969C5.63609 12.2969 5.89844 12.5592 5.89844 12.8828V14.6406H6.875C7.19859 14.6406 7.46094 14.903 7.46094 15.2266C7.46094 15.5502 7.19859 15.8125 6.875 15.8125Z" fill="white"/>
</g>
<defs>
<clipPath id="clip0_2550_4723">
<rect width="20" height="20" fill="white" transform="translate(0 0.5)"/>
</clipPath>
</defs>
</svg>
