<svg width="49" height="48" viewBox="0 0 49 48" fill="none" xmlns="http://www.w3.org/2000/svg">
<g id="Group 7868">
<circle id="Oval" cx="24.5" cy="24" r="24" fill="#F37A1D"/>
<path id="instagram" fill-rule="evenodd" clip-rule="evenodd" d="M24.5 16C22.3267 16 22.056 16.0093 21.2013 16.0493C18.2947 16.1827 16.6813 17.7947 16.548 20.7013C16.5093 21.556 16.5 21.828 16.5 24C16.5 26.1733 16.5093 26.4453 16.548 27.2987C16.6813 30.204 18.2947 31.8187 21.2013 31.952C22.056 31.9907 22.3267 32 24.5 32C26.6733 32 26.9453 31.9907 27.8 31.952C30.7013 31.8187 32.3213 30.2067 32.452 27.2987C32.4907 26.4453 32.5 26.1733 32.5 24C32.5 21.828 32.4907 21.556 32.452 20.7013C32.3213 17.7987 30.7067 16.1813 27.8 16.0493C26.9453 16.0093 26.6733 16 24.5 16ZM24.5 17.4427C26.636 17.4427 26.8893 17.4507 27.7333 17.4893C29.9027 17.588 30.9133 18.616 31.0133 20.768C31.0507 21.612 31.0587 21.864 31.0587 24C31.0587 26.136 31.0507 26.3893 31.0133 27.232C30.9133 29.3827 29.904 30.4133 27.7333 30.512C26.8893 30.5493 26.6373 30.5587 24.5 30.5587C22.364 30.5587 22.1107 30.5507 21.268 30.512C19.0947 30.412 18.088 29.38 17.988 27.232C17.9507 26.3893 17.9413 26.136 17.9413 24C17.9413 21.864 17.9507 21.6107 17.988 20.768C18.0867 18.6147 19.0973 17.5867 21.268 17.488C22.1107 17.4493 22.364 17.4427 24.5 17.4427ZM20.392 24C20.392 21.7307 22.232 19.892 24.5 19.892C26.768 19.892 28.608 21.732 28.608 24C28.608 26.2693 26.768 28.108 24.5 28.108C22.232 28.108 20.392 26.2693 20.392 24ZM24.5 26.6667C23.0267 26.6667 21.8333 25.4733 21.8333 24C21.8333 22.528 23.0267 21.3333 24.5 21.3333C25.972 21.3333 27.168 22.5267 27.168 24C27.168 25.4733 25.972 26.6667 24.5 26.6667ZM27.8093 19.7307C27.8093 19.2 28.24 18.7707 28.7693 18.7707C29.3013 18.7707 29.7307 19.2 29.7307 19.7307C29.7307 20.2613 29.3 20.6907 28.7693 20.6907C28.2387 20.6907 27.8093 20.26 27.8093 19.7307Z" fill="#020111"/>
</g>
</svg>
