<svg width="32" height="32" viewBox="0 0 32 32" fill="none" xmlns="http://www.w3.org/2000/svg">
<path d="M16.4507 0C7.85723 0 0.901367 6.51961 0.901367 14.577C0.901367 18.1094 2.2561 21.4944 4.72391 24.149V30.1866C4.72391 30.9955 5.77135 31.4043 6.3829 30.8308L9.70689 27.7146C20.0337 32.3726 32 25.295 32 14.577C32 6.52088 25.0455 0 16.4507 0ZM16.4507 23.7423C15.9157 23.7423 15.4821 23.3358 15.4821 22.8343C15.4821 22.3329 15.9157 21.9263 16.4507 21.9263C16.9857 21.9263 17.4193 22.3329 17.4193 22.8343C17.4193 23.3357 16.9857 23.7423 16.4507 23.7423ZM17.4225 17.2951V19.19C17.4225 19.6932 16.9874 20.1011 16.4507 20.1011C15.914 20.1011 15.4789 19.6931 15.4789 19.19V16.4598C15.4789 15.9567 15.914 15.5488 16.4507 15.5488C18.5959 15.5488 20.3413 13.9126 20.3413 11.9015C20.3413 9.89042 18.596 8.25421 16.4507 8.25421C14.3054 8.25421 12.5601 9.89042 12.5601 11.9015C12.5601 12.4047 12.125 12.8125 11.5883 12.8125C11.0516 12.8125 10.6165 12.4046 10.6165 11.9015C10.6165 8.88566 13.2337 6.43208 16.4507 6.43208C19.6677 6.43208 22.2849 8.88566 22.2849 11.9015C22.2849 14.607 20.1786 16.86 17.4225 17.2951Z" fill="white"/>
</svg>
