<svg width="35" height="35" viewBox="0 0 35 35" fill="none" xmlns="http://www.w3.org/2000/svg">
<path fill-rule="evenodd" clip-rule="evenodd" d="M12.5339 11.2532C12.5339 8.4258 14.8358 6.12622 17.6664 6.12622C20.497 6.12622 22.799 8.4258 22.799 11.2532V13.8026H12.5339V11.2532ZM26.6484 13.8026H25.3653V11.2532C25.3653 7.01275 21.9123 3.56274 17.6664 3.56274C13.4205 3.56274 9.96761 7.01275 9.96761 11.2532V13.8026H8.68447C7.62203 13.8026 6.75977 14.6635 6.75977 15.7255V28.5429C6.75977 29.605 7.62203 30.4659 8.68447 30.4659H26.6484C27.7108 30.4659 28.5731 29.605 28.5731 28.5429V15.7255C28.5731 14.6635 27.7108 13.8026 26.6484 13.8026ZM18.9496 22.4193V25.3389C18.9496 26.0461 18.3747 26.62 17.6664 26.62C16.9569 26.62 16.3833 26.0461 16.3833 25.3389V22.4193C15.6185 21.976 15.1002 21.1587 15.1002 20.2119C15.1002 18.7963 16.2486 17.6485 17.6664 17.6485C19.083 17.6485 20.2327 18.7963 20.2327 20.2119C20.2327 21.1587 19.713 21.976 18.9496 22.4193Z" fill="#6C6C6C"/>
</svg>
