<svg width="88" height="82" viewBox="0 0 88 82" fill="none" xmlns="http://www.w3.org/2000/svg">
<path fill-rule="evenodd" clip-rule="evenodd" d="M40.8754 38.4624C40.3606 38.4624 40.2871 38.0186 40.2871 38.0186V29.5123C40.2871 29.5123 40.2871 29.2164 40.8754 29.2164C41.7579 29.2164 44.3318 29.2164 44.3318 29.2164C46.391 29.2164 48.8914 30.4739 49.8474 32.0272L53.0096 37.5008C53.1567 37.7227 53.3038 37.9446 53.4509 38.0925C53.598 38.2405 53.3773 38.4624 52.8626 38.4624C53.0096 38.4624 43.9641 38.4624 40.8754 38.4624Z" fill="#1274F1"/>
<path fill-rule="evenodd" clip-rule="evenodd" d="M74.8852 15.2356C74.281 14.4835 73.6767 13.8066 72.9969 13.1297C69.6735 9.74519 65.5947 7.33843 61.2138 5.98463C58.5702 5.15731 55.7755 4.78125 52.9808 4.78125H52.9053C43.3126 4.78125 34.853 9.70364 29.7168 16.9991H35.9908C38.7855 16.9991 40.1325 18.3458 40.2836 20.3012C40.2836 20.3765 40.2836 20.481 40.2836 20.6315C40.2836 20.6315 40.3669 24.4866 40.3669 25.8404C40.3669 26.4421 41.0467 26.3668 41.0467 26.3668H46.1073C48.5244 26.3668 51.3946 27.7959 52.4521 29.6009L56.1532 35.8434C57.2862 37.6485 58.8723 38.0246 61.667 38.6263C64.0086 39.1527 66.199 39.1527 66.199 45.0192V48.7798L59.7787 55.624H56.833C56.6064 55.624 56.6064 55.3984 56.6064 55.2479C56.6064 50.6601 52.15 46.8995 46.6361 46.8995C43.9924 46.8995 41.5754 47.802 39.7626 49.231C39.0828 49.7575 38.4786 50.4344 38.0254 51.1113C37.1945 52.3147 36.6658 53.8189 36.6658 55.3231C36.6658 55.4736 36.6987 55.9642 36.321 55.9642C36.321 55.9642 36.1138 55.9642 35.6606 55.9642L49.5063 70.591L52.8298 74.1259L56.1532 70.5158L73.6767 51.713C73.7522 51.6378 73.7523 51.6378 73.8278 51.5626C74.8097 50.5096 75.6406 49.3815 76.4714 48.2533C77.831 46.2978 78.8129 44.1919 79.6438 42.0108C79.7949 41.6347 79.8704 41.3339 80.0215 40.9578C80.7768 38.4758 81.1544 35.8434 81.23 33.2111C81.23 26.5925 79.0395 20.2747 74.8852 15.2356ZM42.5573 55.8496C42.5573 55.7744 42.5573 55.6992 42.5573 55.5488C42.5573 54.571 42.8594 53.6685 43.4637 52.9916C44.219 51.9386 45.5031 51.3369 46.8627 51.3369C49.2042 51.3369 51.0925 53.2172 51.0925 55.5488C51.0925 57.053 50.3372 58.3316 49.1286 59.0837C48.4489 59.535 47.6935 59.7606 46.7872 59.7606C46.5606 59.7606 46.4095 59.7606 46.1829 59.6854C44.219 59.535 42.7084 57.8803 42.5573 55.8496Z" fill="#d8b56c"/>
<path d="M53.8895 0L53.9649 4.89358V5.87227L53.8895 9.78709C56.2278 9.78709 58.7169 10.0882 60.8289 10.7658L62.3375 6.32391L63.6953 1.43047C60.6781 0.451773 57.2083 0 53.8895 0ZM53.8895 0V9.78709H54.0403L53.8895 0ZM25 16.9391H37.0687C41.2927 12.4973 47.3271 9.78709 53.8895 9.78709V0C41.519 0 30.6572 6.85098 25 16.9391ZM57.2838 70.7677L53.9649 67.1541L47.4545 59.7685C45.4933 59.4674 43.7819 58.1199 43.7065 56.0872L39.1807 51.1937C38.351 52.3983 37.823 53.904 37.823 55.4097C37.823 55.5602 37.823 55.7861 37.4458 55.7861C37.4458 55.7861 37.2196 55.7861 36.767 55.7861H30.1292L50.3603 77.6357L57.5855 70.9936L57.2838 70.7677ZM74.7834 51.9465L71.2382 48.634L67.0896 53.0758L64.9021 55.4097L53.9649 67.2293L50.646 70.843L50.4197 71.1442L53.9649 74.4567L57.5855 77.7692L78.404 55.3344L74.7834 51.9465ZM75.2737 51.3442L71.4162 48.4378L71.2382 48.634L74.7079 51.8713L78.404 55.3344C78.4794 55.2591 79.2337 54.205 79.3091 54.1297L75.2737 51.3442ZM77.4988 48.4834L73.4256 45.7732C72.8222 46.7519 72.0679 47.7306 71.2382 48.634L79.3091 54.1297C80.4406 52.9252 80.6669 52.6241 81.572 51.1937L77.4988 48.4834ZM80.5914 42.2348L75.9902 40.6538C75.3868 42.4607 74.4817 44.1169 73.4256 45.7732L77.4988 48.4834L81.572 51.1937C83.156 48.8599 84.3629 46.4508 85.2681 43.8158L80.5914 42.2348ZM80.9686 41.1808L76.292 39.7504C76.2165 40.0515 76.1411 40.3527 75.9902 40.6538L80.5914 42.2348L85.2681 43.8158C85.4189 43.3641 85.4851 43.1305 85.6452 42.6112L80.9686 41.1808ZM82.1755 33.4265L77.2725 33.3512C77.2725 35.5345 76.8954 37.7177 76.292 39.7504L80.9686 41.1808L85.6452 42.6112C86.5503 39.6751 87.0029 36.5885 87.0784 33.5018L82.1755 33.4265ZM79.6863 12.3468L75.9148 15.4334L72.1433 18.5201C75.5377 22.7361 77.348 27.9307 77.2725 33.4265L82.1755 33.5018L87.0784 33.5771C87.1538 25.7475 84.5892 18.2943 79.6863 12.3468ZM77.4988 9.93767L74.0291 13.2502L70.5593 16.7133C71.0873 17.2403 71.6153 17.9178 72.1433 18.5201L75.9837 15.377L79.6863 12.3468C79.0074 11.6692 78.2531 10.7658 77.4988 9.93767ZM63.6953 1.43047L62.2621 6.09814L60.8289 10.7658C64.4496 11.8951 67.7684 13.9278 70.5593 16.7133L74.0291 13.3255L77.4988 9.93767C73.5765 5.94757 68.8999 3.01145 63.6953 1.43047ZM53.9649 74.3061L50.3443 77.6187L53.7386 81.2323L57.4346 77.9198L53.9649 74.3061ZM53.9649 74.3061L57.4346 77.9198L57.5101 77.8445L57.5855 77.7692L53.9649 74.3061Z" fill="#d8b56c"/>
<path fill-rule="evenodd" clip-rule="evenodd" d="M40.8754 38.4624C40.3606 38.4624 40.2871 38.0186 40.2871 38.0186V29.5123C40.2871 29.5123 40.2871 29.2164 40.8754 29.2164C41.7579 29.2164 44.3318 29.2164 44.3318 29.2164C46.391 29.2164 48.8914 30.4739 49.8474 32.0272L53.0096 37.5008C53.1567 37.7227 53.3038 37.9446 53.4509 38.0925C53.598 38.2405 53.3774 38.4624 52.8626 38.4624C53.0096 38.4624 43.9641 38.4624 40.8754 38.4624Z" fill="#d8b56c"/>
<path fill-rule="evenodd" clip-rule="evenodd" d="M59.4397 55.9161L52.509 63.56L48.893 59.5852C50.023 58.8208 50.8517 57.5213 50.8517 55.9926C50.8517 53.623 48.9683 51.712 46.633 51.712C45.277 51.712 43.9963 52.4 43.243 53.3937L39.627 49.4189C41.435 47.9666 43.8456 47.0493 46.4823 47.0493C51.9817 47.0493 56.4264 50.8712 56.4264 55.534C56.4264 55.6868 56.4264 55.9161 56.6524 55.9161H59.4397Z" fill="#d8b56c"/>
<path fill-rule="evenodd" clip-rule="evenodd" d="M71.9824 35.6611C71.9824 37.692 71.6059 39.7229 70.9284 41.6786C70.3261 43.4839 69.4227 45.1387 68.2934 46.7183C67.9922 47.1696 67.6158 47.621 67.2394 47.997C67.1641 48.0723 67.0888 48.2227 66.9382 48.2979L66.0348 49.2758V45.5148C66.0348 39.6477 63.8515 39.6477 61.5177 39.1212C58.7321 38.5194 57.1511 38.1433 56.0218 36.3381L52.3328 30.0949C51.2035 28.2896 48.4619 26.9288 46.0527 26.9288H41.0023C41.0023 26.9288 40.4596 26.9288 40.4136 26.3406C40.4136 25.0619 40.2871 21.0685 40.2871 21.0685C40.2871 20.9933 40.2871 20.9181 40.2871 20.7677C43.675 17.9093 47.9662 16.2545 52.7092 16.2545C57.904 16.2545 62.7222 18.2854 66.4112 21.9712C67.7664 23.3251 68.8957 24.9047 69.7991 26.5595C71.3048 29.3427 72.0577 32.5019 71.9824 35.6611Z" fill="#d8b56c"/>
<path d="M26.9373 22.696H17.9788C16.4731 22.696 15.1934 21.3305 15.1934 19.7241C15.1934 18.1177 16.4731 16.7522 17.9788 16.7522H26.9373C28.4429 16.7522 29.7227 18.1177 29.7227 19.7241C29.7227 21.4109 28.4429 22.696 26.9373 22.696Z" fill="#d8b56c"/>
<path d="M26.8704 33.9234H10.7752C9.23495 33.9234 7.92578 32.558 7.92578 30.9515C7.92578 29.3451 9.23495 27.9796 10.7752 27.9796H26.8704C28.4106 27.9796 29.7198 29.3451 29.7198 30.9515C29.7198 32.558 28.4106 33.9234 26.8704 33.9234Z" fill="#d8b56c"/>
<path d="M26.9563 48.368H2.76282C1.2694 48.368 0 47.1543 0 45.7263C0 44.2984 1.2694 43.0846 2.76282 43.0846H26.9563C28.4497 43.0846 29.7191 44.2984 29.7191 45.7263C29.7191 47.1543 28.4497 48.368 26.9563 48.368Z" fill="#d8b56c"/>
</svg>
