<svg width="143" height="42" viewBox="0 0 143 42" fill="none" xmlns="http://www.w3.org/2000/svg">
<path fill-rule="evenodd" clip-rule="evenodd" d="M21.5558 20.3186C21.2968 20.3186 21.2598 20.0953 21.2598 20.0953V15.8149C21.2598 15.8149 21.2598 15.666 21.5558 15.666C21.9999 15.666 23.2951 15.666 23.2951 15.666C24.3312 15.666 25.5894 16.2988 26.0705 17.0804L27.6617 19.8347C27.7358 19.9464 27.8098 20.058 27.8838 20.1325C27.9578 20.2069 27.8468 20.3186 27.5877 20.3186C27.6617 20.3186 23.11 20.3186 21.5558 20.3186Z" fill="#1274F1"/>
<path fill-rule="evenodd" clip-rule="evenodd" d="M38.6721 8.63074C38.3681 8.25228 38.064 7.91167 37.7219 7.57105C36.0496 5.86797 33.9971 4.65689 31.7927 3.97566C30.4624 3.55935 29.0561 3.37012 27.6498 3.37012H27.6118C22.7848 3.37012 18.5279 5.84706 15.9434 9.51815H19.1005C20.5068 9.51815 21.1846 10.1958 21.2606 11.1798C21.2606 11.2176 21.2606 11.2703 21.2606 11.3459C21.2606 11.3459 21.3025 13.2858 21.3025 13.9671C21.3025 14.2698 21.6446 14.232 21.6446 14.232H24.1911C25.4073 14.232 26.8517 14.9511 27.3838 15.8594L29.2462 19.0006C29.8163 19.9089 30.6144 20.0982 32.0207 20.4009C33.199 20.6659 34.3012 20.6659 34.3012 23.6179V25.5102L31.0705 28.9542H29.5882C29.4742 28.9542 29.4742 28.8407 29.4742 28.765C29.4742 26.4563 27.2317 24.564 24.4571 24.564C23.1269 24.564 21.9106 25.0182 20.9984 25.7373C20.6563 26.0022 20.3523 26.3428 20.1242 26.6834C19.7061 27.289 19.4401 28.0459 19.4401 28.8028C19.4401 28.8785 19.4567 29.1254 19.2666 29.1254C19.2666 29.1254 19.1623 29.1254 18.9343 29.1254L25.9014 36.4856L27.5738 38.2644L29.2462 36.4477L38.064 26.9862C38.102 26.9483 38.102 26.9483 38.14 26.9105C38.6341 26.3806 39.0522 25.8129 39.4703 25.2452C40.1544 24.2612 40.6485 23.2016 41.0666 22.104C41.1427 21.9148 41.1807 21.7634 41.2567 21.5742C41.6368 20.3252 41.8268 19.0006 41.8648 17.676C41.8648 14.3455 40.7626 11.1664 38.6721 8.63074ZM22.4047 29.0677C22.4047 29.0299 22.4047 28.992 22.4047 28.9163C22.4047 28.4243 22.5567 27.9702 22.8608 27.6296C23.2409 27.0997 23.887 26.7969 24.5712 26.7969C25.7494 26.7969 26.6996 27.7431 26.6996 28.9163C26.6996 29.6733 26.3195 30.3166 25.7114 30.6951C25.3693 30.9222 24.9893 31.0357 24.5332 31.0357C24.4191 31.0357 24.3431 31.0357 24.2291 30.9979C23.2409 30.9222 22.4807 30.0896 22.4047 29.0677Z" fill="#18365A"/>
<path d="M27.5645 0.460938L27.6025 2.92339V3.41586L27.5645 5.3858C28.7412 5.3858 29.9937 5.53733 31.0565 5.87828L31.8156 3.64313L32.4988 1.18075C30.9806 0.68827 29.2346 0.460938 27.5645 0.460938ZM27.5645 0.460938V5.3858H27.6404L27.5645 0.460938ZM13.0273 8.98471H19.1003C21.2259 6.7496 24.2623 5.3858 27.5645 5.3858V0.460938C21.3397 0.460938 15.874 3.90835 13.0273 8.98471ZM29.2725 36.0713L27.6025 34.2529L24.3264 30.5365C23.3396 30.3849 22.4784 29.7069 22.4405 28.684L20.1631 26.2216C19.7456 26.8278 19.4799 27.5854 19.4799 28.3431C19.4799 28.4188 19.4799 28.5325 19.2901 28.5325C19.2901 28.5325 19.1762 28.5325 18.9485 28.5325H15.6084L25.7886 39.5272L29.4244 36.1849L29.2725 36.0713ZM38.0783 26.6004L36.2944 24.9336L34.2068 27.1687L33.1061 28.3431L27.6025 34.2908L25.9324 36.1092L25.8185 36.2607L27.6025 37.9276L29.4244 39.5944L39.9002 28.3052L38.0783 26.6004ZM38.3251 26.2974L36.384 24.8348L36.2944 24.9336L38.0404 26.5626L39.9002 28.3052C39.9382 28.2673 40.3177 27.7369 40.3557 27.699L38.3251 26.2974ZM39.4448 24.8578L37.3951 23.494C37.0915 23.9865 36.7119 24.479 36.2944 24.9336L40.3557 27.699C40.925 27.0929 41.0389 26.9414 41.4944 26.2216L39.4448 24.8578ZM41.001 21.7135L38.6856 20.918C38.382 21.8272 37.9265 22.6606 37.3951 23.494L39.4448 24.8578L41.4944 26.2216C42.2915 25.0472 42.8988 23.835 43.3542 22.5091L41.001 21.7135ZM41.1907 21.1831L38.8375 20.4634C38.7995 20.6149 38.7616 20.7664 38.6856 20.918L41.001 21.7135L43.3542 22.5091C43.4301 22.2818 43.4635 22.1642 43.544 21.9029L41.1907 21.1831ZM41.798 17.2812L39.3309 17.2433C39.3309 18.3419 39.1411 19.4405 38.8375 20.4634L41.1907 21.1831L43.544 21.9029C43.9995 20.4255 44.2272 18.8723 44.2652 17.319L41.798 17.2812ZM40.5455 6.67383L38.6477 8.22705L36.7499 9.78027C38.4579 11.9017 39.3689 14.5157 39.3309 17.2812L41.798 17.319L44.2652 17.3569C44.3031 13.4171 43.0126 9.66661 40.5455 6.67383ZM39.4448 5.46157L37.6988 7.12844L35.9528 8.87107C36.2185 9.13625 36.4842 9.4772 36.7499 9.78027L38.6824 8.19867L40.5455 6.67383C40.2039 6.33288 39.8243 5.87829 39.4448 5.46157ZM32.4988 1.18075L31.7776 3.52952L31.0565 5.87828C32.8784 6.44653 34.5484 7.46939 35.9528 8.87107L37.6988 7.16632L39.4448 5.46157C37.471 3.45376 35.1178 1.9763 32.4988 1.18075ZM27.6025 37.8518L25.7806 39.5187L27.4886 41.337L29.3484 39.6702L27.6025 37.8518ZM27.6025 37.8518L29.3484 39.6702L29.3864 39.6323L29.4244 39.5944L27.6025 37.8518Z" fill="#F37A1D"/>
<path fill-rule="evenodd" clip-rule="evenodd" d="M21.5558 20.3186C21.2968 20.3186 21.2598 20.0953 21.2598 20.0953V15.8149C21.2598 15.8149 21.2598 15.666 21.5558 15.666C21.9999 15.666 23.2951 15.666 23.2951 15.666C24.3312 15.666 25.5894 16.2988 26.0705 17.0804L27.6617 19.8347C27.7358 19.9464 27.8098 20.058 27.8838 20.1325C27.9578 20.2069 27.8468 20.3186 27.5877 20.3186C27.6617 20.3186 23.11 20.3186 21.5558 20.3186Z" fill="#18365A"/>
<path fill-rule="evenodd" clip-rule="evenodd" d="M30.8956 29.1014L27.408 32.9478L25.5885 30.9477C26.1571 30.563 26.5741 29.9092 26.5741 29.1399C26.5741 27.9475 25.6264 26.9859 24.4512 26.9859C23.7689 26.9859 23.1244 27.3321 22.7454 27.8321L20.9258 25.832C21.8356 25.1012 23.0486 24.6396 24.3754 24.6396C27.1427 24.6396 29.3792 26.5628 29.3792 28.9091C29.3792 28.986 29.3793 29.1014 29.493 29.1014H30.8956Z" fill="#18365A"/>
<path fill-rule="evenodd" clip-rule="evenodd" d="M37.2088 18.9089C37.2088 19.9309 37.0194 20.9529 36.6784 21.937C36.3754 22.8454 35.9208 23.6781 35.3525 24.473C35.201 24.7001 35.0116 24.9271 34.8221 25.1164C34.7843 25.1543 34.7464 25.23 34.6706 25.2678L34.216 25.7599V23.8673C34.216 20.915 33.1174 20.915 31.943 20.6501C30.5413 20.3473 29.7457 20.158 29.1775 19.2496L27.3212 16.108C26.7529 15.1996 25.3733 14.5149 24.161 14.5149H21.6197C21.6197 14.5149 21.3466 14.5149 21.3234 14.2189C21.3234 13.5754 21.2598 11.566 21.2598 11.566C21.2598 11.5281 21.2598 11.4903 21.2598 11.4146C22.9645 9.97626 25.1239 9.14355 27.5106 9.14355C30.1246 9.14355 32.5491 10.1655 34.4054 12.0202C35.0873 12.7015 35.6556 13.4963 36.1102 14.329C36.8679 15.7295 37.2467 17.3192 37.2088 18.9089Z" fill="#18365A"/>
<path d="M14.5414 12.3845H10.0335C9.27582 12.3845 8.63184 11.6974 8.63184 10.889C8.63184 10.0807 9.27582 9.39355 10.0335 9.39355H14.5414C15.299 9.39355 15.943 10.0807 15.943 10.889C15.943 11.7378 15.299 12.3845 14.5414 12.3845Z" fill="#F37A1D"/>
<path d="M14.5085 18.0349H6.4094C5.63436 18.0349 4.97559 17.3478 4.97559 16.5394C4.97559 15.731 5.63436 15.0439 6.4094 15.0439H14.5085C15.2836 15.0439 15.9423 15.731 15.9423 16.5394C15.9423 17.3478 15.2836 18.0349 14.5085 18.0349Z" fill="#F37A1D"/>
<path d="M14.5517 25.3031H2.37756C1.62607 25.3031 0.987305 24.6924 0.987305 23.9738C0.987305 23.2553 1.62607 22.6445 2.37756 22.6445H14.5517C15.3032 22.6445 15.942 23.2553 15.942 23.9738C15.942 24.6924 15.3032 25.3031 14.5517 25.3031Z" fill="#F37A1D"/>
<path d="M54.9277 16.8309C55.5175 14.0925 58.4034 12.8497 61.6895 12.8497C63.48 12.8497 65.0388 13.271 65.7972 13.6923L65.1863 16.4939C64.6386 15.8619 63.2062 15.3353 61.5842 15.3353C59.7094 15.3353 58.3823 16.0515 58.1717 17.0205C57.6451 19.4008 64.5543 19.4429 63.6485 23.7612C63.0377 26.5628 60.0886 27.6793 56.7182 27.6793C54.9699 27.6793 53.5796 27.258 52.7791 26.8788L53.39 24.0772C54.0009 24.7091 55.2858 25.1936 57.0974 25.1936C58.7826 25.1936 60.1939 24.6881 60.4046 23.5927C60.8891 21.0228 54.0009 21.1702 54.9277 16.8309ZM66.6067 27.6582L69.7453 12.9129H73.0104L71.8729 18.3054H76.5492L77.7078 12.9129H80.9728L77.8342 27.6582H74.5692L76.0226 20.77H71.3462L69.8717 27.6582H66.6067ZM81.7963 27.6582L84.935 12.9129H93.4452L92.9186 15.3774H87.6734L87.0625 18.2844H91.6757L91.1491 20.749H86.5359L85.588 25.1726H90.8331L90.3065 27.6582H81.7963ZM93.7358 27.6582L96.8745 12.9129H105.385L104.858 15.3774H99.6129L99.002 18.2844H103.615L103.089 20.749H98.4754L97.5275 25.1726H102.773L102.246 27.6582H93.7358ZM109.164 12.9129H112.429L109.817 25.1726H115.062L114.535 27.6582H106.025L109.164 12.9129ZM118.314 27.6582L121.453 12.9129H124.718L130.005 23.3821L132.238 12.9129H135.503L132.364 27.6582L129.099 27.6371L123.812 17.1469L121.579 27.6582H118.314ZM136.116 27.6582L139.255 12.9129H142.52L139.381 27.6582H136.116Z" fill="#18365A"/>
</svg>
