<svg width="271" height="73" viewBox="0 0 271 73" fill="none" xmlns="http://www.w3.org/2000/svg">
<path fill-rule="evenodd" clip-rule="evenodd" d="M0 29.4491C0 19.2341 8.40501 10.9235 18.7362 10.9235C29.0673 10.9235 37.4723 19.2341 37.4725 29.4491C37.4725 42.1262 20.7054 60.737 19.9915 61.5231C19.3222 62.2602 18.1515 62.2615 17.481 61.5231C16.7671 60.737 0 42.1262 0 29.4491ZM16.3147 32.7336L13.9876 28.3917L15.103 26.3109H15.2465C14.0908 25.6419 12.9689 24.918 11.9009 24.1118C11.8541 24.0816 11.8073 24.0471 11.7587 24.0091H6.54188V18.0611H30.9287V24.0091H25.7144C25.6572 24.0551 25.6005 24.0985 25.5413 24.1396C24.5101 24.9235 23.4272 25.6473 22.3051 26.3109H22.4548L23.5703 28.3917L21.2431 32.7336L25.3034 45.1004L25.2466 45.2045L18.7789 57.4878L12.3292 45.1004L16.3147 32.7336Z" fill="url(#paint0_linear_1022_33685)"/>
<path d="M52.637 23.7649H73.7825L73.8168 30.8477H72.805C72.4734 28.321 71.5245 26.6118 69.9581 25.72C69.0778 25.2284 67.763 24.9597 66.0137 24.9139V43.4012C66.0137 44.6932 66.2367 45.5507 66.6826 45.9737C67.1399 46.3967 68.0831 46.6082 69.5123 46.6082V47.5H56.993V46.6082C58.365 46.6082 59.2739 46.3967 59.7198 45.9737C60.1771 45.5392 60.4058 44.6817 60.4058 43.4012V24.9139C58.6908 24.9597 57.376 25.2284 56.4614 25.72C54.7807 26.6346 53.8318 28.3439 53.6145 30.8477H52.6027L52.637 23.7649ZM90.5507 39.2167L87.1894 31.0878H86.8979L83.7252 39.2167H90.5507ZM77.3798 46.6082C78.2259 46.5511 78.9061 46.168 79.4206 45.4592C79.7522 45.0133 80.2267 44.0301 80.844 42.5095L88.6471 23.2847H89.6246L97.462 41.7377C98.3424 43.8071 98.9998 45.1448 99.4342 45.7507C99.8687 46.3453 100.486 46.6311 101.286 46.6082V47.5H89.9162V46.6082C91.0595 46.5625 91.8084 46.4653 92.1628 46.3167C92.5287 46.168 92.7116 45.7908 92.7116 45.1848C92.7116 44.9104 92.6201 44.4931 92.4372 43.9329C92.3229 43.6013 92.1685 43.2012 91.9741 42.7324L91.0824 40.6058H83.1935C82.679 42.0007 82.3475 42.9096 82.1989 43.3326C81.8902 44.2359 81.7358 44.8933 81.7358 45.3048C81.7358 45.8079 82.0731 46.1738 82.7476 46.4024C83.1478 46.5282 83.748 46.5968 84.5484 46.6082V47.5H77.3798V46.6082ZM113.407 23.7649V24.6567C112.561 24.7367 111.978 24.8568 111.658 25.0168C111.349 25.1769 111.195 25.5428 111.195 26.1144C111.195 26.263 111.212 26.4403 111.246 26.6461C111.281 26.8404 111.332 27.0462 111.401 27.2634L115.465 39.5426H115.757L119.787 29.2528C119.81 29.1956 119.644 28.6754 119.289 27.6922C118.946 26.7089 118.706 26.103 118.569 25.8743C118.306 25.4627 118.015 25.1712 117.694 24.9997C117.386 24.8282 116.82 24.7139 115.997 24.6567V23.7649H126.972V24.6567C125.966 24.7367 125.292 24.8453 124.949 24.9825C124.617 25.1197 124.451 25.4284 124.451 25.9086C124.451 26.023 124.486 26.2459 124.554 26.5775C124.634 26.8976 124.766 27.3435 124.949 27.9151L128.602 39.2167H128.842L132.666 27.675C132.735 27.4692 132.792 27.252 132.838 27.0233C132.883 26.7833 132.906 26.5203 132.906 26.2345C132.906 25.5828 132.66 25.1483 132.169 24.9311C131.871 24.7939 131.306 24.7024 130.471 24.6567V23.7649H136.902V24.6567C136.365 24.7367 135.947 24.8739 135.65 25.0683C135.136 25.4227 134.735 26.0344 134.45 26.9033L127.418 48.0831H126.492L120.593 31.6194H120.353L113.922 48.0831H112.944L105.518 26.9033C105.198 25.9772 104.878 25.3884 104.558 25.1369C104.238 24.8854 103.74 24.7139 103.066 24.6224V23.7649H113.407ZM142.986 39.3025H143.998C144.57 41.9207 145.49 43.8243 146.759 45.0133C148.039 46.2023 149.503 46.7969 151.149 46.7969C152.75 46.7969 153.888 46.391 154.562 45.5792C155.237 44.7561 155.574 43.8929 155.574 42.9896C155.574 41.9378 155.219 41.0803 154.511 40.4172C154.042 39.9827 153.099 39.4168 151.681 38.7194L149.4 37.5875C147.136 36.4671 145.541 35.3581 144.615 34.2605C143.689 33.1629 143.226 31.8081 143.226 30.196C143.226 28.4811 143.838 26.8804 145.061 25.3941C146.296 23.9078 148.182 23.1647 150.721 23.1647C152.012 23.1647 153.259 23.359 154.459 23.7478C155.671 24.1365 156.363 24.3309 156.534 24.3309C156.923 24.3309 157.192 24.2222 157.34 24.005C157.489 23.7763 157.609 23.4791 157.7 23.1132H158.747V30.762H157.769C157.3 28.9898 156.471 27.4635 155.282 26.183C154.105 24.9025 152.67 24.2623 150.978 24.2623C149.789 24.2623 148.846 24.5881 148.148 25.2398C147.462 25.88 147.119 26.6632 147.119 27.5893C147.119 28.6983 147.445 29.5272 148.097 30.076C148.737 30.6362 150.16 31.4594 152.367 32.5455L155.008 33.8489C156.186 34.432 157.123 35.078 157.82 35.7868C159.124 37.113 159.776 38.7251 159.776 40.623C159.776 42.3951 159.072 44.0701 157.666 45.6478C156.271 47.2142 154.03 47.9973 150.943 47.9973C150.235 47.9973 149.514 47.9287 148.783 47.7915C148.062 47.6658 147.348 47.4657 146.639 47.1913L145.953 46.9341C145.793 46.8883 145.639 46.854 145.49 46.8312C145.341 46.7969 145.216 46.7797 145.113 46.7797C144.747 46.7797 144.495 46.8883 144.358 47.1056C144.221 47.3114 144.101 47.6086 143.998 47.9973H142.986V39.3025ZM166.1 46.6082C167.094 46.5854 167.809 46.4653 168.243 46.2481C168.952 45.8822 169.307 45.1791 169.307 44.1387V27.1434C169.307 26.103 168.969 25.4056 168.295 25.0511C167.883 24.8339 167.151 24.7024 166.1 24.6567V23.7649H178.379V24.6567C177.281 24.7024 176.527 24.8282 176.115 25.034C175.429 25.3884 175.086 26.0915 175.086 27.1434V44.1387C175.086 45.1219 175.36 45.7793 175.909 46.1109C176.458 46.4424 177.281 46.6082 178.379 46.6082V47.5H166.1V46.6082ZM184.068 46.6082C185.029 46.5739 185.715 46.4482 186.126 46.2309C186.824 45.8651 187.172 45.1677 187.172 44.1387V27.1434C187.172 26.1144 186.841 25.4227 186.178 25.0683C185.789 24.8511 185.086 24.7139 184.068 24.6567V23.7649H196.347V24.6567C194.918 24.7024 193.964 24.9025 193.483 25.2569C193.015 25.6114 192.78 26.486 192.78 27.8808V44.4645C192.78 45.242 192.98 45.7565 193.381 46.008C193.792 46.2595 194.587 46.3853 195.764 46.3853C197.879 46.3853 199.652 45.9222 201.081 44.9962C202.521 44.0586 203.762 42.2408 204.802 39.5426H205.831L204.408 47.5H184.068V46.6082ZM211.641 47.5V46.6082C212.647 46.5739 213.361 46.4367 213.785 46.1966C214.436 45.8308 214.762 45.1448 214.762 44.1387V27.1434C214.762 26.1144 214.425 25.4227 213.75 25.0683C213.361 24.8511 212.658 24.7139 211.641 24.6567V23.7649H231.877V30.8477H231.02C230.574 28.584 229.814 27.0348 228.739 26.2002C227.676 25.3655 225.732 24.9482 222.908 24.9482C221.833 24.9482 221.147 25.0626 220.85 25.2912C220.564 25.5085 220.421 25.9486 220.421 26.6118V34.7407C222.422 34.7635 223.777 34.4034 224.486 33.6603C225.195 32.9057 225.738 31.5337 226.115 29.5443H227.007V41.4119H226.115C225.864 39.4111 225.349 38.0048 224.572 37.1931C223.806 36.3699 222.422 35.9583 220.421 35.9583V44.4645C220.421 45.2077 220.61 45.7164 220.987 45.9908C221.376 46.2538 222.165 46.3853 223.354 46.3853C225.595 46.3853 227.424 45.9508 228.842 45.0819C230.26 44.213 231.517 42.5838 232.615 40.1943H233.592L232.169 47.5H211.641ZM239.642 23.7649H260.788L260.822 30.8477H259.81C259.478 28.321 258.529 26.6118 256.963 25.72C256.083 25.2284 254.768 24.9597 253.019 24.9139V43.4012C253.019 44.6932 253.242 45.5507 253.688 45.9737C254.145 46.3967 255.088 46.6082 256.517 46.6082V47.5H243.998V46.6082C245.37 46.6082 246.279 46.3967 246.725 45.9737C247.182 45.5392 247.411 44.6817 247.411 43.4012V24.9139C245.696 24.9597 244.381 25.2284 243.466 25.72C241.786 26.6346 240.837 28.3439 240.62 30.8477H239.608L239.642 23.7649Z" fill="url(#paint1_linear_1022_33685)"/>
<defs>
<linearGradient id="paint0_linear_1022_33685" x1="0" y1="36.5" x2="37.4703" y2="36.5" gradientUnits="userSpaceOnUse">
<stop stop-color="#CBAC6B"/>
<stop offset="0.02" stop-color="#CBAC6B"/>
<stop offset="0.2" stop-color="#DDBC57"/>
<stop offset="0.46" stop-color="#DDBC57"/>
<stop offset="0.73" stop-color="#D7B56E"/>
<stop offset="1" stop-color="#D7B05D"/>
</linearGradient>
<linearGradient id="paint1_linear_1022_33685" x1="51.7109" y1="36.5" x2="262.699" y2="36.5" gradientUnits="userSpaceOnUse">
<stop stop-color="#CBAC6B"/>
<stop offset="0.02" stop-color="#CBAC6B"/>
<stop offset="0.2" stop-color="#DDBC57"/>
<stop offset="0.46" stop-color="#DDBC57"/>
<stop offset="0.73" stop-color="#D7B56E"/>
<stop offset="1" stop-color="#D7B05D"/>
</linearGradient>
</defs>
</svg>
