<svg width="21" height="21" viewBox="0 0 21 21" fill="none" xmlns="http://www.w3.org/2000/svg">
<path d="M10.9246 10.9193L8.99378 13.904L7.15136 14.6925C6.06581 13.4488 4.90649 11.9733 4.3584 10.1078L5.46154 8.05607L7.23571 7.23047C7.20412 7.42018 7.18301 7.60989 7.18301 7.81015C7.18301 9.54914 8.60582 10.972 10.3449 10.972C10.5451 10.972 10.7349 10.9509 10.9246 10.9193Z" fill="#FFDA2D"/>
<path d="M13.4548 8.39157C13.4865 8.20291 13.5072 8.01425 13.5072 7.81506C13.5072 6.07743 12.0864 4.65529 10.3492 4.65318H10.3453C10.1451 4.65318 9.95534 4.67426 9.76562 4.70588L12.5692 1.90234C14.266 2.53472 15.6256 3.89433 16.258 5.5912L13.4545 8.39473C13.4545 8.39368 13.4548 8.39263 13.4548 8.39157Z" fill="#80AEF8"/>
<path d="M16.2574 5.5912L15.2983 7.46374L13.4538 8.39473C13.4538 8.39368 13.4542 8.39263 13.4542 8.39157C13.4858 8.20291 13.5065 8.01425 13.5065 7.81506C13.5065 6.07743 12.0858 4.65529 10.3485 4.65318H10.3457V4.12514L10.977 2.72092L12.5685 1.90234C14.2654 2.53472 15.625 3.89433 16.2574 5.5912Z" fill="#4086F4"/>
<path d="M16.2586 5.58984L13.4551 8.39334C13.2126 9.66867 12.2009 10.6804 10.9256 10.9229H10.9255L7.87353 13.9748L7.15234 14.696C7.33155 14.8962 7.48961 15.0755 7.65828 15.2652C8.81767 16.5826 9.81893 17.7911 9.81893 18.9505C9.81893 19.2456 10.0508 19.4775 10.3459 19.4775C10.6411 19.4775 10.8729 19.2456 10.8729 18.9505C10.8729 17.7911 11.8742 16.5826 13.0335 15.2652C14.6566 13.4418 16.6697 11.1653 16.6697 7.8137C16.6697 7.03377 16.5327 6.28546 16.2586 5.58984Z" fill="#59C36A"/>
<path d="M16.2583 5.58984L13.4548 8.39331C13.2124 9.66863 12.2006 10.6804 10.9253 10.9229C10.9252 10.9229 10.9252 10.9229 10.9252 10.9229L10.3467 11.5014V19.4773C10.6413 19.4767 10.8726 19.2452 10.8726 18.9505C10.8726 17.7911 11.8738 16.5826 13.0332 15.2652C14.6563 13.4418 16.6693 11.1653 16.6693 7.8137C16.6693 7.03377 16.5323 6.28546 16.2583 5.58984Z" fill="#00A66C"/>
<path d="M10.3467 11.5005L10.9253 10.9219C10.7359 10.9534 10.5466 10.9743 10.3467 10.9744V11.5005Z" fill="#FDBF00"/>
<path d="M12.5696 1.90323L9.76606 4.70676C9.12315 4.83324 8.55398 5.13885 8.11135 5.58159L6.48122 4.89999L5.87695 3.34716C7.01526 2.19831 8.5962 1.49219 10.3457 1.49219C11.1257 1.49219 11.874 1.6292 12.5696 1.90323Z" fill="#4086F4"/>
<path d="M10.3467 4.12589L12.5694 1.90313C11.8742 1.6292 11.1262 1.49233 10.3467 1.49219V4.12589H10.3467Z" fill="#4175DF"/>
<path d="M8.11085 5.58205C7.66822 6.02471 7.3625 6.59382 7.23606 7.23677L4.35875 10.1141C4.14796 9.40796 4.02148 8.64907 4.02148 7.81645C4.02148 6.06684 4.7276 4.4859 5.87645 3.34766L8.11085 5.58205Z" fill="#F03800"/>
</svg>
