<svg width="34" height="35" viewBox="0 0 34 35" fill="none" xmlns="http://www.w3.org/2000/svg">
<g clip-path="url(#clip0_237_16519)">
<path d="M5.66667 25.7393H28.3333C29.1125 25.7393 29.75 25.1018 29.75 24.3226C29.75 23.5434 29.1125 22.9059 28.3333 22.9059H5.66667C4.8875 22.9059 4.25 23.5434 4.25 24.3226C4.25 25.1018 4.8875 25.7393 5.66667 25.7393ZM5.66667 18.6559H28.3333C29.1125 18.6559 29.75 18.0184 29.75 17.2393C29.75 16.4601 29.1125 15.8226 28.3333 15.8226H5.66667C4.8875 15.8226 4.25 16.4601 4.25 17.2393C4.25 18.0184 4.8875 18.6559 5.66667 18.6559ZM4.25 10.1559C4.25 10.9351 4.8875 11.5726 5.66667 11.5726H28.3333C29.1125 11.5726 29.75 10.9351 29.75 10.1559C29.75 9.37676 29.1125 8.73926 28.3333 8.73926H5.66667C4.8875 8.73926 4.25 9.37676 4.25 10.1559Z" fill="#18365A"/>
</g>
<defs>
<clipPath id="clip0_237_16519">
<rect width="34" height="34" fill="white" transform="translate(0 0.239258)"/>
</clipPath>
</defs>
</svg>
