<svg width="113" height="112" viewBox="0 0 113 112" fill="none" xmlns="http://www.w3.org/2000/svg">
<circle cx="56.5" cy="56" r="56" fill="#d8b56c"/>
<path d="M40.8136 80.1932C36.8505 80.179 33.4272 79.2628 30.5437 77.4446C27.6602 75.6264 25.4371 73.0057 23.8746 69.5824C22.3121 66.1591 21.538 62.054 21.5522 57.267C21.5664 52.4659 22.3477 48.3892 23.896 45.0369C25.4585 41.6847 27.6744 39.1349 30.5437 37.3878C33.4272 35.6406 36.8505 34.767 40.8136 34.767C44.7766 34.767 48.1999 35.6477 51.0835 37.4091C53.967 39.1562 56.19 41.706 57.7525 45.0582C59.315 48.4105 60.0891 52.4801 60.0749 57.267C60.0749 62.0824 59.2937 66.2017 57.7312 69.625C56.1687 73.0483 53.9457 75.669 51.0621 77.4872C48.1928 79.2912 44.7766 80.1932 40.8136 80.1932ZM40.8136 70.5625C42.859 70.5625 44.5352 69.4972 45.842 67.3665C47.163 65.2216 47.8164 61.8551 47.8022 57.267C47.8022 54.2699 47.5039 51.8196 46.9073 49.9162C46.3107 48.0128 45.4869 46.6065 44.4357 45.6974C43.3846 44.7741 42.1772 44.3125 40.8136 44.3125C38.7681 44.3125 37.0991 45.3494 35.8065 47.4233C34.5138 49.4972 33.8533 52.7784 33.8249 57.267C33.8107 60.321 34.1019 62.8352 34.6985 64.8097C35.2951 66.7699 36.119 68.2188 37.1701 69.1562C38.2354 70.0938 39.4499 70.5625 40.8136 70.5625ZM87.0281 35.3636V79H75.1815V46.2727H74.9258L65.3803 51.983V41.9261L76.119 35.3636H87.0281Z" fill="white"/>
</svg>
