<svg width="112" height="112" viewBox="0 0 112 112" fill="none" xmlns="http://www.w3.org/2000/svg">
<circle cx="56" cy="56" r="56" fill="#F37A1D"/>
<path d="M43.3509 74.9545C40.1804 74.9432 37.4418 74.2102 35.1349 72.7557C32.8281 71.3011 31.0497 69.2045 29.7997 66.4659C28.5497 63.7273 27.9304 60.4432 27.9418 56.6136C27.9531 52.7727 28.5781 49.5114 29.8168 46.8295C31.0668 44.1477 32.8395 42.108 35.1349 40.7102C37.4418 39.3125 40.1804 38.6136 43.3509 38.6136C46.5213 38.6136 49.2599 39.3182 51.5668 40.7273C53.8736 42.125 55.652 44.1648 56.902 46.8466C58.152 49.5284 58.7713 52.7841 58.7599 56.6136C58.7599 60.4659 58.1349 63.7614 56.8849 66.5C55.6349 69.2386 53.8565 71.3352 51.5497 72.7898C49.2543 74.233 46.5213 74.9545 43.3509 74.9545ZM43.3509 67.25C44.9872 67.25 46.3281 66.3977 47.3736 64.6932C48.4304 62.9773 48.9531 60.2841 48.9418 56.6136C48.9418 54.2159 48.7031 52.2557 48.2259 50.733C47.7486 49.2102 47.0895 48.0852 46.2486 47.358C45.4077 46.6193 44.4418 46.25 43.3509 46.25C41.7145 46.25 40.3793 47.0795 39.3452 48.7386C38.3111 50.3977 37.7827 53.0227 37.7599 56.6136C37.7486 59.0568 37.9815 61.0682 38.4588 62.6477C38.9361 64.2159 39.5952 65.375 40.4361 66.125C41.2884 66.875 42.2599 67.25 43.3509 67.25ZM80.3224 39.0909V74H70.8452V47.8182H70.6406L63.0043 52.3864V44.3409L71.5952 39.0909H80.3224Z" fill="white"/>
</svg>
