<svg width="150" height="150" viewBox="0 0 150 150" fill="none" xmlns="http://www.w3.org/2000/svg">
<rect width="150" height="150" rx="75" fill="#d8b56c"/>
<path d="M50.7529 125.008L48.1027 133.28L46.6452 132.351L48.9366 126.028L43.9529 130.637L42.4448 129.676L44.5541 123.237L39.7829 127.981L38.3153 127.046L44.7307 121.173L46.3703 122.217L44.4389 128.243L49.1335 123.977L50.7529 125.008Z" fill="white"/>
<path d="M41.4673 117.806L35.6242 123.84L31.6585 120.001L32.5683 119.061L35.3702 121.774L36.8978 120.196L34.3545 117.734L35.231 116.829L37.7742 119.291L39.3936 117.619L36.5917 114.906L37.5015 113.966L41.4673 117.806Z" fill="white"/>
<path d="M36.2375 112.086L29.6183 117.258L28.6209 115.981L34.2473 111.585L31.9791 108.682L32.972 107.907L36.2375 112.086Z" fill="white"/>
<path d="M30.2935 102.309C30.6951 103.038 30.883 103.752 30.8573 104.451C30.8246 105.154 30.6017 105.802 30.1886 106.395C29.7685 106.992 29.1836 107.497 28.4339 107.91C27.6842 108.323 26.9449 108.548 26.2159 108.584C25.4869 108.621 24.8165 108.465 24.2046 108.117C23.5927 107.769 23.086 107.231 22.6844 106.502C22.1941 105.612 22.0151 104.766 22.1477 103.962C22.2763 103.151 22.7049 102.454 23.4334 101.869L24.2848 103.414C23.9427 103.722 23.7421 104.079 23.6832 104.486C23.6173 104.897 23.7137 105.337 23.9724 105.806C24.208 106.234 24.5158 106.543 24.8959 106.736C25.2689 106.932 25.691 107.01 26.162 106.97C26.6222 106.926 27.115 106.76 27.6405 106.47C28.159 106.184 28.563 105.857 28.8525 105.487C29.1382 105.11 29.2977 104.712 29.331 104.292C29.3643 103.872 29.2632 103.448 29.0276 103.02C28.7689 102.551 28.4608 102.232 28.1031 102.064C27.7346 101.892 27.3377 101.86 26.9123 101.966L26.0609 100.421C26.9018 100.141 27.6959 100.164 28.443 100.493C29.1863 100.814 29.8032 101.419 30.2935 102.309Z" fill="white"/>
<path d="M26.7508 92.4687C26.999 93.2377 27.0426 93.9718 26.8816 94.671C26.7181 95.3627 26.3808 95.9717 25.8698 96.4981C25.3512 97.0269 24.6845 97.4228 23.8699 97.6857C23.0553 97.9486 22.2868 98.0159 21.5645 97.8876C20.8345 97.7617 20.2011 97.4659 19.6641 97.0003C19.1247 96.5271 18.7309 95.9061 18.4828 95.1371C18.2346 94.3682 18.1923 93.6379 18.3557 92.9462C18.5167 92.247 18.8566 91.6329 19.3752 91.1041C19.8862 90.5777 20.5491 90.183 21.3637 89.9201C22.1783 89.6572 22.9506 89.5887 23.6805 89.7146C24.4029 89.843 25.0338 90.1437 25.5732 90.6169C26.1101 91.0825 26.5027 91.6998 26.7508 92.4687ZM25.369 92.9147C25.2167 92.4427 24.9748 92.071 24.6435 91.7996C24.3021 91.5231 23.8963 91.3599 23.4262 91.3098C22.9537 91.2522 22.4357 91.3143 21.8723 91.4961C21.3013 91.6804 20.8448 91.9328 20.5027 92.2533C20.1505 92.5688 19.9206 92.9372 19.8128 93.3587C19.7026 93.7725 19.7237 94.2155 19.876 94.6875C20.0259 95.1519 20.2677 95.5236 20.6015 95.8025C20.9354 96.0815 21.3385 96.2498 21.8111 96.3074C22.276 96.3676 22.794 96.3055 23.365 96.1212C23.9284 95.9394 24.3849 95.6869 24.7346 95.3639C25.0843 95.0409 25.3168 94.6674 25.4322 94.2435C25.54 93.822 25.5189 93.3791 25.369 92.9147Z" fill="white"/>
<path d="M24.4867 85.0864L16.1282 85.9201L15.9364 83.9976L20.9164 80.9684L15.4386 79.0064L15.2468 77.0839L23.6053 76.2502L23.7661 77.8622L18.1659 78.4208L22.8354 80.1378L22.9628 81.4155L18.7377 84.0318L24.3259 83.4744L24.4867 85.0864Z" fill="white"/>
<path d="M23.9904 72.416L15.626 71.6436L16.1335 66.147L17.4359 66.2673L17.0774 70.1508L19.2641 70.3527L19.5895 66.8277L20.8442 66.9435L20.5187 70.4685L22.8369 70.6826L23.1954 66.7991L24.4979 66.9193L23.9904 72.416Z" fill="white"/>
<path d="M26.8766 56.3487L20.2083 53.9342L19.3708 56.2473L18.1409 55.802L20.3593 49.6752L21.5891 50.1205L20.7557 52.4223L27.4241 54.8367L26.8766 56.3487Z" fill="white"/>
<path d="M30.9557 46.8717C30.5559 47.5738 30.0437 48.1015 29.4192 48.4547C28.7985 48.801 28.1215 48.9633 27.3882 48.9416C26.6479 48.916 25.9059 48.6914 25.162 48.2678C24.4181 47.8443 23.8497 47.3227 23.4568 46.7031C23.057 46.0796 22.8476 45.4126 22.8286 44.7022C22.8136 43.9848 23.006 43.275 23.4058 42.5728C23.8056 41.8707 24.3158 41.3465 24.9365 41.0002C25.561 40.647 26.2435 40.4832 26.9838 40.5088C27.7171 40.5305 28.4557 40.7532 29.1996 41.1767C29.9434 41.6003 30.5153 42.1238 30.9151 42.7473C31.3081 43.3669 31.512 44.0354 31.527 44.7528C31.546 45.4632 31.3555 46.1695 30.9557 46.8717ZM29.6939 46.1532C29.9394 45.7222 30.0503 45.2929 30.0268 44.8652C30.0004 44.4267 29.8469 44.0171 29.5665 43.6365C29.2901 43.2489 28.8946 42.9087 28.3802 42.6158C27.8588 42.3189 27.3644 42.1525 26.8969 42.1165C26.4265 42.0696 25.9995 42.1486 25.6158 42.3536C25.236 42.5517 24.9235 42.8662 24.678 43.2972C24.4366 43.7213 24.3256 44.1506 24.3451 44.5852C24.3646 45.0198 24.5126 45.4309 24.7891 45.8184C25.0586 46.202 25.454 46.5423 25.9754 46.8392C26.4899 47.1321 26.9843 47.2985 27.4587 47.3385C27.933 47.3784 28.3656 47.2979 28.7562 47.0968C29.1399 46.8918 29.4525 46.5773 29.6939 46.1532Z" fill="white"/>
<path d="M40.2801 33.6063C39.6918 34.1602 39.0473 34.5143 38.3466 34.6687C37.6517 34.8176 36.9569 34.774 36.2622 34.5381C35.562 34.2963 34.9186 33.8638 34.3317 33.2406C33.7449 32.6174 33.3547 31.952 33.1609 31.2444C32.9616 30.5309 32.9572 29.8319 33.1476 29.1471C33.3438 28.4569 33.736 27.8349 34.3243 27.281C34.9126 26.7271 35.5542 26.3757 36.2491 26.2268C36.9498 26.0725 37.6503 26.1162 38.3504 26.358C39.0451 26.5939 39.6859 27.0235 40.2727 27.6467C40.8595 28.2699 41.2525 28.9383 41.4517 29.6517C41.6455 30.3593 41.6443 31.0582 41.4481 31.7484C41.2577 32.4331 40.8684 33.0524 40.2801 33.6063ZM39.2847 32.5492C39.6458 32.2092 39.8779 31.8313 39.981 31.4156C40.0844 30.9886 40.0579 30.552 39.9015 30.1059C39.751 29.6543 39.4728 29.213 39.067 28.7819C38.6557 28.3451 38.2319 28.0409 37.7956 27.8693C37.3597 27.6864 36.9282 27.6366 36.5013 27.72C36.0801 27.7979 35.689 28.0068 35.3279 28.3469C34.9726 28.6814 34.7405 29.0592 34.6316 29.4804C34.5228 29.9016 34.5436 30.338 34.6941 30.7896C34.8392 31.2354 35.1174 31.6767 35.5287 32.1136C35.9345 32.5446 36.3583 32.8488 36.8 33.0262C37.2418 33.2036 37.6789 33.2536 38.1113 33.176C38.5383 33.0927 38.9294 32.8837 39.2847 32.5492Z" fill="white"/>
<path d="M47.4562 27.2841C46.9324 27.6231 46.3915 27.8255 45.8337 27.8912C45.2825 27.9525 44.7446 27.8576 44.2199 27.6064C43.7018 27.3509 43.2342 26.9007 42.8169 26.256L40.013 21.9243L41.3729 21.044L44.1833 25.3858C44.4094 25.735 44.6577 25.9936 44.9284 26.1614C45.2014 26.3182 45.4824 26.3842 45.7712 26.3592C46.0667 26.3299 46.3656 26.2175 46.6678 26.0219C46.9767 25.8219 47.2017 25.5953 47.3427 25.342C47.4904 25.0844 47.5453 24.8011 47.5073 24.4921C47.465 24.1765 47.3308 23.844 47.1047 23.4948L44.2943 19.153L45.6543 18.2727L48.4582 22.6044C48.8755 23.2492 49.0913 23.8623 49.1056 24.4439C49.12 25.0254 48.9762 25.5616 48.6745 26.0524C48.3794 26.5388 47.9733 26.9493 47.4562 27.2841Z" fill="white"/>
<path d="M52.0352 23.7648L48.7312 16.0419L51.6218 14.8052C52.2396 14.5409 52.7964 14.4288 53.2922 14.4691C53.788 14.5093 54.2123 14.6672 54.5651 14.9426C54.922 15.2075 55.1934 15.557 55.379 15.9909C55.5552 16.4028 55.6211 16.8315 55.5767 17.2768C55.5365 17.7117 55.3577 18.1275 55.0402 18.5244C54.7269 18.9108 54.2503 19.2408 53.6104 19.5146L52.2313 20.1046L53.5246 23.1276L52.0352 23.7648ZM56.0401 22.0514L52.9976 19.333L54.6084 18.6439L57.7391 21.3245L56.0401 22.0514ZM51.7688 19.0234L53.0707 18.4664C53.5267 18.2713 53.8141 18.0178 53.933 17.7059C54.0519 17.394 54.0343 17.0579 53.8801 16.6975C53.7259 16.3371 53.4981 16.0995 53.1967 15.9848C52.8922 15.8628 52.5119 15.8993 52.0559 16.0944L50.754 16.6514L51.7688 19.0234Z" fill="white"/>
<path d="M69.1279 18.5154C68.3016 18.6125 67.5694 18.5174 66.9315 18.2299C66.2926 17.9345 65.7765 17.4836 65.383 16.8774C64.9886 16.2633 64.7414 15.5311 64.6415 14.681C64.5416 13.8308 64.6122 13.0613 64.8534 12.3725C65.0946 11.6836 65.4917 11.1214 66.0446 10.6858C66.5976 10.2503 67.2872 9.98396 68.1135 9.88682C69.1226 9.7682 69.9743 9.92181 70.6688 10.3476C71.3712 10.7725 71.8556 11.4325 72.1219 12.3275L70.3699 12.5335C70.2144 12.1007 69.9592 11.7803 69.6045 11.5723C69.2488 11.3563 68.8049 11.2796 68.2725 11.3422C67.7879 11.3992 67.3847 11.5674 67.0632 11.8469C66.7407 12.1184 66.5093 12.4799 66.369 12.9313C66.2358 13.3739 66.2042 13.8931 66.2743 14.489C66.3434 15.077 66.4945 15.5747 66.7277 15.9823C66.9688 16.3889 67.2777 16.6869 67.6544 16.8762C68.0311 17.0655 68.4618 17.1317 68.9464 17.0747C69.4788 17.0122 69.8903 16.847 70.181 16.5792C70.4787 16.3026 70.6585 15.9471 70.7202 15.513L72.4721 15.307C72.415 16.1917 72.0937 16.9182 71.508 17.4865C70.9303 18.0538 70.1369 18.3968 69.1279 18.5154Z" fill="white"/>
<path d="M78.9297 18.2986C78.1239 18.2385 77.4276 18.002 76.8407 17.5892C76.2617 17.177 75.8248 16.635 75.53 15.9632C75.2358 15.2834 75.1205 14.5167 75.1842 13.6631C75.2479 12.8095 75.4753 12.0723 75.8666 11.4517C76.2584 10.8231 76.7712 10.348 77.4049 10.0262C78.0466 9.70508 78.7703 9.57456 79.5761 9.63467C80.3818 9.69479 81.0742 9.93095 81.6531 10.3432C82.24 10.756 82.6806 11.3023 82.9748 11.982C83.2697 12.6538 83.3852 13.4166 83.3216 14.2702C83.2579 15.1238 83.0301 15.8649 82.6382 16.4935C82.247 17.1141 81.7305 17.585 81.0889 17.9062C80.4552 18.2279 79.7354 18.3587 78.9297 18.2986ZM79.0377 16.8506C79.5323 16.8875 79.9678 16.8037 80.344 16.5991C80.7289 16.3872 81.0331 16.0729 81.2567 15.6564C81.4883 15.2405 81.6261 14.7373 81.6701 14.147C81.7148 13.5486 81.6532 13.0306 81.4853 12.5929C81.3259 12.1478 81.0714 11.7959 80.7217 11.5372C80.3799 11.279 79.9618 11.1315 79.4671 11.0946C78.9805 11.0583 78.545 11.1421 78.1608 11.3461C77.7766 11.5501 77.4686 11.8601 77.2371 12.276C77.0061 12.6839 76.8682 13.1871 76.8236 13.7854C76.7796 14.3758 76.8412 14.8938 77.0085 15.3395C77.1758 15.7851 77.434 16.1413 77.7831 16.4081C78.1329 16.6668 78.551 16.8143 79.0377 16.8506Z" fill="white"/>
<path d="M84.9794 19.0742L87.3591 11.0184L89.212 11.5657L90.1397 17.3203L94.0225 12.9868L95.8753 13.5341L93.4956 21.59L91.942 21.131L93.5364 15.7336L90.1853 19.4109L88.9539 19.0471L88.124 14.1473L86.533 19.5332L84.9794 19.0742Z" fill="white"/>
<path d="M96.1638 23.0897L100.033 15.634L102.813 17.0767C103.417 17.39 103.864 17.7527 104.155 18.165C104.445 18.5773 104.595 19.0107 104.602 19.4652C104.617 19.9235 104.508 20.3762 104.276 20.8236C104.062 21.2354 103.767 21.5691 103.391 21.8246C103.022 22.0839 102.582 22.2204 102.07 22.2341C101.569 22.2444 101.006 22.0875 100.381 21.7632L99.0389 21.0667L97.6017 23.8359L96.1638 23.0897ZM99.6414 19.9057L100.888 20.5525C101.363 20.7994 101.756 20.8679 102.065 20.7581C102.382 20.6519 102.632 20.4213 102.816 20.0663C103.008 19.6971 103.054 19.356 102.955 19.0433C102.867 18.727 102.585 18.4455 102.109 18.1986L100.863 17.5518L99.6414 19.9057Z" fill="white"/>
<path d="M102.412 27.1778L109.936 22.3418L111.399 23.4514L108.76 31.9932L107.393 30.9561L109.546 24.3653L103.77 28.2076L102.412 27.1778ZM104.646 26.4771L105.751 25.7343L109.155 28.3161L108.728 29.5738L104.646 26.4771Z" fill="white"/>
<path d="M110.531 34.323L116.788 28.719L117.869 29.9257L116.129 36.6709L120.447 32.8041L121.528 34.0109L115.27 39.615L114.189 38.4082L115.92 31.671L111.612 35.5298L110.531 34.323Z" fill="white"/>
<path d="M117.895 44.5399L120.412 42.9981L123.579 37.7377L124.538 39.3034L122.113 43.0403L122.006 42.8663L126.431 42.3938L127.384 43.9493L121.259 44.3796L118.741 45.9214L117.895 44.5399Z" fill="white"/>
<path d="M123.999 59.1903C123.829 58.6066 123.777 58.0552 123.842 57.5362C123.91 57.0248 124.096 56.5788 124.402 56.1981C124.71 55.825 125.136 55.5552 125.679 55.3886L126.159 57.0361C125.923 57.1131 125.726 57.2373 125.567 57.4084C125.409 57.5796 125.301 57.7818 125.244 58.0151C125.197 58.2538 125.215 58.5152 125.298 58.7994C125.369 59.0452 125.469 59.2452 125.598 59.3995C125.736 59.5592 125.892 59.6677 126.067 59.725C126.242 59.7823 126.43 59.7819 126.629 59.7237C126.844 59.661 127.013 59.5535 127.135 59.4013C127.258 59.249 127.345 59.0611 127.396 58.8378C127.455 58.6122 127.494 58.3593 127.513 58.0789C127.533 57.8063 127.548 57.5145 127.557 57.2034C127.572 56.4825 127.703 55.9027 127.95 55.464C128.205 55.0231 128.617 54.7198 129.185 54.5542C129.669 54.4132 130.117 54.4075 130.53 54.5372C130.945 54.6746 131.305 54.9238 131.61 55.2849C131.916 55.6459 132.145 56.0914 132.3 56.6213C132.459 57.1667 132.502 57.6708 132.428 58.1338C132.365 58.6023 132.191 59.0071 131.907 59.3481C131.625 59.6969 131.249 59.9483 130.777 60.1024L130.29 58.4319C130.465 58.3728 130.614 58.2709 130.739 58.1263C130.873 57.9871 130.962 57.8196 131.005 57.6238C131.055 57.4257 131.047 57.2114 130.98 56.981C130.929 56.7791 130.845 56.6037 130.727 56.4549C130.61 56.3137 130.47 56.2172 130.305 56.1654C130.147 56.1112 129.969 56.1133 129.769 56.1715C129.577 56.2274 129.429 56.3205 129.325 56.4507C129.222 56.5809 129.145 56.7451 129.094 56.9432C129.051 57.139 129.021 57.3644 129.004 57.6195C128.994 57.8722 128.986 58.1454 128.98 58.4388C128.958 58.8785 128.9 59.2953 128.807 59.6892C128.721 60.0808 128.557 60.4201 128.316 60.7071C128.075 60.9941 127.708 61.2092 127.217 61.3525C126.794 61.4756 126.37 61.4784 125.944 61.3608C125.52 61.251 125.136 61.0173 124.79 60.6598C124.444 60.3022 124.18 59.8124 123.999 59.1903Z" fill="white"/>
<path d="M125.221 64.1519L133.49 62.6713L133.775 64.266L125.507 65.7465L125.221 64.1519Z" fill="white"/>
<path d="M125.666 68.6326L134.056 68.2168L134.136 69.8348L128.538 73.981L134.327 73.6941L134.407 75.3121L126.017 75.7279L125.937 74.1098L131.523 69.9643L125.746 70.2506L125.666 68.6326Z" fill="white"/>
<path d="M125.232 83.199C125.349 82.3754 125.629 81.692 126.07 81.149C126.519 80.6071 127.087 80.2236 127.774 79.9985C128.469 79.7746 129.24 79.7231 130.087 79.8443C130.935 79.9654 131.66 80.2307 132.264 80.6403C132.869 81.0499 133.31 81.5778 133.59 82.2238C133.869 82.8698 133.95 83.6046 133.832 84.4283C133.688 85.4341 133.322 86.2181 132.732 86.7803C132.142 87.3505 131.38 87.6497 130.446 87.6779L130.696 85.9316C131.154 85.8921 131.529 85.7275 131.821 85.4379C132.121 85.1494 132.309 84.7399 132.385 84.2093C132.454 83.7262 132.394 83.2934 132.207 82.911C132.027 82.5297 131.736 82.2135 131.336 81.9623C130.942 81.7201 130.448 81.5566 129.855 81.4717C129.268 81.388 128.749 81.4066 128.295 81.5276C127.84 81.6566 127.473 81.8788 127.193 82.1945C126.914 82.5101 126.74 82.9095 126.671 83.3926C126.595 83.9232 126.649 84.3633 126.834 84.7129C127.025 85.0715 127.322 85.3363 127.726 85.5072L127.477 87.2534C126.636 86.9716 126.016 86.4749 125.617 85.7633C125.216 85.0595 125.088 84.2048 125.232 83.199Z" fill="white"/>
<path d="M124.378 89.9621L132.372 92.542L130.676 97.7952L129.432 97.3935L130.63 93.682L128.54 93.0075L127.452 96.3764L126.253 95.9894L127.341 92.6205L125.125 91.9055L123.927 95.617L122.682 95.2153L124.378 89.9621Z" fill="white"/>
<path d="M119.564 103.21L120.566 103.849C120.631 104.506 120.704 105.151 120.785 105.782C120.867 106.412 120.973 106.997 121.104 107.536C121.238 108.086 121.406 108.558 121.609 108.954C121.809 109.356 122.06 109.654 122.363 109.847C122.552 109.968 122.748 110.04 122.95 110.065C123.155 110.101 123.352 110.074 123.541 109.986C123.737 109.902 123.913 109.739 124.067 109.496C124.218 109.26 124.293 109.023 124.292 108.786C124.288 108.555 124.222 108.338 124.096 108.134C123.972 107.941 123.799 107.774 123.576 107.632L124.415 106.316C124.926 106.661 125.288 107.053 125.501 107.492C125.71 107.939 125.783 108.398 125.719 108.87C125.658 109.352 125.483 109.82 125.195 110.272C124.877 110.771 124.514 111.132 124.105 111.356C123.7 111.591 123.28 111.698 122.847 111.678C122.41 111.665 121.985 111.527 121.574 111.265C121.263 111.067 120.998 110.813 120.779 110.502C120.555 110.198 120.366 109.855 120.212 109.472C120.06 109.1 119.936 108.707 119.838 108.294C119.741 107.881 119.663 107.461 119.603 107.034C119.55 106.611 119.504 106.207 119.465 105.822L117.504 108.898L116.391 108.189L119.564 103.21Z" fill="white"/>
<path d="M113.157 112.791C113.651 112.235 114.217 111.876 114.854 111.715C115.485 111.559 116.138 111.589 116.814 111.804C117.495 112.025 118.156 112.42 118.795 112.989C119.435 113.558 119.901 114.165 120.194 114.811C120.492 115.462 120.601 116.111 120.52 116.756C120.438 117.401 120.148 118.004 119.648 118.566C119.148 119.128 118.583 119.487 117.951 119.642C117.32 119.798 116.664 119.766 115.982 119.545C115.307 119.329 114.649 118.937 114.01 118.368C113.37 117.799 112.901 117.189 112.602 116.538C112.31 115.892 112.204 115.247 112.285 114.601C112.367 113.956 112.657 113.353 113.157 112.791ZM114.242 113.756C113.987 114.043 113.847 114.374 113.824 114.75C113.806 115.13 113.906 115.524 114.122 115.931C114.333 116.343 114.66 116.746 115.102 117.14C115.551 117.539 115.989 117.816 116.417 117.973C116.846 118.14 117.246 118.191 117.616 118.124C117.986 118.057 118.299 117.88 118.554 117.593C118.809 117.306 118.949 116.975 118.972 116.599C118.996 116.224 118.902 115.83 118.691 115.417C118.48 115.016 118.151 114.616 117.703 114.217C117.26 113.824 116.825 113.543 116.395 113.376C115.961 113.214 115.556 113.164 115.18 113.226C114.81 113.292 114.497 113.469 114.242 113.756Z" fill="white"/>
<path d="M109.746 117.349L110.487 118.278C110.335 118.921 110.196 119.554 110.069 120.177C109.942 120.801 109.853 121.388 109.802 121.941C109.75 122.504 109.757 123.006 109.821 123.445C109.879 123.89 110.021 124.253 110.245 124.535C110.385 124.71 110.546 124.842 110.73 124.931C110.912 125.031 111.107 125.07 111.315 125.048C111.527 125.032 111.746 124.934 111.971 124.754C112.19 124.58 112.337 124.38 112.414 124.155C112.484 123.935 112.492 123.709 112.439 123.475C112.384 123.253 112.275 123.038 112.11 122.832L113.329 121.859C113.701 122.35 113.917 122.838 113.976 123.323C114.029 123.813 113.949 124.271 113.736 124.697C113.522 125.134 113.206 125.519 112.787 125.854C112.324 126.223 111.863 126.447 111.405 126.527C110.945 126.617 110.513 126.583 110.11 126.424C109.7 126.27 109.343 126.002 109.039 125.62C108.809 125.333 108.641 125.006 108.534 124.641C108.421 124.281 108.353 123.895 108.331 123.483C108.308 123.082 108.317 122.67 108.359 122.248C108.401 121.826 108.462 121.403 108.544 120.979C108.631 120.562 108.718 120.165 108.806 119.788L105.955 122.063L105.131 121.032L109.746 117.349Z" fill="white"/>
<path d="M102.588 123.222L103.172 124.256C102.92 124.867 102.682 125.47 102.457 126.066C102.233 126.661 102.052 127.227 101.914 127.764C101.773 128.312 101.7 128.808 101.693 129.253C101.68 129.701 101.762 130.082 101.939 130.396C102.049 130.591 102.188 130.747 102.355 130.864C102.519 130.992 102.705 131.061 102.913 131.072C103.126 131.09 103.357 131.028 103.608 130.887C103.852 130.749 104.029 130.575 104.141 130.366C104.245 130.16 104.289 129.937 104.274 129.698C104.255 129.47 104.181 129.24 104.051 129.011L105.409 128.244C105.698 128.788 105.834 129.304 105.815 129.792C105.79 130.284 105.638 130.724 105.36 131.11C105.079 131.508 104.705 131.838 104.239 132.102C103.723 132.393 103.233 132.541 102.767 132.546C102.299 132.563 101.878 132.46 101.505 132.239C101.125 132.022 100.815 131.701 100.575 131.276C100.395 130.955 100.28 130.606 100.233 130.229C100.178 129.856 100.173 129.464 100.216 129.053C100.257 128.653 100.332 128.248 100.44 127.838C100.548 127.428 100.677 127.02 100.825 126.615C100.976 126.217 101.126 125.839 101.273 125.48L98.0958 127.274L97.4469 126.124L102.588 123.222Z" fill="white"/>
<rect x="30" y="30" width="90" height="90" rx="45" fill="white"/>
<path d="M74.7656 73.875C75.2604 73.875 75.7161 73.7904 76.1328 73.6211C76.5495 73.4518 76.9401 73.1849 77.3047 72.8203C77.6432 72.4818 77.8971 72.0977 78.0664 71.668C78.2357 71.2383 78.3203 70.776 78.3203 70.2812C78.3203 69.7865 78.2357 69.3307 78.0664 68.9141C77.8971 68.4974 77.6302 68.1068 77.2656 67.7422C76.9271 67.4036 76.543 67.1497 76.1133 66.9805C75.6836 66.8112 75.2214 66.7266 74.7266 66.7266C74.2578 66.7266 73.8086 66.8112 73.3789 66.9805C72.9492 67.1497 72.5651 67.4167 72.2266 67.7812C71.862 68.1198 71.5951 68.5039 71.4258 68.9336C71.2565 69.3633 71.1719 69.8255 71.1719 70.3203C71.1719 70.8151 71.2565 71.2708 71.4258 71.6875C71.5951 72.1042 71.862 72.4818 72.2266 72.8203C72.5651 73.1849 72.9492 73.4518 73.3789 73.6211C73.8086 73.7904 74.2708 73.875 74.7656 73.875ZM74.7656 91.5312C75.8073 90.6198 76.7969 89.7083 77.7344 88.7969C78.6458 87.8854 79.5182 86.9674 80.3516 86.043C81.1849 85.1185 81.9531 84.1875 82.6562 83.25C83.3854 82.3125 84.0495 81.375 84.6484 80.4375C85.8724 78.5625 86.7839 76.8112 87.3828 75.1836C87.9818 73.556 88.2812 72.0651 88.2812 70.7109C88.2812 68.6797 87.9622 66.8242 87.3242 65.1445C86.6862 63.4648 85.7161 61.9609 84.4141 60.6328C83.138 59.3047 81.6927 58.3151 80.0781 57.6641C78.4635 57.013 76.6927 56.6875 74.7656 56.6875C72.8125 56.6875 71.0286 57.013 69.4141 57.6641C67.7995 58.3151 66.3542 59.3047 65.0781 60.6328C63.8021 61.9609 62.8385 63.4648 62.1875 65.1445C61.5365 66.8242 61.2109 68.6797 61.2109 70.7109C61.2109 72.0651 61.5169 73.556 62.1289 75.1836C62.7409 76.8112 63.6458 78.5625 64.8438 80.4375C65.4688 81.375 66.1328 82.3125 66.8359 83.25C67.5651 84.1875 68.3398 85.1185 69.1602 86.043C69.9805 86.9674 70.8594 87.8854 71.7969 88.7969C72.7344 89.7083 73.724 90.6198 74.7656 91.5312ZM74.7656 94.5C73.4635 93.3542 72.2396 92.2214 71.0938 91.1016C69.9479 89.9818 68.8802 88.888 67.8906 87.8203C66.901 86.7526 66.0026 85.6979 65.1953 84.6562C64.362 83.6146 63.6198 82.599 62.9688 81.6094C61.6406 79.6042 60.6445 77.6901 59.9805 75.8672C59.3164 74.0443 58.9844 72.3255 58.9844 70.7109C58.9844 68.3411 59.3685 66.1927 60.1367 64.2656C60.9049 62.3385 62.0573 60.6068 63.5938 59.0703C65.1302 57.5599 66.8229 56.4206 68.6719 55.6523C70.5208 54.8841 72.5521 54.5 74.7656 54.5C76.9531 54.5 78.9779 54.8841 80.8398 55.6523C82.7018 56.4206 84.401 57.5599 85.9375 59.0703C87.4479 60.6068 88.5872 62.3385 89.3555 64.2656C90.1237 66.1927 90.5078 68.3411 90.5078 70.7109C90.5078 72.3255 90.1758 74.0443 89.5117 75.8672C88.8477 77.6901 87.8516 79.6042 86.5234 81.6094C85.8724 82.599 85.1432 83.6146 84.3359 84.6562C83.5026 85.6979 82.5977 86.7526 81.6211 87.8203C80.6445 88.888 79.5833 89.9818 78.4375 91.1016C77.2917 92.2214 76.0677 93.3542 74.7656 94.5Z" fill="#FD5523"/>
</svg>
