<svg width="48" height="48" viewBox="0 0 48 48" fill="none" xmlns="http://www.w3.org/2000/svg">
<circle cx="23.7888" cy="24.3376" r="23.6096" fill="#F37A1D"/>
<path fill-rule="evenodd" clip-rule="evenodd" d="M23.7888 16.4678C21.6508 16.4678 21.3846 16.477 20.5438 16.5163C17.6844 16.6475 16.0973 18.2332 15.9662 21.0926C15.9281 21.9334 15.9189 22.201 15.9189 24.3376C15.9189 26.4756 15.9281 26.7432 15.9662 27.5827C16.0973 30.4407 17.6844 32.0291 20.5438 32.1603C21.3846 32.1983 21.6508 32.2075 23.7888 32.2075C25.9268 32.2075 26.1944 32.1983 27.0351 32.1603C29.8893 32.0291 31.4829 30.4434 31.6115 27.5827C31.6495 26.7432 31.6587 26.4756 31.6587 24.3376C31.6587 22.201 31.6495 21.9334 31.6115 21.0926C31.4829 18.2372 29.8945 16.6462 27.0351 16.5163C26.1944 16.477 25.9268 16.4678 23.7888 16.4678ZM23.7888 17.887C25.89 17.887 26.1393 17.8949 26.9695 17.9329C29.1036 18.03 30.0978 19.0413 30.1962 21.1583C30.2329 21.9885 30.2408 22.2364 30.2408 24.3377C30.2408 26.439 30.2329 26.6882 30.1962 27.5171C30.0978 29.6328 29.1049 30.6467 26.9695 30.7438C26.1393 30.7805 25.8914 30.7897 23.7888 30.7897C21.6875 30.7897 21.4383 30.7818 20.6094 30.7438C18.4714 30.6454 17.4811 29.6302 17.3827 27.5171C17.346 26.6882 17.3368 26.439 17.3368 24.3377C17.3368 22.2364 17.346 21.9872 17.3827 21.1583C17.4798 19.04 18.474 18.0287 20.6094 17.9316C21.4383 17.8936 21.6875 17.887 23.7888 17.887ZM19.7476 24.3378C19.7476 22.1054 21.5577 20.2966 23.7888 20.2966C26.0199 20.2966 27.83 22.1067 27.83 24.3378C27.83 26.5702 26.0199 28.379 23.7888 28.379C21.5577 28.379 19.7476 26.5702 19.7476 24.3378ZM23.7889 26.9609C22.3395 26.9609 21.1656 25.787 21.1656 24.3377C21.1656 22.8896 22.3395 21.7144 23.7889 21.7144C25.2369 21.7144 26.4135 22.8883 26.4135 24.3377C26.4135 25.787 25.2369 26.9609 23.7889 26.9609ZM27.0443 20.1379C27.0443 19.6159 27.468 19.1935 27.9887 19.1935C28.5121 19.1935 28.9344 19.6159 28.9344 20.1379C28.9344 20.66 28.5107 21.0823 27.9887 21.0823C27.4667 21.0823 27.0443 20.6587 27.0443 20.1379Z" fill="white"/>
</svg>
