<svg width="120" height="120" viewBox="0 0 120 120" fill="none" xmlns="http://www.w3.org/2000/svg">
<rect width="119.302" height="119.072" rx="26.4269" fill="#d8b56c"/>
<path fill-rule="evenodd" clip-rule="evenodd" d="M56.8754 58.4624C56.3606 58.4624 56.2871 58.0186 56.2871 58.0186V49.5123C56.2871 49.5123 56.2871 49.2164 56.8754 49.2164C57.7579 49.2164 60.3318 49.2164 60.3318 49.2164C62.391 49.2164 64.8914 50.4739 65.8474 52.0272L69.0096 57.5008C69.1567 57.7227 69.3038 57.9446 69.4509 58.0925C69.598 58.2405 69.3773 58.4624 68.8626 58.4624C69.0096 58.4624 59.9641 58.4624 56.8754 58.4624Z" fill="#1274F1"/>
<path fill-rule="evenodd" clip-rule="evenodd" d="M90.8852 35.2356C90.281 34.4835 89.6767 33.8066 88.9969 33.1297C85.6735 29.7452 81.5947 27.3384 77.2138 25.9846C74.5702 25.1573 71.7755 24.7812 68.9808 24.7812H68.9053C59.3126 24.7812 50.853 29.7036 45.7168 36.9991H51.9908C54.7855 36.9991 56.1325 38.3458 56.2836 40.3012C56.2836 40.3765 56.2836 40.481 56.2836 40.6315C56.2836 40.6315 56.3669 44.4866 56.3669 45.8404C56.3669 46.4421 57.0467 46.3668 57.0467 46.3668H62.1073C64.5244 46.3668 67.3946 47.7959 68.4521 49.6009L72.1532 55.8434C73.2862 57.6485 74.8723 58.0246 77.667 58.6263C80.0086 59.1527 82.199 59.1527 82.199 65.0192V68.7798L75.7787 75.624H72.833C72.6064 75.624 72.6064 75.3984 72.6064 75.2479C72.6064 70.6601 68.15 66.8995 62.6361 66.8995C59.9924 66.8995 57.5754 67.802 55.7626 69.231C55.0828 69.7575 54.4786 70.4344 54.0254 71.1113C53.1945 72.3147 52.6658 73.8189 52.6658 75.3231C52.6658 75.4736 52.6987 75.9642 52.321 75.9642C52.321 75.9642 52.1138 75.9642 51.6606 75.9642L65.5063 90.591L68.8298 94.1259L72.1532 90.5158L89.6767 71.713C89.7522 71.6378 89.7523 71.6378 89.8278 71.5626C90.8097 70.5096 91.6406 69.3815 92.4714 68.2533C93.831 66.2978 94.8129 64.1919 95.6438 62.0108C95.7949 61.6347 95.8704 61.3339 96.0215 60.9578C96.7768 58.4758 97.1544 55.8434 97.23 53.2111C97.23 46.5925 95.0395 40.2747 90.8852 35.2356ZM58.5573 75.8496C58.5573 75.7744 58.5573 75.6992 58.5573 75.5488C58.5573 74.571 58.8594 73.6685 59.4637 72.9916C60.219 71.9386 61.5031 71.3369 62.8627 71.3369C65.2042 71.3369 67.0925 73.2172 67.0925 75.5488C67.0925 77.053 66.3372 78.3316 65.1286 79.0837C64.4489 79.535 63.6935 79.7606 62.7872 79.7606C62.5606 79.7606 62.4095 79.7606 62.1829 79.6854C60.219 79.535 58.7084 77.8803 58.5573 75.8496Z" fill="#18365A"/>
<path d="M68.8895 20L68.9649 24.8936V25.8723L68.8895 29.7871C71.2278 29.7871 73.7169 30.0882 75.8289 30.7658L77.3375 26.3239L78.6953 21.4305C75.6781 20.4518 72.2083 20 68.8895 20ZM68.8895 20V29.7871H69.0403L68.8895 20ZM40 36.9391H52.0687C56.2927 32.4973 62.3271 29.7871 68.8895 29.7871V20C56.519 20 45.6572 26.851 40 36.9391ZM72.2838 90.7677L68.9649 87.1541L62.4545 79.7685C60.4933 79.4674 58.7819 78.1199 58.7065 76.0872L54.1807 71.1937C53.351 72.3983 52.823 73.904 52.823 75.4097C52.823 75.5602 52.823 75.7861 52.4458 75.7861C52.4458 75.7861 52.2196 75.7861 51.767 75.7861H45.1292L65.3603 97.6357L72.5855 90.9936L72.2838 90.7677ZM89.7834 71.9465L86.2382 68.634L82.0896 73.0758L79.9021 75.4097L68.9649 87.2293L65.646 90.843L65.4197 91.1442L68.9649 94.4567L72.5855 97.7692L93.404 75.3344L89.7834 71.9465ZM90.2737 71.3442L86.4162 68.4378L86.2382 68.634L89.7079 71.8713L93.404 75.3344C93.4794 75.2591 94.2337 74.205 94.3091 74.1297L90.2737 71.3442ZM92.4988 68.4834L88.4256 65.7732C87.8222 66.7519 87.0679 67.7306 86.2382 68.634L94.3091 74.1297C95.4406 72.9252 95.6669 72.6241 96.572 71.1937L92.4988 68.4834ZM95.5914 62.2348L90.9902 60.6538C90.3868 62.4607 89.4817 64.1169 88.4256 65.7732L92.4988 68.4834L96.572 71.1937C98.156 68.8599 99.3629 66.4508 100.268 63.8158L95.5914 62.2348ZM95.9686 61.1808L91.292 59.7504C91.2165 60.0515 91.1411 60.3527 90.9902 60.6538L95.5914 62.2348L100.268 63.8158C100.419 63.3641 100.485 63.1305 100.645 62.6112L95.9686 61.1808ZM97.1755 53.4265L92.2725 53.3512C92.2725 55.5345 91.8954 57.7177 91.292 59.7504L95.9686 61.1808L100.645 62.6112C101.55 59.6751 102.003 56.5885 102.078 53.5018L97.1755 53.4265ZM94.6863 32.3468L90.9148 35.4334L87.1433 38.5201C90.5377 42.7361 92.348 47.9307 92.2725 53.4265L97.1755 53.5018L102.078 53.5771C102.154 45.7475 99.5892 38.2943 94.6863 32.3468ZM92.4988 29.9377L89.0291 33.2502L85.5593 36.7133C86.0873 37.2403 86.6153 37.9178 87.1433 38.5201L90.9837 35.377L94.6863 32.3468C94.0074 31.6692 93.2531 30.7658 92.4988 29.9377ZM78.6953 21.4305L77.2621 26.0981L75.8289 30.7658C79.4496 31.8951 82.7684 33.9278 85.5593 36.7133L89.0291 33.3255L92.4988 29.9377C88.5765 25.9476 83.8999 23.0115 78.6953 21.4305ZM68.9649 94.3061L65.3443 97.6187L68.7386 101.232L72.4346 97.9198L68.9649 94.3061ZM68.9649 94.3061L72.4346 97.9198L72.5101 97.8445L72.5855 97.7692L68.9649 94.3061Z" fill="#18365A"/>
<path fill-rule="evenodd" clip-rule="evenodd" d="M56.8754 58.4624C56.3606 58.4624 56.2871 58.0186 56.2871 58.0186V49.5123C56.2871 49.5123 56.2871 49.2164 56.8754 49.2164C57.7579 49.2164 60.3318 49.2164 60.3318 49.2164C62.391 49.2164 64.8914 50.4739 65.8474 52.0272L69.0096 57.5008C69.1567 57.7227 69.3038 57.9446 69.4509 58.0925C69.598 58.2405 69.3774 58.4624 68.8626 58.4624C69.0096 58.4624 59.9641 58.4624 56.8754 58.4624Z" fill="#18365A"/>
<path fill-rule="evenodd" clip-rule="evenodd" d="M75.4397 75.9161L68.509 83.56L64.893 79.5852C66.023 78.8208 66.8517 77.5213 66.8517 75.9926C66.8517 73.623 64.9683 71.712 62.633 71.712C61.277 71.712 59.9963 72.4 59.243 73.3937L55.627 69.4189C57.435 67.9666 59.8456 67.0493 62.4823 67.0493C67.9817 67.0493 72.4264 70.8712 72.4264 75.534C72.4264 75.6868 72.4264 75.9161 72.6524 75.9161H75.4397Z" fill="#18365A"/>
<path fill-rule="evenodd" clip-rule="evenodd" d="M87.9824 55.6611C87.9824 57.692 87.6059 59.7229 86.9284 61.6786C86.3261 63.4839 85.4227 65.1387 84.2934 66.7183C83.9922 67.1696 83.6158 67.621 83.2394 67.997C83.1641 68.0723 83.0888 68.2227 82.9382 68.2979L82.0348 69.2758V65.5148C82.0348 59.6477 79.8515 59.6477 77.5177 59.1212C74.7321 58.5194 73.1511 58.1433 72.0218 56.3381L68.3328 50.0949C67.2035 48.2896 64.4619 46.9288 62.0527 46.9288H57.0023C57.0023 46.9288 56.4596 46.9288 56.4136 46.3406C56.4136 45.0619 56.2871 41.0685 56.2871 41.0685C56.2871 40.9933 56.2871 40.9181 56.2871 40.7677C59.675 37.9093 63.9662 36.2545 68.7092 36.2545C73.904 36.2545 78.7222 38.2854 82.4112 41.9712C83.7664 43.3251 84.8957 44.9047 85.7991 46.5595C87.3048 49.3427 88.0577 52.5019 87.9824 55.6611Z" fill="#18365A"/>
<path d="M43.0115 42.696H34.053C32.5474 42.696 31.2676 41.3305 31.2676 39.7241C31.2676 38.1177 32.5474 36.7522 34.053 36.7522H43.0115C44.5172 36.7522 45.7969 38.1177 45.7969 39.7241C45.7969 41.4109 44.5172 42.696 43.0115 42.696Z" fill="#18365A"/>
<path d="M42.9447 53.9234H26.8494C25.3092 53.9234 24 52.558 24 50.9515C24 49.3451 25.3092 47.9796 26.8494 47.9796H42.9447C44.4849 47.9796 45.794 49.3451 45.794 50.9515C45.794 52.558 44.4849 53.9234 42.9447 53.9234Z" fill="#18365A"/>
<path d="M42.9563 68.368H18.7628C17.2694 68.368 16 67.1543 16 65.7263C16 64.2984 17.2694 63.0846 18.7628 63.0846H42.9563C44.4497 63.0846 45.7191 64.2984 45.7191 65.7263C45.7191 67.1543 44.4497 68.368 42.9563 68.368Z" fill="#18365A"/>
</svg>
