<svg width="17" height="17" viewBox="0 0 17 17" fill="none" xmlns="http://www.w3.org/2000/svg">
<path fill-rule="evenodd" clip-rule="evenodd" d="M16.3054 12.1493L14.1043 9.95275C13.3181 9.16827 11.9817 9.48209 11.6673 10.5019C11.4314 11.2079 10.6453 11.6002 9.93779 11.4432C8.36554 11.051 6.243 9.01138 5.84994 7.36399C5.6141 6.65793 6.08577 5.87345 6.79329 5.63814C7.81525 5.32435 8.1297 3.99075 7.34358 3.20628L5.14243 1.00975C4.51352 0.460617 3.57017 0.460617 3.01989 1.00975L1.52625 2.50025C0.0326121 4.0692 1.68347 8.22691 5.37826 11.9139C9.07305 15.601 13.2395 17.3268 14.8118 15.7579L16.3054 14.2674C16.8557 13.6398 16.8557 12.6984 16.3054 12.1493Z" fill="white"/>
</svg>
