<svg width="20" height="20" viewBox="0 0 20 20" fill="none" xmlns="http://www.w3.org/2000/svg">
<path d="M5.51726 8.99098C6.71749 11.3498 8.6512 13.2835 11.01 14.4837L12.8437 12.65C13.0771 12.4167 13.4021 12.35 13.6939 12.4417C14.6274 12.75 15.6276 12.9167 16.6694 12.9167C16.8905 12.9167 17.1025 13.0046 17.2588 13.1609C17.4151 13.3172 17.5029 13.5292 17.5029 13.7502V16.6675C17.5029 16.8885 17.4151 17.1005 17.2588 17.2569C17.1025 17.4132 16.8905 17.501 16.6694 17.501C12.9115 17.501 9.30742 16.0081 6.65013 13.3508C3.99285 10.6936 2.5 7.08951 2.5 3.33154C2.5 3.11049 2.58781 2.89848 2.74413 2.74217C2.90044 2.58586 3.11244 2.49805 3.3335 2.49805H6.25073C6.47179 2.49805 6.68379 2.58586 6.8401 2.74217C6.99641 2.89848 7.08423 3.11049 7.08423 3.33154C7.08423 4.37341 7.25093 5.37361 7.55932 6.30712C7.65101 6.59885 7.58433 6.92391 7.35095 7.15729L5.51726 8.99098Z" fill="#B4A2FF"/>
</svg>
