<svg width="151" height="42" viewBox="0 0 151 42" fill="none" xmlns="http://www.w3.org/2000/svg">
<path d="M25.1778 23.9361C24.1816 18.9258 28.5833 16.2494 28.9046 16.062C28.2296 15.1705 27.4456 14.4966 26.654 14.0083C24.0229 12.3843 20.8181 12.2328 18.9117 13.0638C18.8926 13.0713 18.8734 13.0808 18.8543 13.0884C16.9938 13.8928 14.879 13.8928 13.0184 13.0884C12.9993 13.0808 12.9802 13.0713 12.9611 13.0638C11.0547 12.2328 7.84989 12.3843 5.21877 14.0083C2.58765 15.6323 0.0330212 19.2949 1.32946 26.3172C2.6259 33.3395 7.35656 37.6059 7.35656 37.6059C7.35656 37.6059 9.60716 39.5309 12.5825 38.2476C14.4411 37.445 15.2882 37.3068 15.661 37.3163C15.8465 37.3201 16.032 37.3201 16.2155 37.3163C16.5884 37.3068 17.4355 37.4469 19.2941 38.2476C22.2694 39.5309 24.52 37.6059 24.52 37.6059C24.52 37.6059 27.8338 34.6153 29.6752 29.5217C28.0938 28.7987 25.8318 27.2144 25.1797 23.9361H25.1778Z" fill="#18365A"/>
<path d="M15.1013 12.7986C15.1013 12.7986 14.2676 5.80089 22.2336 4.54785L22.2011 5.48668C22.0691 9.36126 19.0078 12.5147 15.1013 12.7986Z" fill="#18365A"/>
<path d="M46.908 6.71167C46.908 7.57479 46.7991 8.3338 46.5792 8.99439C46.3593 9.65309 46.0361 10.2039 45.6097 10.6487C45.1814 11.0935 44.6536 11.4285 44.0264 11.6576C43.3992 11.8847 42.6478 11.9983 41.7777 11.9983H39.7337C39.6381 11.9983 39.5386 11.9623 39.4373 11.8904C39.3359 11.8185 39.2843 11.6879 39.2843 11.4967V2.22571C39.2843 2.03454 39.3359 1.90394 39.4373 1.83201C39.5386 1.76008 39.6381 1.72412 39.7337 1.72412H41.9154C42.7969 1.72412 43.5427 1.84337 44.1488 2.08186C44.755 2.32036 45.2636 2.65727 45.6728 3.09451C46.082 3.53175 46.3899 4.05417 46.5983 4.66554C46.8067 5.27692 46.9119 5.95833 46.9119 6.70977L46.908 6.71167ZM45.8583 6.75899C45.8583 6.16086 45.7818 5.60627 45.6307 5.0971C45.4778 4.58604 45.2426 4.14691 44.9251 3.77592C44.6077 3.40493 44.2043 3.11533 43.7186 2.90713C43.2329 2.69892 42.6114 2.59292 41.8581 2.59292H40.2633V11.1314H41.8676C42.5732 11.1314 43.1698 11.0462 43.6593 10.8739C44.1488 10.7017 44.5561 10.4367 44.8812 10.0771C45.2081 9.71744 45.451 9.26317 45.6154 8.71615C45.7799 8.16913 45.8602 7.51611 45.8602 6.75899H45.8583Z" fill="#18365A"/>
<path d="M55.4951 8.17161C55.4951 8.74324 55.4205 9.26944 55.2713 9.75021C55.1222 10.231 54.8985 10.6493 54.6021 11.0051C54.3057 11.3591 53.9347 11.6354 53.4911 11.8342C53.0475 12.0329 52.5312 12.1314 51.9442 12.1314C51.3572 12.1314 50.881 12.0424 50.4565 11.8664C50.032 11.6884 49.6764 11.4348 49.3896 11.1036C49.1027 10.7723 48.8905 10.3729 48.749 9.90163C48.6075 9.43033 48.5367 8.89845 48.5367 8.306C48.5367 7.71355 48.6094 7.20817 48.7566 6.7274C48.9039 6.24662 49.1257 5.82831 49.4221 5.47814C49.7185 5.12608 50.0894 4.85163 50.533 4.65667C50.9766 4.46171 51.4948 4.36328 52.0876 4.36328C52.6804 4.36328 53.1508 4.45035 53.5753 4.62449C53.9998 4.79863 54.3535 5.05226 54.6384 5.38161C54.9214 5.71285 55.1356 6.11223 55.279 6.58354C55.4224 7.05485 55.4951 7.58295 55.4951 8.17161ZM54.4854 8.25868C54.4854 7.85172 54.4453 7.46181 54.365 7.09271C54.2847 6.72172 54.1508 6.39616 53.9634 6.11223C53.776 5.82831 53.5255 5.60496 53.21 5.4384C52.8945 5.27183 52.5025 5.18854 52.0322 5.18854C51.6 5.18854 51.2252 5.26615 50.9097 5.41947C50.5942 5.57278 50.3361 5.78667 50.1353 6.05924C49.9345 6.3318 49.7873 6.65358 49.6898 7.02267C49.5922 7.39177 49.5464 7.79305 49.5464 8.22082C49.5464 8.6486 49.5865 9.02716 49.6668 9.40004C49.7471 9.77292 49.881 10.1004 50.0684 10.3805C50.2558 10.6606 50.5063 10.884 50.8218 11.0468C51.1373 11.2115 51.5293 11.2928 51.9996 11.2928C52.4318 11.2928 52.8066 11.2152 53.1221 11.0619C53.4376 10.9086 53.6957 10.6966 53.8965 10.4278C54.0973 10.1591 54.2445 9.83728 54.342 9.46818C54.4376 9.09719 54.4854 8.69592 54.4854 8.26246V8.25868Z" fill="#18365A"/>
<path d="M67.1845 4.63911C67.1845 4.66561 67.1807 4.69589 67.173 4.72996C67.1654 4.76403 67.1558 4.80189 67.1444 4.84542L64.8995 11.8375C64.888 11.8791 64.8689 11.9151 64.8402 11.9416C64.8115 11.9681 64.7714 11.9889 64.7236 12.0059C64.6758 12.0229 64.6127 12.0324 64.5343 12.0381C64.4559 12.0438 64.3641 12.0457 64.257 12.0457C64.1442 12.0457 64.0486 12.0419 63.9683 12.0343C63.888 12.0267 63.823 12.0154 63.7713 11.9983C63.7197 11.9832 63.6795 11.9605 63.6509 11.934C63.6222 11.9075 63.6011 11.8753 63.5916 11.8393L61.907 6.17228L61.8917 6.10793L61.8764 6.17228L60.3046 11.8393C60.2931 11.881 60.2721 11.917 60.2396 11.9434C60.2071 11.9699 60.1631 11.9908 60.1076 12.0078C60.0522 12.0229 59.9834 12.0343 59.903 12.04C59.8227 12.0457 59.7329 12.0476 59.6296 12.0476C59.5225 12.0476 59.4327 12.0438 59.3562 12.0362C59.2816 12.0286 59.2185 12.0173 59.1669 12.0002C59.1152 11.9851 59.077 11.9624 59.0502 11.9359C59.0235 11.9094 59.0043 11.8772 58.9948 11.8412L56.7652 4.84921C56.7499 4.81135 56.7365 4.77539 56.7289 4.73753C56.7212 4.69968 56.7174 4.66939 56.7174 4.64289C56.7174 4.60504 56.7251 4.57475 56.7423 4.54825C56.7576 4.52175 56.7843 4.50283 56.8226 4.48958C56.8608 4.47633 56.9086 4.46686 56.966 4.46118C57.0253 4.45551 57.096 4.45361 57.1821 4.45361C57.2949 4.45361 57.3847 4.4574 57.4555 4.46497C57.5243 4.47254 57.5779 4.4839 57.6123 4.50093C57.6467 4.51608 57.6716 4.53879 57.6888 4.56529C57.7041 4.59179 57.7175 4.62397 57.7289 4.65993L59.6449 10.9308L59.6602 10.9857L59.6755 10.9308L61.4156 4.65993C61.427 4.62207 61.4404 4.59179 61.4595 4.56529C61.4787 4.53879 61.5054 4.51797 61.5398 4.50093C61.5743 4.48579 61.6221 4.47254 61.6833 4.46497C61.7445 4.4574 61.8228 4.45361 61.9204 4.45361C62.0121 4.45361 62.0867 4.4574 62.1441 4.46497C62.2034 4.47254 62.2512 4.4839 62.2875 4.50093C62.3257 4.51608 62.3525 4.53879 62.3678 4.56529C62.3831 4.59179 62.3965 4.62397 62.408 4.65993L64.2838 10.9308L64.2991 10.9857L64.3067 10.9308L66.2151 4.65993C66.2265 4.62207 66.2399 4.59179 66.259 4.56529C66.2782 4.53879 66.3049 4.51797 66.3432 4.50093C66.3814 4.48579 66.433 4.47254 66.5 4.46497C66.5669 4.4574 66.6529 4.45361 66.76 4.45361C66.8461 4.45361 66.9149 4.45551 66.9684 4.46118C67.022 4.46686 67.0641 4.47633 67.0966 4.49336C67.1291 4.5085 67.1501 4.52933 67.1616 4.55204C67.173 4.57475 67.1769 4.60693 67.1769 4.64289L67.1845 4.63911Z" fill="#18365A"/>
<path d="M74.915 11.838C74.915 11.8702 74.9073 11.8985 74.8901 11.925C74.8748 11.9515 74.8481 11.9724 74.8136 11.9894C74.7792 12.0045 74.7314 12.0178 74.6702 12.0291C74.609 12.0405 74.5325 12.0443 74.4427 12.0443C74.3471 12.0443 74.2668 12.0386 74.2056 12.0291C74.1444 12.0197 74.0966 12.0045 74.0622 11.9894C74.0277 11.9743 74.0029 11.9515 73.9857 11.925C73.9704 11.8985 73.9608 11.8702 73.9608 11.838V7.57537C73.9608 7.13056 73.9264 6.76904 73.8556 6.49269C73.7868 6.21445 73.6816 5.97595 73.5421 5.7791C73.4025 5.58225 73.2246 5.42704 73.0086 5.31915C72.7925 5.21126 72.5401 5.15637 72.2514 5.15637C71.8823 5.15637 71.5133 5.28508 71.1442 5.54439C70.7752 5.80371 70.387 6.18416 69.9816 6.68765V11.838C69.9816 11.8702 69.974 11.8985 69.9568 11.925C69.9415 11.9515 69.9147 11.9724 69.8803 11.9894C69.8459 12.0045 69.7981 12.0178 69.7369 12.0291C69.6757 12.0405 69.5973 12.0443 69.4998 12.0443C69.408 12.0443 69.3334 12.0386 69.2722 12.0291C69.211 12.0197 69.1613 12.0045 69.1231 11.9894C69.0848 11.9743 69.06 11.9515 69.0466 11.925C69.0332 11.8985 69.0275 11.8702 69.0275 11.838V4.65667C69.0275 4.62449 69.0332 4.5961 69.0466 4.5696C69.06 4.5431 69.0848 4.52038 69.1231 4.50146C69.1613 4.48253 69.2072 4.46928 69.2627 4.46171C69.3181 4.45414 69.3927 4.45035 69.4826 4.45035C69.5724 4.45035 69.6489 4.45414 69.7063 4.46171C69.7656 4.46928 69.8114 4.48253 69.842 4.50146C69.8726 4.52038 69.8975 4.5431 69.9109 4.5696C69.9243 4.5961 69.93 4.62449 69.93 4.65667V5.6731C70.3468 5.21315 70.7561 4.88002 71.1576 4.6737C71.5592 4.46739 71.9569 4.36328 72.3527 4.36328C72.8288 4.36328 73.2285 4.44278 73.5554 4.60177C73.8824 4.76077 74.1444 4.97466 74.3452 5.24533C74.5459 5.516 74.6893 5.83021 74.7773 6.18984C74.8653 6.54947 74.9092 6.98293 74.9092 7.49209V11.8418L74.915 11.838Z" fill="#18365A"/>
<path d="M78.5141 11.8381C78.5141 11.8702 78.5064 11.8986 78.4892 11.9251C78.472 11.9516 78.4471 11.9724 78.4127 11.9895C78.3783 12.0046 78.3305 12.0179 78.2693 12.0292C78.2081 12.0406 78.1297 12.0444 78.0322 12.0444C77.9404 12.0444 77.8658 12.0387 77.8027 12.0292C77.7396 12.0198 77.6918 12.0046 77.6536 11.9895C77.6153 11.9743 77.5905 11.9516 77.5771 11.9251C77.5637 11.8986 77.558 11.8702 77.558 11.8381V1.13991C77.558 1.10773 77.5637 1.07934 77.5771 1.05284C77.5905 1.02634 77.6153 1.00363 77.6536 0.9847C77.6918 0.965771 77.7396 0.952522 77.8027 0.944951C77.8639 0.937379 77.9404 0.933594 78.0322 0.933594C78.1278 0.933594 78.2081 0.937379 78.2693 0.944951C78.3305 0.952522 78.3783 0.965771 78.4127 0.9847C78.4471 1.00363 78.472 1.02634 78.4892 1.05284C78.5045 1.07934 78.5141 1.10773 78.5141 1.13991V11.8381Z" fill="#18365A"/>
<path d="M87.6059 8.17161C87.6059 8.74324 87.5313 9.26944 87.3822 9.75021C87.233 10.231 87.0093 10.6493 86.7129 11.0051C86.4165 11.3591 86.0456 11.6354 85.602 11.8342C85.1583 12.0329 84.6421 12.1314 84.055 12.1314C83.468 12.1314 82.9919 12.0424 82.5674 11.8664C82.1429 11.6884 81.7872 11.4348 81.5004 11.1036C81.2136 10.7723 81.0013 10.3729 80.8598 9.90163C80.7183 9.43033 80.6476 8.89845 80.6476 8.306C80.6476 7.71355 80.7202 7.20817 80.8675 6.7274C81.0147 6.24662 81.2365 5.82831 81.5329 5.47814C81.8293 5.12798 82.2002 4.85163 82.6439 4.65667C83.0875 4.46171 83.6057 4.36328 84.1984 4.36328C84.7912 4.36328 85.2616 4.45035 85.6861 4.62449C86.1106 4.79863 86.4643 5.05226 86.7493 5.38161C87.0323 5.71285 87.2464 6.11223 87.3898 6.58354C87.5332 7.05485 87.6059 7.58295 87.6059 8.17161ZM86.5963 8.25868C86.5963 7.85172 86.5561 7.46181 86.4758 7.09271C86.3955 6.72361 86.2617 6.39616 86.0743 6.11223C85.8869 5.82831 85.6364 5.60496 85.3209 5.4384C85.0054 5.27183 84.6134 5.18854 84.143 5.18854C83.7108 5.18854 83.3361 5.26615 83.0206 5.41947C82.7051 5.57278 82.4469 5.78667 82.2461 6.05924C82.0454 6.3318 81.8981 6.65358 81.8006 7.02267C81.7031 7.39177 81.6572 7.79305 81.6572 8.22082C81.6572 8.6486 81.6974 9.02716 81.7777 9.40004C81.858 9.77292 81.9918 10.1004 82.1792 10.3805C82.3666 10.6606 82.6171 10.884 82.9326 11.0468C83.2481 11.2115 83.6401 11.2928 84.1105 11.2928C84.5426 11.2928 84.9174 11.2152 85.2329 11.0619C85.5484 10.9086 85.8066 10.6966 86.0073 10.4278C86.2081 10.1572 86.3553 9.83728 86.4529 9.46818C86.5485 9.09719 86.5963 8.69592 86.5963 8.26246V8.25868Z" fill="#18365A"/>
<path d="M94.8301 11.8379C94.8301 11.8909 94.8129 11.9325 94.7785 11.9609C94.7441 11.9893 94.6982 12.012 94.6427 12.0252C94.5873 12.0385 94.5108 12.0442 94.4152 12.0442C94.3234 12.0442 94.2469 12.0385 94.1819 12.0252C94.1169 12.012 94.0691 11.9912 94.0327 11.9609C93.9983 11.9325 93.9811 11.8909 93.9811 11.8379V11.0353C93.6541 11.3836 93.2946 11.6543 92.9027 11.8454C92.5107 12.0366 92.1015 12.1312 91.6808 12.1312C91.3022 12.1312 90.9599 12.082 90.6578 11.9836C90.3557 11.8852 90.1014 11.7451 89.8929 11.5634C89.6845 11.3817 89.5239 11.1602 89.4111 10.9009C89.2983 10.6416 89.2428 10.3501 89.2428 10.0283C89.2428 9.63084 89.325 9.28635 89.4914 8.99297C89.6577 8.69958 89.8929 8.45541 90.197 8.25856C90.501 8.0636 90.8681 7.91596 91.2945 7.81753C91.7229 7.71911 92.1971 7.66989 92.721 7.66989H93.8759V7.05095C93.8759 6.74431 93.8434 6.47364 93.7803 6.23704C93.7153 6.00233 93.6121 5.80359 93.4667 5.64648C93.3233 5.48749 93.1359 5.36824 92.9046 5.28874C92.6732 5.20925 92.394 5.1695 92.0632 5.1695C91.7324 5.1695 91.4532 5.20735 91.197 5.28496C90.9408 5.36256 90.7152 5.44774 90.5239 5.54238C90.3308 5.63702 90.1721 5.72409 90.0459 5.7998C89.9197 5.87741 89.8298 5.91526 89.7782 5.91526C89.7457 5.91526 89.717 5.90958 89.6902 5.90012C89.6635 5.89066 89.6405 5.86983 89.6214 5.84144C89.6023 5.81305 89.5889 5.77519 89.5813 5.72977C89.5736 5.68434 89.5698 5.63134 89.5698 5.56699C89.5698 5.45531 89.5774 5.36635 89.5946 5.30199C89.6118 5.23764 89.652 5.1695 89.7189 5.10325C89.7859 5.037 89.9044 4.95939 90.0765 4.86854C90.2486 4.77769 90.4436 4.6944 90.6654 4.61869C90.8872 4.54108 91.1263 4.48051 91.3825 4.4313C91.6387 4.38209 91.895 4.35938 92.1531 4.35938C92.6502 4.35938 93.069 4.41805 93.4113 4.5373C93.7536 4.65655 94.0308 4.8269 94.2412 5.04836C94.4515 5.26981 94.6026 5.54427 94.6943 5.86983C94.7861 6.1954 94.8301 6.56449 94.8301 6.97713V11.8341V11.8379ZM93.8759 8.44973H92.5527C92.1684 8.44973 91.8318 8.4838 91.5431 8.55383C91.2544 8.62387 91.0135 8.72229 90.8222 8.85479C90.6291 8.98729 90.4876 9.14628 90.3939 9.33178C90.3002 9.51727 90.2543 9.72927 90.2543 9.96587C90.2543 10.3785 90.3863 10.7078 90.6521 10.9539C90.9159 11.2 91.2888 11.323 91.7707 11.323C92.1493 11.323 92.5049 11.2265 92.8338 11.0334C93.1627 10.8403 93.5107 10.5432 93.8798 10.14V8.44973H93.8759Z" fill="#18365A"/>
<path d="M103.33 11.8379C103.33 11.8757 103.324 11.906 103.311 11.9325C103.297 11.959 103.272 11.9798 103.238 11.9969C103.204 12.0139 103.16 12.0252 103.106 12.0328C103.052 12.0404 102.986 12.0442 102.905 12.0442C102.819 12.0442 102.748 12.0404 102.693 12.0328C102.638 12.0252 102.592 12.0139 102.557 11.9969C102.523 11.9798 102.496 11.959 102.477 11.9325C102.458 11.906 102.448 11.8738 102.448 11.8379V10.8063C102.064 11.2189 101.664 11.5426 101.253 11.7792C100.842 12.0139 100.393 12.1331 99.907 12.1331C99.3831 12.1331 98.9375 12.0328 98.5685 11.8322C98.1994 11.6315 97.8992 11.359 97.666 11.0145C97.4327 10.67 97.2644 10.2668 97.1573 9.80498C97.0502 9.34314 96.9967 8.85101 96.9967 8.33238C96.9967 7.72479 97.0636 7.17398 97.1975 6.68564C97.3313 6.1954 97.5283 5.77898 97.7902 5.43638C98.0522 5.09189 98.3754 4.82879 98.7597 4.6433C99.144 4.4578 99.5915 4.36505 100.098 4.36505C100.536 4.36505 100.938 4.46159 101.301 4.65465C101.664 4.84772 102.022 5.13164 102.376 5.50831V1.17946C102.376 1.14728 102.381 1.11889 102.395 1.09239C102.408 1.06589 102.433 1.04507 102.471 1.02804C102.509 1.01289 102.557 0.999644 102.62 0.988287C102.682 0.97693 102.758 0.973145 102.85 0.973145C102.945 0.973145 103.026 0.978823 103.087 0.988287C103.148 0.997751 103.196 1.01289 103.23 1.02804C103.265 1.04318 103.29 1.06589 103.307 1.09239C103.322 1.11889 103.332 1.14728 103.332 1.17946V11.8379H103.33ZM102.376 6.65535C101.974 6.17458 101.588 5.80548 101.217 5.55184C100.846 5.29821 100.456 5.17139 100.05 5.17139C99.6814 5.17139 99.3659 5.25846 99.1039 5.4326C98.8419 5.60674 98.6278 5.83766 98.4633 6.12347C98.297 6.40929 98.1765 6.73106 98.1019 7.09259C98.0274 7.45222 97.9891 7.81753 97.9891 8.18852C97.9891 8.58601 98.0216 8.97215 98.0847 9.34692C98.1497 9.7217 98.2587 10.0567 98.4136 10.3501C98.5685 10.6435 98.775 10.8801 99.0312 11.0561C99.2875 11.234 99.6087 11.3211 99.993 11.3211C100.186 11.3211 100.372 11.2946 100.555 11.2416C100.737 11.1886 100.924 11.1016 101.117 10.9804C101.311 10.8593 101.509 10.7022 101.714 10.5091C101.92 10.316 102.14 10.0757 102.376 9.79173V6.65535Z" fill="#18365A"/>
<path d="M116.143 8.17161C116.143 8.74324 116.068 9.26944 115.919 9.75021C115.77 10.231 115.546 10.6493 115.25 11.0051C114.954 11.3591 114.583 11.6354 114.139 11.8342C113.695 12.0329 113.179 12.1314 112.592 12.1314C112.005 12.1314 111.529 12.0424 111.104 11.8664C110.68 11.6903 110.324 11.4348 110.038 11.1036C109.751 10.7723 109.538 10.3729 109.397 9.90163C109.255 9.43033 109.185 8.89845 109.185 8.306C109.185 7.71355 109.257 7.20817 109.405 6.7274C109.552 6.24662 109.774 5.82831 110.07 5.47814C110.366 5.12608 110.737 4.85163 111.181 4.65667C111.625 4.46171 112.143 4.36328 112.736 4.36328C113.328 4.36328 113.799 4.45035 114.223 4.62449C114.648 4.79863 115.001 5.05226 115.286 5.38161C115.569 5.71285 115.784 6.11223 115.927 6.58354C116.07 7.05485 116.143 7.58295 116.143 8.17161ZM115.133 8.25868C115.133 7.85172 115.093 7.46181 115.013 7.09271C114.933 6.72361 114.799 6.39616 114.611 6.11223C114.424 5.82831 114.173 5.60496 113.858 5.4384C113.542 5.27183 113.15 5.18854 112.68 5.18854C112.248 5.18854 111.873 5.26615 111.558 5.41947C111.242 5.57278 110.984 5.78667 110.783 6.05924C110.582 6.3318 110.435 6.65358 110.338 7.02267C110.242 7.39366 110.194 7.79305 110.194 8.22082C110.194 8.6486 110.234 9.02716 110.315 9.40004C110.395 9.77292 110.529 10.1004 110.716 10.3805C110.904 10.6606 111.154 10.884 111.47 11.0468C111.785 11.2096 112.177 11.2928 112.648 11.2928C113.08 11.2928 113.455 11.2152 113.77 11.0619C114.086 10.9086 114.344 10.6966 114.544 10.4278C114.745 10.1591 114.892 9.83728 114.99 9.46818C115.086 9.09719 115.133 8.69592 115.133 8.26246V8.25868Z" fill="#18365A"/>
<path d="M124.168 11.838C124.168 11.8702 124.161 11.8985 124.144 11.925C124.128 11.9515 124.101 11.9724 124.067 11.9894C124.033 12.0045 123.985 12.0178 123.924 12.0291C123.862 12.0405 123.786 12.0443 123.696 12.0443C123.6 12.0443 123.52 12.0386 123.459 12.0291C123.398 12.0197 123.35 12.0045 123.316 11.9894C123.281 11.9743 123.256 11.9515 123.239 11.925C123.224 11.8985 123.214 11.8702 123.214 11.838V7.57537C123.214 7.13056 123.18 6.76904 123.109 6.49269C123.04 6.21445 122.935 5.97595 122.795 5.7791C122.656 5.58225 122.478 5.42704 122.262 5.31915C122.046 5.21126 121.794 5.15637 121.505 5.15637C121.136 5.15637 120.767 5.28508 120.398 5.54439C120.029 5.80371 119.64 6.18416 119.235 6.68765V11.838C119.235 11.8702 119.227 11.8985 119.21 11.925C119.195 11.9515 119.168 11.9724 119.134 11.9894C119.099 12.0045 119.051 12.0178 118.99 12.0291C118.929 12.0405 118.851 12.0443 118.753 12.0443C118.661 12.0443 118.587 12.0386 118.526 12.0291C118.464 12.0178 118.415 12.0045 118.376 11.9894C118.338 11.9743 118.313 11.9515 118.3 11.925C118.287 11.8985 118.281 11.8702 118.281 11.838V4.65667C118.281 4.62449 118.287 4.5961 118.3 4.5696C118.313 4.5431 118.338 4.52038 118.376 4.50146C118.415 4.48253 118.461 4.46928 118.516 4.46171C118.572 4.45414 118.646 4.45035 118.736 4.45035C118.826 4.45035 118.902 4.45414 118.96 4.46171C119.019 4.46928 119.065 4.48253 119.095 4.50146C119.126 4.52038 119.151 4.5431 119.164 4.5696C119.178 4.5961 119.183 4.62449 119.183 4.65667V5.6731C119.6 5.21315 120.009 4.88002 120.411 4.6737C120.813 4.46739 121.21 4.36328 121.606 4.36328C122.082 4.36328 122.482 4.44278 122.809 4.60177C123.136 4.76077 123.398 4.97466 123.599 5.24533C123.799 5.516 123.943 5.83021 124.031 6.18984C124.119 6.54947 124.163 6.98293 124.163 7.49209V11.8418L124.168 11.838Z" fill="#18365A"/>
<path d="M134.023 11.4101C134.023 11.5218 134.014 11.6107 133.995 11.6808C133.976 11.7489 133.947 11.8038 133.907 11.8436C133.867 11.8833 133.807 11.9212 133.731 11.9552C133.654 11.9893 133.564 12.0196 133.463 12.0423C133.362 12.065 133.255 12.0839 133.142 12.0972C133.029 12.1104 132.92 12.1161 132.813 12.1161C132.455 12.1161 132.149 12.0688 131.899 11.9742C131.648 11.8795 131.442 11.7357 131.281 11.5407C131.121 11.3476 131.004 11.1035 130.933 10.8063C130.861 10.5091 130.824 10.1609 130.824 9.75958V5.29066H129.742C129.667 5.29066 129.608 5.25848 129.566 5.19223C129.524 5.12599 129.501 5.02756 129.501 4.89506C129.501 4.82692 129.507 4.76635 129.516 4.71714C129.528 4.66603 129.543 4.62439 129.564 4.59032C129.585 4.55625 129.61 4.53164 129.641 4.51461C129.669 4.49947 129.704 4.49 129.74 4.49H130.822V2.7278C130.822 2.69562 130.828 2.66723 130.842 2.64073C130.855 2.61423 130.88 2.59152 130.918 2.57259C130.956 2.55366 131.004 2.54041 131.067 2.53284C131.128 2.52527 131.205 2.52148 131.295 2.52148C131.39 2.52148 131.471 2.52527 131.532 2.53284C131.593 2.54041 131.641 2.55366 131.675 2.57259C131.71 2.59152 131.734 2.61423 131.752 2.64073C131.767 2.66723 131.777 2.69562 131.777 2.7278V4.49H133.78C133.819 4.49 133.851 4.49757 133.88 4.51461C133.909 4.52975 133.935 4.55625 133.956 4.59032C133.977 4.62439 133.995 4.66793 134.004 4.71714C134.016 4.76825 134.02 4.82692 134.02 4.89506C134.02 5.02756 133.997 5.12599 133.951 5.19223C133.905 5.25848 133.847 5.29066 133.779 5.29066H131.775V9.63276C131.775 10.1779 131.853 10.5924 132.012 10.8782C132.169 11.164 132.457 11.306 132.874 11.306C133.002 11.306 133.119 11.2927 133.222 11.2663C133.327 11.2398 133.419 11.2114 133.499 11.1792C133.58 11.147 133.649 11.1186 133.704 11.0921C133.759 11.0656 133.809 11.0524 133.853 11.0524C133.88 11.0524 133.905 11.058 133.926 11.0675C133.947 11.077 133.964 11.0978 133.977 11.1262C133.991 11.1546 134.002 11.1924 134.01 11.2379C134.018 11.2833 134.021 11.3401 134.021 11.4082L134.023 11.4101Z" fill="#18365A"/>
<path d="M141.808 11.8381C141.808 11.8702 141.8 11.8986 141.783 11.9251C141.766 11.9516 141.741 11.9724 141.707 11.9895C141.672 12.0046 141.624 12.0179 141.563 12.0292C141.502 12.0406 141.426 12.0444 141.334 12.0444C141.238 12.0444 141.158 12.0387 141.097 12.0292C141.035 12.0179 140.988 12.0046 140.953 11.9895C140.919 11.9743 140.894 11.9516 140.877 11.9251C140.861 11.8986 140.852 11.8702 140.852 11.8381V7.57545C140.852 7.13064 140.817 6.76912 140.747 6.49277C140.678 6.21452 140.573 5.97603 140.433 5.77918C140.294 5.58233 140.116 5.42712 139.9 5.31923C139.684 5.21134 139.431 5.15645 139.142 5.15645C138.773 5.15645 138.404 5.28516 138.035 5.54447C137.666 5.80379 137.278 6.18424 136.873 6.68773V11.8381C136.873 11.8702 136.865 11.8986 136.848 11.9251C136.831 11.9516 136.806 11.9724 136.771 11.9895C136.737 12.0046 136.689 12.0179 136.628 12.0292C136.567 12.0406 136.488 12.0444 136.391 12.0444C136.299 12.0444 136.224 12.0387 136.161 12.0292C136.1 12.0179 136.05 12.0046 136.012 11.9895C135.974 11.9743 135.949 11.9516 135.936 11.9251C135.922 11.8986 135.917 11.8702 135.917 11.8381V1.13991C135.917 1.10773 135.922 1.07934 135.936 1.05284C135.949 1.02634 135.974 1.00363 136.012 0.9847C136.05 0.965771 136.098 0.952522 136.161 0.944951C136.223 0.937379 136.299 0.933594 136.391 0.933594C136.486 0.933594 136.567 0.937379 136.628 0.944951C136.689 0.952522 136.737 0.965771 136.771 0.9847C136.806 1.00363 136.831 1.02634 136.848 1.05284C136.863 1.07934 136.873 1.10773 136.873 1.13991V5.62397C137.269 5.19052 137.664 4.87063 138.06 4.6681C138.456 4.46368 138.852 4.36336 139.248 4.36336C139.724 4.36336 140.123 4.44286 140.45 4.60185C140.777 4.76085 141.039 4.97474 141.24 5.24541C141.441 5.51608 141.584 5.83028 141.672 6.18992C141.76 6.54955 141.804 6.983 141.804 7.49217V11.8418L141.808 11.8381Z" fill="#18365A"/>
<path d="M150.373 7.87822C150.373 8.0694 150.321 8.2 150.22 8.27193C150.118 8.34385 150.019 8.37982 149.923 8.37982H144.977C144.977 8.82463 145.021 9.2259 145.109 9.58553C145.197 9.94517 145.342 10.2537 145.547 10.5111C145.749 10.7685 146.015 10.9654 146.34 11.1017C146.665 11.238 147.067 11.308 147.543 11.308C147.879 11.308 148.181 11.2796 148.449 11.2209C148.717 11.1622 148.948 11.0979 149.143 11.026C149.338 10.954 149.499 10.8897 149.625 10.831C149.751 10.7723 149.841 10.7439 149.893 10.7439C149.925 10.7439 149.954 10.7515 149.981 10.7685C150.008 10.7837 150.029 10.8102 150.046 10.8443C150.061 10.8783 150.074 10.9219 150.082 10.9749C150.09 11.0279 150.094 11.0941 150.094 11.1736C150.094 11.2115 150.092 11.2455 150.086 11.2815C150.08 11.3156 150.074 11.3477 150.067 11.3761C150.059 11.4045 150.048 11.4329 150.031 11.4594C150.015 11.4859 149.992 11.5124 149.965 11.5389C149.939 11.5654 149.857 11.6108 149.717 11.6771C149.577 11.7433 149.396 11.8096 149.172 11.8758C148.948 11.9421 148.686 12.0008 148.39 12.0538C148.094 12.1068 147.774 12.1333 147.432 12.1333C146.87 12.1333 146.374 12.05 145.94 11.8834C145.508 11.7168 145.143 11.4708 144.85 11.1452C144.558 10.8196 144.334 10.4165 144.181 9.9357C144.028 9.45493 143.952 8.89655 143.952 8.26057C143.952 7.62459 144.03 7.10785 144.189 6.62519C144.346 6.14441 144.573 5.73557 144.866 5.39865C145.158 5.06173 145.514 4.8062 145.929 4.62827C146.344 4.45035 146.805 4.36328 147.311 4.36328C147.856 4.36328 148.321 4.45414 148.707 4.63395C149.092 4.81377 149.409 5.05605 149.658 5.36079C149.906 5.66553 150.088 6.01759 150.203 6.42076C150.317 6.82204 150.375 7.24603 150.375 7.69084V7.88201L150.373 7.87822ZM149.386 7.59998C149.401 6.83718 149.225 6.24284 148.856 5.81506C148.487 5.38729 147.95 5.17151 147.244 5.17151C146.881 5.17151 146.562 5.23965 146.287 5.37404C146.011 5.50843 145.778 5.68825 145.589 5.9097C145.399 6.13116 145.254 6.39048 145.151 6.68386C145.049 6.97725 144.99 7.28388 144.975 7.59998H149.384H149.386Z" fill="#18365A"/>
<path d="M68.6316 27.3436C68.4385 26.4937 68.1192 25.7347 67.6832 25.0911C67.2377 24.4343 66.6564 23.9081 65.9508 23.5296C65.2433 23.1491 64.3848 22.9561 63.3981 22.9561C62.943 22.9561 62.507 23.0072 62.0997 23.1075C61.6905 23.2097 61.2871 23.3668 60.9008 23.5788C60.5222 23.7851 60.1398 24.0463 59.765 24.3548C59.6159 24.4779 59.4629 24.6104 59.3061 24.7523V22.9561H56.9503V41.9333H59.4457V35.9596C59.5585 36.0581 59.6694 36.1508 59.7765 36.236C60.1092 36.5029 60.4495 36.7281 60.7842 36.906C61.1284 37.0896 61.4878 37.2259 61.8492 37.313C62.2087 37.4001 62.5969 37.4436 63.0042 37.4436C63.9469 37.4436 64.7997 37.2619 65.5397 36.906C66.2816 36.5483 66.9126 36.0372 67.4155 35.3842C67.9108 34.7407 68.2913 33.9514 68.5437 33.0371C68.7923 32.14 68.9185 31.1216 68.9185 30.0105C68.9185 29.0717 68.8229 28.1745 68.6336 27.3436H68.6316ZM66.1401 32.1135C66.0139 32.7078 65.8131 33.2472 65.5435 33.7167C65.2835 34.1671 64.945 34.5362 64.532 34.8126C64.1324 35.0814 63.66 35.212 63.0883 35.212C62.463 35.212 61.8779 35.0151 61.2985 34.6082C60.7153 34.1993 60.092 33.605 59.4457 32.8441V27.6275C59.8052 27.1903 60.1493 26.8174 60.4744 26.5164C60.8224 26.1946 61.157 25.9297 61.4745 25.7309C61.7785 25.5378 62.0787 25.3997 62.3636 25.3183C62.6504 25.2369 62.9468 25.1952 63.2451 25.1952C63.836 25.1952 64.3236 25.3258 64.7003 25.5833C65.0903 25.852 65.4078 26.2155 65.643 26.6679C65.8896 27.1411 66.0694 27.69 66.1745 28.3032C66.2835 28.9335 66.339 29.5998 66.339 30.2812C66.339 30.8926 66.272 31.5115 66.142 32.1191L66.1401 32.1135Z" fill="#18365A"/>
<path d="M83.6515 27.3436C83.4565 26.4937 83.139 25.7347 82.7031 25.0911C82.2595 24.4343 81.6763 23.9081 80.9707 23.5296C80.2632 23.1491 79.4046 22.9561 78.4179 22.9561C77.9629 22.9561 77.525 23.0072 77.1196 23.1075C76.7104 23.2097 76.3069 23.3668 75.9207 23.5788C75.5421 23.7851 75.1596 24.0463 74.7849 24.3548C74.6357 24.4779 74.4808 24.6104 74.324 24.7523V22.9561H71.9683V41.9333H74.4655V35.9596C74.5783 36.0581 74.6873 36.1508 74.7963 36.236C75.129 36.5029 75.4694 36.7281 75.8059 36.906C76.1501 37.0896 76.5077 37.2259 76.8691 37.313C77.2286 37.4001 77.6168 37.4436 78.024 37.4436C78.9667 37.4436 79.8196 37.2619 80.5596 36.906C81.3015 36.5483 81.9325 36.0372 82.4354 35.3842C82.9306 34.7407 83.3111 33.9514 83.5635 33.0371C83.8121 32.14 83.9383 31.1216 83.9383 30.0105C83.9383 29.0717 83.8427 28.1745 83.6534 27.3436H83.6515ZM81.16 32.1135C81.0338 32.7078 80.833 33.2472 80.5634 33.7167C80.3052 34.1671 79.9649 34.5362 79.5538 34.8126C79.1541 35.0814 78.6818 35.212 78.1101 35.212C77.4848 35.212 76.8997 35.0151 76.3203 34.6082C75.7352 34.1993 75.1138 33.605 74.4674 32.8441V27.6275C74.825 27.1903 75.1711 26.8174 75.4962 26.5164C75.8423 26.1946 76.1788 25.9297 76.4962 25.7309C76.8003 25.5378 77.0986 25.3997 77.3854 25.3183C77.6703 25.2369 77.9686 25.1952 78.2669 25.1952C78.8558 25.1952 79.3453 25.3258 79.7201 25.5833C80.1102 25.852 80.4276 26.2155 80.6628 26.6679C80.9114 27.1411 81.0892 27.69 81.1944 28.3032C81.3034 28.9335 81.3569 29.5998 81.3569 30.2812C81.3569 30.8926 81.2919 31.5115 81.1619 32.1191L81.16 32.1135Z" fill="#18365A"/>
<path d="M126.341 24.8923C125.802 24.2639 125.121 23.7775 124.316 23.4462C123.52 23.1207 122.587 22.9541 121.541 22.9541C120.495 22.9541 119.467 23.1396 118.637 23.5068C117.801 23.8759 117.096 24.3983 116.535 25.0627C115.981 25.7214 115.56 26.5088 115.287 27.406C115.017 28.288 114.881 29.2628 114.881 30.3039C114.881 31.3449 115.013 32.3651 115.273 33.2283C115.537 34.1084 115.945 34.8693 116.484 35.4921C117.027 36.1205 117.709 36.6088 118.513 36.9438C119.308 37.2751 120.241 37.4435 121.289 37.4435C122.337 37.4435 123.35 37.2561 124.182 36.8833C125.016 36.5104 125.723 35.9823 126.284 35.3122C126.838 34.6498 127.261 33.8605 127.538 32.9652C127.811 32.0831 127.951 31.1083 127.951 30.0654C127.951 29.0224 127.817 28.0174 127.551 27.1542C127.282 26.276 126.876 25.5151 126.343 24.8942L126.341 24.8923ZM125.352 30.2187C125.352 30.9455 125.272 31.6251 125.111 32.2421C124.956 32.8402 124.716 33.3626 124.394 33.7942C124.083 34.2144 123.673 34.5494 123.18 34.7879C122.685 35.0302 122.081 35.1514 121.385 35.1514C120.627 35.1514 119.993 35.0207 119.499 34.7652C119.008 34.5097 118.612 34.1595 118.323 33.7261C118.023 33.2775 117.805 32.7437 117.677 32.1399C117.543 31.5134 117.474 30.8433 117.474 30.1487C117.474 29.454 117.555 28.7556 117.715 28.1404C117.87 27.5404 118.113 27.0161 118.434 26.5807C118.746 26.1567 119.153 25.8198 119.646 25.5813C120.142 25.339 120.746 25.2179 121.442 25.2179C122.199 25.2179 122.832 25.3504 123.325 25.6097C123.817 25.869 124.213 26.223 124.503 26.6621C124.803 27.1164 125.021 27.6502 125.152 28.2521C125.285 28.8729 125.354 29.5354 125.354 30.2206L125.352 30.2187Z" fill="#18365A"/>
<path d="M48.3405 18.8887H45.3728L39.187 37.4155H41.7187L43.0954 32.1061H50.5356L51.9621 37.4155H54.5263L48.3405 18.8887ZM43.889 29.8726L46.7687 21.7411L49.7191 29.8726H43.889Z" fill="#18365A"/>
<path d="M103.49 29.9006C103.226 29.3403 102.869 28.8444 102.431 28.4261C102.003 28.0173 101.511 27.6576 100.97 27.3586C100.452 27.0709 99.9146 26.7983 99.3773 26.5484C98.8495 26.3043 98.3256 26.0563 97.815 25.8102C97.3294 25.5774 96.8896 25.3105 96.509 25.0209C96.1476 24.7465 95.8532 24.4266 95.6352 24.0708C95.4306 23.7357 95.3273 23.3231 95.3273 22.8404C95.3273 22.5111 95.3866 22.1931 95.5033 21.8978C95.618 21.6063 95.7863 21.3603 96.0176 21.1426C96.249 20.9268 96.5473 20.7508 96.9068 20.6221C97.2739 20.4896 97.7156 20.4233 98.2204 20.4233C98.7252 20.4233 99.209 20.4858 99.6105 20.6088C100.027 20.7356 100.387 20.8795 100.683 21.0347C100.991 21.1956 101.249 21.3432 101.45 21.4719L102.483 19.3368C102.362 19.2157 102.156 19.0832 101.832 18.9147C101.536 18.7614 101.198 18.6214 100.827 18.4983C100.458 18.3772 100.062 18.275 99.6526 18.1974C99.2339 18.1179 98.8151 18.0781 98.404 18.0781C97.5932 18.0781 96.836 18.1879 96.1553 18.4056C95.4631 18.6251 94.8569 18.9507 94.3579 19.369C93.8531 19.793 93.4553 20.3154 93.1781 20.9211C92.9008 21.5249 92.7612 22.2139 92.7612 22.9672C92.7612 23.7206 92.897 24.4228 93.1666 24.9963C93.4305 25.5604 93.7842 26.0582 94.2183 26.4784C94.6409 26.8872 95.1266 27.2488 95.662 27.5535C96.1782 27.8469 96.7117 28.1214 97.251 28.3731C97.7768 28.6173 98.3007 28.8652 98.8036 29.1113C99.2855 29.346 99.7215 29.6091 100.098 29.893C100.456 30.1637 100.746 30.4817 100.964 30.8356C101.169 31.1707 101.272 31.5833 101.272 32.066C101.272 32.5486 101.186 32.9764 101.018 33.3455C100.852 33.7108 100.614 34.0231 100.316 34.2711C100.01 34.5247 99.6373 34.7235 99.2109 34.8598C98.7749 34.9998 98.2835 35.0699 97.7558 35.0699C97.0942 35.0699 96.511 34.9941 96.0195 34.8427C95.5128 34.6875 95.073 34.5172 94.7135 34.3373C94.3502 34.1556 94.0519 33.9853 93.8282 33.8339L93.3138 36.3929C93.6083 36.5557 93.9716 36.7166 94.3942 36.8737C94.8168 37.0289 95.3006 37.1633 95.836 37.275C96.379 37.3866 96.9622 37.4434 97.5703 37.4434C98.4652 37.4434 99.3065 37.3185 100.068 37.0743C100.84 36.8264 101.517 36.4592 102.083 35.986C102.653 35.5071 103.102 34.9165 103.418 34.2313C103.733 33.548 103.892 32.7682 103.892 31.9127C103.892 31.148 103.756 30.4722 103.486 29.9044L103.49 29.9006Z" fill="#18365A"/>
<path d="M112.1 34.987C111.976 35.0362 111.829 35.0816 111.664 35.1252C111.515 35.163 111.343 35.182 111.152 35.182C110.381 35.182 110.121 34.8715 109.993 34.6387C109.75 34.1977 109.626 33.5258 109.626 32.638V25.3999H112.662V23.1797H109.626V20.4824L107.129 21.5708V23.1797H105.775V25.3999H107.129V32.8614C107.129 33.5977 107.198 34.2507 107.331 34.7996C107.473 35.3788 107.706 35.8672 108.027 36.2533C108.354 36.647 108.777 36.9442 109.284 37.1353C109.771 37.3208 110.362 37.4136 111.039 37.4136C111.242 37.4136 111.454 37.4003 111.666 37.3757C111.878 37.3511 112.083 37.3152 112.276 37.2697C112.479 37.2224 112.662 37.1618 112.821 37.0918L112.437 34.8413C112.347 34.8829 112.234 34.9321 112.1 34.9851V34.987Z" fill="#18365A"/>
<path d="M136.563 22.9561C136.526 22.9561 136.492 22.9561 136.459 22.9561C136.146 22.9561 135.834 22.992 135.536 23.0658C135.224 23.1416 134.905 23.2835 134.586 23.4898C134.278 23.6886 133.953 23.9649 133.622 24.3132C133.52 24.4192 133.417 24.5347 133.31 24.6615V22.9561H130.899V37.4152H133.396V28.0875C133.721 27.5745 134.025 27.1335 134.295 26.7757C134.574 26.4066 134.84 26.1095 135.088 25.8899C135.324 25.6817 135.547 25.5303 135.75 25.4413C135.945 25.3561 136.134 25.3145 136.333 25.3145C136.391 25.3145 136.452 25.3164 136.524 25.3221L136.962 25.3542V22.9674L136.565 22.9561H136.563Z" fill="#18365A"/>
<path d="M149.06 34.3015C149.003 34.3243 148.944 34.3508 148.879 34.381C148.668 34.4776 148.395 34.5892 148.064 34.7104C147.739 34.8296 147.347 34.9394 146.898 35.0378C146.458 35.1344 145.951 35.1817 145.391 35.1817C144.613 35.1817 143.955 35.07 143.433 34.8505C142.926 34.6366 142.509 34.328 142.198 33.9324C141.878 33.5293 141.645 33.0334 141.503 32.4579C141.383 31.9677 141.312 31.4245 141.289 30.8339H149.582C149.837 30.8339 150.093 30.745 150.341 30.5708C150.634 30.3645 150.781 30.0219 150.781 29.5487V29.2137C150.781 28.3979 150.674 27.6086 150.462 26.8685C150.246 26.1114 149.898 25.4356 149.427 24.8583C148.953 24.2772 148.341 23.8097 147.611 23.469C146.882 23.1283 145.997 22.9561 144.98 22.9561C144.033 22.9561 143.159 23.1245 142.383 23.4576C141.601 23.7927 140.922 24.2848 140.366 24.9189C139.815 25.5492 139.387 26.3215 139.092 27.2168C138.803 28.1007 138.656 29.1115 138.656 30.2206C138.656 31.3298 138.798 32.4068 139.077 33.2889C139.362 34.188 139.786 34.9546 140.341 35.5678C140.899 36.1868 141.597 36.66 142.417 36.9742C143.224 37.2846 144.158 37.4417 145.19 37.4417C145.813 37.4417 146.406 37.3925 146.949 37.296C147.485 37.2013 147.963 37.0915 148.37 36.9704C148.632 36.8928 148.859 36.8171 149.06 36.7395V34.3015ZM141.568 27.5764C141.729 27.1089 141.964 26.6943 142.263 26.3442C142.559 25.9978 142.928 25.7139 143.36 25.5019C143.787 25.2937 144.291 25.1877 144.865 25.1877C145.991 25.1877 146.819 25.5113 147.391 26.1776C147.907 26.7776 148.186 27.6086 148.223 28.6553H141.316C141.364 28.2843 141.448 27.9247 141.567 27.5764H141.568Z" fill="#18365A"/>
</svg>
