<svg width="16" height="17" viewBox="0 0 16 17" fill="none" xmlns="http://www.w3.org/2000/svg">
<path d="M4.83398 5.16667H11.1673V3.83333C11.1673 2.5 10.6673 1.83333 9.16732 1.83333H6.83398C5.33398 1.83333 4.83398 2.5 4.83398 3.83333V5.16667Z" stroke="white" stroke-width="1.5" stroke-miterlimit="10" stroke-linecap="round" stroke-linejoin="round"/>
<path d="M10.6673 10.5V13.1667C10.6673 14.5 10.0007 15.1667 8.66732 15.1667H7.33398C6.00065 15.1667 5.33398 14.5 5.33398 13.1667V10.5H10.6673Z" stroke="white" stroke-width="1.5" stroke-miterlimit="10" stroke-linecap="round" stroke-linejoin="round"/>
<path d="M14 7.16667V10.5C14 11.8333 13.3333 12.5 12 12.5H10.6667V10.5H5.33333V12.5H4C2.66667 12.5 2 11.8333 2 10.5V7.16667C2 5.83333 2.66667 5.16667 4 5.16667H12C13.3333 5.16667 14 5.83333 14 7.16667Z" stroke="white" stroke-width="1.5" stroke-miterlimit="10" stroke-linecap="round" stroke-linejoin="round"/>
<path d="M11.3327 10.5H10.526H4.66602" stroke="white" stroke-width="1.5" stroke-miterlimit="10" stroke-linecap="round" stroke-linejoin="round"/>
<path d="M4.66602 7.83333H6.66602" stroke="white" stroke-width="1.5" stroke-miterlimit="10" stroke-linecap="round" stroke-linejoin="round"/>
</svg>
