<svg width="186" height="54" viewBox="0 0 186 54" fill="none" xmlns="http://www.w3.org/2000/svg">
<path fill-rule="evenodd" clip-rule="evenodd" d="M27.3901 26.5906C27.0527 26.5906 27.0045 26.2997 27.0045 26.2997V20.7249C27.0045 20.7249 27.0045 20.531 27.3901 20.531C27.9684 20.531 29.6553 20.531 29.6553 20.531C31.0048 20.531 32.6435 21.3551 33.2701 22.3731L35.3425 25.9604C35.4389 26.1058 35.5353 26.2512 35.6317 26.3482C35.7281 26.4451 35.5835 26.5906 35.2461 26.5906C35.3425 26.5906 29.4143 26.5906 27.3901 26.5906Z" fill="#1274F1"/>
<path fill-rule="evenodd" clip-rule="evenodd" d="M49.6824 11.3684C49.2863 10.8754 48.8903 10.4318 48.4448 9.9882C46.2667 7.77008 43.5936 6.19276 40.7225 5.30551C38.9899 4.76331 37.1583 4.51685 35.3268 4.51685H35.2773C28.9905 4.51685 23.4463 7.74285 20.0801 12.5241H24.192C26.0236 12.5241 26.9063 13.4067 27.0053 14.6882C27.0053 14.7375 27.0053 14.8061 27.0053 14.9047C27.0053 14.9047 27.0599 17.4312 27.0599 18.3184C27.0599 18.7128 27.5054 18.6635 27.5054 18.6635H30.8221C32.4061 18.6635 34.2872 19.6 34.9803 20.783L37.4059 24.8742C38.1484 26.0572 39.1879 26.3037 41.0195 26.698C42.5541 27.043 43.9896 27.043 43.9896 30.8878V33.3523L39.782 37.8379H37.8514C37.7029 37.8379 37.7029 37.69 37.7029 37.5914C37.7029 34.5846 34.7822 32.12 31.1686 32.12C29.436 32.12 27.852 32.7115 26.6639 33.6481C26.2184 33.9931 25.8224 34.4367 25.5254 34.8804C24.9808 35.669 24.6343 36.6548 24.6343 37.6407C24.6343 37.7393 24.6559 38.0608 24.4084 38.0608C24.4084 38.0608 24.2726 38.0608 23.9756 38.0608L33.0497 47.6468L35.2278 49.9635L37.4059 47.5975L48.8903 35.2747C48.9398 35.2254 48.9398 35.2254 48.9893 35.1761C49.6329 34.486 50.1774 33.7467 50.7219 33.0073C51.6129 31.7257 52.2565 30.3456 52.801 28.9161C52.9 28.6696 52.9495 28.4725 53.0485 28.226C53.5435 26.5994 53.791 24.8742 53.8405 23.149C53.8405 18.8114 52.405 14.6709 49.6824 11.3684ZM28.4955 37.9857C28.4955 37.9364 28.4955 37.8871 28.4955 37.7886C28.4955 37.1478 28.6935 36.5563 29.0895 36.1127C29.5845 35.4226 30.4261 35.0282 31.3171 35.0282C32.8517 35.0282 34.0892 36.2605 34.0892 37.7886C34.0892 38.7744 33.5942 39.6123 32.8022 40.1052C32.3566 40.401 31.8616 40.5489 31.2676 40.5489C31.1191 40.5489 31.0201 40.5489 30.8716 40.4996C29.5845 40.401 28.5945 39.3166 28.4955 37.9857Z" fill="#d8b56c"/>
<path d="M35.2112 0.728027L35.2606 3.93515V4.57656L35.2112 7.14223C36.7436 7.14223 38.375 7.33958 39.7591 7.78364L40.7478 4.87256L41.6376 1.66552C39.6603 1.02411 37.3863 0.728027 35.2112 0.728027ZM35.2112 0.728027V7.14223H35.31L35.2112 0.728027ZM16.2778 11.8295H24.1873C26.9556 8.91846 30.9104 7.14223 35.2112 7.14223V0.728027C27.1039 0.728027 19.9854 5.21798 16.2778 11.8295ZM37.4357 47.1074L35.2606 44.7391L30.9938 39.8987C29.7085 39.7014 28.587 38.8183 28.5375 37.4861L25.5715 34.2791C25.0277 35.0685 24.6816 36.0553 24.6816 37.0421C24.6816 37.1408 24.6816 37.2888 24.4345 37.2888C24.4345 37.2888 24.2862 37.2888 23.9895 37.2888H19.6393L32.8982 51.6085L37.6335 47.2554L37.4357 47.1074ZM48.9045 34.7724L46.5811 32.6015L43.8622 35.5125L42.4286 37.0421L35.2606 44.7884L33.0855 47.1567L32.9372 47.3541L35.2606 49.525L37.6335 51.6959L51.2774 36.9927L48.9045 34.7724ZM49.2258 34.3777L46.6977 32.4729L46.5811 32.6015L48.8551 34.7231L51.2774 36.9927C51.3268 36.9434 51.8211 36.2526 51.8706 36.2033L49.2258 34.3777ZM50.6841 32.5028L48.0147 30.7266C47.6192 31.368 47.1249 32.0094 46.5811 32.6015L51.8706 36.2033C52.6121 35.4138 52.7604 35.2165 53.3536 34.2791L50.6841 32.5028ZM52.711 28.4076L49.6955 27.3715C49.3 28.5556 48.7068 29.6411 48.0147 30.7266L50.6841 32.5028L53.3536 34.2791C54.3917 32.7495 55.1827 31.1707 55.7759 29.4438L52.711 28.4076ZM52.9581 27.7169L49.8932 26.7794C49.8438 26.9768 49.7943 27.1741 49.6955 27.3715L52.711 28.4076L55.7759 29.4438C55.8748 29.1477 55.9181 28.9946 56.0231 28.6543L52.9581 27.7169ZM53.7491 22.6349L50.5358 22.5855C50.5358 24.0164 50.2887 25.4472 49.8932 26.7794L52.9581 27.7169L56.0231 28.6543C56.6163 26.7301 56.9129 24.7072 56.9623 22.6842L53.7491 22.6349ZM52.1177 8.81978L49.646 10.8427L47.1743 12.8656C49.3988 15.6287 50.5853 19.0331 50.5358 22.6349L53.7491 22.6842L56.9623 22.7336C57.0118 17.6022 55.331 12.7176 52.1177 8.81978ZM50.6841 7.24092L48.4102 9.41186L46.1362 11.6815C46.4822 12.0269 46.8283 12.4709 47.1743 12.8656L49.6912 10.8057L52.1177 8.81978C51.6728 8.37572 51.1785 7.78365 50.6841 7.24092ZM41.6376 1.66552L40.6984 4.72459L39.7591 7.78364C42.132 8.52373 44.3071 9.85592 46.1362 11.6815L48.4102 9.4612L50.6841 7.24092C48.1136 4.62591 45.0486 2.70166 41.6376 1.66552ZM35.2606 49.4263L32.8877 51.5973L35.1123 53.9656L37.5346 51.7946L35.2606 49.4263ZM35.2606 49.4263L37.5346 51.7946L37.584 51.7453L37.6335 51.6959L35.2606 49.4263Z" fill="#d8b56c"/>
<path fill-rule="evenodd" clip-rule="evenodd" d="M27.3901 26.5906C27.0527 26.5906 27.0045 26.2997 27.0045 26.2997V20.7249C27.0045 20.7249 27.0045 20.531 27.3901 20.531C27.9684 20.531 29.6553 20.531 29.6553 20.531C31.0048 20.531 32.6435 21.3551 33.2701 22.3731L35.3425 25.9604C35.4389 26.1058 35.5353 26.2512 35.6317 26.3482C35.7281 26.4451 35.5835 26.5906 35.2461 26.5906C35.3425 26.5906 29.4143 26.5906 27.3901 26.5906Z" fill="#d8b56c"/>
<path fill-rule="evenodd" clip-rule="evenodd" d="M39.5553 38.0293L35.0131 43.0389L32.6432 40.4339C33.3838 39.933 33.9269 39.0814 33.9269 38.0794C33.9269 36.5265 32.6926 35.2741 31.1621 35.2741C30.2734 35.2741 29.4341 35.7249 28.9403 36.3762L26.5705 33.7712C27.7554 32.8194 29.3353 32.2183 31.0633 32.2183C34.6675 32.2183 37.5804 34.723 37.5804 37.7789C37.5804 37.8791 37.5804 38.0293 37.7285 38.0293H39.5553Z" fill="#d8b56c"/>
<path fill-rule="evenodd" clip-rule="evenodd" d="M47.7768 24.7549C47.7768 26.086 47.5301 27.417 47.086 28.6987C46.6913 29.8818 46.0992 30.9663 45.3591 32.0016C45.1617 32.2974 44.915 32.5931 44.6683 32.8396C44.619 32.8889 44.5697 32.9875 44.471 33.0368L43.8789 33.6777V31.2128C43.8789 27.3677 42.448 27.3677 40.9185 27.0226C39.0929 26.6282 38.0567 26.3817 37.3166 25.1986L34.899 21.107C34.1589 19.9239 32.362 19.032 30.7831 19.032H27.4733C27.4733 19.032 27.1176 19.032 27.0874 18.6465C27.0874 17.8085 27.0045 15.1914 27.0045 15.1914C27.0045 15.1421 27.0045 15.0928 27.0045 14.9942C29.2248 13.1209 32.0372 12.0364 35.1457 12.0364C38.5501 12.0364 41.7079 13.3674 44.1256 15.7829C45.0137 16.6703 45.7538 17.7055 46.3459 18.79C47.3327 20.614 47.8261 22.6845 47.7768 24.7549Z" fill="#d8b56c"/>
<path d="M18.2545 16.2577H12.3833C11.3965 16.2577 10.5578 15.3628 10.5578 14.31C10.5578 13.2572 11.3965 12.3623 12.3833 12.3623H18.2545C19.2412 12.3623 20.08 13.2572 20.08 14.31C20.08 15.4155 19.2412 16.2577 18.2545 16.2577Z" fill="#d8b56c"/>
<path d="M18.2126 23.6159H7.66417C6.65475 23.6159 5.79675 22.721 5.79675 21.6682C5.79675 20.6153 6.65475 19.7205 7.66417 19.7205H18.2126C19.222 19.7205 20.08 20.6153 20.08 21.6682C20.08 22.721 19.222 23.6159 18.2126 23.6159Z" fill="#d8b56c"/>
<path d="M18.2679 33.0827H2.41212C1.43337 33.0827 0.60144 32.2873 0.60144 31.3514C0.60144 30.4156 1.43337 29.6201 2.41212 29.6201H18.2679C19.2466 29.6201 20.0786 30.4156 20.0786 31.3514C20.0786 32.2873 19.2466 33.0827 18.2679 33.0827Z" fill="#d8b56c"/>
<path d="M70.591 22.1587C71.3075 18.8322 74.8131 17.3225 78.8049 17.3225C80.9799 17.3225 82.8734 17.8343 83.7946 18.346L83.0525 21.7493C82.3872 20.9816 80.6472 20.3419 78.6769 20.3419C76.3996 20.3419 74.7875 21.2119 74.5316 22.389C73.8919 25.2804 82.2849 25.3316 81.1846 30.5772C80.4425 33.9804 76.8602 35.3366 72.766 35.3366C70.6422 35.3366 68.9534 34.8249 67.981 34.3643L68.7231 30.961C69.4652 31.7287 71.026 32.3172 73.2266 32.3172C75.2737 32.3172 76.9881 31.7031 77.244 30.3725C77.8325 27.2507 69.4652 27.4299 70.591 22.1587ZM84.7779 35.311L88.5906 17.3993H92.5567L91.175 23.9499H96.8556L98.2629 17.3993H102.229L98.4165 35.311H94.4503L96.2159 26.9437H90.5353L88.7441 35.311H84.7779ZM103.229 35.311L107.042 17.3993H117.38L116.74 20.3931H110.369L109.627 23.9243H115.23L114.591 26.9181H108.987L107.835 32.2916H114.207L113.567 35.311H103.229ZM117.733 35.311L121.545 17.3993H131.883L131.243 20.3931H124.872L124.13 23.9243H129.734L129.094 26.9181H123.49L122.339 32.2916H128.71L128.07 35.311H117.733ZM136.474 17.3993H140.44L137.267 32.2916H143.638L142.999 35.311H132.661L136.474 17.3993ZM147.589 35.311L151.402 17.3993H155.368L161.791 30.1166L164.503 17.3993H168.469L164.656 35.311L160.69 35.2854L154.268 22.5425L151.555 35.311H147.589ZM169.214 35.311L173.027 17.3993H176.993L173.18 35.311H169.214Z" fill="#d8b56c"/>
</svg>
