<svg width="112" height="112" viewBox="0 0 112 112" fill="none" xmlns="http://www.w3.org/2000/svg">
<circle cx="56" cy="56" r="56" fill="#d8b56c"/>
<path d="M39.2962 74.9545C36.1257 74.9432 33.3871 74.2102 31.0803 72.7557C28.7734 71.3011 26.995 69.2045 25.745 66.4659C24.495 63.7273 23.8757 60.4432 23.8871 56.6136C23.8984 52.7727 24.5234 49.5114 25.7621 46.8295C27.0121 44.1477 28.7848 42.108 31.0803 40.7102C33.3871 39.3125 36.1257 38.6136 39.2962 38.6136C42.4666 38.6136 45.2053 39.3182 47.5121 40.7273C49.8189 42.125 51.5973 44.1648 52.8473 46.8466C54.0973 49.5284 54.7166 52.7841 54.7053 56.6136C54.7053 60.4659 54.0803 63.7614 52.8303 66.5C51.5803 69.2386 49.8018 71.3352 47.495 72.7898C45.1996 74.233 42.4666 74.9545 39.2962 74.9545ZM39.2962 67.25C40.9325 67.25 42.2734 66.3977 43.3189 64.6932C44.3757 62.9773 44.8984 60.2841 44.8871 56.6136C44.8871 54.2159 44.6484 52.2557 44.1712 50.733C43.6939 49.2102 43.0348 48.0852 42.1939 47.358C41.353 46.6193 40.3871 46.25 39.2962 46.25C37.6598 46.25 36.3246 47.0795 35.2905 48.7386C34.2564 50.3977 33.728 53.0227 33.7053 56.6136C33.6939 59.0568 33.9268 61.0682 34.4041 62.6477C34.8814 64.2159 35.5405 65.375 36.3814 66.125C37.2337 66.875 38.2053 67.25 39.2962 67.25ZM72.7905 74.4773C70.0405 74.4773 67.5973 74.0057 65.4609 73.0625C63.3359 72.108 61.6655 70.7955 60.4496 69.125C59.2337 67.4545 58.62 65.5341 58.6087 63.3636H68.1541C68.1655 64.0341 68.37 64.6364 68.7678 65.1705C69.1768 65.6932 69.7337 66.1023 70.4382 66.3977C71.1428 66.6932 71.9496 66.8409 72.8587 66.8409C73.7337 66.8409 74.5064 66.6875 75.1768 66.3807C75.8473 66.0625 76.37 65.625 76.745 65.0682C77.12 64.5114 77.3018 63.875 77.2905 63.1591C77.3018 62.4545 77.0859 61.8295 76.6428 61.2841C76.2109 60.7386 75.603 60.3125 74.8189 60.0057C74.0348 59.6989 73.1314 59.5455 72.1087 59.5455H68.5632V53H72.1087C73.0518 53 73.8814 52.8466 74.5973 52.5398C75.3246 52.233 75.8871 51.8068 76.2848 51.2614C76.6939 50.7159 76.8928 50.0909 76.8814 49.3864C76.8928 48.7045 76.728 48.1023 76.3871 47.5795C76.0462 47.0568 75.5689 46.6477 74.9553 46.3523C74.353 46.0568 73.6541 45.9091 72.8587 45.9091C71.995 45.9091 71.2223 46.0625 70.5405 46.3693C69.87 46.6761 69.3416 47.1023 68.9553 47.6477C68.5689 48.1932 68.37 48.8182 68.3587 49.5227H59.2905C59.3018 47.3864 59.8871 45.5 61.0462 43.8636C62.2166 42.2273 63.8189 40.9432 65.853 40.0114C67.8871 39.0795 70.2223 38.6136 72.8587 38.6136C75.4382 38.6136 77.7166 39.0511 79.6939 39.9261C81.6825 40.8011 83.2337 42.0057 84.3473 43.5398C85.4723 45.0625 86.0291 46.8068 86.0178 48.7727C86.0405 50.7273 85.37 52.3295 84.0064 53.5795C82.6541 54.8295 80.9382 55.5682 78.8587 55.7955V56.0682C81.6768 56.375 83.7962 57.2386 85.2166 58.6591C86.6371 60.0682 87.3359 61.8409 87.3132 63.9773C87.3246 66.0227 86.7109 67.8352 85.4723 69.4148C84.245 70.9943 82.5348 72.233 80.3416 73.1307C78.1598 74.0284 75.6428 74.4773 72.7905 74.4773Z" fill="white"/>
</svg>
