<?xml version="1.0" encoding="UTF-8"?>
<svg width="32" height="32" viewBox="0 0 32 32" fill="none" xmlns="http://www.w3.org/2000/svg">
  <rect width="32" height="32" rx="16" fill="#000"/>
  <path d="M22.5 13.5c-1.93 0-3.5-1.57-3.5-3.5V7h-3v12.5a2 2 0 1 1-2-2c.35 0 .68.07 1 .18V15.5a4 4 0 1 0 4 4V13.5c1.1.63 2.39 1 3.5 1v-3z" fill="#fff"/>
  <path d="M22.5 13.5c-1.93 0-3.5-1.57-3.5-3.5V7h-1.5v12.5a2 2 0 1 1-2-2c.35 0 .68.07 1 .18V15.5a4 4 0 1 0 4 4V13.5c1.1.63 2.39 1 3.5 1v-1.5z" fill="#25F4EE"/>
  <path d="M22.5 13.5c-1.93 0-3.5-1.57-3.5-3.5V7h-1.5v12.5a2 2 0 1 1-2-2c.35 0 .68.07 1 .18V15.5a4 4 0 1 0 4 4V13.5c1.1.63 2.39 1 3.5 1v-1.5z" fill="#FE2C55" fill-opacity=".7"/>
</svg> 