<svg width="49" height="48" viewBox="0 0 49 48" fill="none" xmlns="http://www.w3.org/2000/svg">
<g id="Group 7869">
<circle id="Oval" cx="24.5" cy="24" r="24" fill="#F37A1D"/>
<path id="twitter" d="M32.5 19.54C31.912 19.8013 31.2787 19.9773 30.6147 20.0573C31.2933 19.6507 31.812 19.008 32.0587 18.2413C31.424 18.6173 30.7213 18.8907 29.9733 19.0373C29.376 18.3987 28.5213 18 27.5787 18C25.4587 18 23.9013 19.9773 24.38 22.0307C21.6533 21.8933 19.2333 20.5867 17.6147 18.6013C16.7547 20.076 17.1693 22.0067 18.6307 22.984C18.0933 22.9667 17.588 22.8187 17.1453 22.5733C17.1093 24.0933 18.2 25.516 19.7787 25.8333C19.3173 25.9587 18.8107 25.988 18.296 25.8893C18.7133 27.1933 19.928 28.1413 21.3627 28.168C19.98 29.2507 18.2427 29.7347 16.5 29.5293C17.9533 30.4613 19.6773 31.004 21.5307 31.004C27.6267 31.004 31.0693 25.856 30.8613 21.2387C31.504 20.7773 32.06 20.1987 32.5 19.54Z" fill="#020111"/>
</g>
</svg>
