<svg width="48" height="48" viewBox="0 0 48 48" fill="none" xmlns="http://www.w3.org/2000/svg">
<circle cx="23.8298" cy="24.3376" r="23.6096" fill="#d8b56c"/>
<path d="M31.6997 19.9503C31.1213 20.2073 30.4982 20.3805 29.845 20.4592C30.5127 20.0591 31.0229 19.4269 31.2656 18.6727C30.6412 19.0426 29.95 19.3115 29.2141 19.4558C28.6265 18.8275 27.7858 18.4353 26.8584 18.4353C24.7729 18.4353 23.2409 20.3805 23.7118 22.4004C21.0295 22.2653 18.6488 20.9799 17.0565 19.0269C16.2105 20.4775 16.6184 22.3768 18.056 23.3382C17.5274 23.3212 17.0303 23.1756 16.5948 22.9342C16.5594 24.4295 17.6323 25.829 19.1853 26.1412C18.7315 26.2645 18.233 26.2934 17.7267 26.1963C18.1373 27.4791 19.3322 28.4117 20.7435 28.4379C19.3834 29.503 17.6743 29.9791 15.96 29.7771C17.3897 30.6939 19.0856 31.2278 20.9088 31.2278C26.9056 31.2278 30.2923 26.1635 30.0877 21.6213C30.7199 21.1675 31.2669 20.5982 31.6997 19.9503V19.9503Z" fill="white"/>
</svg>
