<svg width="112" height="112" viewBox="0 0 112 112" fill="none" xmlns="http://www.w3.org/2000/svg">
<circle cx="56" cy="56" r="56" fill="#d8b56c"/>
<path d="M36.0948 80.1932C32.1317 80.179 28.7085 79.2628 25.8249 77.4446C22.9414 75.6264 20.7184 73.0057 19.1559 69.5824C17.5934 66.1591 16.8192 62.054 16.8335 57.267C16.8477 52.4659 17.6289 48.3892 19.1772 45.0369C20.7397 41.6847 22.9556 39.1349 25.8249 37.3878C28.7085 35.6406 32.1317 34.767 36.0948 34.767C40.0579 34.767 43.4812 35.6477 46.3647 37.4091C49.2482 39.1562 51.4712 41.706 53.0337 45.0582C54.5962 48.4105 55.3704 52.4801 55.3562 57.267C55.3562 62.0824 54.5749 66.2017 53.0124 69.625C51.4499 73.0483 49.2269 75.669 46.3434 77.4872C43.4741 79.2912 40.0579 80.1932 36.0948 80.1932ZM36.0948 70.5625C38.1403 70.5625 39.8164 69.4972 41.1232 67.3665C42.4442 65.2216 43.0977 61.8551 43.0835 57.267C43.0835 54.2699 42.7852 51.8196 42.1886 49.9162C41.592 48.0128 40.7681 46.6065 39.717 45.6974C38.6658 44.7741 37.4585 44.3125 36.0948 44.3125C34.0494 44.3125 32.3803 45.3494 31.0877 47.4233C29.7951 49.4972 29.1346 52.7784 29.1062 57.267C29.092 60.321 29.3832 62.8352 29.9798 64.8097C30.5764 66.7699 31.4002 68.2188 32.4514 69.1562C33.5167 70.0938 34.7312 70.5625 36.0948 70.5625ZM60.9173 79V70.4773L77.1957 57.0114C78.2752 56.1165 79.1985 55.2784 79.9656 54.4972C80.7468 53.7017 81.3434 52.8849 81.7553 52.0469C82.1815 51.2088 82.3945 50.2784 82.3945 49.2557C82.3945 48.1335 82.1531 47.1747 81.6701 46.3793C81.2014 45.5838 80.5479 44.973 79.7099 44.5469C78.8718 44.1065 77.9059 43.8864 76.8121 43.8864C75.7184 43.8864 74.7525 44.1065 73.9144 44.5469C73.0906 44.9872 72.4513 45.6335 71.9968 46.4858C71.5423 47.3381 71.315 48.375 71.315 49.5966H60.065C60.065 46.5284 60.7539 43.8864 62.1317 41.6705C63.5096 39.4545 65.4556 37.75 67.9698 36.5568C70.484 35.3636 73.4315 34.767 76.8121 34.767C80.3065 34.767 83.332 35.3281 85.8889 36.4503C88.4599 37.5582 90.4414 39.1207 91.8335 41.1378C93.2397 43.1548 93.9428 45.5199 93.9428 48.233C93.9428 49.9091 93.5948 51.5781 92.8988 53.2401C92.2028 54.8878 90.9528 56.7131 89.1488 58.7159C87.3448 60.7188 84.7809 63.1051 81.457 65.875L77.3661 69.2841V69.5398H94.4116V79H60.9173Z" fill="white"/>
</svg>
