<svg width="112" height="112" viewBox="0 0 112 112" fill="none" xmlns="http://www.w3.org/2000/svg">
<circle cx="56" cy="56" r="56" fill="#d8b56c"/>
<path d="M40.4759 74.9545C37.3054 74.9432 34.5668 74.2102 32.2599 72.7557C29.9531 71.3011 28.1747 69.2045 26.9247 66.4659C25.6747 63.7273 25.0554 60.4432 25.0668 56.6136C25.0781 52.7727 25.7031 49.5114 26.9418 46.8295C28.1918 44.1477 29.9645 42.108 32.2599 40.7102C34.5668 39.3125 37.3054 38.6136 40.4759 38.6136C43.6463 38.6136 46.3849 39.3182 48.6918 40.7273C50.9986 42.125 52.777 44.1648 54.027 46.8466C55.277 49.5284 55.8963 52.7841 55.8849 56.6136C55.8849 60.4659 55.2599 63.7614 54.0099 66.5C52.7599 69.2386 50.9815 71.3352 48.6747 72.7898C46.3793 74.233 43.6463 74.9545 40.4759 74.9545ZM40.4759 67.25C42.1122 67.25 43.4531 66.3977 44.4986 64.6932C45.5554 62.9773 46.0781 60.2841 46.0668 56.6136C46.0668 54.2159 45.8281 52.2557 45.3509 50.733C44.8736 49.2102 44.2145 48.0852 43.3736 47.358C42.5327 46.6193 41.5668 46.25 40.4759 46.25C38.8395 46.25 37.5043 47.0795 36.4702 48.7386C35.4361 50.3977 34.9077 53.0227 34.8849 56.6136C34.8736 59.0568 35.1065 61.0682 35.5838 62.6477C36.0611 64.2159 36.7202 65.375 37.5611 66.125C38.4134 66.875 39.3849 67.25 40.4759 67.25ZM60.3338 74V67.1818L73.3565 56.4091C74.2202 55.6932 74.9588 55.0227 75.5724 54.3977C76.1974 53.7614 76.6747 53.108 77.0043 52.4375C77.3452 51.767 77.5156 51.0227 77.5156 50.2045C77.5156 49.3068 77.3224 48.5398 76.9361 47.9034C76.5611 47.267 76.0384 46.7784 75.3679 46.4375C74.6974 46.0852 73.9247 45.9091 73.0497 45.9091C72.1747 45.9091 71.402 46.0852 70.7315 46.4375C70.0724 46.7898 69.5611 47.3068 69.1974 47.9886C68.8338 48.6705 68.652 49.5 68.652 50.4773H59.652C59.652 48.0227 60.2031 45.9091 61.3054 44.1364C62.4077 42.3636 63.9645 41 65.9759 40.0455C67.9872 39.0909 70.3452 38.6136 73.0497 38.6136C75.8452 38.6136 78.2656 39.0625 80.3111 39.9602C82.3679 40.8466 83.9531 42.0966 85.0668 43.7102C86.1918 45.3239 86.7543 47.2159 86.7543 49.3864C86.7543 50.7273 86.4759 52.0625 85.919 53.392C85.3622 54.7102 84.3622 56.1705 82.919 57.7727C81.4759 59.375 79.4247 61.2841 76.7656 63.5L73.4929 66.2273V66.4318H87.1293V74H60.3338Z" fill="white"/>
</svg>
