<svg width="21" height="20" viewBox="0 0 21 20" fill="none" xmlns="http://www.w3.org/2000/svg">
<path d="M10.0488 0C4.55625 0 0.0488281 4.50742 0.0488281 10C0.0488281 15.4926 4.55625 20 10.0488 20C15.5414 20 20.0488 15.4926 20.0488 10C20.0488 4.50742 15.5414 0 10.0488 0ZM11.2207 14.6875C11.2207 15.3335 10.6948 15.8594 10.0488 15.8594C9.40281 15.8594 8.87695 15.3335 8.87695 14.6875V8.82812C8.87695 8.18211 9.40281 7.65625 10.0488 7.65625C10.6948 7.65625 11.2207 8.18211 11.2207 8.82812V14.6875ZM10.0488 6.48438C9.40281 6.48438 8.87695 5.95852 8.87695 5.3125C8.87695 4.66648 9.40281 4.14062 10.0488 4.14062C10.6948 4.14062 11.2207 4.66648 11.2207 5.3125C11.2207 5.95852 10.6948 6.48438 10.0488 6.48438Z" fill="#F37A1D"/>
</svg>
