<svg width="44" height="44" viewBox="0 0 44 44" fill="none" xmlns="http://www.w3.org/2000/svg">
<g clip-path="url(#clip0_82_5771)">
<path d="M4.32886 38.3037H41.7603V40.9774H4.32886V38.3037Z" fill="#D3CECF"/>
<path d="M8.34235 38.3042V12.9043H11.016V38.3042H8.34235Z" fill="#998E8F"/>
<path d="M8.34235 38.3017V36.9648H11.016V38.3017H8.34235Z" fill="#8B7E7F"/>
<path d="M17.0313 8.89459C17.0313 12.9553 13.7394 16.2472 9.67871 16.2472C5.61804 16.2472 2.32611 12.9553 2.32611 8.89459C2.32611 4.83392 5.61804 1.54199 9.67871 1.54199C13.7394 1.54199 17.0313 4.83392 17.0313 8.89459Z" fill="#FF8660"/>
<path d="M15.0235 8.89324C15.0235 11.8464 12.6294 14.2406 9.6762 14.2406C6.72304 14.2406 4.32886 11.8464 4.32886 8.89324C4.32886 5.94009 6.72304 3.5459 9.6762 3.5459C12.6294 3.5459 15.0235 5.94009 15.0235 8.89324Z" fill="#F0EFEF"/>
<path d="M11.013 12.9028C8.05988 12.9028 5.66569 10.5086 5.66569 7.55544C5.66569 6.42023 6.02042 5.36842 6.62369 4.50293C5.23702 5.46875 4.32886 7.07399 4.32886 8.89227C4.32886 11.8454 6.72304 14.2396 9.6762 14.2396C11.4942 14.2396 13.0994 13.3315 14.0655 11.9448C13.2001 12.548 12.1482 12.9028 11.013 12.9028Z" fill="#D3CECF"/>
<path d="M16.3614 18.252H37.7508V38.3045H16.3614V18.252Z" fill="#d8b56c"/>
<path d="M16.3614 18.252H19.7035V38.3045H16.3614V18.252Z" fill="#C25400"/>
<path d="M29.0612 23.5993L27.0559 22.9309L25.0507 23.5993V18.252H29.0612V23.5993Z" fill="#FFBD85"/>
<path d="M19.0344 26.9414H27.0554V29.6151H19.0344V26.9414Z" fill="#F0EFEF"/>
<path d="M41.7596 37.6771H38.3758V18.2512C38.3758 17.905 38.0954 17.6245 37.7491 17.6245H16.3597C16.0135 17.6245 15.733 17.905 15.733 18.2512V37.6771H11.6391V16.6277C15.0926 15.7509 17.6549 12.6156 17.6549 8.89338C17.6549 4.49362 14.0753 0.914062 9.67555 0.914062C5.27578 0.914062 1.69623 4.49362 1.69623 8.89338C1.69623 12.6156 4.2585 15.7509 7.71199 16.6277V19.6158C7.71199 19.962 7.99245 20.2425 8.33871 20.2425C8.68497 20.2425 8.96544 19.962 8.96544 19.6158V16.8405C9.19932 16.8613 9.43613 16.8727 9.67555 16.8727C9.91497 16.8727 10.1515 16.8613 10.3857 16.8405V37.6771H8.96544V22.5126C8.96544 22.1663 8.68497 21.8858 8.33871 21.8858C7.99245 21.8858 7.71199 22.1663 7.71199 22.5126V37.6771H4.32821C3.98194 37.6771 3.70148 37.9578 3.70148 38.3038V40.9774C3.70148 41.3237 3.98194 41.6042 4.32821 41.6042H9.04883V42.9827C9.04883 43.329 9.32929 43.6094 9.67555 43.6094C10.0218 43.6094 10.3023 43.329 10.3023 42.9827V41.6042H35.7855V42.9827C35.7855 43.329 36.066 43.6094 36.4123 43.6094C36.7585 43.6094 37.039 43.329 37.039 42.9827V41.6042H41.7596C42.1059 41.6042 42.3863 41.3237 42.3863 40.9774V38.3038C42.3863 37.9578 42.1059 37.6771 41.7596 37.6771ZM2.94967 8.89338C2.94967 5.18451 5.96668 2.16751 9.67555 2.16751C13.3841 2.16751 16.4014 5.18451 16.4014 8.89338C16.4014 12.6019 13.3841 15.6193 9.67555 15.6193C5.96668 15.6193 2.94967 12.6019 2.94967 8.89338ZM28.4329 18.878V22.7292L27.2525 22.3357C27.1248 22.293 26.9841 22.293 26.8564 22.3357L25.6759 22.7292V18.878H28.4329ZM16.9865 18.878H24.4224V23.5986C24.4224 24.0188 24.8479 24.326 25.2472 24.1931L27.0544 23.5908L28.8616 24.1931C29.261 24.326 29.6864 24.0188 29.6864 23.5986V18.878H37.1224V37.6771H31.0232V34.4695L31.9588 35.405C32.2135 35.6597 32.6438 35.6428 32.8783 35.3689C33.0881 35.1236 33.0731 34.7467 32.8451 34.5187L30.8398 32.5134C30.5985 32.2721 30.1945 32.2721 29.9535 32.5134L27.9482 34.5187C27.7036 34.7633 27.7036 35.1601 27.9482 35.4047C28.1929 35.6493 28.5896 35.6493 28.8346 35.4047L29.7698 34.4695V37.6771H24.3391V34.4695L25.2746 35.405C25.5293 35.6597 25.9596 35.6428 26.1941 35.3689C26.4039 35.1236 26.3889 34.7467 26.1609 34.5187L24.1553 32.5134C23.9143 32.2721 23.5104 32.2721 23.2693 32.5134L21.2641 34.5187C21.0191 34.7633 21.0191 35.1601 21.2641 35.4047C21.5087 35.6493 21.9054 35.6493 22.1501 35.4047L23.0856 34.4695V37.6771H16.9865V18.878ZM41.1329 40.3507H4.95493V38.9305H41.1329V40.3507Z" fill="black"/>
<path d="M9.67707 2.91895C6.38286 2.91895 3.703 5.59881 3.703 8.89301C3.703 12.1869 6.38286 14.8671 9.67707 14.8671C12.971 14.8671 15.6511 12.1869 15.6511 8.89301C15.6511 5.59881 12.971 2.91895 9.67707 2.91895ZM9.67707 13.6136C7.07408 13.6136 4.95645 11.496 4.95645 8.89301C4.95645 6.29003 7.07408 4.17239 9.67707 4.17239C12.2801 4.17239 14.3977 6.29003 14.3977 8.89301C14.3977 11.496 12.2801 13.6136 9.67707 13.6136Z" fill="black"/>
<path d="M9.67602 6.84517H11.0129C11.3591 6.84517 11.6396 6.56438 11.6396 6.21844C11.6396 5.87218 11.3591 5.59172 11.0129 5.59172H10.3027V4.88161C10.3027 4.53534 10.0223 4.25488 9.67602 4.25488C9.32976 4.25488 9.0493 4.53534 9.0493 4.88161V5.69498C8.27306 5.95687 7.71246 6.69174 7.71246 7.55528C7.71246 8.63804 8.59326 9.51884 9.67602 9.51884C10.0676 9.51884 10.3861 9.83741 10.3861 10.229C10.3861 10.6205 10.0676 10.9391 9.67602 10.9391H8.33919C7.99293 10.9391 7.71246 11.2195 7.71246 11.5658C7.71246 11.912 7.99293 12.1925 8.33919 12.1925H9.0493V12.9026C9.0493 13.2489 9.32976 13.5293 9.67602 13.5293C10.0223 13.5293 10.3027 13.2489 10.3027 12.9026V12.0893C11.0787 11.827 11.6396 11.0925 11.6396 10.229C11.6396 9.14619 10.7588 8.26539 9.67602 8.26539C9.28448 8.26539 8.96591 7.94682 8.96591 7.55528C8.96591 7.16374 9.28448 6.84517 9.67602 6.84517Z" fill="black"/>
<path d="M27.683 29.6139V26.9402C27.683 26.5939 27.4026 26.3135 27.0563 26.3135H19.0353C18.689 26.3135 18.4086 26.5939 18.4086 26.9402V29.6139C18.4086 29.9601 18.689 30.2406 19.0353 30.2406H27.0563C27.4026 30.2406 27.683 29.9601 27.683 29.6139ZM26.4296 28.9871H19.662V27.5669H26.4296V28.9871Z" fill="black"/>
</g>
<defs>
<clipPath id="clip0_82_5771">
<rect width="42.6954" height="42.6954" fill="white" transform="translate(0.612793 0.914062)"/>
</clipPath>
</defs>
</svg>
