<svg width="18" height="18" viewBox="0 0 18 18" fill="none" xmlns="http://www.w3.org/2000/svg">
<g clip-path="url(#clip0_3446_35444)">
<path d="M17.7363 3.34722L12.0825 9.00103L17.7363 14.6548L16.9906 15.4008L7.42676 9.00103L16.9906 2.60156L17.7363 3.34722Z" fill="#BC9C00"/>
<path d="M16.9906 2.60245L10.5908 9.00192L16.9906 15.4017L14.6538 17.7382L8.99997 12.0844L3.34616 17.7382L0.263672 14.6557L5.91748 9.00192L0.263672 3.34811L3.34616 0.265625L8.99997 5.91943L14.6538 0.265625L16.9906 2.60245Z" fill="#F37A1D"/>
<path d="M12.4554 8.99996L17.9227 3.53266C18.0257 3.42965 18.0257 3.26273 17.9227 3.15976L14.8402 0.077238C14.7907 0.0277733 14.7237 0 14.6538 0C14.5838 0 14.5168 0.0277733 14.4673 0.0772028L8.99996 5.54454L3.5327 0.077238C3.42969 -0.0256991 3.26277 -0.0256991 3.1598 0.077238L0.077238 3.15976C0.0277733 3.20923 0 3.2763 0 3.34623C0 3.41615 0.0277733 3.4832 0.0772028 3.5327L5.54458 8.99996L3.27697 11.2675C3.174 11.3705 3.174 11.5374 3.27697 11.6404C3.37994 11.7433 3.54686 11.7434 3.64987 11.6404L6.10391 9.1864C6.15334 9.13693 6.18111 9.06989 6.18111 8.99993C6.18111 8.92997 6.15334 8.86296 6.10391 8.81346L0.636572 3.34623L3.34623 0.636572L8.81353 6.10391C8.91654 6.20685 9.08346 6.20685 9.18643 6.10391L14.6538 0.636572L17.3634 3.34623L11.8961 8.81353C11.7931 8.91654 11.7931 9.08346 11.8961 9.18643L17.3634 14.6537L14.6538 17.3634L9.18643 11.8961C9.08342 11.7931 8.9165 11.7931 8.81353 11.8961L3.34623 17.3634L0.636572 14.6537L2.90414 12.3862C3.00711 12.2832 3.00711 12.1163 2.90414 12.0133C2.8011 11.9103 2.63418 11.9104 2.53124 12.0133L0.077238 14.4673C-0.0257343 14.5703 -0.0257343 14.7372 0.077238 14.8402L3.1598 17.9227C3.2113 17.9742 3.2788 17.9999 3.34626 17.9999C3.41373 17.9999 3.48123 17.9742 3.53273 17.9227L8.99996 12.4554L14.4673 17.9227C14.5168 17.9722 14.5838 17.9999 14.6538 17.9999C14.7237 17.9999 14.7907 17.9722 14.8402 17.9227L17.9228 14.8402C18.0257 14.7372 18.0257 14.5702 17.9228 14.4673L12.4554 8.99996Z" fill="#18365a"/>
</g>
<defs>
<clipPath id="clip0_3446_35444">
<rect width="18" height="18" fill="white"/>
</clipPath>
</defs>
</svg>
