<svg width="72" height="97" viewBox="0 0 72 97" fill="none" xmlns="http://www.w3.org/2000/svg">
<path fill-rule="evenodd" clip-rule="evenodd" d="M0 35.1296C0 15.7591 15.9382 7.62939e-06 35.5291 7.62939e-06C55.1197 7.62939e-06 71.0578 15.7591 71.0581 35.1296C71.0581 59.1689 39.2631 94.4601 37.9094 95.9507C36.6402 97.3485 34.4202 97.351 33.1487 95.9507C31.795 94.4601 0 59.1689 0 35.1296ZM30.9413 41.3579L26.5284 33.1246L28.6435 29.1787H28.9137C26.722 27.9102 24.5946 26.5373 22.5694 25.0086C22.4806 24.9512 22.3919 24.886 22.2998 24.814H12.4074V13.5349H58.6515V24.814H48.7635C48.6551 24.901 48.5476 24.9834 48.4353 25.0613C46.4798 26.5478 44.4263 27.9203 42.2985 29.1787H42.5847L44.6998 33.1246L40.2869 41.3579L47.9864 64.8088L47.8786 65.0061L35.6141 88.2988L23.3838 64.8088L30.9413 41.3579Z" fill="url(#paint0_linear_1022_33665)"/>
<defs>
<linearGradient id="paint0_linear_1022_33665" x1="0" y1="48.5" x2="71.054" y2="48.5" gradientUnits="userSpaceOnUse">
<stop stop-color="#CBAC6B"/>
<stop offset="0.02" stop-color="#CBAC6B"/>
<stop offset="0.2" stop-color="#DDBC57"/>
<stop offset="0.46" stop-color="#DDBC57"/>
<stop offset="0.73" stop-color="#D7B56E"/>
<stop offset="1" stop-color="#D7B05D"/>
</linearGradient>
</defs>
</svg>
